<svg width="1491" height="2109" viewBox="0 0 1491 2109" fill="none" xmlns="http://www.w3.org/2000/svg">
<path id="body_plate" d="M745.525 126.354C750.618 125.907 755.608 125.883 760.495 126.283C773.485 127.353 786.045 129.964 797.405 136.184C813.755 145.134 826.655 157.294 833.595 175.264C834.142 176.671 835.299 180.511 837.065 186.783C838.318 191.23 839.108 195.13 839.435 198.483C840.695 211.67 840.635 224.651 839.255 237.424C839.237 237.588 839.258 237.755 839.317 237.909C839.376 238.064 839.471 238.202 839.594 238.313C839.718 238.423 839.866 238.503 840.026 238.545C840.186 238.587 840.354 238.59 840.515 238.554L846.555 237.243C847.006 237.146 847.474 237.149 847.924 237.251C848.375 237.353 848.799 237.551 849.166 237.833C856.135 243.203 857.225 250.723 856.115 259.503C855.481 264.536 854.429 270.21 852.956 276.524C851.469 282.877 847.972 290.097 842.465 298.184C842.28 298.455 842.05 298.698 841.785 298.903C838.445 301.513 835.165 302.724 833.495 307.174C832.261 310.447 831.599 312.421 831.505 313.094C830.465 320.593 829.445 324.333 827.795 332.503C827.042 336.23 826.599 340.15 826.465 344.264C825.999 358.537 825.795 369.694 825.855 377.733C825.895 382.713 827.599 386.83 830.965 390.083C836.165 395.123 843.765 398.804 850.695 401.634C869.195 409.224 882.945 415.264 897.735 424.064C903.805 427.674 910.345 433.043 916.605 437.293C917.685 438.026 918.929 438.891 920.336 439.884C926.055 443.924 932.412 446.7 939.405 448.213C938.683 448.481 937.929 448.74 937.141 448.991C941.685 449.736 946.216 450.52 950.859 451.07C962.817 452.479 976.855 454.946 987.711 459.411C1006.58 467.169 1021.85 478.587 1033.52 493.664C1048.43 512.953 1059.82 536.239 1063.46 560.223C1064.69 568.32 1065.18 576.924 1064.93 586.034C1064.74 592.873 1064.59 599.699 1064.48 606.512C1064.37 613.105 1064.48 617.953 1064.78 621.057L1064.23 630.196L1058.89 641.425C1058.82 641.57 1058.71 641.694 1058.57 641.783C1058.44 641.873 1058.27 641.925 1058.11 641.934L1051.53 642.29L1051.77 642.424L1058.61 642.033C1058.77 642.024 1058.93 641.973 1059.06 641.883C1059.19 641.793 1059.3 641.669 1059.36 641.524L1064.44 630.283L1064.98 621.134L1065.77 624.653L1066.26 626.023C1068.73 632.859 1071.52 639.593 1074.64 646.224C1075.91 648.937 1077.94 654.637 1080.73 663.323C1082.05 667.437 1083.74 675.2 1085.78 686.613C1086.68 691.607 1087.4 698.961 1087.92 708.674C1088.63 722.093 1089.54 732.383 1090.65 739.543C1092.39 750.756 1095.9 760.713 1101.19 769.413C1108.12 780.819 1112.91 788.85 1115.57 793.503C1122.2 805.093 1129.78 819.713 1134.19 833.583C1138.61 847.523 1141.49 861 1142.81 874.014C1144.21 887.8 1145.34 900.047 1146.22 910.753C1147.01 920.413 1148.07 928.953 1149.4 936.373C1152.51 953.806 1154.43 964.096 1155.17 967.243C1159.2 984.45 1164.35 1003.35 1170.61 1023.94C1172.53 1030.24 1176.09 1034.76 1181.28 1037.52C1186.2 1040.13 1193 1044 1201.68 1049.13C1206.96 1052.26 1211.91 1056.22 1216.53 1061.01C1218.73 1063.29 1222.57 1068.48 1228.05 1076.58C1229.91 1079.34 1233.41 1084.74 1238.57 1092.79C1241.07 1096.68 1245.77 1101.9 1252.67 1108.45C1255.91 1111.53 1256.54 1116.75 1252.35 1119.44C1243.81 1124.94 1234.93 1119.19 1227.18 1113.73C1222.94 1110.73 1220.05 1106.31 1215.99 1101.83C1213.69 1099.29 1211.67 1097.39 1209.94 1096.13C1209.71 1095.96 1209.42 1095.85 1209.13 1095.82C1208.83 1095.8 1208.53 1095.85 1208.27 1095.98C1208 1096.11 1207.77 1096.31 1207.61 1096.56C1207.45 1096.82 1207.36 1097.11 1207.35 1097.4C1207.29 1098.96 1207.53 1100.58 1208.07 1102.24C1210.8 1110.79 1212.89 1120.54 1215.27 1128.2C1219.64 1142.22 1222.12 1150.08 1222.7 1151.76C1226.49 1162.74 1229.21 1173.64 1233.52 1187.81C1233.78 1188.63 1234.17 1190.74 1234.69 1194.12C1235.49 1199.25 1233.61 1203.91 1229.28 1206.54C1225.19 1209.03 1220.97 1208.18 1218.57 1204.24C1216.47 1200.79 1214.51 1196.42 1212.7 1191.12C1210.98 1186.09 1207.69 1175.78 1202.81 1160.18C1200.73 1153.52 1198.26 1148.34 1194.99 1143.3C1194.52 1142.56 1194.21 1142.15 1194.06 1142.06C1193.97 1142.01 1193.86 1141.98 1193.76 1141.99C1193.66 1141.99 1193.55 1142.02 1193.47 1142.08C1193.38 1142.14 1193.32 1142.22 1193.28 1142.32C1193.24 1142.42 1193.23 1142.52 1193.24 1142.62C1194.91 1152.61 1197.69 1165.09 1201.15 1177.07C1204.59 1188.98 1207.68 1201.49 1210.42 1214.6C1211.67 1220.56 1211.77 1223.99 1205.49 1226.96C1201.07 1229.05 1197.33 1227.93 1194.27 1223.6C1192.33 1220.85 1190.85 1218.14 1189.85 1215.46C1183.06 1197.48 1177.59 1174.31 1169.14 1155.92C1168.86 1155.3 1168.57 1154.86 1168.27 1154.59C1168.17 1154.51 1168.05 1154.45 1167.92 1154.44C1167.8 1154.42 1167.67 1154.45 1167.56 1154.51C1167.44 1154.57 1167.35 1154.66 1167.29 1154.77C1167.24 1154.89 1167.22 1155.02 1167.23 1155.14C1169.31 1167.72 1171.76 1178.93 1174.57 1188.79C1176.76 1196.43 1177.59 1200.73 1179.68 1209.1C1181.29 1215.58 1182.64 1221.82 1175.57 1224.68C1170.89 1226.57 1164.7 1223.89 1163.05 1218.71C1160.57 1210.91 1158.79 1205.58 1157.7 1202.72C1156.62 1199.88 1155.62 1196.57 1154.7 1192.79C1153.82 1189.16 1151.45 1181.53 1150.05 1175.55C1148.57 1169.16 1145.78 1163.32 1143.85 1157.63C1143.81 1157.52 1143.74 1157.42 1143.65 1157.35C1143.57 1157.27 1143.46 1157.23 1143.34 1157.21C1143.23 1157.19 1143.11 1157.21 1143 1157.25C1142.9 1157.3 1142.8 1157.37 1142.73 1157.46C1141.96 1158.51 1142.35 1160.63 1142.73 1162.61C1143.01 1164.03 1143.16 1165.35 1143.19 1166.56C1143.31 1170.64 1143.78 1174.54 1144.61 1178.24C1146.09 1184.85 1146.16 1190.44 1147.23 1196.67C1148.12 1201.81 1147.55 1205.69 1142.45 1207.23C1136.92 1208.89 1133.69 1204.9 1131.95 1200.15C1130.03 1194.89 1128.61 1189.6 1127.7 1184.26C1125.98 1174.1 1124.05 1168.5 1121.18 1157.33C1117.98 1144.86 1113.5 1132.35 1109.14 1121.21C1106.49 1114.44 1104.08 1105.24 1103.11 1096.54C1101.83 1085.15 1100.36 1078.35 1101.67 1070.19C1102.3 1066.21 1102.53 1063.31 1102.36 1061.47C1101.5 1052.28 1098.72 1043.31 1094.02 1034.56C1084.03 1015.96 1073.18 998.13 1061.48 981.064C1055.42 972.224 1051.43 966.283 1049.51 963.243C1040.9 949.653 1029.69 934.294 1022.73 920.854C1018.51 912.694 1014.88 903.914 1011.84 894.514C1011.18 892.487 1009.78 887.117 1007.64 878.403C1003.47 861.503 999.225 843.554 996.355 827.734C996.195 826.855 996.101 825.965 996.075 825.073C995.701 814.6 993.735 805.967 990.175 799.174C986.015 791.214 980.878 782.02 974.765 771.594C966.405 757.324 961.116 741.464 956.666 725.894C956.066 723.767 955.149 721.86 953.916 720.174C953.803 720.021 953.651 719.901 953.476 719.828C953.301 719.755 953.11 719.73 952.922 719.757C952.735 719.784 952.558 719.861 952.411 719.98C952.263 720.099 952.151 720.256 952.086 720.434C948.556 730.144 946.175 738.103 942.645 745.833C940.115 751.343 936.395 760.063 932.735 766.613C926.548 777.667 922.008 786.44 919.115 792.934C917.315 796.974 915.925 802.693 915.745 807.623C915.331 818.97 915.519 828.703 916.305 836.823C916.792 841.83 917.845 849.104 919.465 858.644C920.292 863.524 920.835 867.661 921.095 871.054C922.015 883.164 922.915 892.174 921.595 903.064C920.869 909.01 920.385 912.674 920.145 914.054C919.352 918.487 919.195 922.727 919.675 926.774C920.182 931.08 921.225 935.204 922.805 939.144C922.517 939.529 922.223 939.908 921.926 940.282C922.818 942.004 923.426 943.293 923.746 944.151C928.25 956.122 931.897 966.793 934.686 976.163C937.079 984.204 938.678 991.536 939.485 998.16C940.479 1006.35 940.623 1010.19 942.212 1017.5C945.729 1033.6 949.862 1049.46 953.492 1063.61C954.695 1068.31 955.922 1073.7 957.172 1079.77C958.762 1087.43 960.177 1094.66 961.244 1101.54C963.664 1117.2 966.791 1132.54 968.996 1148.32C966.494 1146.26 964.343 1144.47 962.544 1142.93C964.369 1144.54 966.586 1146.45 969.195 1148.65L973.935 1176.42C975.302 1181.81 976.242 1186.53 976.755 1190.57C977.309 1194.95 978.011 1201.78 978.865 1211.06C979.505 1218.1 979.955 1224.95 980.215 1231.61C981.115 1255.04 980.968 1278.93 979.775 1303.29C979.428 1310.31 978.998 1315.69 978.485 1319.43C977.475 1326.8 977.255 1333.31 975.735 1340.89C972.962 1354.71 969.112 1367.91 964.185 1380.51C961.385 1387.67 958.223 1395.06 954.698 1402.68L953.166 1405.96L952.448 1407.64C948.945 1416.02 946.686 1424.35 946.405 1433.47C946.265 1438.16 945.925 1442.67 945.985 1447.27C946.338 1475.67 946.662 1494.51 946.956 1503.81C947.089 1508.08 947.896 1513.91 949.376 1521.29C950.829 1528.51 953.859 1540.81 958.465 1558.18C960.632 1566.34 962.122 1572.38 962.935 1576.32C964.525 1583.96 966.605 1592.12 967.965 1600.75C970.705 1618.21 971.625 1635.18 969.295 1652.1C968.245 1659.71 966.945 1668.28 965.425 1675.9C958.879 1708.71 952.581 1740.87 946.535 1772.37C941.435 1798.96 937.848 1818.51 935.775 1831.03C934.582 1838.22 933.355 1847.9 932.095 1860.08C931.225 1868.4 932.955 1875.08 935.445 1884.1C936.735 1888.78 937.165 1895.17 936.615 1901.08C935.995 1907.76 934.915 1912.88 938.695 1918.09C943.502 1924.72 949.319 1932.92 956.145 1942.7C965.545 1956.17 977.125 1965.37 990.565 1975.9C992.335 1977.29 993.346 1978.62 995.126 1980.72C1000.07 1986.54 1001.46 1993.02 999.315 2000.17C998.275 2003.66 992.656 2005.15 989.206 2006.38C984.676 2008 979.985 2008.6 975.376 2009.88C973.796 2010.32 971.528 2010.71 968.575 2011.05C960.195 2012.03 951.995 2014.3 943.245 2014.07C939.618 2013.97 937.145 2014.09 935.825 2014.41C925.435 2016.95 914.905 2017.82 904.815 2013.26C895.865 2009.23 883.486 2001.48 880.755 1991.6C879.765 1988.01 878.925 1982.81 875.445 1980.77C874.251 1980.07 871.378 1978.42 866.825 1975.83C860.985 1972.51 857.632 1967.35 856.765 1960.34C856.719 1959.97 856.722 1959.59 856.775 1959.21C857.088 1956.98 857.389 1953.69 857.675 1949.35C858.095 1942.96 859.565 1935.86 860.755 1931.07C862.925 1922.29 862.375 1913.79 860.825 1904.57C859.625 1897.44 859.428 1890.55 860.235 1883.9C860.875 1878.62 863.985 1871.8 864.965 1867.31C866.752 1859.12 867.532 1851.96 867.305 1845.83C867.015 1838.16 865.835 1829.03 863.765 1820.02C862.492 1814.46 861.081 1808.61 859.535 1802.47C855.315 1785.7 853.112 1776.9 852.925 1776.08C848.492 1757.24 844.778 1742.22 841.785 1731.02C837.495 1714.98 830.155 1697.8 825.045 1684.27C822.225 1676.79 819.906 1669.17 818.086 1661.4C817.212 1657.68 816.598 1653.52 816.245 1648.92C815.785 1642.86 815.618 1638.66 815.745 1636.32C816.035 1631.24 816.685 1622.15 817.965 1613.78C819.572 1603.26 821.118 1594.45 822.605 1587.35C823.718 1582.06 824.879 1575.93 826.086 1568.97C826.512 1566.52 827.475 1558.81 828.975 1545.83C829.815 1538.59 829.226 1531.78 827.206 1525.39C824.836 1517.9 820.375 1508.74 817.285 1500.65C813.285 1490.19 809.962 1479.76 807.315 1469.34C802.248 1449.42 798.778 1433.07 796.905 1420.27C795.025 1407.45 793.602 1397.14 792.635 1389.34C791.709 1381.9 791.122 1376.99 790.876 1374.62C789.516 1361.74 788.545 1355.84 786.095 1338.69C785.155 1332.14 783.855 1326.7 782.255 1320.83C776.262 1298.81 771.849 1281.23 769.015 1268.08C766.895 1258.25 764.575 1244.42 762.055 1226.58C760.355 1214.47 760.195 1203.63 758.845 1191.47C758.525 1188.6 758.325 1185 758.245 1180.67C757.965 1166.57 758.546 1152.68 759.086 1136.82C759.159 1134.7 758.329 1133.34 756.595 1132.74C753.585 1131.71 743.926 1130.55 744.376 1136.08C746.336 1160 746.022 1184.41 743.435 1209.32C742.528 1218.06 741.558 1227.06 740.525 1236.32C740.332 1238.02 739.222 1244.84 737.195 1256.77C736.035 1263.59 734.688 1270.36 733.155 1277.09C729.008 1295.28 726.365 1306.19 725.225 1309.82C722.478 1318.58 720.556 1327.24 719.456 1335.8C718.409 1343.9 717.469 1350.09 716.635 1354.39C715.905 1358.09 715.785 1363.22 715.275 1366.07C713.725 1374.69 713.295 1382.06 712.035 1390.38C711.095 1396.52 710.408 1400.8 709.975 1403.22C709.035 1408.52 708.328 1412.79 707.855 1416.03C704.925 1436.13 701.215 1456.75 695.285 1475.64C690.458 1491.02 686.928 1501.42 684.695 1506.82C680.728 1516.44 677.768 1524.21 675.815 1530.14C675.082 1532.36 674.705 1535.25 674.685 1538.83C674.615 1551.24 676.565 1560.82 679.145 1574.83C681.278 1586.4 682.885 1595.05 683.965 1600.79C685.275 1607.73 685.975 1613.69 686.895 1621.15C689.008 1638.41 688.062 1654.5 684.055 1669.42C682.329 1675.88 679.475 1684.1 675.495 1694.1C671.395 1704.43 668.302 1713.07 666.215 1720.01C658.325 1746.28 652.435 1769.01 642.265 1808.56C641.475 1811.63 640.945 1814.89 640.175 1817.96C638.905 1822.95 638.675 1828.27 637.795 1833.3C635.176 1848.41 636.795 1863.72 642.185 1877.74C644.465 1883.65 643.956 1891.98 642.876 1897.49C641.102 1906.53 640.465 1915.16 640.965 1923.37C641.165 1926.6 641.895 1930.71 643.155 1935.69C644.275 1940.11 645.269 1946 646.135 1953.35C647.349 1963.58 643.852 1971.46 635.645 1976.98C631.655 1979.66 627.665 1981.64 625.345 1985.08C625.126 1985.41 624.951 1985.76 624.825 1986.12C622.855 1991.82 620.375 1997.87 615.515 2001.81C609.829 2006.43 604.792 2009.9 600.405 2012.22C598.725 2013.12 595.125 2014.28 589.605 2015.72C582.015 2017.69 572.815 2016.22 565.135 2014.49C564.137 2014.27 563.117 2014.13 562.086 2014.08C548.679 2013.47 535.392 2011.63 522.225 2008.55C517.165 2007.38 511.625 2005.27 507.365 2002.56C506.092 2001.75 505.239 2000.5 504.805 1998.8C502.235 1988.75 506.436 1983.85 512.956 1977.05C514.456 1975.49 517.952 1972.57 523.445 1968.31C533.275 1960.7 540.335 1953.76 548.425 1943.68C551.039 1940.42 553.745 1936.26 556.545 1931.22C558.992 1926.82 562.046 1922.01 565.706 1916.8C567.746 1913.9 567.985 1910.74 567.555 1906.71C566.975 1901.19 566.075 1896.5 566.515 1891.51C567.082 1885.1 568.408 1878.9 570.495 1872.9C571.648 1869.62 572.099 1865.6 571.845 1860.85C571.385 1852.06 570.435 1843.38 568.525 1833.2C565.898 1819.13 563.885 1807.96 562.485 1799.69C561.875 1796.09 560.545 1791.38 560.185 1787.26C559.998 1785.04 559.715 1783.17 559.336 1781.67C558.096 1776.71 557.576 1771.19 556.416 1765.56C555.022 1758.78 553.982 1753.4 553.295 1749.43C552.002 1741.96 551.011 1736.58 550.325 1733.3C546.965 1717.26 544.319 1704.27 542.385 1694.32C540.965 1687.02 539.721 1679.82 538.655 1672.7C537.262 1663.36 536.538 1658.54 536.485 1658.24C534.045 1644.71 534.175 1632.13 534.895 1617.63C535.055 1614.38 535.492 1610.87 536.206 1607.11C536.386 1606.17 536.879 1602.67 537.685 1596.62C538.192 1592.78 539.248 1587.15 540.855 1579.73C541.848 1575.15 543.241 1569.59 545.035 1563.07C549.135 1548.21 552.362 1535.64 554.715 1525.36C556.462 1517.72 557.388 1508.7 557.495 1498.32C557.595 1488.34 557.945 1473.09 558.545 1452.57C558.825 1442.91 558.638 1432.74 557.985 1422.07C557.892 1420.51 556.918 1416.88 555.065 1411.18C553.938 1409.06 552.715 1406.62 551.395 1403.84C547.828 1396.33 544.022 1387.59 539.975 1377.62C537.029 1370.36 534.165 1361.34 531.385 1350.55C530.499 1347.1 529.816 1343.78 529.336 1340.58C528.605 1335.69 527.335 1331.69 527.135 1327.2C526.775 1319.24 525.125 1310.52 524.675 1301.65C523.782 1284.3 523.376 1271.36 523.456 1262.82C523.509 1256.27 523.945 1243.62 524.765 1224.88C525.095 1217.51 526.526 1209.28 526.876 1202.36C527.236 1195.17 528.775 1189.08 530.005 1180.84C530.332 1178.6 530.935 1176.63 531.815 1174.95L535.655 1149.67C535.996 1149.35 536.33 1149.02 536.661 1148.71C536.44 1148.91 536.22 1149.12 535.996 1149.32C536.582 1142.98 537.172 1138.42 537.765 1135.63C539.639 1126.74 540.788 1116.13 542.185 1108.88C544.041 1099.21 545.866 1089.58 547.66 1080C548.308 1076.57 548.975 1073.71 549.658 1071.43C550.776 1067.66 551.149 1064.17 552.194 1059.98C557.093 1040.48 559.845 1029.37 560.453 1026.67C562.129 1019.13 564.004 1008.46 566.074 994.671C566.812 989.758 567.916 984.934 569.385 980.2C573.566 966.688 578.339 953.259 583.701 939.913C583.246 939.32 582.801 938.716 582.365 938.104C584.718 932.024 585.842 925.71 585.735 919.163C585.702 917.077 585.152 913.373 584.086 908.054C582.359 899.474 581.758 891.313 582.285 883.573C582.685 877.68 582.952 873.661 583.086 871.514C583.272 868.434 583.845 864.46 584.805 859.594C587.465 846.041 588.932 831.614 589.206 816.314C589.336 809.434 589.305 801.423 586.795 795.153C584.369 789.08 582.162 784.574 580.175 781.634C571.482 768.774 564.442 755.323 559.055 741.283C555.355 731.654 553.225 724.624 551.565 722.514C551.482 722.409 551.378 722.324 551.259 722.264C551.14 722.204 551.01 722.17 550.877 722.165C550.743 722.16 550.611 722.185 550.488 722.236C550.365 722.288 550.255 722.366 550.166 722.464C549.126 723.611 548.325 724.98 547.765 726.573C545.725 732.427 543.685 738.263 541.645 744.083C536.295 759.383 528.955 772.933 520.685 787.253C517.638 792.526 515.208 797.677 513.395 802.703C512.022 806.496 510.962 811.027 510.215 816.293C509.522 821.206 508.858 825.83 508.225 830.163C507.779 833.23 507.365 835.477 506.985 836.903C506.185 839.943 505.765 842.883 505.015 845.823C501.135 860.983 498.395 871.727 496.795 878.054C495.509 883.12 494.322 887.227 493.235 890.373C491.435 895.563 489.986 901.064 487.706 906.604C480.026 925.294 469.475 941.374 457.405 958.724C447.865 972.43 440.475 983.2 435.235 991.033C424.848 1006.57 414.878 1024.45 405.325 1044.66C404.785 1045.81 403.499 1049.11 401.465 1054.56C399.315 1060.35 400.795 1066.94 401.785 1072.66C402.131 1074.7 402.286 1077.14 402.246 1079.99C402.072 1091.64 400.385 1102.59 397.185 1112.85C393.852 1123.56 391.532 1131.08 390.225 1135.42C388.405 1141.51 386.535 1145.18 384.765 1151.03C380.305 1165.72 376.682 1180.76 373.895 1196.15C372.845 1201.95 367.205 1210.66 360.215 1207.31C356.346 1205.45 355.625 1202.79 355.805 1198.42C356.079 1191.92 356.299 1188.05 356.465 1186.82C356.839 1184.08 357.875 1178.3 359.575 1169.46C360.485 1164.76 360.565 1160.03 359.885 1156.64C359.792 1156.16 359.622 1155.85 359.376 1155.71C359.24 1155.64 359.088 1155.6 358.931 1155.59C358.775 1155.59 358.617 1155.62 358.47 1155.69C358.324 1155.75 358.192 1155.85 358.084 1155.98C357.975 1156.11 357.894 1156.25 357.845 1156.41C355.532 1163.99 353.842 1170.92 352.775 1177.21C351.265 1186.12 347.585 1196.3 346.215 1205.37C345.675 1208.98 344.335 1212.32 343.185 1216.49C342.085 1220.51 339.885 1225.33 334.735 1225.47C331.142 1225.57 327.838 1224.68 324.825 1222.8C324.324 1222.49 323.926 1222.04 323.68 1221.51C323.435 1220.97 323.353 1220.37 323.445 1219.79C323.835 1217.37 324.225 1215.47 324.365 1212.48C324.591 1207.48 324.945 1204.07 325.425 1202.25C327.005 1196.2 329.025 1189.96 330.675 1182.98C332.449 1175.45 333.712 1170.56 334.465 1168.31C334.525 1168.12 334.561 1167.92 334.575 1167.72L334.965 1159.64C334.969 1159.54 334.942 1159.44 334.886 1159.36C334.831 1159.27 334.75 1159.21 334.656 1159.17C334.561 1159.13 334.458 1159.12 334.359 1159.15C334.26 1159.17 334.171 1159.23 334.105 1159.3C333.292 1160.26 332.592 1161.43 332.005 1162.82C330.035 1167.53 328.335 1170.82 327.005 1175.63C324.075 1186.24 318.585 1205.65 313.005 1220.53C311.672 1224.07 309.245 1226.36 305.725 1227.38C301.445 1228.63 297.655 1226.68 295.095 1223.62C294.75 1223.22 294.53 1222.72 294.465 1222.19C293.825 1217.31 294.846 1212.88 295.956 1207.71C296.656 1204.43 297.358 1201.48 298.065 1198.84C300.545 1189.64 302.375 1181.97 303.555 1175.83C304.455 1171.17 305.672 1166.28 307.206 1161.18C309.379 1153.98 310.555 1148.55 310.735 1144.87C310.754 1144.49 310.626 1144.12 310.376 1143.82L309.475 1142.75C309.4 1142.67 309.3 1142.6 309.189 1142.57C309.078 1142.54 308.96 1142.54 308.85 1142.58C308.741 1142.62 308.645 1142.69 308.575 1142.78C308.504 1142.87 308.463 1142.98 308.456 1143.09C308.315 1145.52 306.446 1148.19 305.416 1150.65C301.449 1160.11 297.755 1171.22 294.336 1183.98C292.756 1189.85 290.888 1195.05 288.735 1199.58C285.705 1205.97 276.166 1211.67 271.416 1202.69C268.456 1197.11 270.766 1187.15 272.706 1180.94C276.106 1170.09 278.402 1162.81 279.595 1159.1C287.645 1134.17 292.935 1119.44 295.655 1099.07C295.881 1097.33 295.118 1096.22 293.365 1095.72C291.805 1095.27 290.365 1096.75 289.505 1097.83C283.646 1105.2 280.149 1109.45 279.015 1110.57C273.605 1115.95 265.995 1120.94 258.005 1121.2C253.945 1121.33 250.822 1119.6 248.635 1116.02C246.955 1113.27 248.925 1111.03 250.855 1108.92C253.305 1106.23 257.215 1103.6 259.605 1100.35C261.592 1097.67 264.395 1094.06 268.015 1089.52C271.165 1085.58 274.525 1079.68 276.565 1076.63C282.072 1068.38 286.552 1062.36 290.005 1058.57C292.796 1055.51 298.775 1051.63 303.595 1048.98C313.789 1043.38 321.332 1038.99 326.225 1035.82C333.905 1030.85 334.285 1020.56 336.785 1012.66C342.131 995.783 346.778 978.366 350.725 960.413C352.205 953.643 352.725 948.743 353.845 943.663C355.025 938.343 355.065 933.053 356.325 927.443C356.738 925.617 357.025 923.45 357.185 920.943C357.832 910.63 358.329 903.757 358.675 900.323C359.522 891.91 360.058 885.673 360.285 881.613C360.705 874.324 362.035 868.694 362.545 862.844C362.832 859.544 363.679 855.24 365.086 849.934C367.215 841.874 368.205 835.854 370.925 829.224C374.339 820.884 378.472 812.367 383.325 803.674C390.411 790.987 396.591 780.577 401.865 772.443C407.885 763.143 411.986 752.937 414.166 741.823C415.759 733.703 416.628 726.43 416.775 720.003C417.045 708.233 418.385 698.833 419.275 687.354C419.515 684.254 420.018 680.807 420.785 677.014C421.995 671.074 422.285 668.413 423.985 663.443C427.178 654.097 431.009 644.98 435.475 636.094C437.185 632.704 438.415 629.213 439.755 625.613C441.669 629.313 443.332 632.97 444.746 636.583C445.539 638.636 446.596 640.287 447.916 641.533C448.395 641.986 448.985 642.304 449.627 642.453C450.268 642.603 450.937 642.579 451.565 642.384C451.954 642.264 452.341 642.14 452.726 642.015C452.568 642.062 452.41 642.111 452.251 642.157C451.583 642.352 450.872 642.376 450.19 642.227C449.508 642.077 448.88 641.76 448.371 641.308C446.967 640.061 445.843 638.41 445 636.357C443.497 632.743 441.729 629.086 439.695 625.386C440.382 622.519 440.669 619.672 440.555 616.846C440.378 612.212 439.992 604.095 439.397 592.494C438.851 581.747 438.861 573.776 439.428 568.582C440.981 554.314 444.595 541.48 450.273 530.079C455.515 519.558 460.949 509.428 467.913 498.887C470.62 494.787 472.799 491.836 474.451 490.036C488.687 474.565 508.623 461.455 529.781 455.864C539.605 453.271 548.366 451.501 556.064 450.554C561.17 449.92 566.346 449.892 571.333 449.276C570.718 449.05 570.112 448.813 569.515 448.564C574.049 446.63 578.142 444.316 581.795 441.623C584.356 439.73 589.369 436.124 596.836 430.804C603.155 426.304 608.318 422.93 612.325 420.684C626.695 412.604 644.725 406.034 656.885 400.974C663.998 398.007 669.895 394.49 674.575 390.424C677.521 387.871 679.192 384.067 679.586 379.014C680.412 368.374 680.238 355.62 679.065 340.753C678.275 330.633 675.335 319.593 672.535 310.073C671.775 307.493 670.889 305.496 669.876 304.083C668.396 302.033 663.565 300.214 661.865 297.974C657.298 291.907 653.628 285.166 650.855 277.753C650.623 277.136 650.475 276.49 650.416 275.833C650.136 272.88 649.332 268.556 648.005 262.863C647.259 259.657 646.961 255.646 647.115 250.833C647.268 245.933 648.885 242.067 651.965 239.233C655.575 235.924 659.295 237.494 663.195 239.424C663.436 239.544 663.715 239.566 663.973 239.488C664.231 239.41 664.451 239.237 664.586 239.003C665.125 238.076 665.368 236.933 665.315 235.573C664.842 224.407 664.615 217.657 664.635 215.323C664.685 210.323 664.965 201.064 666.535 193.594C667.528 188.881 668.299 185.567 668.845 183.653C671.425 174.574 675.079 166.734 679.805 160.134C681.972 157.101 685.662 153.043 690.876 147.963C701.535 137.553 715.906 130.893 730.635 128.003C732.775 127.583 737.739 127.034 745.525 126.354ZM650.173 1457.18V1457.18V1457.18ZM670.586 1455.57H670.587H670.586ZM695.865 1422.75V1422.75V1422.75ZM602.437 1371.78V1371.78V1371.78ZM596.042 1361.91V1361.91V1361.91ZM625.456 1361.57V1361.57V1361.57ZM940.995 1208.07H940.996H940.995ZM938.341 1170.72C938.44 1172.19 938.532 1173.67 938.616 1175.15C938.532 1173.67 938.44 1172.19 938.341 1170.72ZM566.745 1172.18H566.746H566.745ZM934.995 1136.11H934.996H934.995ZM597.615 1072.47L596.836 1073.13L594.971 1075.78C594.938 1075.84 594.925 1075.91 594.936 1075.97C594.947 1076.04 594.98 1076.1 595.031 1076.14C595.044 1076.15 595.057 1076.16 595.072 1076.17C595.982 1074.93 596.838 1073.71 597.635 1072.49C597.638 1072.49 597.639 1072.49 597.639 1072.48C597.639 1072.48 597.638 1072.48 597.635 1072.47C597.633 1072.47 597.629 1072.47 597.626 1072.47C597.622 1072.47 597.617 1072.47 597.615 1072.47ZM788.995 664.804H788.996H788.995ZM771.694 655.394V655.393V655.394ZM1048.9 640.033C1048.83 640.001 1048.75 639.997 1048.67 640.024C1048.6 640.05 1048.54 640.104 1048.51 640.174L1048.5 640.178L1052.37 641.764C1052.45 641.793 1052.53 641.794 1052.6 641.767C1052.65 641.748 1052.69 641.717 1052.73 641.679L1048.9 640.033ZM793.495 481.203H793.496H793.495Z" fill="#2A2A28"/>
<g id="IM_Front (1) 1">
<path id="body_base" d="M934.41 447.89C930.843 449.217 926.473 450.333 921.3 451.24C914.57 452.42 907.29 456.21 900.84 458.18C898.467 458.907 896.447 459.67 894.78 460.47C889.51 463 879.36 468.06 886.35 475.28C884.19 477.133 881.73 478.423 878.97 479.15C878.801 479.193 878.625 479.195 878.458 479.155C878.29 479.114 878.136 479.034 878.01 478.92C874.417 475.673 870.397 473.403 865.95 472.11C865.618 472.01 865.278 471.957 864.94 471.95C858.487 471.797 853.587 471.957 850.24 472.43C831.2 475.13 820.683 476.62 818.69 476.9C815.76 477.31 811.4 477.54 807.79 478.13C799.883 479.423 793.453 480.34 788.5 480.88C780.73 481.72 775.15 483.24 770.22 488.2C765.093 493.367 760.67 498.783 756.95 504.45C754.95 507.503 753.7 510.687 753.2 514C752.56 518.22 752.15 523.75 752.18 528.7C752.267 545.267 752.227 558.86 752.06 569.48C751.83 584.24 752.69 598.96 751.77 612.8C751.43 617.87 752.47 624.44 753.32 628.45C755.08 636.87 758.61 644.627 763.91 651.72C764.125 652.006 764.422 652.216 764.76 652.32C765.333 652.493 765.697 652.933 765.85 653.64C765.922 653.975 766.066 654.286 766.27 654.55C770.78 660.19 777.43 662.72 784 664.48C796.4 667.787 808.153 670.443 819.26 672.45C830.293 674.443 835.893 675.453 836.06 675.48C841.447 676.4 847.09 677.143 852.99 677.71C868.39 679.19 884.31 680.11 897.43 672.66C906.15 667.707 913.803 661.703 920.39 654.65C927.117 647.437 933.713 639.857 940.18 631.91C945.33 625.58 949.47 618.88 953.23 612.46C955.97 607.787 958.033 602.86 959.42 597.68C959.5 597.388 959.537 597.088 959.53 596.79C959.523 595.47 958.933 593.707 957.76 591.5C954.827 585.987 952.26 581.397 950.06 577.73C947.213 572.977 944.67 568.387 942.43 563.96C938.17 555.527 934.567 548.24 931.62 542.1C927.66 533.84 922.8 525.04 919.07 519.19C913.59 510.58 906.6 504.88 897.76 496.91C892.2 491.9 886.07 485.08 879.54 480.03C879.49 479.988 879.457 479.929 879.448 479.864C879.438 479.799 879.452 479.733 879.488 479.678C879.523 479.623 879.577 479.583 879.64 479.565C879.703 479.547 879.771 479.552 879.83 479.58L890.29 484.8C890.361 484.837 890.443 484.849 890.521 484.832C890.599 484.815 890.669 484.771 890.718 484.708C890.767 484.644 890.792 484.566 890.789 484.485C890.786 484.405 890.754 484.329 890.7 484.27L888.76 481.97C888.707 481.909 888.672 481.835 888.659 481.756C888.646 481.676 888.656 481.594 888.687 481.519C888.718 481.444 888.769 481.378 888.835 481.329C888.9 481.28 888.978 481.249 889.06 481.24L891.26 481.01C892.3 482.017 893.39 482.997 894.53 483.95C902.457 490.603 910.28 497.377 918 504.27C921.7 507.57 924.977 511.533 927.83 516.16C931.837 522.673 935.003 528.013 937.33 532.18C939.5 538.19 942.74 543.5 945.44 549.11C946.5 551.303 947.63 553.457 948.83 555.57C953.13 566.003 958.27 576.007 964.25 585.58C965.13 587 965.977 588.187 966.79 589.14C969.25 592.04 970.73 594.19 974.02 596.89C976.147 598.637 978.987 601.197 982.54 604.57C982.797 604.814 983.002 605.114 983.14 605.45C983.66 606.717 984.78 607.967 986.5 609.2C986.54 609.23 986.589 609.245 986.639 609.245C986.689 609.244 986.737 609.227 986.777 609.197C986.816 609.166 986.845 609.124 986.858 609.076C986.871 609.027 986.868 608.976 986.85 608.93C986.757 608.663 986.303 608.393 985.49 608.12C985.463 608.113 985.439 608.099 985.42 608.08C985.127 607.86 985.013 607.627 985.08 607.38C985.096 607.321 985.127 607.268 985.171 607.225C985.215 607.182 985.269 607.152 985.328 607.138C985.388 607.124 985.45 607.126 985.508 607.144C985.567 607.161 985.619 607.195 985.66 607.24C986.433 608.073 987.373 608.683 988.48 609.07C988.514 609.082 988.543 609.104 988.563 609.135C988.582 609.165 988.591 609.201 988.588 609.237C988.584 609.273 988.569 609.306 988.544 609.332C988.519 609.358 988.486 609.375 988.45 609.38L988.15 609.43C988.083 609.445 988.022 609.48 987.976 609.532C987.93 609.583 987.902 609.647 987.894 609.715C987.886 609.783 987.9 609.852 987.933 609.912C987.967 609.972 988.018 610.02 988.08 610.05C989.133 610.577 989.76 611.007 989.96 611.34C989.985 611.38 990.017 611.414 990.055 611.44C990.093 611.467 990.136 611.486 990.181 611.495C990.226 611.504 990.273 611.504 990.317 611.495C990.362 611.485 990.403 611.467 990.44 611.44C990.587 611.333 990.74 611.31 990.9 611.37C992.72 612.07 994.683 613.02 996.79 614.22C996.81 614.233 996.828 614.253 996.844 614.274C996.859 614.296 996.869 614.318 996.874 614.339C996.879 614.359 996.877 614.377 996.869 614.388C996.861 614.399 996.847 614.403 996.83 614.4C996.75 614.367 996.683 614.377 996.63 614.43C996.577 614.477 996.507 614.42 996.42 614.26C996.307 614.047 996.193 613.93 996.08 613.91C995.973 613.883 995.903 613.887 995.87 613.92C995.763 614.027 995.737 614.16 995.79 614.32C995.809 614.365 995.848 614.404 995.9 614.43C996.113 614.537 997.48 615.297 1000 616.71C1001 617.27 1001.69 617.637 1002.06 617.81C1002.1 617.831 1002.13 617.837 1002.14 617.828C1002.15 617.818 1002.14 617.794 1002.11 617.759C1002.08 617.725 1002.04 617.683 1001.99 617.644C1001.94 617.605 1001.88 617.571 1001.84 617.55C1001.59 617.43 1001.46 617.377 1001.45 617.39C1001.39 617.455 1001.34 617.535 1001.32 617.623C1001.29 617.711 1001.29 617.803 1001.31 617.892C1001.33 617.98 1001.38 618.062 1001.44 618.128C1001.5 618.194 1001.58 618.243 1001.67 618.27C1005.46 619.417 1008.19 620.763 1009.88 622.31C1010.03 622.442 1010.19 622.551 1010.38 622.63L1020.75 627.1C1020.82 627.126 1020.88 627.175 1020.92 627.239C1020.95 627.303 1020.97 627.378 1020.96 627.451C1020.94 627.524 1020.91 627.591 1020.85 627.64C1020.8 627.689 1020.72 627.717 1020.65 627.72C1020.46 627.733 1020.24 627.7 1019.99 627.62C1019.97 627.615 1019.96 627.616 1019.94 627.623C1019.92 627.629 1019.9 627.64 1019.9 627.653C1019.89 627.666 1019.88 627.681 1019.89 627.693C1019.89 627.706 1019.9 627.715 1019.92 627.72C1019.96 627.733 1019.98 627.753 1019.99 627.78C1020 627.811 1020.03 627.838 1020.09 627.856C1020.14 627.874 1020.21 627.883 1020.29 627.88C1021.78 627.807 1022.79 628.127 1023.33 628.84C1030.67 634.047 1038.49 638.467 1046.78 642.1L1053.62 641.71C1053.78 641.701 1053.93 641.649 1054.07 641.559C1054.2 641.469 1054.3 641.345 1054.37 641.2L1059.45 629.96L1060.77 624.33C1063.36 631.637 1066.32 638.827 1069.64 645.9C1070.91 648.613 1072.95 654.313 1075.74 663C1077.06 667.113 1078.74 674.877 1080.79 686.29C1081.69 691.283 1082.4 698.637 1082.92 708.35C1083.63 721.77 1084.55 732.06 1085.66 739.22C1087.39 750.433 1090.9 760.39 1096.19 769.09C1103.12 780.497 1107.92 788.527 1110.58 793.18C1117.21 804.77 1124.79 819.39 1129.2 833.26C1133.62 847.2 1136.49 860.677 1137.81 873.69C1139.21 887.477 1140.35 899.723 1141.22 910.43C1142.01 920.09 1143.07 928.63 1144.4 936.05C1147.51 953.483 1149.44 963.773 1150.17 966.92C1154.2 984.127 1159.35 1003.03 1165.62 1023.62C1167.54 1029.91 1171.1 1034.44 1176.29 1037.2C1181.2 1039.81 1188 1043.68 1196.68 1048.81C1201.97 1051.94 1206.92 1055.9 1211.54 1060.69C1213.74 1062.97 1217.58 1068.16 1223.05 1076.26C1224.91 1079.01 1228.42 1084.42 1233.58 1092.47C1236.07 1096.36 1240.77 1101.58 1247.67 1108.13C1250.91 1111.21 1251.54 1116.43 1247.35 1119.12C1238.81 1124.62 1229.93 1118.87 1222.18 1113.41C1217.94 1110.41 1215.06 1105.99 1211 1101.51C1208.69 1098.97 1206.68 1097.07 1204.95 1095.81C1204.71 1095.63 1204.43 1095.53 1204.13 1095.5C1203.84 1095.47 1203.54 1095.53 1203.27 1095.66C1203 1095.79 1202.78 1095.99 1202.61 1096.24C1202.45 1096.49 1202.36 1096.78 1202.35 1097.08C1202.3 1098.64 1202.54 1100.25 1203.07 1101.92C1205.81 1110.47 1207.89 1120.22 1210.28 1127.88C1214.65 1141.9 1217.12 1149.75 1217.71 1151.44C1221.5 1162.42 1224.22 1173.32 1228.53 1187.49C1228.78 1188.31 1229.17 1190.41 1229.7 1193.8C1230.5 1198.93 1228.62 1203.59 1224.29 1206.22C1220.2 1208.71 1215.98 1207.86 1213.57 1203.92C1211.47 1200.47 1209.52 1196.09 1207.71 1190.8C1205.99 1185.77 1202.69 1175.45 1197.81 1159.86C1195.73 1153.2 1193.27 1148.02 1190 1142.98C1189.53 1142.24 1189.21 1141.83 1189.06 1141.74C1188.97 1141.69 1188.87 1141.66 1188.76 1141.66C1188.66 1141.67 1188.56 1141.7 1188.47 1141.76C1188.39 1141.82 1188.32 1141.9 1188.28 1142C1188.24 1142.09 1188.23 1142.2 1188.25 1142.3C1189.92 1152.29 1192.69 1164.77 1196.15 1176.75C1199.6 1188.66 1202.69 1201.17 1205.42 1214.28C1206.67 1220.24 1206.78 1223.67 1200.5 1226.64C1196.07 1228.73 1192.33 1227.61 1189.27 1223.28C1187.33 1220.53 1185.86 1217.81 1184.85 1215.14C1178.06 1197.16 1172.59 1173.99 1164.14 1155.6C1163.86 1154.98 1163.57 1154.54 1163.27 1154.27C1163.18 1154.18 1163.06 1154.13 1162.93 1154.11C1162.8 1154.1 1162.67 1154.12 1162.56 1154.18C1162.45 1154.24 1162.36 1154.34 1162.3 1154.45C1162.24 1154.56 1162.22 1154.69 1162.24 1154.82C1164.32 1167.39 1166.77 1178.61 1169.58 1188.47C1171.77 1196.11 1172.59 1200.41 1174.68 1208.78C1176.29 1215.26 1177.65 1221.5 1170.58 1224.36C1165.9 1226.25 1159.7 1223.57 1158.05 1218.39C1155.58 1210.59 1153.8 1205.26 1152.71 1202.4C1151.62 1199.55 1150.62 1196.24 1149.71 1192.47C1148.83 1188.84 1146.45 1181.21 1145.05 1175.23C1143.57 1168.84 1140.78 1163 1138.85 1157.31C1138.81 1157.2 1138.75 1157.1 1138.66 1157.03C1138.57 1156.95 1138.46 1156.9 1138.35 1156.88C1138.23 1156.87 1138.11 1156.88 1138.01 1156.93C1137.9 1156.97 1137.81 1157.05 1137.74 1157.14C1136.96 1158.19 1137.35 1160.31 1137.73 1162.29C1138.01 1163.71 1138.17 1165.03 1138.2 1166.24C1138.31 1170.32 1138.79 1174.21 1139.62 1177.92C1141.1 1184.53 1141.17 1190.12 1142.24 1196.35C1143.13 1201.49 1142.56 1205.37 1137.46 1206.91C1131.93 1208.57 1128.7 1204.58 1126.96 1199.83C1125.03 1194.57 1123.62 1189.27 1122.71 1183.94C1120.99 1173.78 1119.05 1168.18 1116.18 1157.01C1112.98 1144.54 1108.5 1132.03 1104.14 1120.89C1101.49 1114.12 1099.09 1104.92 1098.12 1096.22C1096.84 1084.83 1095.36 1078.03 1096.67 1069.87C1097.3 1065.89 1097.54 1062.98 1097.37 1061.15C1096.5 1051.96 1093.72 1042.99 1089.03 1034.24C1079.04 1015.64 1068.19 997.807 1056.49 980.74C1050.43 971.9 1046.44 965.96 1044.51 962.92C1035.9 949.33 1024.7 933.97 1017.74 920.53C1013.51 912.37 1009.88 903.59 1006.84 894.19C1006.19 892.163 1004.79 886.793 1002.64 878.08C998.47 861.18 994.23 843.23 991.36 827.41C991.2 826.531 991.107 825.642 991.08 824.75C990.707 814.277 988.74 805.643 985.18 798.85C981.02 790.89 975.883 781.697 969.77 771.27C961.41 757 956.12 741.14 951.67 725.57C951.07 723.443 950.153 721.537 948.92 719.85C948.807 719.698 948.656 719.578 948.481 719.505C948.306 719.432 948.115 719.407 947.927 719.434C947.74 719.461 947.563 719.537 947.415 719.656C947.268 719.776 947.156 719.932 947.09 720.11C943.56 729.82 941.18 737.78 937.65 745.51C935.12 751.02 931.4 759.74 927.74 766.29C921.553 777.343 917.013 786.117 914.12 792.61C912.32 796.65 910.93 802.37 910.75 807.3C910.337 818.647 910.523 828.38 911.31 836.5C911.797 841.507 912.85 848.78 914.47 858.32C915.297 863.2 915.84 867.337 916.1 870.73C917.02 882.84 917.92 891.85 916.6 902.74C915.873 908.687 915.39 912.35 915.15 913.73C914.357 918.163 914.2 922.403 914.68 926.45C915.187 930.757 916.23 934.88 917.81 938.82C915.783 941.527 913.56 943.967 911.14 946.14C904.093 952.5 895.757 958.003 886.13 962.65C880.6 965.33 874.03 968.79 873.59 974.79C873.457 976.577 873.473 979.687 873.64 984.12C873.753 987.153 874.667 998.34 876.38 1017.68C877.21 1027.03 881.75 1035.58 886.42 1043.67C890.31 1050.41 894.92 1058.71 900.33 1066.19C913.91 1084.95 928.85 1105.27 939.9 1121.36C945.173 1129.04 949.173 1134.37 951.9 1137.34C953.467 1139.05 957.567 1142.72 964.2 1148.33L968.94 1176.1C966.513 1171.75 964.29 1167.53 962.27 1163.46C961.63 1162.17 957.62 1156.42 950.24 1146.21C947.073 1141.82 944.867 1138.85 943.62 1137.3C938.38 1130.73 934.133 1125.68 930.88 1122.15C930.696 1121.95 930.456 1121.81 930.19 1121.75C929.924 1121.69 929.646 1121.71 929.393 1121.81C929.14 1121.91 928.923 1122.09 928.773 1122.31C928.622 1122.54 928.544 1122.81 928.55 1123.08C928.63 1126.68 929.5 1130.61 930 1135.79C930.5 1141.06 930.857 1144.54 931.07 1146.25C932.49 1157.87 933.45 1169.62 933.95 1181.49C934.13 1185.74 934.443 1190.11 934.89 1194.62C935.61 1201.99 935.98 1206.37 936 1207.75C936.28 1228.22 936.23 1234.04 936.86 1249.76C937.233 1259.36 936.87 1268.43 935.77 1276.97C934.73 1285.04 933.2 1293.88 931.18 1303.49C929.28 1312.56 926.697 1321.14 923.43 1329.23C919.78 1338.28 917.86 1344.07 914.18 1354.13C909.21 1367.69 906.93 1381.64 907.58 1396.29C908.16 1409.35 908.68 1422.57 919.21 1431.09C924.1 1435.05 928.05 1431.15 930.94 1427.38C935.127 1421.91 938.653 1417.12 941.52 1413.01C943.347 1410.38 945.563 1407.93 948.17 1405.64C944.26 1414.59 941.71 1423.42 941.41 1433.15C941.27 1437.84 940.93 1442.35 940.99 1446.95C941.343 1475.34 941.667 1494.19 941.96 1503.49C942.093 1507.76 942.9 1513.58 944.38 1520.97C945.833 1528.19 948.863 1540.49 953.47 1557.86C955.637 1566.01 957.127 1572.06 957.94 1576C959.53 1583.64 961.61 1591.8 962.97 1600.43C965.71 1617.89 966.63 1634.86 964.3 1651.78C963.25 1659.39 961.95 1667.96 960.43 1675.58C953.883 1708.39 947.587 1740.54 941.54 1772.05C936.44 1798.64 932.853 1818.19 930.78 1830.71C929.587 1837.9 928.36 1847.58 927.1 1859.76C926.23 1868.08 927.96 1874.76 930.45 1883.78C931.74 1888.46 932.17 1894.85 931.62 1900.76C931 1907.44 929.92 1912.56 933.7 1917.77C938.507 1924.4 944.323 1932.6 951.15 1942.38C960.55 1955.85 972.13 1965.05 985.57 1975.58C987.34 1976.97 988.35 1978.3 990.13 1980.4C995.07 1986.21 996.467 1992.7 994.32 1999.85C993.28 2003.34 987.66 2004.83 984.21 2006.06C979.68 2007.68 974.99 2008.28 970.38 2009.56C968.8 2009.99 966.533 2010.38 963.58 2010.73C955.2 2011.71 947 2013.98 938.25 2013.75C934.623 2013.65 932.15 2013.76 930.83 2014.09C920.44 2016.63 909.91 2017.5 899.82 2012.94C890.87 2008.91 878.49 2001.16 875.76 1991.28C874.77 1987.69 873.93 1982.49 870.45 1980.45C869.257 1979.74 866.383 1978.1 861.83 1975.51C855.99 1972.19 852.637 1967.03 851.77 1960.02C851.724 1959.65 851.727 1959.27 851.78 1958.89C852.093 1956.66 852.393 1953.37 852.68 1949.03C853.1 1942.64 854.57 1935.54 855.76 1930.75C857.93 1921.97 857.38 1913.47 855.83 1904.25C854.63 1897.12 854.433 1890.23 855.24 1883.58C855.88 1878.3 858.99 1871.48 859.97 1866.99C861.757 1858.8 862.537 1851.64 862.31 1845.51C862.02 1837.84 860.84 1828.71 858.77 1819.7C857.497 1814.13 856.087 1808.28 854.54 1802.15C850.32 1785.38 848.117 1776.58 847.93 1775.76C843.497 1756.92 839.783 1741.9 836.79 1730.7C832.5 1714.66 825.16 1697.48 820.05 1683.95C817.23 1676.47 814.91 1668.85 813.09 1661.08C812.217 1657.36 811.603 1653.2 811.25 1648.6C810.79 1642.53 810.623 1638.33 810.75 1636C811.04 1630.92 811.69 1621.83 812.97 1613.46C814.577 1602.94 816.123 1594.13 817.61 1587.03C818.723 1581.74 819.883 1575.61 821.09 1568.65C821.517 1566.2 822.48 1558.48 823.98 1545.51C824.82 1538.27 824.23 1531.46 822.21 1525.07C819.84 1517.58 815.38 1508.42 812.29 1500.33C808.29 1489.87 804.967 1479.43 802.32 1469.02C797.253 1449.1 793.783 1432.74 791.91 1419.95C790.03 1407.12 788.607 1396.81 787.64 1389.02C786.713 1381.57 786.127 1376.67 785.88 1374.3C784.52 1361.42 783.55 1355.52 781.1 1338.37C780.16 1331.82 778.86 1326.38 777.26 1320.51C771.267 1298.49 766.853 1280.91 764.02 1267.76C761.9 1257.93 759.58 1244.09 757.06 1226.26C755.36 1214.15 755.2 1203.31 753.85 1191.15C753.53 1188.28 753.33 1184.68 753.25 1180.35C752.97 1166.25 753.55 1152.36 754.09 1136.5C754.163 1134.37 753.333 1133.01 751.6 1132.42C748.59 1131.39 738.93 1130.23 739.38 1135.76C741.34 1159.67 741.027 1184.09 738.44 1209C737.533 1217.74 736.563 1226.74 735.53 1236C735.337 1237.7 734.227 1244.52 732.2 1256.45C731.04 1263.26 729.693 1270.04 728.16 1276.77C724.013 1294.96 721.37 1305.87 720.23 1309.5C717.483 1318.26 715.56 1326.92 714.46 1335.48C713.413 1343.57 712.473 1349.77 711.64 1354.07C710.91 1357.77 710.79 1362.9 710.28 1365.75C708.73 1374.37 708.3 1381.74 707.04 1390.06C706.1 1396.2 705.413 1400.48 704.98 1402.9C704.04 1408.2 703.333 1412.47 702.86 1415.71C699.93 1435.81 696.22 1456.43 690.29 1475.32C685.463 1490.7 681.933 1501.09 679.7 1506.5C675.733 1516.11 672.773 1523.89 670.82 1529.82C670.087 1532.03 669.71 1534.93 669.69 1538.51C669.62 1550.92 671.57 1560.5 674.15 1574.51C676.283 1586.08 677.89 1594.73 678.97 1600.47C680.28 1607.41 680.98 1613.37 681.9 1620.83C684.013 1638.09 683.067 1654.18 679.06 1669.1C677.333 1675.55 674.48 1683.78 670.5 1693.78C666.4 1704.11 663.307 1712.74 661.22 1719.69C653.33 1745.96 647.44 1768.69 637.27 1808.24C636.48 1811.31 635.95 1814.57 635.18 1817.64C633.91 1822.63 633.68 1827.95 632.8 1832.98C630.18 1848.09 631.8 1863.4 637.19 1877.42C639.47 1883.33 638.96 1891.66 637.88 1897.17C636.107 1906.21 635.47 1914.84 635.97 1923.05C636.17 1926.28 636.9 1930.38 638.16 1935.37C639.28 1939.79 640.273 1945.68 641.14 1953.03C642.353 1963.26 638.857 1971.13 630.65 1976.66C626.66 1979.34 622.67 1981.32 620.35 1984.76C620.131 1985.09 619.956 1985.44 619.83 1985.8C617.86 1991.5 615.38 1997.55 610.52 2001.49C604.833 2006.1 599.797 2009.57 595.41 2011.9C593.73 2012.79 590.13 2013.96 584.61 2015.4C577.02 2017.37 567.82 2015.9 560.14 2014.17C559.142 2013.94 558.121 2013.81 557.09 2013.76C543.683 2013.15 530.397 2011.3 517.23 2008.23C512.17 2007.06 506.63 2004.95 502.37 2002.24C501.097 2001.43 500.243 2000.17 499.81 1998.48C497.24 1988.43 501.44 1983.53 507.96 1976.73C509.46 1975.16 512.957 1972.25 518.45 1967.99C528.28 1960.38 535.34 1953.44 543.43 1943.36C546.043 1940.09 548.75 1935.94 551.55 1930.9C553.997 1926.49 557.05 1921.69 560.71 1916.48C562.75 1913.58 562.99 1910.42 562.56 1906.39C561.98 1900.87 561.08 1896.18 561.52 1891.19C562.087 1884.78 563.413 1878.57 565.5 1872.58C566.653 1869.29 567.103 1865.28 566.85 1860.53C566.39 1851.74 565.44 1843.06 563.53 1832.88C560.903 1818.81 558.89 1807.64 557.49 1799.37C556.88 1795.77 555.55 1791.06 555.19 1786.94C555.003 1784.71 554.72 1782.85 554.34 1781.35C553.1 1776.39 552.58 1770.87 551.42 1765.24C550.027 1758.45 548.987 1753.08 548.3 1749.11C547.007 1741.64 546.017 1736.26 545.33 1732.98C541.97 1716.94 539.323 1703.95 537.39 1694C535.97 1686.7 534.727 1679.49 533.66 1672.38C532.267 1663.03 531.543 1658.21 531.49 1657.92C529.05 1644.39 529.18 1631.81 529.9 1617.31C530.06 1614.06 530.497 1610.55 531.21 1606.79C531.39 1605.84 531.883 1602.35 532.69 1596.3C533.197 1592.45 534.253 1586.82 535.86 1579.41C536.853 1574.82 538.247 1569.27 540.04 1562.75C544.14 1547.89 547.367 1535.32 549.72 1525.04C551.467 1517.39 552.393 1508.38 552.5 1498C552.6 1488.01 552.95 1472.76 553.55 1452.25C553.83 1442.58 553.643 1432.42 552.99 1421.75C552.897 1420.19 551.923 1416.56 550.07 1410.86L562.76 1426.51L567.54 1436.44C567.701 1436.77 567.955 1437.05 568.271 1437.25C568.587 1437.44 568.951 1437.54 569.32 1437.53C579.2 1437.34 585.62 1430.75 589.06 1422.06C592.23 1414.05 594.45 1407.13 593.99 1398.81C593.677 1393.25 592.903 1388.01 591.67 1383.08C590.02 1376.5 594.44 1372.66 599.91 1370.2C608.17 1374.3 614.81 1367.2 620.05 1361.48C620.158 1361.36 620.302 1361.28 620.461 1361.25C620.62 1361.21 620.785 1361.24 620.93 1361.31C621.075 1361.38 621.193 1361.5 621.265 1361.64C621.338 1361.79 621.36 1361.95 621.33 1362.11C620.157 1368.67 619.297 1376.68 618.75 1386.15C618.077 1397.86 617.91 1405.92 618.25 1410.35C619.057 1420.73 621.633 1430.79 625.98 1440.54C632.41 1454.96 646.22 1460 661.24 1456.78C665.21 1455.93 668.96 1453.52 672.08 1451.09C679.053 1445.66 684.51 1438.86 688.45 1430.7C689.31 1428.91 690.117 1426.16 690.87 1422.43C694.017 1406.86 696.18 1394.87 697.36 1386.47C698.967 1375.05 699.463 1364.73 698.85 1355.5C697.137 1329.67 692.737 1304.45 685.65 1279.86C676.063 1246.59 668.437 1220.94 662.77 1202.91C656.95 1184.37 652.14 1169.53 647.44 1152.01C644.373 1140.56 642.713 1134.34 642.46 1133.37C640.62 1126.13 638.133 1115.24 635 1100.71C632.05 1087.02 630.42 1072.91 628.62 1059.57C627.83 1053.71 627.29 1046.75 624.85 1041.58C624.772 1041.41 624.657 1041.26 624.514 1041.15C624.371 1041.03 624.204 1040.95 624.023 1040.9C623.843 1040.86 623.655 1040.85 623.473 1040.89C623.291 1040.93 623.119 1041.01 622.97 1041.12C618.41 1044.55 614.9 1048.61 611.21 1054.08C604.03 1064.73 595.43 1075.12 588.77 1086.82C584.51 1092.11 580.57 1097.66 576.95 1103.45C572.73 1110.2 568.903 1116.36 565.47 1121.92C561.423 1125.07 558.26 1128.26 555.98 1131.49C552.093 1137.02 548.213 1142.55 544.34 1148.1C544.327 1148.11 541.98 1151.27 537.3 1157.58C533.533 1162.65 530.04 1168.33 526.82 1174.63L530.66 1149.35C538.14 1142.22 543.147 1137.08 545.68 1133.94C549.667 1129.01 551.777 1126.36 552.01 1126.01C557.96 1117.28 563.69 1110 570.58 1100.3C575.36 1093.56 578.953 1088.89 581.36 1086.3C585.907 1081.4 589.667 1076.69 592.64 1072.17C592.643 1072.17 592.644 1072.16 592.644 1072.16C592.644 1072.16 592.643 1072.15 592.64 1072.15C592.637 1072.15 592.634 1072.15 592.63 1072.15C592.626 1072.15 592.623 1072.15 592.62 1072.15L588.06 1075.99C588.006 1076.03 587.941 1076.05 587.875 1076.04C587.809 1076.04 587.746 1076.01 587.697 1075.97C587.648 1075.92 587.616 1075.86 587.606 1075.8C587.595 1075.73 587.607 1075.67 587.64 1075.61L595.26 1064.36C595.303 1064.3 595.364 1064.26 595.434 1064.24C595.504 1064.22 595.578 1064.22 595.644 1064.25C595.711 1064.28 595.765 1064.32 595.799 1064.39C595.833 1064.45 595.844 1064.52 595.83 1064.59L595.43 1066.72C595.425 1066.74 595.427 1066.77 595.436 1066.79C595.445 1066.81 595.461 1066.82 595.48 1066.83C595.519 1066.84 595.561 1066.84 595.6 1066.83C595.639 1066.81 595.671 1066.79 595.69 1066.75C597.383 1063.1 598.88 1060.24 600.18 1058.19C606.48 1048.24 610.823 1040.91 613.21 1036.22C615.303 1032.1 616.507 1029.19 616.82 1027.49C618.04 1020.9 618.773 1014.54 619.02 1008.4C619.29 1001.66 620.14 995.95 620.83 989.35C621.057 987.217 621.147 985.627 621.1 984.58C620.93 980.57 622.03 976.07 621.1 972.68C620.273 969.667 618.29 967.38 615.15 965.82C607.97 962.267 601.007 958.303 594.26 953.93C587.593 949.617 581.963 944.233 577.37 937.78C579.723 931.7 580.847 925.387 580.74 918.84C580.707 916.753 580.157 913.05 579.09 907.73C577.363 899.15 576.763 890.99 577.29 883.25C577.69 877.357 577.957 873.337 578.09 871.19C578.277 868.11 578.85 864.137 579.81 859.27C582.47 845.717 583.937 831.29 584.21 815.99C584.34 809.11 584.31 801.1 581.8 794.83C579.373 788.757 577.167 784.25 575.18 781.31C566.487 768.45 559.447 755 554.06 740.96C550.36 731.33 548.23 724.3 546.57 722.19C546.487 722.086 546.383 722 546.264 721.94C546.145 721.88 546.015 721.846 545.882 721.842C545.748 721.837 545.616 721.861 545.493 721.913C545.37 721.964 545.26 722.042 545.17 722.14C544.13 723.287 543.33 724.657 542.77 726.25C540.73 732.103 538.69 737.94 536.65 743.76C531.3 759.06 523.96 772.61 515.69 786.93C512.643 792.203 510.213 797.353 508.4 802.38C507.027 806.173 505.967 810.703 505.22 815.97C504.527 820.883 503.863 825.507 503.23 829.84C502.783 832.907 502.37 835.153 501.99 836.58C501.19 839.62 500.77 842.56 500.02 845.5C496.14 860.66 493.4 871.403 491.8 877.73C490.513 882.797 489.327 886.903 488.24 890.05C486.44 895.24 484.99 900.74 482.71 906.28C475.03 924.97 464.48 941.05 452.41 958.4C442.87 972.107 435.48 982.877 430.24 990.71C419.853 1006.25 409.883 1024.13 400.33 1044.34C399.79 1045.49 398.503 1048.79 396.47 1054.24C394.32 1060.03 395.8 1066.62 396.79 1072.34C397.137 1074.37 397.29 1076.82 397.25 1079.67C397.077 1091.32 395.39 1102.27 392.19 1112.53C388.857 1123.24 386.537 1130.76 385.23 1135.1C383.41 1141.19 381.54 1144.86 379.77 1150.71C375.31 1165.4 371.687 1180.44 368.9 1195.83C367.85 1201.63 362.21 1210.34 355.22 1206.99C351.35 1205.13 350.63 1202.47 350.81 1198.1C351.083 1191.59 351.303 1187.73 351.47 1186.5C351.843 1183.76 352.88 1177.97 354.58 1169.14C355.49 1164.44 355.57 1159.71 354.89 1156.32C354.797 1155.84 354.627 1155.53 354.38 1155.39C354.244 1155.31 354.093 1155.27 353.936 1155.27C353.779 1155.26 353.622 1155.3 353.475 1155.36C353.329 1155.43 353.196 1155.53 353.088 1155.66C352.98 1155.78 352.899 1155.93 352.85 1156.09C350.537 1163.66 348.847 1170.6 347.78 1176.89C346.27 1185.8 342.59 1195.98 341.22 1205.05C340.68 1208.66 339.34 1212 338.19 1216.17C337.09 1220.19 334.89 1225.01 329.74 1225.15C326.147 1225.24 322.843 1224.35 319.83 1222.48C319.329 1222.17 318.931 1221.72 318.686 1221.18C318.44 1220.65 318.358 1220.05 318.45 1219.47C318.84 1217.05 319.23 1215.15 319.37 1212.16C319.597 1207.16 319.95 1203.75 320.43 1201.93C322.01 1195.88 324.03 1189.64 325.68 1182.66C327.453 1175.13 328.717 1170.24 329.47 1167.99C329.53 1167.8 329.567 1167.6 329.58 1167.4L329.97 1159.32C329.974 1159.22 329.946 1159.12 329.891 1159.03C329.835 1158.95 329.755 1158.88 329.661 1158.85C329.566 1158.81 329.462 1158.8 329.364 1158.82C329.265 1158.85 329.176 1158.9 329.11 1158.98C328.297 1159.93 327.597 1161.11 327.01 1162.5C325.04 1167.21 323.34 1170.5 322.01 1175.31C319.08 1185.92 313.59 1205.33 308.01 1220.21C306.677 1223.75 304.25 1226.03 300.73 1227.06C296.45 1228.31 292.66 1226.36 290.1 1223.3C289.754 1222.9 289.535 1222.4 289.47 1221.87C288.83 1216.99 289.85 1212.56 290.96 1207.39C291.66 1204.11 292.363 1201.15 293.07 1198.52C295.55 1189.31 297.38 1181.64 298.56 1175.51C299.46 1170.84 300.677 1165.96 302.21 1160.86C304.383 1153.66 305.56 1148.22 305.74 1144.55C305.76 1144.17 305.631 1143.8 305.38 1143.5L304.48 1142.43C304.405 1142.34 304.306 1142.28 304.194 1142.25C304.083 1142.22 303.965 1142.22 303.855 1142.26C303.746 1142.29 303.65 1142.36 303.579 1142.45C303.509 1142.54 303.467 1142.65 303.46 1142.77C303.32 1145.2 301.45 1147.87 300.42 1150.33C296.453 1159.79 292.76 1170.9 289.34 1183.66C287.76 1189.53 285.893 1194.73 283.74 1199.26C280.71 1205.65 271.17 1211.35 266.42 1202.37C263.46 1196.79 265.77 1186.83 267.71 1180.62C271.11 1169.77 273.407 1162.49 274.6 1158.78C282.65 1133.85 287.94 1119.12 290.66 1098.75C290.887 1097.01 290.123 1095.89 288.37 1095.4C286.81 1094.95 285.37 1096.43 284.51 1097.51C278.65 1104.88 275.153 1109.12 274.02 1110.25C268.61 1115.63 261 1120.62 253.01 1120.88C248.95 1121.01 245.827 1119.28 243.64 1115.7C241.96 1112.95 243.93 1110.71 245.86 1108.6C248.31 1105.91 252.22 1103.28 254.61 1100.03C256.597 1097.34 259.4 1093.73 263.02 1089.2C266.17 1085.26 269.53 1079.36 271.57 1076.31C277.077 1068.06 281.557 1062.04 285.01 1058.25C287.8 1055.19 293.78 1051.31 298.6 1048.66C308.793 1043.05 316.337 1038.67 321.23 1035.5C328.91 1030.53 329.29 1020.24 331.79 1012.34C337.137 995.46 341.783 978.043 345.73 960.09C347.21 953.32 347.73 948.42 348.85 943.34C350.03 938.02 350.07 932.73 351.33 927.12C351.743 925.293 352.03 923.127 352.19 920.62C352.837 910.307 353.333 903.433 353.68 900C354.527 891.587 355.063 885.35 355.29 881.29C355.71 874 357.04 868.37 357.55 862.52C357.837 859.22 358.683 854.917 360.09 849.61C362.22 841.55 363.21 835.53 365.93 828.9C369.343 820.56 373.477 812.043 378.33 803.35C385.417 790.663 391.597 780.253 396.87 772.12C402.89 762.82 406.99 752.613 409.17 741.5C410.763 733.38 411.633 726.107 411.78 719.68C412.05 707.91 413.39 698.51 414.28 687.03C414.52 683.93 415.023 680.483 415.79 676.69C417 670.75 417.29 668.09 418.99 663.12C422.183 653.773 426.013 644.657 430.48 635.77C432.19 632.38 433.42 628.89 434.76 625.29C436.673 628.99 438.337 632.647 439.75 636.26C440.543 638.313 441.6 639.963 442.92 641.21C443.399 641.663 443.99 641.98 444.631 642.129C445.273 642.279 445.942 642.255 446.57 642.06C453.323 639.987 459.457 637.02 464.97 633.16C466.203 632.293 467.333 631.597 468.36 631.07C471.06 629.67 478.837 625.423 491.69 618.33C499.71 613.91 507.79 608.26 514.74 603.24C521.21 598.56 529.05 591.49 533.27 584.18C535.75 579.893 537.647 576.213 538.96 573.14C542.947 563.827 547.69 553.73 553.19 542.85C555.103 539.07 557.07 535.383 559.09 531.79C559.69 530.717 561.69 527.05 565.09 520.79C567.97 515.477 570.06 512.073 571.36 510.58C575.02 506.387 580.157 501.533 586.77 496.02C597.11 487.4 604.093 481.38 607.72 477.96C610.82 475.03 614.39 468.86 609.33 465.69C605.363 463.197 599.823 460.31 592.71 457.03C586.69 454.257 580.79 452.343 575.01 451.29C571.257 450.61 567.76 449.593 564.52 448.24C569.053 446.307 573.147 443.993 576.8 441.3C579.36 439.407 584.373 435.8 591.84 430.48C598.16 425.98 603.323 422.607 607.33 420.36C621.7 412.28 639.73 405.71 651.89 400.65C659.003 397.683 664.9 394.167 669.58 390.1C672.527 387.547 674.197 383.743 674.59 378.69C675.417 368.05 675.243 355.297 674.07 340.43C673.28 330.31 670.34 319.27 667.54 309.75C666.78 307.17 665.893 305.173 664.88 303.76C663.4 301.71 658.57 299.89 656.87 297.65C652.303 291.583 648.633 284.843 645.86 277.43C645.628 276.813 645.48 276.167 645.42 275.51C645.14 272.557 644.337 268.233 643.01 262.54C642.263 259.333 641.967 255.323 642.12 250.51C642.273 245.61 643.89 241.743 646.97 238.91C650.58 235.6 654.3 237.17 658.2 239.1C658.442 239.22 658.72 239.243 658.978 239.165C659.236 239.087 659.455 238.914 659.59 238.68C660.13 237.753 660.373 236.61 660.32 235.25C659.847 224.083 659.62 217.333 659.64 215C659.69 210 659.97 200.74 661.54 193.27C662.533 188.557 663.303 185.243 663.85 183.33C666.43 174.25 670.083 166.41 674.81 159.81C676.977 156.777 680.667 152.72 685.88 147.64C696.54 137.23 710.91 130.57 725.64 127.68C727.78 127.26 732.743 126.71 740.53 126.03C745.623 125.583 750.613 125.56 755.5 125.96C768.49 127.03 781.05 129.64 792.41 135.86C808.76 144.81 821.66 156.97 828.6 174.94C829.147 176.347 830.303 180.187 832.07 186.46C833.323 190.907 834.113 194.807 834.44 198.16C835.7 211.347 835.64 224.327 834.26 237.1C834.242 237.264 834.263 237.431 834.322 237.586C834.381 237.74 834.476 237.879 834.599 237.989C834.722 238.1 834.87 238.179 835.03 238.221C835.191 238.263 835.358 238.266 835.52 238.23L841.56 236.92C842.011 236.823 842.478 236.825 842.929 236.927C843.38 237.029 843.803 237.228 844.17 237.51C851.14 242.88 852.23 250.4 851.12 259.18C850.487 264.213 849.433 269.887 847.96 276.2C846.473 282.553 842.977 289.773 837.47 297.86C837.284 298.132 837.055 298.375 836.79 298.58C833.45 301.19 830.17 302.4 828.5 306.85C827.267 310.123 826.603 312.097 826.51 312.77C825.47 320.27 824.45 324.01 822.8 332.18C822.047 335.907 821.603 339.827 821.47 343.94C821.003 358.213 820.8 369.37 820.86 377.41C820.9 382.39 822.603 386.507 825.97 389.76C831.17 394.8 838.77 398.48 845.7 401.31C864.2 408.9 877.95 414.94 892.74 423.74C898.81 427.35 905.35 432.72 911.61 436.97C912.69 437.703 913.933 438.567 915.34 439.56C921.06 443.6 927.417 446.377 934.41 447.89Z" fill="#2A2A28"/>
<g id="Frame 1">
<rect width="100" height="100" transform="translate(696 1005)" fill="#2A2A28"/>
</g>
<path id="quad_front_l" d="M599.91 1370.2C593.99 1367.3 590.69 1361.6 587.91 1355.61C584.89 1349.12 582.557 1342.62 580.91 1336.12C578.017 1324.67 574.787 1311.35 571.22 1296.15C571.153 1295.88 571.117 1295.6 571.11 1295.31C571.06 1292.51 570.11 1290.03 569.68 1287.12C568.33 1277.83 566.9 1268.81 566.55 1259.27C565.8 1238.58 565.04 1217.43 566.56 1197.5C567.113 1190.17 567.997 1181.6 569.21 1171.78C569.89 1166.22 571.31 1157.51 573.47 1145.65C575.71 1133.4 578.11 1124 581.73 1108.29C583.443 1100.86 585.79 1093.71 588.77 1086.82C595.43 1075.12 604.03 1064.73 611.21 1054.08C614.9 1048.61 618.41 1044.55 622.97 1041.12C623.119 1041.01 623.291 1040.93 623.473 1040.89C623.655 1040.85 623.843 1040.86 624.023 1040.9C624.203 1040.95 624.371 1041.03 624.514 1041.15C624.657 1041.26 624.772 1041.41 624.85 1041.58C627.29 1046.75 627.83 1053.71 628.62 1059.57C630.42 1072.91 632.05 1087.02 635 1100.71C638.133 1115.24 640.62 1126.13 642.46 1133.37C642.713 1134.34 644.373 1140.56 647.44 1152.01C652.14 1169.53 656.95 1184.37 662.77 1202.91C668.437 1220.94 676.063 1246.59 685.65 1279.86C692.737 1304.45 697.137 1329.67 698.85 1355.5C699.463 1364.73 698.967 1375.05 697.36 1386.47C696.18 1394.87 694.017 1406.86 690.87 1422.43C690.117 1426.16 689.31 1428.91 688.45 1430.7C684.51 1438.86 679.053 1445.66 672.08 1451.09C668.96 1453.52 665.21 1455.93 661.24 1456.78C646.22 1460 632.41 1454.96 625.98 1440.54C621.633 1430.79 619.057 1420.73 618.25 1410.35C617.91 1405.92 618.077 1397.86 618.75 1386.15C619.297 1376.68 620.157 1368.67 621.33 1362.11C621.36 1361.95 621.338 1361.79 621.265 1361.64C621.193 1361.5 621.075 1361.38 620.93 1361.31C620.784 1361.24 620.62 1361.21 620.461 1361.25C620.302 1361.28 620.158 1361.36 620.05 1361.48C614.81 1367.2 608.17 1374.3 599.91 1370.2Z" fill="#2A2A28"/>
<path id="quad_outer_l" d="M565.47 1121.92C564.97 1136.42 563.927 1150.5 562.34 1164.17C562.147 1165.83 561.95 1168.39 561.75 1171.86C561.643 1173.57 561.48 1175.28 561.26 1176.99C561.047 1178.6 560.943 1180.31 560.95 1182.1C560.957 1186.72 560.843 1191.31 560.61 1195.88C558.917 1213.24 558.423 1230.62 559.13 1248.01C558.997 1260.42 559.33 1270.84 560.13 1279.25C560.81 1286.32 562.187 1294.25 564.26 1303.03C567.26 1315.69 570.753 1326.91 574.74 1336.68C577.513 1343.47 579.607 1349.01 581.02 1353.29C581.333 1354.25 582.667 1359.8 585.02 1369.93C586.333 1375.59 587.07 1380.34 587.23 1384.18C587.47 1389.97 587.59 1394.79 587.59 1398.62C587.597 1404.83 586.597 1411.39 584.59 1418.31C582.81 1424.47 579.687 1429.1 575.22 1432.2C573.78 1433.2 573.08 1434.54 571.03 1433.23C568.25 1431.45 565.493 1429.21 562.76 1426.51L550.07 1410.86C548.943 1408.74 547.72 1406.29 546.4 1403.52C542.833 1396.01 539.027 1387.27 534.98 1377.3C532.033 1370.04 529.17 1361.02 526.39 1350.23C525.503 1346.78 524.82 1343.45 524.34 1340.26C523.61 1335.37 522.34 1331.37 522.14 1326.88C521.78 1318.92 520.13 1310.2 519.68 1301.33C518.787 1283.98 518.38 1271.03 518.46 1262.5C518.513 1255.95 518.95 1243.3 519.77 1224.56C520.1 1217.19 521.53 1208.96 521.88 1202.04C522.24 1194.85 523.78 1188.76 525.01 1180.52C525.337 1178.27 525.94 1176.31 526.82 1174.63C530.04 1168.33 533.533 1162.65 537.3 1157.58C541.98 1151.27 544.327 1148.11 544.34 1148.1C548.213 1142.55 552.093 1137.02 555.98 1131.49C558.26 1128.26 561.423 1125.07 565.47 1121.92Z" fill="#2A2A28"/>
<g id="Group">
<path id="quad_outer_r" d="M968.94 1176.1C970.307 1181.49 971.247 1186.2 971.76 1190.25C972.313 1194.62 973.017 1201.45 973.87 1210.74C974.51 1217.77 974.96 1224.62 975.22 1231.29C976.12 1254.72 975.973 1278.61 974.78 1302.97C974.433 1309.98 974.003 1315.36 973.49 1319.11C972.48 1326.48 972.26 1332.99 970.74 1340.57C967.967 1354.38 964.117 1367.59 959.19 1380.19C955.99 1388.37 952.317 1396.85 948.17 1405.64C945.563 1407.93 943.347 1410.38 941.52 1413.01C938.653 1417.12 935.127 1421.91 930.94 1427.38C928.05 1431.15 924.1 1435.05 919.21 1431.09C908.68 1422.57 908.16 1409.35 907.58 1396.29C906.93 1381.64 909.21 1367.69 914.18 1354.13C917.86 1344.07 919.78 1338.28 923.43 1329.23C926.697 1321.14 929.28 1312.56 931.18 1303.49C933.2 1293.88 934.73 1285.04 935.77 1276.97C936.87 1268.43 937.233 1259.36 936.86 1249.76C936.23 1234.04 936.28 1228.22 936 1207.75C935.98 1206.37 935.61 1201.99 934.89 1194.62C934.443 1190.11 934.13 1185.74 933.95 1181.49C933.45 1169.62 932.49 1157.87 931.07 1146.25C930.857 1144.54 930.5 1141.06 930 1135.79C929.5 1130.61 928.63 1126.68 928.55 1123.08C928.544 1122.81 928.622 1122.54 928.773 1122.31C928.923 1122.09 929.14 1121.91 929.393 1121.81C929.646 1121.71 929.924 1121.69 930.19 1121.75C930.456 1121.81 930.696 1121.95 930.88 1122.15C934.133 1125.68 938.38 1130.73 943.62 1137.3C944.867 1138.85 947.073 1141.82 950.24 1146.21C957.62 1156.42 961.63 1162.17 962.27 1163.46C964.29 1167.53 966.513 1171.75 968.94 1176.1Z" fill="#2A2A28"/>
</g>
<path id="ventroglute_l" d="M531 1149C531.587 1142.66 532.177 1138.09 532.77 1135.31C534.643 1126.42 535.792 1115.81 537.19 1108.56C539.046 1098.89 540.871 1089.26 542.665 1079.68C543.314 1076.25 543.979 1073.39 544.662 1071.11C545.78 1067.34 546.153 1063.85 547.198 1059.66C552.098 1040.15 554.851 1029.05 555.458 1026.34C557.135 1018.8 559.008 1008.14 561.078 994.348C561.816 989.434 562.921 984.611 564.39 979.877C568.737 965.828 573.723 951.869 579.347 938C584.101 944.436 589.928 949.805 596.828 954.106C603.811 958.468 611.019 962.421 618.45 965.964C621.7 967.52 623.753 969.801 624.609 972.806C625.571 976.187 624.433 980.675 624.609 984.674C624.657 985.718 624.564 987.303 624.329 989.431C623.615 996.013 622.735 1001.71 622.456 1008.43C622.201 1014.55 621.442 1020.9 620.179 1027.47C619.854 1029.16 618.609 1032.07 616.442 1036.17C613.972 1040.86 609.476 1048.16 602.956 1058.09C601.61 1060.13 600.061 1062.98 598.308 1066.62C598.288 1066.66 598.255 1066.69 598.215 1066.7C598.175 1066.72 598.131 1066.72 598.091 1066.7C598.071 1066.69 598.055 1066.68 598.046 1066.66C598.036 1066.64 598.034 1066.62 598.039 1066.59L598.453 1064.47C598.468 1064.4 598.456 1064.33 598.421 1064.27C598.386 1064.2 598.33 1064.16 598.261 1064.13C598.193 1064.1 598.116 1064.1 598.043 1064.12C597.971 1064.14 597.908 1064.18 597.863 1064.24L589.976 1075.46C589.943 1075.52 589.93 1075.58 589.941 1075.65C589.952 1075.71 589.985 1075.77 590.036 1075.82C590.086 1075.86 590.151 1075.89 590.22 1075.89C590.288 1075.89 590.355 1075.88 590.411 1075.84L595.131 1072.01C595.134 1072.01 595.137 1072 595.141 1072C595.145 1072 595.149 1072.01 595.152 1072.01C595.154 1072.01 595.156 1072.01 595.156 1072.02C595.156 1072.02 595.154 1072.03 595.152 1072.03C592.074 1076.54 588.182 1081.23 583.476 1086.12C580.985 1088.71 577.266 1093.36 572.319 1100.08C565.187 1109.76 559.257 1117.02 553.098 1125.72C552.857 1126.08 550.673 1128.71 546.546 1133.63C543.924 1136.76 538.742 1141.89 531 1149Z" fill="#2A2A28"/>
<g id="Group_2">
<path id="body_base_2" d="M560.61 1195.88L559.13 1248.01C558.423 1230.62 558.917 1213.24 560.61 1195.88Z" fill="#2A2A28"/>
</g>
<path id="ventroglute_r" d="M916.433 939C917.602 941.208 918.374 942.817 918.75 943.828C923.255 955.799 926.902 966.47 929.691 975.84C932.084 983.88 933.683 991.213 934.49 997.836C935.484 1006.03 935.628 1009.87 937.217 1017.18C940.734 1033.28 944.867 1049.13 948.496 1063.29C949.7 1067.99 950.926 1073.38 952.177 1079.45C953.767 1087.11 955.182 1094.33 956.248 1101.21C958.668 1116.88 961.795 1132.22 964 1148C957.198 1142.4 952.994 1138.75 951.388 1137.04C948.592 1134.07 944.491 1128.76 939.083 1121.1C927.753 1105.04 912.434 1084.77 898.51 1066.06C892.962 1058.6 888.235 1050.32 884.247 1043.59C879.458 1035.52 874.803 1027 873.952 1017.67C872.195 998.375 871.259 987.216 871.142 984.19C870.972 979.767 870.954 976.665 871.091 974.882C871.542 968.897 878.279 965.445 883.949 962.772C893.82 958.137 902.368 952.647 909.594 946.302C912.075 944.134 914.355 941.7 916.433 939Z" fill="#2A2A28"/>
<g id="Group_3">
<path id="body_base_3" d="M907.601 485.5L886.703 470.5H882.971L877 477L902.377 492L907.601 485.5Z" fill="#2A2A28"/>
<path id="body_base_4" d="M1059.98 620.81L1060.77 624.33L1059.45 629.96L1059.98 620.81Z" fill="#2A2A28"/>
<path id="body_base_5" d="M1023.33 628.84C1029.27 631.48 1035.02 634.367 1040.57 637.5C1043.2 638.98 1045.73 639.85 1048.48 640.71C1048.52 640.72 1048.55 640.739 1048.58 640.765C1048.62 640.791 1048.64 640.824 1048.66 640.861C1048.67 640.898 1048.68 640.938 1048.68 640.98C1048.68 641.021 1048.68 641.062 1048.66 641.1L1048.54 641.39C1048.51 641.46 1048.45 641.515 1048.38 641.542C1048.31 641.57 1048.23 641.57 1048.16 641.54L1043.91 639.71C1043.84 639.678 1043.75 639.674 1043.68 639.7C1043.6 639.726 1043.54 639.78 1043.51 639.85L1043.37 640.1C1043.35 640.127 1043.35 640.158 1043.36 640.188C1043.37 640.218 1043.38 640.244 1043.41 640.26L1046.78 642.1C1038.49 638.467 1030.67 634.047 1023.33 628.84Z" fill="#2A2A28"/>
<path id="body_base_6" d="M588.77 1086.82C585.79 1093.71 583.443 1100.86 581.73 1108.29C578.11 1124 575.71 1133.4 573.47 1145.65C571.31 1157.51 569.89 1166.22 569.21 1171.78C567.997 1181.6 567.113 1190.17 566.56 1197.5C565.04 1217.43 565.8 1238.58 566.55 1259.27C566.9 1268.81 568.33 1277.83 569.68 1287.12C570.11 1290.03 571.06 1292.51 571.11 1295.31C571.117 1295.6 571.153 1295.88 571.22 1296.15C574.787 1311.35 578.017 1324.67 580.91 1336.12C582.557 1342.62 584.89 1349.12 587.91 1355.61C590.69 1361.6 593.99 1367.3 599.91 1370.2C594.44 1372.66 590.02 1376.5 591.67 1383.08C592.903 1388.01 593.677 1393.25 593.99 1398.81C594.45 1407.13 592.23 1414.05 589.06 1422.06C585.62 1430.75 579.2 1437.34 569.32 1437.53C568.951 1437.54 568.587 1437.44 568.271 1437.25C567.955 1437.05 567.701 1436.77 567.54 1436.44L562.76 1426.51C565.493 1429.21 568.25 1431.45 571.03 1433.23C573.08 1434.54 573.78 1433.2 575.22 1432.2C579.687 1429.1 582.81 1424.47 584.59 1418.31C586.597 1411.39 587.597 1404.83 587.59 1398.62C587.59 1394.79 587.47 1389.97 587.23 1384.18C587.07 1380.34 586.333 1375.59 585.02 1369.93C582.667 1359.8 581.333 1354.25 581.02 1353.29C579.607 1349.01 577.513 1343.47 574.74 1336.68C570.753 1326.91 567.26 1315.69 564.26 1303.03C562.187 1294.25 560.81 1286.32 560.13 1279.25C559.33 1270.84 558.997 1260.42 559.13 1248.01L560.61 1195.88C560.843 1191.31 560.957 1186.72 560.95 1182.1C560.943 1180.31 561.047 1178.6 561.26 1176.99C561.48 1175.28 561.643 1173.57 561.75 1171.86C561.95 1168.39 562.147 1165.83 562.34 1164.17C563.927 1150.5 564.97 1136.42 565.47 1121.92C568.903 1116.36 572.73 1110.2 576.95 1103.45C580.57 1097.66 584.51 1092.11 588.77 1086.82Z" fill="#2A2A28"/>
</g>
<g id="Group_4">
<path id="body_base_7" d="M959.33 617.98C957.177 621.98 954.617 625.673 951.65 629.06C953.537 624.72 956.097 621.027 959.33 617.98Z" fill="#2A2A28"/>
<path id="body_base_8" d="M978.72 770.28C976.307 767.153 974.473 763.72 973.22 759.98L978.72 770.28Z" fill="#2A2A28"/>
</g>
<path id="quad_front_r" d="M912.86 1104.8C913.533 1107.47 915.077 1113.52 917.49 1122.96C919.057 1129.09 920.253 1135.22 921.08 1141.34C922.18 1149.53 923.21 1155.71 924.17 1159.88C927.03 1172.25 929.07 1179.72 929.76 1189.1C930.43 1198.23 929.71 1208.34 930.49 1221.09C930.643 1223.62 930.697 1226.17 930.65 1228.75C930.41 1242.34 929.28 1254.12 928.41 1266.85C928.183 1270.17 927.827 1273.45 927.34 1276.68C926.573 1281.75 926.043 1285.01 925.75 1286.48C925.47 1287.91 925.303 1288.92 925.25 1289.52C925.023 1292.33 924.62 1294.99 924.04 1297.5C921.533 1308.38 919.87 1315.32 919.05 1318.31C916.957 1325.98 915.66 1330.83 915.16 1332.87C913.5 1339.63 911.68 1344.1 908.99 1351.77C907.75 1355.29 906.013 1359.06 903.78 1363.08C901.36 1367.42 897.63 1370.23 892.59 1371.51C892.292 1371.58 891.982 1371.61 891.67 1371.59C884.78 1371.17 879.92 1366.88 875.19 1361.96C875.095 1361.86 874.973 1361.79 874.839 1361.76C874.704 1361.73 874.564 1361.74 874.437 1361.79C874.309 1361.84 874.199 1361.93 874.121 1362.05C874.043 1362.16 874.001 1362.29 874 1362.43C873.97 1364.11 874.63 1366.11 875 1368.54C877.43 1384.71 877.23 1401.13 875.75 1417.75C875.103 1425.02 873.237 1432.07 870.15 1438.9C867.34 1445.11 862.94 1451.54 856.48 1454.53C851.327 1456.92 845.48 1458.03 838.94 1457.84C836.167 1457.76 833.5 1457.07 830.94 1455.78C815.433 1447.92 806.18 1435.35 803.18 1418.08C801.8 1410.12 799.38 1400.34 798.28 1391.99C798.24 1391.68 797.76 1386.45 796.84 1376.3C796.527 1372.87 796.393 1367.46 796.44 1360.05C796.507 1349.04 796.987 1340.6 797.88 1334.74C798.933 1327.82 799.573 1323.56 799.8 1321.97C800.273 1318.6 800.88 1315.76 801.62 1313.44C801.94 1312.45 802.59 1309.6 803.57 1304.89C804.99 1298.11 807.37 1289.34 808.81 1284.77C810.07 1280.76 811.537 1275.32 813.21 1268.46C814.95 1261.33 817.8 1253.88 819.52 1247.82C821.787 1239.77 823.11 1235.18 823.49 1234.07C827.13 1223.34 829 1213.57 832.78 1202.29C837.44 1188.4 839.8 1179.4 845.04 1162.63C847.127 1155.92 848.86 1149.7 850.24 1143.97C852.63 1134.04 854.83 1127.9 856.4 1118.86C856.673 1117.29 857.813 1112.34 859.82 1104.02C861.013 1099.1 862.03 1094.13 862.87 1089.11C864.783 1077.73 866.387 1065.26 867.68 1051.7C868.02 1048.09 868.71 1045.2 869.75 1043.03C870.563 1041.32 871.81 1041.12 873.49 1042.43C875.923 1044.31 878.37 1046.75 880.83 1049.75C885.097 1054.96 889.763 1061.29 894.83 1068.74C899.343 1075.37 902.233 1079.77 903.5 1081.92C906.087 1086.3 908.35 1091.05 910.29 1096.17C911.063 1098.22 911.92 1101.1 912.86 1104.8Z" fill="#2A2A28"/>
<path id="pec_l" d="M745.857 550.22C745.944 571.228 745.761 596.606 745.992 613.152C746.185 626.717 742.87 639.036 736.047 650.106C733.765 653.809 729.481 658.659 725.553 660.395C722.774 661.626 717.498 663.229 709.726 665.205C699.839 667.71 692.204 669.936 681.903 672.051C675.074 673.455 668.188 674.689 661.243 675.754C649.703 677.517 638.311 678.242 627.066 677.929C619.814 677.73 612.516 675.694 605.174 671.822C600.854 669.546 595.02 664.454 587.671 656.543C577.948 646.071 570.878 637.974 566.462 632.253C559.961 623.817 553.87 613.455 548.19 601.166C546.418 597.314 546.698 594.779 548.546 591.227C556.755 575.392 563.279 562.246 568.118 551.787C571.096 545.34 573.927 539.635 576.61 534.672C583.146 522.567 587.97 514.044 596.731 505.672C610.664 492.345 619.605 483.833 623.552 480.134C628.667 475.324 634.232 472.659 640.246 472.14C644.129 471.808 649.023 472.067 654.928 472.919C680.363 476.611 699.236 479.146 711.546 480.523C719.719 481.441 725.621 484.645 731.503 490.982C735.752 495.566 739.336 500.462 742.257 505.672C745.395 511.28 745.366 517.457 745.674 524.583C745.732 525.794 745.793 534.34 745.857 550.22Z" fill="#2A2A28"/>
<path id="bicep_l" d="M445.17 819.9C444.477 813.947 443.737 809.233 442.95 805.76C442.483 803.707 440.92 799.207 438.26 792.26C434.327 781.967 431.617 771.143 430.13 759.79C429.323 753.617 429.187 748.027 429.72 743.02C432.56 716.53 440.89 693.16 451.33 665.42C454.39 657.26 459.11 648.46 464.31 642.34C465.51 640.927 467.327 639.413 469.76 637.8C480.24 630.89 489.8 626.49 501.13 621.52C508.31 618.36 513.2 614.92 519.2 611.2C521.467 609.787 523.247 609.007 524.54 608.86C527.97 608.47 533.63 613.72 535.5 616.06C542.027 624.22 546.127 632.097 547.8 639.69C549.487 647.317 549.577 656.107 548.07 666.06C546.023 679.573 543.197 694.123 539.59 709.71C537.11 720.42 534.33 728.01 530.48 740.98C528.027 749.247 524.677 757.827 520.43 766.72C515.303 777.433 508.157 786.61 498.99 794.25C491.9 800.15 484.54 803.85 474.72 807.5C465.027 811.1 455.697 815.493 446.73 820.68C446.58 820.765 446.412 820.812 446.239 820.817C446.067 820.821 445.896 820.783 445.742 820.706C445.588 820.629 445.455 820.515 445.355 820.375C445.255 820.234 445.192 820.071 445.17 819.9Z" fill="#2A2A28"/>
<path id="bicep_r" d="M978.72 770.28L973.22 759.98C971.533 757.68 970.213 755.187 969.26 752.5C966.57 744.9 963.98 739.83 961.97 733.28C961.957 733.239 961.935 733.2 961.906 733.168C961.877 733.135 961.842 733.109 961.802 733.091C961.763 733.074 961.72 733.064 961.676 733.064C961.633 733.064 961.59 733.073 961.55 733.09L961.21 733.23C961.132 733.266 961.07 733.33 961.039 733.408C961.007 733.487 961.007 733.573 961.04 733.65L966.85 747.29C966.876 747.35 966.893 747.414 966.9 747.48C968.18 755.58 972.58 762.28 977.62 770.39C978.607 771.977 979.367 773.447 979.9 774.8C979.908 774.821 979.907 774.844 979.899 774.864C979.891 774.885 979.876 774.902 979.856 774.912C979.836 774.921 979.813 774.924 979.792 774.918C979.771 774.912 979.752 774.899 979.74 774.88C977.07 770.66 972.93 766.08 970.54 761.22C968.98 758.053 967.857 755.893 967.17 754.74C966.342 753.348 965.734 751.834 965.37 750.25C964.497 746.45 963.307 742.263 961.8 737.69C959.23 729.86 959.09 723.41 956.37 715.27C954.89 710.843 953.763 707.013 952.99 703.78C952.917 703.475 952.894 703.158 952.92 702.84C953.107 700.307 953.013 698.21 952.64 696.55C950.64 687.56 950.06 678.08 948.33 669.19C946.24 658.39 944.83 652.61 945.62 643.9C945.619 643.896 945.62 643.892 945.622 643.889C945.623 643.886 945.626 643.883 945.629 643.881C945.632 643.878 945.636 643.877 945.639 643.877C945.643 643.877 945.647 643.878 945.65 643.88C945.657 643.88 945.663 643.88 945.67 643.88C945.673 643.883 945.676 643.886 945.678 643.89C945.679 643.893 945.68 643.897 945.68 643.9C945.82 645.56 945.83 647.2 945.87 648.86C946.23 641.84 948.157 635.24 951.65 629.06C954.617 625.673 957.177 621.98 959.33 617.98C962.67 612.78 966.57 608.68 973.24 610.61C976.273 611.49 980.627 613.193 986.3 615.72C988.34 616.627 994.397 619.49 1004.47 624.31C1008.77 626.37 1013 629.14 1018.7 632.29C1021.17 633.65 1024.55 636.187 1028.86 639.9C1034.15 644.46 1038.36 650.423 1041.51 657.79C1044.24 664.183 1045.76 668.823 1046.07 671.71C1046.08 671.778 1046.1 671.843 1046.14 671.899C1046.18 671.955 1046.23 672 1046.29 672.03C1046.38 672.077 1046.48 672.01 1046.57 671.83C1046.58 671.813 1046.59 671.798 1046.61 671.788C1046.62 671.777 1046.64 671.771 1046.66 671.77C1046.68 671.769 1046.7 671.773 1046.72 671.782C1046.73 671.791 1046.75 671.804 1046.76 671.82C1047.48 673.053 1048.01 674.337 1048.35 675.67C1049.66 680.75 1051.46 685.977 1053.73 691.35C1056.9 698.86 1058.97 706.58 1061.44 714.99C1061.69 715.857 1061.95 717.75 1062.2 720.67C1062.24 721.141 1062.35 721.603 1062.53 722.04C1064.14 726.12 1064.36 730.8 1064.96 733.45C1066.29 739.38 1065.89 744.26 1066.17 752.05C1066.17 752.055 1066.17 752.061 1066.17 752.066C1066.18 752.07 1066.18 752.074 1066.19 752.075C1066.19 752.076 1066.2 752.076 1066.2 752.073C1066.21 752.07 1066.21 752.065 1066.21 752.06C1066.22 752.047 1066.22 752.037 1066.23 752.03C1066.24 752.011 1066.25 751.99 1066.25 751.97C1066.42 750.03 1066.54 748.087 1066.61 746.14C1066.64 746.147 1066.64 746.163 1066.62 746.19C1066.61 746.197 1066.61 746.212 1066.61 746.233C1066.6 746.254 1066.6 746.281 1066.6 746.31C1066.61 757.797 1064.97 768.283 1061.66 777.77C1059.74 783.283 1058.76 786.133 1058.71 786.32C1057.82 789.8 1055.04 794.39 1054.5 797.7C1054.11 800.033 1052.82 806.957 1050.63 818.47C1050.63 818.499 1050.61 818.527 1050.6 818.552C1050.58 818.577 1050.56 818.598 1050.54 818.615C1050.51 818.632 1050.49 818.644 1050.46 818.65C1050.43 818.656 1050.4 818.656 1050.37 818.65H1050.36C1050.32 818.641 1050.28 818.611 1050.25 818.564C1050.23 818.518 1050.21 818.46 1050.22 818.4L1050.7 812.74C1050.7 812.7 1050.7 812.661 1050.68 812.629C1050.66 812.598 1050.63 812.577 1050.6 812.57C1050.58 812.57 1050.56 812.563 1050.55 812.55C1050.54 812.542 1050.53 812.537 1050.52 812.534C1050.5 812.531 1050.49 812.532 1050.48 812.535C1050.47 812.538 1050.46 812.543 1050.45 812.551C1050.45 812.559 1050.44 812.569 1050.44 812.58L1049.89 818.73C1049.88 818.857 1049.84 818.98 1049.77 819.087C1049.7 819.194 1049.6 819.283 1049.49 819.346C1049.38 819.409 1049.26 819.444 1049.13 819.448C1049 819.452 1048.88 819.425 1048.76 819.37C1044.87 817.497 1041.29 815.803 1038.01 814.29C1029.26 810.25 1017.34 806.35 1010.04 803.26C1006.58 801.79 1001.9 798.72 998.59 795.7C992.443 790.073 987.047 784.247 982.4 778.22C981.287 776.78 980.06 774.133 978.72 770.28Z" fill="#2A2A28"/>
<path id="body_base_9" d="M989.73 610.67C989.813 610.67 989.88 610.603 989.88 610.52C989.88 610.437 989.813 610.37 989.73 610.37C989.647 610.37 989.58 610.437 989.58 610.52C989.58 610.603 989.647 610.67 989.73 610.67Z" fill="#2A2A28"/>
<path id="delt_l" d="M572.663 448C576.108 449.353 579.825 450.37 583.816 451.05C589.961 452.104 596.234 454.017 602.635 456.791C610.198 460.071 616.088 462.958 620.306 465.451C625.686 468.621 621.89 474.792 618.594 477.722C614.738 481.142 607.313 487.163 596.319 495.783C589.288 501.297 583.827 506.151 579.935 510.344C578.553 511.838 576.331 515.241 573.269 520.555C569.654 526.816 567.527 530.483 566.889 531.556C564.742 535.15 562.651 538.837 560.616 542.617C554.769 553.498 549.726 563.595 545.487 572.909C544.09 575.983 542.074 579.663 539.437 583.95C534.95 591.26 526.615 598.331 519.736 603.011C512.346 608.032 503.755 613.682 495.228 618.102C481.562 625.196 473.294 629.443 470.423 630.843C469.332 631.37 468.13 632.067 466.819 632.933C460.957 636.794 454.436 639.76 447.256 641.834C446.588 642.029 445.876 642.053 445.195 641.903C444.513 641.754 443.885 641.437 443.375 640.984C441.972 639.737 440.848 638.087 440.005 636.034C438.502 632.42 436.734 628.763 434.699 625.063C435.387 622.196 435.674 619.349 435.56 616.522C435.383 611.888 434.997 603.771 434.402 592.17C433.856 581.423 433.866 573.452 434.433 568.259C435.986 553.991 439.601 541.157 445.278 529.756C450.52 519.235 455.953 509.104 462.917 498.564C465.625 494.463 467.804 491.513 469.456 489.713C483.692 474.242 503.628 461.131 524.786 455.541C534.61 452.947 543.371 451.177 551.069 450.23C557.033 449.49 563.094 449.58 568.835 448.59C570.309 448.337 571.585 448.14 572.663 448Z" fill="#2A2A28"/>
<path id="pec_r" d="M755.143 550.22C755.056 571.228 755.239 596.606 755.008 613.152C754.815 626.717 758.13 639.036 764.953 650.106C767.235 653.809 771.519 658.659 775.447 660.395C778.226 661.626 783.502 663.229 791.274 665.205C801.161 667.71 808.796 669.936 819.097 672.051C825.926 673.455 832.812 674.689 839.757 675.754C851.297 677.517 862.689 678.242 873.934 677.929C881.186 677.73 888.484 675.694 895.826 671.822C900.146 669.546 905.98 664.454 913.329 656.543C923.052 646.071 930.122 637.974 934.538 632.253C941.039 623.817 947.13 613.455 952.81 601.166C954.582 597.314 954.302 594.779 952.454 591.227C944.245 575.392 937.721 562.246 932.882 551.787C929.904 545.34 927.073 539.635 924.39 534.672C917.854 522.567 913.03 514.044 904.269 505.672C890.336 492.345 881.395 483.833 877.448 480.134C872.333 475.324 866.768 472.659 860.754 472.14C856.871 471.808 851.977 472.067 846.072 472.919C820.637 476.611 801.764 479.146 789.454 480.523C781.281 481.441 775.379 484.645 769.497 490.982C765.248 495.566 761.664 500.462 758.743 505.672C755.605 511.28 755.634 517.457 755.326 524.583C755.268 525.794 755.207 534.34 755.143 550.22Z" fill="#2A2A28"/>
<path id="delt_r" d="M928.337 448C924.892 449.353 921.175 450.37 917.184 451.05C911.039 452.104 904.766 454.017 898.365 456.791C890.802 460.071 884.912 462.958 880.694 465.451C875.314 468.621 879.11 474.792 882.406 477.722C886.262 481.142 893.687 487.163 904.681 495.783C911.712 501.297 917.173 506.151 921.065 510.344C922.447 511.838 924.669 515.241 927.731 520.555C931.346 526.816 933.473 530.483 934.111 531.556C936.258 535.15 938.349 538.837 940.384 542.617C946.231 553.498 951.274 563.595 955.513 572.909C956.91 575.983 958.926 579.663 961.563 583.95C966.05 591.26 974.385 598.331 981.264 603.011C988.654 608.032 997.245 613.682 1005.77 618.102C1019.44 625.196 1027.71 629.443 1030.58 630.843C1031.67 631.37 1032.87 632.067 1034.18 632.933C1040.04 636.794 1046.56 639.76 1053.74 641.834C1054.41 642.029 1055.12 642.053 1055.81 641.903C1056.49 641.754 1057.12 641.437 1057.62 640.984C1059.03 639.737 1060.15 638.087 1061 636.034C1062.5 632.42 1064.27 628.763 1066.3 625.063C1065.61 622.196 1065.33 619.349 1065.44 616.522C1065.62 611.888 1066 603.771 1066.6 592.17C1067.14 581.423 1067.13 573.452 1066.57 568.259C1065.01 553.991 1061.4 541.157 1055.72 529.756C1050.48 519.235 1045.05 509.104 1038.08 498.564C1035.38 494.463 1033.2 491.513 1031.54 489.713C1017.31 474.242 997.372 461.131 976.214 455.541C966.39 452.947 957.629 451.177 949.931 450.23C943.967 449.49 937.906 449.58 932.165 448.59C930.691 448.337 929.415 448.14 928.337 448Z" fill="#2A2A28"/>
</g>
</svg>
