<svg width="1491" height="2109" viewBox="0 0 1491 2109" fill="none" xmlns="http://www.w3.org/2000/svg">
<g id="SUBQ_FRONTT 1">
<path id="body_shell" d="M730.857 135.922C759.507 130.172 789.527 137.372 811.347 156.882C821.817 166.232 829.147 177.772 832.897 190.822C835.757 200.756 837.27 210.363 837.437 219.643C837.604 228.636 837.291 237.519 836.497 246.292C836.485 246.413 836.501 246.535 836.545 246.648C836.59 246.762 836.661 246.863 836.752 246.944C836.844 247.025 836.954 247.083 837.073 247.114C837.192 247.145 837.317 247.148 837.437 247.122C838.904 246.809 839.994 246.529 840.707 246.282C847.937 243.792 853.028 250.053 853.618 256.603C855.104 273.349 851.617 288.969 843.158 303.462C840.818 307.469 837.424 310.409 832.977 312.282C831.711 312.816 830.954 314.032 830.707 315.932C829.807 323.005 827.7 332.262 824.387 343.702C824.047 344.882 823.867 346.119 823.847 347.412C823.634 360.312 823.184 371.482 822.497 380.922C821.877 389.452 829.947 397.242 836.727 401.042C845.807 406.122 853.691 410.143 860.377 413.103C867.357 416.182 874.788 418.852 882.078 422.592C889.657 426.492 896.991 431.019 904.078 436.172C911.231 441.378 916.5 445.195 919.887 447.622C927.347 452.952 934.617 454.652 944.647 455.532C956.147 456.532 963.447 457.259 966.547 457.712C982.467 460.052 996.47 465.032 1008.56 472.652C1026.34 483.862 1041.07 502.912 1050.37 522.902C1060.69 545.042 1064.76 568.465 1062.59 593.172C1062.05 599.232 1061.14 608.062 1059.86 619.662C1059.74 620.742 1059.91 622.822 1060.41 624.262C1064.9 637.392 1073.78 649.582 1077.83 663.242C1080.85 673.435 1082.81 682.262 1083.71 689.722C1085 700.435 1086.14 712.658 1087.12 726.392C1088.07 739.662 1090.98 754.843 1097.15 767.353C1100.59 774.332 1107.02 782.312 1110.79 788.992C1114.09 794.822 1121.28 805.452 1125.19 813.382C1129.99 823.128 1133.66 833.352 1136.2 844.052C1138.73 854.732 1140.47 865.142 1141.43 875.282C1144.35 906.302 1146.35 933.702 1152.87 961.652C1153.95 966.299 1155.92 974.022 1158.79 984.822C1163.16 1001.31 1166.72 1012.33 1170.96 1027.72C1171.68 1030.32 1174.65 1033.03 1177.59 1034.59C1181.93 1036.9 1186.21 1039.46 1190.43 1042.28C1195.99 1046 1201.25 1048.38 1206.17 1051.3C1213.22 1055.49 1219.09 1062.84 1224.14 1070.08C1226.1 1072.9 1229.36 1077.91 1233.91 1085.09C1239.74 1094.31 1246.26 1101.04 1253.64 1107.83C1256.04 1110.04 1258.14 1113.95 1255.45 1116.84C1251.83 1120.72 1246.5 1122.7 1241.31 1121.22C1233.94 1119.11 1227.01 1113.6 1221.47 1108.44C1216.72 1104.02 1212.1 1099.91 1207.61 1096.09C1207.47 1095.98 1207.31 1095.9 1207.14 1095.88C1206.96 1095.85 1206.78 1095.87 1206.62 1095.93C1206.46 1096 1206.31 1096.11 1206.21 1096.25C1206.1 1096.39 1206.04 1096.56 1206.02 1096.73C1205.91 1097.81 1206.04 1098.92 1206.42 1100.08C1210.22 1111.9 1213.61 1126.04 1217.87 1137.92C1223.36 1153.2 1229.02 1170.68 1233.32 1187.15C1235.73 1196.38 1234.88 1205.5 1223.54 1207.2C1223.22 1207.25 1222.9 1207.25 1222.58 1207.2C1215.93 1206.19 1212.52 1198.46 1210.83 1192.9C1206.5 1178.68 1201.51 1163.08 1195.72 1149.78C1195.04 1148.24 1194.37 1147.02 1193.73 1146.14C1193.56 1145.91 1193.32 1145.86 1193.02 1145.99C1192.94 1146.03 1192.88 1146.1 1192.82 1146.21C1192.78 1146.28 1192.76 1146.35 1192.76 1146.42C1192.71 1147.23 1194.49 1154.64 1198.11 1168.64C1198.27 1169.28 1201.87 1183.44 1208.89 1211.1C1209.87 1214.98 1210.23 1217.67 1209.99 1219.18C1209.05 1224.8 1204.45 1228.25 1198.74 1227.47C1193.61 1226.78 1190.88 1223.06 1189.1 1218.43C1185.16 1208.21 1180.62 1194.24 1175.46 1176.53C1173.04 1168.25 1170.9 1161.82 1169.05 1157.26C1168.89 1156.86 1168.71 1156.59 1168.53 1156.44C1168.44 1156.37 1168.34 1156.33 1168.23 1156.32C1168.12 1156.31 1168.01 1156.33 1167.91 1156.39C1167.82 1156.44 1167.74 1156.52 1167.69 1156.62C1167.65 1156.72 1167.63 1156.83 1167.65 1156.94C1168.71 1164.64 1170.35 1172.79 1172.58 1181.39C1175.22 1191.61 1176.55 1196.73 1176.55 1196.73C1177.61 1200.78 1178.77 1206.6 1180.05 1214.18C1180.7 1218.05 1179.97 1220.91 1177.85 1222.73C1172.94 1226.95 1165.33 1225.36 1161.3 1220.15C1160.14 1218.66 1159.04 1215.78 1157.98 1211.51C1155.44 1201.33 1152.13 1189.07 1148.03 1174.74C1146.4 1169.04 1145.26 1162.49 1142.81 1156.64C1142.66 1156.3 1142.49 1156.04 1142.29 1155.88C1142.19 1155.8 1142.06 1155.75 1141.94 1155.73C1141.81 1155.72 1141.68 1155.74 1141.56 1155.79C1141.44 1155.84 1141.34 1155.93 1141.26 1156.03C1141.19 1156.14 1141.15 1156.26 1141.14 1156.39C1141.02 1157.82 1141.12 1159.66 1141.43 1161.89C1142.35 1168.6 1144.01 1178.75 1146.41 1192.33C1146.92 1195.26 1147.05 1197.79 1146.79 1199.91C1145.79 1208.05 1136.47 1208.59 1131.71 1203.52C1129.43 1201.09 1128.02 1197.62 1127.39 1194.24C1126.43 1189.09 1125.86 1186.99 1125.24 1182.36C1124.6 1177.68 1123.68 1172.97 1122.46 1168.23C1118.36 1152.32 1113.9 1137.63 1109.08 1124.16C1105.05 1112.9 1102.62 1105.32 1101.8 1101.4C1099.31 1089.56 1098.84 1076.65 1100.13 1064.37C1100.76 1058.45 1099.84 1053.77 1097.94 1048.82C1093.21 1036.5 1087.59 1024.77 1081.07 1013.64C1066.51 988.762 1052.39 968.312 1036.06 945.582C1025.97 931.552 1018.17 918.772 1013.05 904.732C1009.79 895.832 1006.81 885.825 1004.09 874.712C999.237 854.892 996.558 842.852 994.198 831.012C992.228 821.062 992.887 810.092 988.937 801.052C987.997 798.885 984.487 792.481 978.408 781.842C973.878 773.902 969.447 764.962 966.147 755.782C958.617 734.862 952.927 713.352 947.677 691.332C947.384 690.105 946.991 689.025 946.497 688.092C946.439 687.988 946.35 687.904 946.244 687.852C946.137 687.799 946.017 687.779 945.9 687.797C945.783 687.814 945.674 687.868 945.589 687.949C945.505 688.031 945.448 688.136 945.427 688.252C944.927 690.719 943.534 696.809 941.247 706.522C937.677 721.672 933.187 735.262 928.107 749.712C925.237 757.872 918.757 769.902 915.637 778.722C913.467 784.862 910.967 789.562 910.007 796.202C907.921 810.649 908.163 825.025 910.737 839.332C911.857 845.542 913.907 850.052 915.087 856.372C917.847 871.222 918.597 887.562 916.027 902.662C914.547 911.392 914.017 917.862 914.557 926.592C914.59 927.135 914.712 927.669 914.917 928.172C917.327 934.182 917.988 940.032 920.368 945.442C920.655 946.097 921.975 949.62 924.328 956.012C925.628 959.552 926.591 962.619 927.217 965.212C928.127 969.012 930.307 973.192 931.087 977.542C932.107 983.229 932.61 989.352 932.597 995.912C932.587 1000.75 933.217 1005.23 934.517 1010.35C938.577 1026.43 942.367 1042.67 945.887 1059.07C948.634 1070.83 951.33 1082.65 953.977 1094.54C956.644 1106.52 958.877 1117.73 960.677 1128.16C963.23 1142.97 965.05 1154.26 966.137 1162.02C968.73 1180.46 970.3 1193.51 970.847 1201.17C971.247 1206.69 971.71 1214.28 972.237 1223.94C972.63 1231.18 972.88 1238.78 972.987 1246.76C973.087 1254.8 973.17 1262.84 973.237 1270.86C973.83 1278.36 973.84 1284.46 973.267 1289.16C972.487 1295.57 971.774 1301.96 971.127 1308.34C970.207 1327.92 966.82 1346.98 960.967 1365.5C957.667 1375.94 951.808 1389.45 947.448 1399.13C944.321 1406.08 942.184 1412.17 941.037 1417.4C936.828 1436.61 939.967 1455.52 941.207 1475.16C942.917 1502.02 943.347 1516.92 946.187 1532.87L949.957 1546.68C951.214 1551.27 952.47 1555.86 953.727 1560.44C957.114 1572.78 959.377 1582.03 960.517 1588.19C962.357 1598.16 963.777 1608.73 964.777 1619.91C966.447 1638.61 964.247 1655.94 960.427 1674.59C957.914 1686.85 954.307 1703.55 949.607 1724.68C948.113 1731.39 945.784 1742.89 942.618 1759.16C940.764 1768.66 938.547 1779.7 935.967 1792.27C931.507 1814.07 928.007 1831.88 926.307 1851.16C925.674 1858.31 925.524 1863.23 925.857 1865.92C926.31 1869.58 927.297 1874.32 928.817 1880.15C931.187 1889.26 931.257 1899.78 930.357 1909.27C930.266 1910.25 930.498 1911.22 931.017 1912.05C933.877 1916.64 937.917 1921.15 941.007 1925.77C946.714 1934.32 951.601 1941.28 955.667 1946.65C963.247 1956.65 973.907 1965.26 985.167 1973.56C992.407 1978.91 996.477 1986.95 994.387 1996.23C993.217 2001.47 991.017 2002.78 985.948 2004.55C981.014 2006.27 975.737 2007.65 970.118 2008.69C955.871 2011.33 947.743 2012.77 945.737 2013.03C939.687 2013.83 932.247 2013.37 927.967 2014.21C911.597 2017.4 896.917 2014.58 883.667 2003.91C878.167 1999.48 874.707 1995.25 873.217 1989.2C872.327 1985.57 871.857 1982.73 868.927 1981C868.5 1980.75 866.42 1979.65 862.687 1977.71C852.877 1972.61 847.597 1964.81 849.137 1953.65C850.424 1944.32 852.08 1934.41 854.107 1923.92C855.987 1914.18 852.107 1903.86 851.397 1894.9C850.707 1886.33 852.717 1879.05 855.967 1869.58C859.477 1859.35 859.467 1846.31 858.427 1835.79C857.477 1826.19 855.407 1814.72 852.527 1802.26C852.306 1801.3 849.999 1791.4 845.607 1772.56C844.153 1766.32 841.588 1756.48 837.908 1743.05C834.041 1728.93 831.028 1719.28 828.868 1714.1C826.501 1708.41 823.477 1701.03 819.797 1691.95C810.797 1669.73 807.19 1647.37 808.977 1624.87C809.624 1616.77 810.951 1607.33 812.957 1596.54C814.744 1586.92 817.277 1573.96 820.557 1557.66C821.017 1555.35 821.71 1549.6 822.637 1540.42C823.487 1531.93 822.157 1526.06 818.797 1517.32C810.264 1495.17 803.621 1474.03 798.868 1453.9C791.358 1422.12 787.668 1392.23 782.658 1352.85C781.651 1344.96 780.174 1336.04 778.227 1326.08C777.154 1320.6 774.987 1312.24 771.727 1300.99C763.694 1273.29 758.037 1244.01 754.757 1213.15C753.471 1201.03 752.618 1191.28 752.198 1183.91C751.631 1174.01 751.607 1165.68 752.127 1158.91C752.781 1150.41 753.014 1142.92 752.828 1136.47C752.807 1135.67 752.472 1134.91 751.897 1134.35C751.322 1133.79 750.55 1133.48 749.747 1133.48H746.537C745.738 1133.48 744.97 1133.79 744.398 1134.35C743.826 1134.91 743.495 1135.67 743.477 1136.47C743.244 1146.15 743.197 1151.73 743.337 1153.2C744.251 1162.69 744.617 1169.76 744.437 1174.4C743.677 1193.92 741.58 1214.98 738.147 1237.6C735.047 1257.99 729.291 1283.71 720.877 1314.75C719.137 1321.17 717.417 1329.56 715.717 1339.91C713.417 1353.99 711.544 1366.8 710.097 1378.35C709.264 1385 708.387 1391.22 707.467 1397C706.597 1402.55 705.157 1413.49 703.667 1421.84C700.614 1438.87 696.794 1455.79 692.207 1472.59C687.347 1490.43 681.957 1504.31 675.057 1522.66C670.797 1534.01 672.977 1547.78 675.207 1559.73C676.387 1566.07 677.374 1570.85 678.167 1574.06C680.767 1584.56 682.907 1593.11 684.177 1604.48C685.09 1612.69 685.671 1618.13 685.917 1620.79C686.971 1632.47 686.783 1643.9 685.357 1655.1C684.737 1659.91 683.444 1665.57 681.477 1672.05C679.124 1679.81 677.29 1685.33 675.977 1688.59C670.107 1703.18 663.878 1717.07 659.408 1732.73C655.308 1747.12 648.687 1769.97 644.387 1787.31C640.057 1804.78 636.767 1818.09 634.487 1834.35C633.113 1844.13 633.107 1853.67 634.467 1862.96C635.317 1868.81 639.027 1876.75 639.787 1882.52C640.601 1888.64 640.577 1894.08 639.717 1898.84C637.937 1908.73 637.208 1916.74 638.948 1925.95C640.948 1936.58 643.537 1946.53 644.097 1957.17C644.49 1964.45 641.971 1970.25 636.537 1974.57C633.127 1977.28 630.157 1978.24 625.807 1980.62C621.837 1982.79 621.668 1988.99 620.408 1991.73C616.438 2000.4 606.347 2007.88 597.747 2011.88C590.507 2015.24 583.027 2016.51 575.307 2015.69C570.937 2015.23 564.897 2013.58 560.007 2013.57C555.557 2013.57 553.407 2013.66 549.767 2013.08C537.321 2011.09 529.411 2009.8 526.037 2009.2C520.957 2008.32 515.824 2006.94 510.637 2005.07C504.107 2002.71 500.528 2000.85 500.198 1992.91C499.668 1979.64 510.607 1972.55 519.847 1965.35C532.967 1955.12 543.657 1942.31 552.607 1927.9C555.26 1923.64 558.537 1918.68 562.437 1913.02C564.377 1910.21 563.087 1903.36 562.737 1897.95C562.37 1892.25 562.824 1886.4 564.097 1880.4C565.557 1873.5 566.437 1869.26 566.737 1867.66C567.57 1863.22 567.587 1857.22 566.787 1849.66C565.247 1835.28 562.957 1820.34 559.917 1804.84C547.957 1743.89 543.118 1717.83 536.368 1686.43C533.728 1674.15 531.68 1662.17 530.227 1650.48C526.457 1620.09 533.337 1589.78 540.757 1560.11C541.784 1556.01 543.22 1550.85 545.067 1544.64C546.587 1539.52 548.037 1534.37 549.417 1529.19L549.662 1527.99C550.203 1525.24 550.535 1522.82 550.658 1520.73C551.364 1509.02 552.037 1495.06 552.677 1478.84C552.944 1472.1 553.474 1465.14 554.267 1457.96C554.887 1452.39 555.29 1445.04 555.477 1435.91C555.584 1430.67 555.371 1425.67 554.837 1420.92C554.307 1416.15 551.917 1410.38 549.567 1405.17C539.937 1383.79 532.557 1366.53 528.797 1346.96C525.957 1332.16 524.374 1322.39 524.047 1317.66C523.527 1310.2 523.044 1302.52 522.597 1294.64V1294.64C522.071 1293.25 521.767 1291.26 521.687 1288.66C521.5 1282.48 521.494 1277.45 521.667 1273.6C521.134 1259.26 521.151 1246.09 521.717 1234.1C523.611 1194.26 528.944 1152.71 537.717 1109.45C541.861 1089.01 545.085 1074.16 547.389 1064.9L547.837 1063.12C549.957 1052.89 553.587 1040.97 555.347 1032.8C556.347 1028.14 558.304 1020.13 561.217 1008.8C561.77 1006.63 562.014 1002.51 561.948 996.412C561.828 985.002 564.327 974.952 568.887 962.412C570.794 957.172 572.033 953.678 572.607 951.932C574.827 945.202 577.517 939.252 579.587 932.492C580.967 927.992 581.838 924.942 582.198 923.342C583.088 919.372 582.927 915.792 582.057 911.502C580.457 903.569 579.607 898.292 579.507 895.672C579.127 885.619 579.147 877.202 579.567 870.422C579.693 868.395 580.26 864.955 581.267 860.103C582.807 852.653 586.287 842.703 587.237 837.062C589.143 825.676 589.514 814.045 588.347 802.172C587.647 795.022 586.698 789.972 583.698 783.412C578.784 772.652 573.721 761.169 568.507 748.962C566.821 745.015 565.394 741.036 564.227 737.022C559.047 719.156 555.574 706.052 553.807 697.712C553 693.899 552.244 690.722 551.537 688.182C551.496 688.036 551.417 687.903 551.308 687.798C551.199 687.692 551.064 687.618 550.916 687.581C550.769 687.545 550.615 687.548 550.469 687.59C550.324 687.632 550.192 687.713 550.087 687.822C549.614 688.316 549.281 689.029 549.087 689.962C545.654 706.682 541.097 724.695 535.417 744.002C530.207 761.702 520.827 780.322 511.707 795.832C510.097 798.572 508.358 803.192 507.868 807.472C506.568 818.652 504.187 835.272 500.927 848.772C498.657 858.153 494.067 877.873 489.787 892.562C485.698 906.612 480.897 916.962 474.557 928.512C472.944 931.465 469.357 936.855 463.797 944.682C450.191 963.841 441.231 976.629 436.917 983.042C426.697 998.229 417.004 1014.87 407.837 1032.95C404.864 1038.83 402.257 1044.8 400.017 1050.86C398.407 1055.22 398.097 1059.05 398.497 1063.99C399.097 1071.27 399.388 1075.82 399.368 1077.66C399.288 1086.42 398.468 1094.29 396.908 1101.28C395.634 1107.03 393.407 1114.47 390.227 1123.61C386.174 1135.27 382.721 1146.02 379.868 1155.88C376.008 1169.22 373.274 1182.4 371.667 1195.42C371.374 1197.79 370.527 1200.06 369.127 1202.23C365.527 1207.84 356.397 1208.46 353.667 1201.58C352.854 1199.52 352.527 1197.04 352.687 1194.16C353.107 1186.82 354.647 1179.81 355.627 1172.35C356.357 1166.83 357.707 1161.7 357.417 1156.05C357.411 1155.94 357.378 1155.84 357.323 1155.74C357.267 1155.65 357.19 1155.57 357.097 1155.51C357.004 1155.45 356.898 1155.41 356.788 1155.4C356.679 1155.39 356.569 1155.41 356.467 1155.45C356.074 1155.61 355.807 1155.88 355.667 1156.24C354.681 1158.76 353.77 1161.8 352.937 1165.36C349.21 1181.26 345.143 1197.43 340.737 1213.85C339.557 1218.27 338.047 1221.64 334.097 1223.64C329.617 1225.91 325.234 1225.32 320.948 1221.84C318.558 1219.9 319.197 1214.5 319.687 1211.27C320.12 1208.43 321.427 1202.71 323.607 1194.14C326.007 1184.68 326.977 1180.1 329.147 1170.35C330.047 1166.27 330.317 1162.48 330.927 1158.38C330.938 1158.29 330.919 1158.2 330.874 1158.12C330.829 1158.04 330.76 1157.97 330.677 1157.93C330.594 1157.9 330.502 1157.88 330.413 1157.9C330.325 1157.92 330.245 1157.97 330.187 1158.04C329.974 1158.3 329.747 1158.74 329.507 1159.36C326.327 1167.68 323.617 1175.98 321.377 1184.26C319.424 1191.47 317.644 1197.44 316.037 1202.16C312.631 1212.14 310.621 1218.04 310.007 1219.88C308.167 1225.4 304.597 1227.97 299.297 1227.6C290.367 1226.98 288.717 1219.02 290.417 1211.72C293.391 1198.98 297.45 1182.31 302.597 1161.72C303.777 1156.98 305.497 1152.2 306.397 1147.23C306.597 1146.14 306.671 1145.5 306.618 1145.3C306.56 1145.09 306.439 1144.91 306.272 1144.77C306.105 1144.64 305.899 1144.55 305.685 1144.54C305.471 1144.52 305.258 1144.57 305.076 1144.69C304.893 1144.8 304.75 1144.96 304.667 1145.16C299.501 1157.16 295.057 1169.37 291.337 1181.79C290.471 1184.7 289.814 1187.09 289.368 1188.97C288.141 1194.15 285.824 1198.92 282.417 1203.26C280.864 1205.24 278.504 1206.55 275.337 1207.18C275.007 1207.25 274.668 1207.25 274.337 1207.19C264.617 1205.26 264.157 1195.73 266.017 1187.85C268.097 1178.99 270.158 1171.47 272.198 1165.29C278.678 1145.7 283.27 1131.75 285.977 1123.45C288.357 1116.15 290.377 1107.44 292.187 1100.79C292.614 1099.22 292.74 1097.65 292.567 1096.08C292.551 1095.96 292.506 1095.84 292.435 1095.73C292.363 1095.63 292.267 1095.54 292.156 1095.48C292.044 1095.42 291.919 1095.39 291.792 1095.39C291.666 1095.39 291.54 1095.41 291.427 1095.47C290.36 1096.02 289.643 1096.49 289.277 1096.87C284.917 1101.48 279.784 1106.51 273.877 1111.95C269.117 1116.35 258.507 1122.78 251.647 1121.48C247.567 1120.71 240.488 1117.02 242.287 1111.84C242.581 1110.98 243.727 1109.57 245.727 1107.61C253.28 1100.21 258.124 1095.11 260.257 1092.33C263.177 1088.53 268.314 1081 275.667 1069.75C281.777 1060.41 287.528 1054.08 296.997 1048.89C300.044 1047.22 308.634 1042.29 322.767 1034.1C325.997 1032.23 327.588 1029.24 328.787 1025.5C332.381 1014.24 335.414 1004.41 337.887 996.012C346.867 965.492 352.52 936.972 354.847 910.452C356.414 892.532 357.594 879.772 358.387 872.172C359.2 864.439 360.601 855.852 362.587 846.412C365.321 833.439 369.858 821.065 376.198 809.292C382.598 797.419 388.16 788.002 392.887 781.042C398.514 772.749 402.177 766.789 403.877 763.162C407.984 754.416 410.57 745.356 411.637 735.982C412.944 724.549 413.977 712.015 414.737 698.382C415.043 692.902 416.414 684.665 418.847 673.672C420.994 663.945 424.58 653.949 429.607 643.683C434.38 633.923 437.124 628.249 437.837 626.662C438.847 624.392 438.997 622.422 438.687 619.622C437.674 610.455 436.987 601.312 436.627 592.192C435.914 573.932 438.591 556.705 444.658 540.512C448.338 530.692 453.441 520.455 459.967 509.802C468.254 496.275 479.251 484.818 492.957 475.432C506.197 466.362 523.357 461.122 539.677 458.052C542.257 457.565 548.19 456.772 557.477 455.672C567.697 454.462 576.677 451.202 584.517 444.393C593.967 436.183 602.907 430.182 614.777 424.002C625.397 418.472 642.077 413.052 651.217 408.832C661.647 404.012 673.598 397.802 676.158 387.052C676.418 385.978 676.521 383.432 676.467 379.412C676.441 376.865 676.124 366.372 675.517 347.932C675.484 346.952 675.23 345.712 674.757 344.212C671.617 334.165 669.217 324.689 667.557 315.782C667.187 313.832 666.117 312.642 664.167 311.742C660.528 310.069 657.804 307.816 655.997 304.982C650.227 295.972 646.467 285.272 645.147 274.172C644.297 267.072 643.467 261.062 645.107 254.182C646.007 250.435 648.494 247.842 652.567 246.402C656.167 245.122 658.648 247.102 661.868 247.232C661.966 247.237 662.064 247.221 662.156 247.185C662.247 247.149 662.33 247.093 662.398 247.023C662.466 246.953 662.518 246.87 662.551 246.778C662.584 246.687 662.596 246.589 662.587 246.492C661.447 232.052 661.317 216.472 664.377 201.272C666.077 192.826 668.427 185.625 671.427 179.672C683.427 155.852 704.557 141.212 730.857 135.922ZM531.087 1283.93V1283.93V1283.93ZM585.647 1048.72V1048.72V1048.72ZM933.237 1026.93V1026.93V1026.93Z" fill="#2A2A28"/>
<path id="body_base" d="M945.82 1058.91C944.927 1058.34 944.123 1057.27 943.41 1055.69C943.238 1055.31 943.143 1054.91 943.13 1054.5C943.083 1052.94 942.57 1051.34 941.59 1049.71C941.524 1049.6 941.47 1049.49 941.43 1049.36C939.157 1042.63 937.22 1036.23 935.62 1030.16C935.22 1028.63 934.403 1027.5 933.17 1026.77C928.51 1024.03 921.15 1034.9 918.25 1038.74C917.277 1040.02 915.133 1042.44 911.82 1045.99C909.5 1048.48 907.45 1050.96 905.67 1053.44C900.537 1060.59 896.263 1066.8 892.85 1072.08C888.33 1079.07 885.937 1086.22 885.67 1093.53C885.15 1107.7 886.187 1123.19 888.78 1140C889.9 1147.24 891.393 1156.55 893.26 1167.92C896.01 1184.75 899.84 1202.66 903.39 1218.42C906.1 1230.42 909.71 1239.69 920.47 1245.78C926.95 1249.44 933.32 1253.24 939.58 1257.18C945.547 1260.95 950.717 1264.8 955.09 1268.75C957.24 1270.69 960.1 1272.18 962.23 1274.41C963.98 1276.24 966.52 1277.93 968.43 1278.23C968.801 1278.29 969.18 1278.21 969.496 1278.01C969.812 1277.8 970.041 1277.49 970.14 1277.13L971.83 1271.12C971.856 1271.04 971.897 1270.97 971.95 1270.9C972.403 1270.38 972.81 1270.31 973.17 1270.7C973.763 1278.2 973.773 1284.3 973.2 1289C972.42 1295.41 971.707 1301.8 971.06 1308.18L971.12 1304.41C971.12 1304.34 971.104 1304.26 971.073 1304.19C971.042 1304.12 970.997 1304.06 970.94 1304C970.907 1303.97 970.853 1303.93 970.78 1303.89C970.706 1303.86 970.641 1303.8 970.59 1303.74C970.54 1303.67 970.505 1303.59 970.49 1303.51C970.037 1300.8 969.543 1297.47 969.01 1293.52C968.61 1290.61 967.36 1287.8 965.31 1285.93C959.83 1280.89 953.923 1276.22 947.59 1271.91C937.083 1264.77 926.907 1258.55 917.06 1253.26C914.107 1251.67 911.993 1250.95 910.72 1251.12C907.827 1251.49 906.177 1252.97 905.77 1255.56C903.58 1269.52 901.94 1277.13 900.58 1289.89C899.807 1297.12 898.207 1306.33 895.78 1317.52C892.09 1334.49 890.43 1343.13 886.9 1356.64C884.18 1367.05 881.14 1379.67 877.78 1394.48C874.667 1408.19 873.563 1421.5 874.47 1434.4C874.937 1440.99 875.577 1445.9 876.39 1449.13C880.41 1465 886.93 1480.07 895.18 1494.39C899.39 1501.7 902.89 1510.41 907.1 1517.93C916.353 1534.46 924.04 1548.78 930.16 1560.91C931.06 1562.7 932.377 1564.39 934.11 1565.99C939.81 1571.25 946.9 1567.56 946.59 1559.99C946.363 1554.51 945.88 1549.1 945.14 1543.75C944.613 1539.94 944.94 1536.26 946.12 1532.71C948.633 1541.93 951.147 1551.12 953.66 1560.28C957.047 1572.62 959.31 1581.87 960.45 1588.03C962.29 1598 963.71 1608.57 964.71 1619.75C966.38 1638.45 964.18 1655.78 960.36 1674.43C957.847 1686.69 954.24 1703.39 949.54 1724.52C948.047 1731.23 945.717 1742.73 942.55 1759C940.697 1768.5 938.48 1779.54 935.9 1792.11C931.44 1813.91 927.94 1831.72 926.24 1851C925.607 1858.15 925.457 1863.07 925.79 1865.76C926.243 1869.41 927.23 1874.16 928.75 1879.99C931.12 1889.1 931.19 1899.62 930.29 1909.11C930.199 1910.08 930.431 1911.06 930.95 1911.89C933.81 1916.48 937.85 1920.99 940.94 1925.61C946.647 1934.16 951.533 1941.12 955.6 1946.49C963.18 1956.49 973.84 1965.1 985.1 1973.4C992.34 1978.75 996.41 1986.79 994.32 1996.07C993.15 2001.31 990.95 2002.62 985.88 2004.39C980.947 2006.11 975.67 2007.49 970.05 2008.53C955.803 2011.16 947.677 2012.61 945.67 2012.87C939.62 2013.67 932.18 2013.21 927.9 2014.05C911.53 2017.24 896.85 2014.42 883.6 2003.75C878.1 1999.32 874.64 1995.09 873.15 1989.04C872.26 1985.41 871.79 1982.57 868.86 1980.84C868.433 1980.59 866.353 1979.49 862.62 1977.55C852.81 1972.45 847.53 1964.65 849.07 1953.49C850.357 1944.16 852.013 1934.25 854.04 1923.76C855.92 1914.02 852.04 1903.7 851.33 1894.74C850.64 1886.17 852.65 1878.89 855.9 1869.42C859.41 1859.19 859.4 1846.15 858.36 1835.63C857.41 1826.03 855.34 1814.56 852.46 1802.1C852.24 1801.14 849.933 1791.24 845.54 1772.4C844.087 1766.15 841.52 1756.32 837.84 1742.89C833.973 1728.77 830.96 1719.12 828.8 1713.94C826.433 1708.25 823.41 1700.86 819.73 1691.79C810.73 1669.57 807.123 1647.21 808.91 1624.71C809.557 1616.61 810.883 1607.17 812.89 1596.38C814.677 1586.76 817.21 1573.8 820.49 1557.5C820.95 1555.19 821.643 1549.44 822.57 1540.26C823.42 1531.77 822.09 1525.9 818.73 1517.16C810.197 1495.01 803.553 1473.87 798.8 1453.74C791.29 1421.96 787.6 1392.07 782.59 1352.69C781.583 1344.8 780.107 1335.88 778.16 1325.92C777.087 1320.44 774.92 1312.08 771.66 1300.83C763.627 1273.12 757.97 1243.84 754.69 1212.99C753.403 1200.86 752.55 1191.12 752.13 1183.75C751.563 1173.85 751.54 1165.52 752.06 1158.75C752.713 1150.24 752.947 1142.76 752.76 1136.31C752.739 1135.51 752.405 1134.75 751.83 1134.19C751.255 1133.63 750.483 1133.32 749.68 1133.32H746.47C745.67 1133.32 744.903 1133.63 744.331 1134.19C743.759 1134.75 743.428 1135.51 743.41 1136.31C743.177 1145.99 743.13 1151.57 743.27 1153.04C744.183 1162.53 744.55 1169.59 744.37 1174.24C743.61 1193.75 741.513 1214.82 738.08 1237.44C734.98 1257.83 729.223 1283.54 720.81 1314.59C719.07 1321.01 717.35 1329.4 715.65 1339.75C713.35 1353.83 711.477 1366.64 710.03 1378.19C709.197 1384.84 708.32 1391.06 707.4 1396.84C706.53 1402.39 705.09 1413.33 703.6 1421.68C700.547 1438.71 696.727 1455.63 692.14 1472.43C687.28 1490.27 681.89 1504.15 674.99 1522.5C670.73 1533.85 672.91 1547.62 675.14 1559.57C676.32 1565.91 677.307 1570.69 678.1 1573.9C680.7 1584.4 682.84 1592.95 684.11 1604.32C685.023 1612.53 685.603 1617.96 685.85 1620.63C686.903 1632.3 686.717 1643.74 685.29 1654.94C684.67 1659.75 683.377 1665.4 681.41 1671.89C679.057 1679.65 677.223 1685.16 675.91 1688.43C670.04 1703.02 663.81 1716.91 659.34 1732.57C655.24 1746.96 648.62 1769.81 644.32 1787.15C639.99 1804.62 636.7 1817.93 634.42 1834.19C633.047 1843.97 633.04 1853.51 634.4 1862.8C635.25 1868.65 638.96 1876.59 639.72 1882.36C640.533 1888.48 640.51 1893.92 639.65 1898.68C637.87 1908.57 637.14 1916.58 638.88 1925.79C640.88 1936.42 643.47 1946.37 644.03 1957.01C644.423 1964.29 641.903 1970.09 636.47 1974.41C633.06 1977.12 630.09 1978.08 625.74 1980.46C621.77 1982.63 621.6 1988.83 620.34 1991.57C616.37 2000.24 606.28 2007.72 597.68 2011.72C590.44 2015.07 582.96 2016.34 575.24 2015.53C570.87 2015.07 564.83 2013.42 559.94 2013.41C555.49 2013.41 553.34 2013.5 549.7 2012.92C537.253 2010.93 529.343 2009.63 525.97 2009.04C520.89 2008.15 515.757 2006.78 510.57 2004.91C504.04 2002.55 500.46 2000.69 500.13 1992.75C499.6 1979.48 510.54 1972.39 519.78 1965.19C532.9 1954.96 543.59 1942.15 552.54 1927.74C555.193 1923.48 558.47 1918.52 562.37 1912.86C564.31 1910.05 563.02 1903.2 562.67 1897.79C562.303 1892.08 562.757 1886.23 564.03 1880.24C565.49 1873.34 566.37 1869.09 566.67 1867.5C567.503 1863.05 567.52 1857.05 566.72 1849.5C565.18 1835.11 562.89 1820.17 559.85 1804.68C547.89 1743.73 543.05 1717.67 536.3 1686.27C533.66 1673.99 531.613 1662.01 530.16 1650.32C526.39 1619.93 533.27 1589.62 540.69 1559.95C541.717 1555.85 543.153 1550.69 545 1544.48C546.52 1539.35 547.97 1534.2 549.35 1529.03C549.463 1531.21 549.407 1533.38 549.18 1535.53C548.9 1538.18 548.723 1540.34 548.65 1542.01C548.45 1546.64 548.077 1551.95 547.53 1557.94C546.76 1566.43 554.96 1572.88 561.6 1564.9C563.4 1562.73 564.573 1561.13 565.12 1560.11C576.57 1538.66 590.92 1512.46 603.21 1487.96C605.04 1484.31 607.21 1478.99 609.26 1474.93C612.48 1468.53 614.423 1464.32 615.09 1462.31C620.5 1445.95 621.66 1428.79 619.53 1411.75C616.29 1385.78 607.57 1358.8 601.44 1330.11C598.033 1314.15 596.243 1305.7 596.07 1304.75C593.623 1291.54 591.09 1275.21 588.47 1255.76C588.21 1253.83 586.927 1252.36 584.62 1251.33C582.54 1250.41 579.24 1251.36 577.61 1252.35C568.14 1258.03 554.83 1266.07 543.8 1274.18C536.22 1279.77 531.96 1282.96 531.02 1283.77C527.41 1286.9 526.25 1289.59 524.64 1293.5C524.563 1293.69 524.441 1293.85 524.284 1293.98C524.127 1294.11 523.94 1294.2 523.74 1294.24L522.53 1294.48C522.003 1293.09 521.7 1291.1 521.62 1288.5C521.433 1282.31 521.427 1277.29 521.6 1273.44C523.407 1276.52 524.877 1278.18 526.01 1278.43C527.297 1278.71 528.417 1278.35 529.37 1277.35C534.49 1271.98 539.19 1268.42 547.27 1262.31C554.66 1256.72 565 1251.81 572.84 1247.33C578.76 1243.95 582.85 1240.86 585.86 1235.1C587.72 1231.55 589.107 1227.85 590.02 1224.02C599.18 1185.49 605.46 1147.04 608.86 1108.67C609.173 1105.19 609.133 1100.71 608.74 1095.24C608.053 1085.77 605.387 1077.36 600.74 1070.01C598.433 1066.36 594.747 1060.91 589.68 1053.64C588.407 1051.81 587.04 1050.11 585.58 1048.56C581.27 1043.97 579.59 1042.37 574.6 1036.51C571.587 1032.98 568.063 1029.55 564.03 1026.22C563.921 1026.13 563.793 1026.07 563.656 1026.03C563.518 1026 563.375 1025.99 563.235 1026.02C563.096 1026.05 562.964 1026.11 562.849 1026.19C562.734 1026.28 562.639 1026.38 562.57 1026.51L555.94 1038.76C555.434 1039.69 554.999 1040.66 554.64 1041.67C554.513 1042.02 553.67 1045.35 552.11 1051.65C551.283 1054.98 549.837 1058.75 547.77 1062.96C549.89 1052.73 553.52 1040.81 555.28 1032.64C556.28 1027.97 558.237 1019.97 561.15 1008.64C561.703 1006.47 561.947 1002.34 561.88 996.25C561.76 984.84 564.26 974.79 568.82 962.25C570.727 957.01 571.967 953.517 572.54 951.77C574.76 945.04 577.45 939.09 579.52 932.33C580.9 927.83 581.77 924.78 582.13 923.18C583.02 919.21 582.86 915.63 581.99 911.34C580.39 903.407 579.54 898.13 579.44 895.51C579.06 885.457 579.08 877.04 579.5 870.26C579.627 868.233 580.193 864.793 581.2 859.94C582.74 852.49 586.22 842.54 587.17 836.9C589.077 825.513 589.447 813.883 588.28 802.01C587.58 794.86 586.63 789.81 583.63 783.25C578.717 772.49 573.653 761.007 568.44 748.8C566.753 744.853 565.327 740.873 564.16 736.86C558.98 718.993 555.507 705.89 553.74 697.55C552.933 693.737 552.177 690.56 551.47 688.02C551.429 687.874 551.35 687.741 551.241 687.636C551.132 687.53 550.997 687.455 550.85 687.419C550.702 687.382 550.548 687.385 550.402 687.428C550.257 687.47 550.125 687.55 550.02 687.66C549.547 688.153 549.213 688.867 549.02 689.8C545.587 706.52 541.03 724.533 535.35 743.84C530.14 761.54 520.76 780.16 511.64 795.67C510.03 798.41 508.29 803.03 507.8 807.31C506.5 818.49 504.12 835.11 500.86 848.61C498.59 857.99 494 877.71 489.72 892.4C485.63 906.45 480.83 916.8 474.49 928.35C472.877 931.303 469.29 936.693 463.73 944.52C450.123 963.68 441.163 976.467 436.85 982.88C426.63 998.067 416.937 1014.7 407.77 1032.79C404.797 1038.66 402.19 1044.63 399.95 1050.7C398.34 1055.06 398.03 1058.89 398.43 1063.83C399.03 1071.1 399.32 1075.66 399.3 1077.5C399.22 1086.25 398.4 1094.13 396.84 1101.12C395.567 1106.87 393.34 1114.31 390.16 1123.45C386.107 1135.1 382.653 1145.86 379.8 1155.72C375.94 1169.05 373.207 1182.23 371.6 1195.26C371.307 1197.63 370.46 1199.9 369.06 1202.07C365.46 1207.68 356.33 1208.3 353.6 1201.42C352.787 1199.35 352.46 1196.88 352.62 1194C353.04 1186.66 354.58 1179.65 355.56 1172.19C356.29 1166.67 357.64 1161.54 357.35 1155.89C357.344 1155.78 357.312 1155.67 357.256 1155.58C357.2 1155.48 357.122 1155.4 357.03 1155.35C356.937 1155.29 356.831 1155.25 356.721 1155.24C356.612 1155.23 356.502 1155.25 356.4 1155.29C356.007 1155.45 355.74 1155.71 355.6 1156.08C354.613 1158.6 353.703 1161.64 352.87 1165.2C349.143 1181.1 345.077 1197.26 340.67 1213.69C339.49 1218.11 337.98 1221.48 334.03 1223.48C329.55 1225.75 325.167 1225.15 320.88 1221.68C318.49 1219.74 319.13 1214.34 319.62 1211.11C320.053 1208.26 321.36 1202.55 323.54 1193.98C325.94 1184.52 326.91 1179.94 329.08 1170.19C329.98 1166.11 330.25 1162.32 330.86 1158.22C330.871 1158.13 330.853 1158.04 330.808 1157.95C330.763 1157.87 330.693 1157.81 330.61 1157.77C330.527 1157.73 330.434 1157.72 330.346 1157.74C330.258 1157.76 330.179 1157.81 330.12 1157.88C329.907 1158.13 329.68 1158.57 329.44 1159.2C326.26 1167.51 323.55 1175.81 321.31 1184.1C319.357 1191.31 317.577 1197.28 315.97 1202C312.563 1211.97 310.553 1217.88 309.94 1219.72C308.1 1225.24 304.53 1227.81 299.23 1227.44C290.3 1226.82 288.65 1218.86 290.35 1211.56C293.323 1198.81 297.383 1182.15 302.53 1161.56C303.71 1156.82 305.43 1152.04 306.33 1147.07C306.53 1145.98 306.603 1145.33 306.55 1145.14C306.492 1144.93 306.371 1144.75 306.204 1144.61C306.037 1144.47 305.832 1144.39 305.618 1144.38C305.404 1144.36 305.191 1144.41 305.008 1144.52C304.826 1144.64 304.683 1144.8 304.6 1145C299.433 1157 294.99 1169.21 291.27 1181.63C290.403 1184.54 289.747 1186.93 289.3 1188.81C288.073 1193.99 285.757 1198.75 282.35 1203.1C280.797 1205.08 278.437 1206.39 275.27 1207.02C274.94 1207.09 274.601 1207.09 274.27 1207.03C264.55 1205.1 264.09 1195.57 265.95 1187.69C268.03 1178.83 270.09 1171.31 272.13 1165.13C278.61 1145.54 283.203 1131.59 285.91 1123.29C288.29 1115.99 290.31 1107.28 292.12 1100.63C292.547 1099.06 292.673 1097.49 292.5 1095.92C292.485 1095.79 292.439 1095.67 292.368 1095.57C292.296 1095.46 292.2 1095.38 292.089 1095.32C291.977 1095.26 291.852 1095.23 291.725 1095.23C291.599 1095.22 291.473 1095.25 291.36 1095.31C290.293 1095.86 289.577 1096.32 289.21 1096.71C284.85 1101.32 279.717 1106.34 273.81 1111.79C269.05 1116.19 258.44 1122.62 251.58 1121.32C247.5 1120.55 240.42 1116.86 242.22 1111.68C242.513 1110.82 243.66 1109.41 245.66 1107.45C253.213 1100.04 258.057 1094.95 260.19 1092.17C263.11 1088.36 268.247 1080.84 275.6 1069.59C281.71 1060.25 287.46 1053.92 296.93 1048.73C299.977 1047.06 308.567 1042.13 322.7 1033.94C325.93 1032.07 327.52 1029.08 328.72 1025.34C332.313 1014.08 335.347 1004.25 337.82 995.85C346.8 965.33 352.453 936.81 354.78 910.29C356.347 892.37 357.527 879.61 358.32 872.01C359.133 864.277 360.533 855.69 362.52 846.25C365.253 833.277 369.79 820.903 376.13 809.13C382.53 797.257 388.093 787.84 392.82 780.88C398.447 772.587 402.11 766.627 403.81 763C407.917 754.253 410.503 745.193 411.57 735.82C412.877 724.387 413.91 711.853 414.67 698.22C414.977 692.74 416.347 684.503 418.78 673.51C420.927 663.783 424.513 653.787 429.54 643.52C434.313 633.76 437.057 628.087 437.77 626.5C438.78 624.23 438.93 622.26 438.62 619.46C437.607 610.293 436.92 601.15 436.56 592.03C435.847 573.77 438.523 556.543 444.59 540.35C448.27 530.53 453.373 520.293 459.9 509.64C468.187 496.113 479.183 484.657 492.89 475.27C506.13 466.2 523.29 460.96 539.61 457.89C542.19 457.403 548.123 456.61 557.41 455.51C567.63 454.3 576.61 451.04 584.45 444.23C593.9 436.02 602.84 430.02 614.71 423.84C625.33 418.31 642.01 412.89 651.15 408.67C661.58 403.85 673.53 397.64 676.09 386.89C676.35 385.817 676.453 383.27 676.4 379.25C676.373 376.703 676.057 366.21 675.45 347.77C675.417 346.79 675.163 345.55 674.69 344.05C671.55 334.003 669.15 324.527 667.49 315.62C667.12 313.67 666.05 312.48 664.1 311.58C660.46 309.907 657.737 307.653 655.93 304.82C650.16 295.81 646.4 285.11 645.08 274.01C644.23 266.91 643.4 260.9 645.04 254.02C645.94 250.273 648.427 247.68 652.5 246.24C656.1 244.96 658.58 246.94 661.8 247.07C661.898 247.075 661.997 247.058 662.088 247.022C662.18 246.986 662.262 246.931 662.331 246.861C662.399 246.791 662.451 246.707 662.484 246.616C662.516 246.524 662.529 246.427 662.52 246.33C661.38 231.89 661.25 216.31 664.31 201.11C666.01 192.663 668.36 185.463 671.36 179.51C683.36 155.69 704.49 141.05 730.79 135.76C759.44 130.01 789.46 137.21 811.28 156.72C821.75 166.07 829.08 177.61 832.83 190.66C835.69 200.593 837.203 210.2 837.37 219.48C837.537 228.473 837.223 237.357 836.43 246.13C836.417 246.251 836.434 246.373 836.478 246.486C836.523 246.6 836.594 246.701 836.686 246.782C836.777 246.863 836.887 246.921 837.006 246.952C837.125 246.983 837.25 246.986 837.37 246.96C838.837 246.647 839.927 246.367 840.64 246.12C847.87 243.63 852.96 249.89 853.55 256.44C855.037 273.187 851.55 288.807 843.09 303.3C840.75 307.307 837.357 310.247 832.91 312.12C831.643 312.653 830.887 313.87 830.64 315.77C829.74 322.843 827.633 332.1 824.32 343.54C823.98 344.72 823.8 345.957 823.78 347.25C823.567 360.15 823.117 371.32 822.43 380.76C821.81 389.29 829.88 397.08 836.66 400.88C845.74 405.96 853.623 409.98 860.31 412.94C867.29 416.02 874.72 418.69 882.01 422.43C889.59 426.33 896.923 430.857 904.01 436.01C911.163 441.217 916.433 445.033 919.82 447.46C927.28 452.79 934.55 454.49 944.58 455.37C956.08 456.37 963.38 457.097 966.48 457.55C982.4 459.89 996.403 464.87 1008.49 472.49C1026.27 483.7 1041 502.75 1050.3 522.74C1060.62 544.88 1064.69 568.303 1062.52 593.01C1061.99 599.07 1061.08 607.9 1059.79 619.5C1059.67 620.58 1059.84 622.66 1060.34 624.1C1064.83 637.23 1073.71 649.42 1077.76 663.08C1080.78 673.273 1082.74 682.1 1083.64 689.56C1084.93 700.273 1086.07 712.497 1087.05 726.23C1088 739.5 1090.91 754.68 1097.08 767.19C1100.52 774.17 1106.95 782.15 1110.72 788.83C1114.02 794.66 1121.21 805.29 1125.12 813.22C1129.93 822.967 1133.6 833.19 1136.13 843.89C1138.66 854.57 1140.41 864.98 1141.36 875.12C1144.28 906.14 1146.28 933.54 1152.8 961.49C1153.88 966.137 1155.85 973.86 1158.72 984.66C1163.09 1001.15 1166.65 1012.17 1170.89 1027.56C1171.61 1030.16 1174.58 1032.87 1177.52 1034.43C1181.87 1036.74 1186.15 1039.3 1190.36 1042.12C1195.92 1045.84 1201.18 1048.22 1206.1 1051.14C1213.15 1055.33 1219.02 1062.68 1224.07 1069.92C1226.04 1072.74 1229.29 1077.74 1233.84 1084.93C1239.67 1094.15 1246.19 1100.88 1253.57 1107.67C1255.97 1109.88 1258.07 1113.79 1255.38 1116.68C1251.76 1120.56 1246.43 1122.54 1241.24 1121.06C1233.87 1118.95 1226.94 1113.44 1221.4 1108.28C1216.65 1103.86 1212.03 1099.74 1207.54 1095.93C1207.41 1095.82 1207.24 1095.74 1207.07 1095.71C1206.89 1095.69 1206.72 1095.71 1206.55 1095.77C1206.39 1095.84 1206.25 1095.95 1206.14 1096.09C1206.03 1096.23 1205.97 1096.39 1205.95 1096.57C1205.84 1097.64 1205.98 1098.76 1206.35 1099.92C1210.15 1111.74 1213.54 1125.88 1217.8 1137.76C1223.29 1153.04 1228.95 1170.52 1233.25 1186.99C1235.66 1196.22 1234.81 1205.34 1223.47 1207.04C1223.15 1207.09 1222.83 1207.09 1222.51 1207.04C1215.86 1206.03 1212.45 1198.3 1210.76 1192.74C1206.43 1178.52 1201.44 1162.92 1195.65 1149.62C1194.97 1148.07 1194.31 1146.86 1193.66 1145.98C1193.49 1145.75 1193.26 1145.7 1192.95 1145.83C1192.88 1145.86 1192.81 1145.94 1192.75 1146.05C1192.72 1146.12 1192.7 1146.19 1192.69 1146.26C1192.64 1147.07 1194.43 1154.47 1198.04 1168.48C1198.21 1169.12 1201.8 1183.27 1208.82 1210.94C1209.8 1214.82 1210.17 1217.51 1209.92 1219.02C1208.98 1224.64 1204.38 1228.09 1198.67 1227.31C1193.54 1226.62 1190.81 1222.9 1189.03 1218.27C1185.1 1208.04 1180.55 1194.08 1175.39 1176.37C1172.97 1168.08 1170.83 1161.66 1168.98 1157.1C1168.82 1156.7 1168.65 1156.43 1168.46 1156.28C1168.38 1156.21 1168.27 1156.17 1168.16 1156.16C1168.05 1156.15 1167.94 1156.17 1167.85 1156.22C1167.75 1156.28 1167.67 1156.36 1167.63 1156.46C1167.58 1156.56 1167.56 1156.67 1167.58 1156.78C1168.64 1164.47 1170.28 1172.62 1172.51 1181.23C1175.16 1191.45 1176.48 1196.56 1176.48 1196.57C1177.54 1200.62 1178.71 1206.43 1179.98 1214.02C1180.63 1217.89 1179.9 1220.74 1177.78 1222.57C1172.87 1226.79 1165.26 1225.2 1161.23 1219.99C1160.08 1218.5 1158.97 1215.62 1157.91 1211.35C1155.38 1201.16 1152.06 1188.91 1147.96 1174.58C1146.33 1168.88 1145.19 1162.33 1142.74 1156.48C1142.59 1156.13 1142.42 1155.88 1142.22 1155.72C1142.12 1155.64 1142 1155.59 1141.87 1155.57C1141.74 1155.56 1141.61 1155.57 1141.49 1155.63C1141.37 1155.68 1141.27 1155.76 1141.2 1155.87C1141.12 1155.98 1141.08 1156.1 1141.07 1156.23C1140.96 1157.66 1141.05 1159.5 1141.36 1161.73C1142.28 1168.44 1143.94 1178.58 1146.34 1192.17C1146.85 1195.1 1146.98 1197.62 1146.72 1199.75C1145.72 1207.89 1136.4 1208.43 1131.64 1203.36C1129.36 1200.93 1127.95 1197.46 1127.32 1194.08C1126.36 1188.93 1125.79 1186.83 1125.17 1182.2C1124.54 1177.52 1123.61 1172.81 1122.39 1168.07C1118.29 1152.16 1113.83 1137.47 1109.01 1124C1104.98 1112.74 1102.56 1105.15 1101.73 1101.24C1099.24 1089.4 1098.77 1076.49 1100.06 1064.21C1100.69 1058.29 1099.77 1053.61 1097.87 1048.66C1093.14 1036.34 1087.52 1024.61 1081 1013.48C1066.44 988.6 1052.32 968.15 1035.99 945.42C1025.9 931.39 1018.1 918.61 1012.98 904.57C1009.73 895.67 1006.74 885.663 1004.02 874.55C999.17 854.73 996.49 842.69 994.13 830.85C992.16 820.9 992.82 809.93 988.87 800.89C987.93 798.723 984.42 792.32 978.34 781.68C973.81 773.74 969.38 764.8 966.08 755.62C958.55 734.7 952.86 713.19 947.61 691.17C947.317 689.943 946.923 688.863 946.43 687.93C946.372 687.826 946.283 687.742 946.176 687.689C946.07 687.636 945.949 687.617 945.832 687.635C945.715 687.652 945.607 687.705 945.523 687.787C945.438 687.868 945.381 687.974 945.36 688.09C944.86 690.557 943.467 696.647 941.18 706.36C937.61 721.51 933.12 735.1 928.04 749.55C925.17 757.71 918.69 769.74 915.57 778.56C913.4 784.7 910.9 789.4 909.94 796.04C907.853 810.487 908.097 824.863 910.67 839.17C911.79 845.38 913.84 849.89 915.02 856.21C917.78 871.06 918.53 887.4 915.96 902.5C914.48 911.23 913.95 917.7 914.49 926.43C914.523 926.973 914.645 927.507 914.85 928.01C917.26 934.02 917.92 939.87 920.3 945.28C920.587 945.933 921.907 949.457 924.26 955.85C925.56 959.39 926.523 962.457 927.15 965.05C928.06 968.85 930.24 973.03 931.02 977.38C932.04 983.067 932.543 989.19 932.53 995.75C932.52 1000.59 933.15 1005.07 934.45 1010.19C938.51 1026.26 942.3 1042.5 945.82 1058.91Z" fill="#2A2A28"/>
<path id="thigh_outer_lower_r" d="M971.06 1308.18C970.14 1327.76 966.753 1346.81 960.9 1365.34C957.6 1375.78 951.74 1389.29 947.38 1398.97C944.253 1405.92 942.117 1412.01 940.97 1417.24C936.76 1436.45 939.9 1455.36 941.14 1475C942.85 1501.86 943.28 1516.76 946.12 1532.71C944.94 1536.26 944.613 1539.94 945.14 1543.75C945.88 1549.1 946.363 1554.51 946.59 1559.99C946.9 1567.56 939.81 1571.25 934.11 1565.99C932.377 1564.39 931.06 1562.7 930.16 1560.91C924.04 1548.78 916.353 1534.46 907.1 1517.93C902.89 1510.41 899.39 1501.7 895.18 1494.39C886.93 1480.07 880.41 1465 876.39 1449.13C875.577 1445.9 874.937 1440.99 874.47 1434.4C873.563 1421.5 874.667 1408.19 877.78 1394.48C881.14 1379.67 884.18 1367.05 886.9 1356.64C890.43 1343.13 892.09 1334.49 895.78 1317.52C898.207 1306.33 899.807 1297.12 900.58 1289.89C901.94 1277.13 903.58 1269.52 905.77 1255.56C906.177 1252.97 907.827 1251.49 910.72 1251.12C911.993 1250.95 914.107 1251.67 917.06 1253.26C926.907 1258.55 937.083 1264.77 947.59 1271.91C953.923 1276.22 959.83 1280.89 965.31 1285.93C967.36 1287.8 968.61 1290.61 969.01 1293.52C969.543 1297.47 970.037 1300.8 970.49 1303.51C970.505 1303.59 970.54 1303.67 970.59 1303.74C970.641 1303.8 970.706 1303.86 970.78 1303.89C970.853 1303.93 970.907 1303.97 970.94 1304C970.997 1304.06 971.042 1304.12 971.073 1304.19C971.104 1304.26 971.12 1304.34 971.12 1304.41L971.06 1308.18Z" fill="#2A2A28"/>
<path id="thigh_outer_lower_l" d="M549.35 1529.03C550.037 1525.78 550.45 1522.96 550.59 1520.57C551.297 1508.86 551.97 1494.89 552.61 1478.68C552.877 1471.93 553.407 1464.97 554.2 1457.8C554.82 1452.23 555.223 1444.88 555.41 1435.75C555.517 1430.5 555.303 1425.51 554.77 1420.76C554.24 1415.99 551.85 1410.22 549.5 1405.01C539.87 1383.63 532.49 1366.37 528.73 1346.8C525.89 1331.99 524.307 1322.23 523.98 1317.5C523.46 1310.03 522.977 1302.36 522.53 1294.48L523.74 1294.24C523.94 1294.2 524.127 1294.11 524.284 1293.98C524.441 1293.85 524.563 1293.69 524.64 1293.5C526.25 1289.59 527.41 1286.9 531.02 1283.77C531.96 1282.96 536.22 1279.77 543.8 1274.18C554.83 1266.07 568.14 1258.03 577.61 1252.35C579.24 1251.36 582.54 1250.41 584.62 1251.33C586.927 1252.36 588.21 1253.83 588.47 1255.76C591.09 1275.21 593.623 1291.54 596.07 1304.75C596.243 1305.7 598.033 1314.15 601.44 1330.11C607.57 1358.8 616.29 1385.78 619.53 1411.75C621.66 1428.79 620.5 1445.95 615.09 1462.31C614.423 1464.32 612.48 1468.53 609.26 1474.93C607.21 1478.99 605.04 1484.31 603.21 1487.96C590.92 1512.46 576.57 1538.66 565.12 1560.11C564.573 1561.13 563.4 1562.73 561.6 1564.9C554.96 1572.88 546.76 1566.43 547.53 1557.94C548.077 1551.95 548.45 1546.64 548.65 1542.01C548.723 1540.34 548.9 1538.18 549.18 1535.53C549.407 1533.38 549.463 1531.21 549.35 1529.03Z" fill="#2A2A28"/>
<path id="thigh_outer_upper_l" d="M521.6 1273.44C521.067 1259.09 521.083 1245.93 521.65 1233.94C523.543 1194.09 528.877 1152.54 537.65 1109.29C542.07 1087.49 545.443 1072.05 547.77 1062.96C549.837 1058.75 551.283 1054.98 552.11 1051.65C553.67 1045.35 554.513 1042.02 554.64 1041.67C554.999 1040.66 555.434 1039.69 555.94 1038.76L562.57 1026.51C562.639 1026.38 562.734 1026.28 562.849 1026.19C562.964 1026.11 563.096 1026.05 563.235 1026.02C563.375 1025.99 563.518 1026 563.656 1026.03C563.793 1026.07 563.921 1026.13 564.03 1026.22C568.063 1029.55 571.587 1032.98 574.6 1036.51C579.59 1042.37 581.27 1043.97 585.58 1048.56C587.04 1050.11 588.407 1051.81 589.68 1053.64C594.747 1060.91 598.433 1066.36 600.74 1070.01C605.387 1077.36 608.053 1085.77 608.74 1095.24C609.133 1100.71 609.173 1105.19 608.86 1108.67C605.46 1147.04 599.18 1185.49 590.02 1224.02C589.107 1227.85 587.72 1231.55 585.86 1235.1C582.85 1240.86 578.76 1243.95 572.84 1247.33C565 1251.81 554.66 1256.72 547.27 1262.31C539.19 1268.42 534.49 1271.98 529.37 1277.35C528.417 1278.35 527.297 1278.71 526.01 1278.43C524.877 1278.18 523.407 1276.52 521.6 1273.44Z" fill="#2A2A28"/>
<path id="thigh_outer_upper_r" d="M945.82 1058.91C948.567 1070.66 951.263 1082.49 953.91 1094.38C956.577 1106.36 958.81 1117.57 960.61 1128C963.163 1142.81 964.983 1154.09 966.07 1161.86C968.663 1180.3 970.233 1193.35 970.78 1201.01C971.18 1206.53 971.643 1214.12 972.17 1223.78C972.563 1231.01 972.813 1238.62 972.92 1246.6C973.02 1254.64 973.103 1262.67 973.17 1270.7C972.81 1270.31 972.403 1270.38 971.95 1270.9C971.897 1270.97 971.856 1271.04 971.83 1271.12L970.14 1277.13C970.041 1277.49 969.812 1277.8 969.496 1278.01C969.18 1278.21 968.801 1278.29 968.43 1278.23C966.52 1277.93 963.98 1276.24 962.23 1274.41C960.1 1272.18 957.24 1270.69 955.09 1268.75C950.717 1264.8 945.547 1260.95 939.58 1257.18C933.32 1253.24 926.95 1249.44 920.47 1245.78C909.71 1239.69 906.1 1230.42 903.39 1218.42C899.84 1202.66 896.01 1184.75 893.26 1167.92C891.393 1156.55 889.9 1147.24 888.78 1140C886.187 1123.19 885.15 1107.7 885.67 1093.53C885.937 1086.22 888.33 1079.07 892.85 1072.08C896.263 1066.8 900.537 1060.59 905.67 1053.44C907.45 1050.96 909.5 1048.48 911.82 1045.99C915.133 1042.44 917.277 1040.02 918.25 1038.74C921.15 1034.9 928.51 1024.03 933.17 1026.77C934.403 1027.5 935.22 1028.63 935.62 1030.16C937.22 1036.23 939.157 1042.63 941.43 1049.36C941.47 1049.49 941.524 1049.6 941.59 1049.71C942.57 1051.34 943.083 1052.94 943.13 1054.5C943.143 1054.91 943.238 1055.31 943.41 1055.69C944.123 1057.27 944.927 1058.34 945.82 1058.91Z" fill="#2A2A28"/>
<path id="abdomen_lower_r" d="M908.04 923.94C908.37 923.415 908.855 923.018 909.396 922.828C909.936 922.639 910.492 922.672 910.95 922.92C911.923 923.453 912.447 924.483 912.52 926.01C912.653 928.723 913.19 930.897 914.13 932.53C914.308 932.834 914.427 933.173 914.48 933.53C914.813 935.69 915.593 937.81 916.82 939.89C917.01 940.211 917.11 940.574 917.11 940.94V941.82C917.11 942.126 917.2 942.425 917.37 942.68C918.263 944.067 918.68 945.6 918.62 947.28C918.613 947.49 918.654 947.696 918.74 947.88L920.5 951.64C920.553 951.746 920.583 951.858 920.59 951.97C920.763 953.77 921.197 955.257 921.89 956.43C922.032 956.683 922.085 956.972 922.04 957.25C921.967 957.657 922.463 959.153 923.53 961.74C926.923 969.967 928.513 978.147 928.3 986.28C928.12 993.327 927.617 999.737 926.79 1005.51C924.87 1018.78 914.54 1030.12 904.58 1039.76C897.48 1046.63 888.28 1053.78 881.2 1059.33C876.14 1063.3 872.163 1066.76 869.27 1069.73C856.863 1082.45 845.587 1096.69 835.44 1112.45C832.393 1117.18 827.93 1122.8 822.05 1129.29C814.05 1138.14 802.11 1145.81 789.89 1149.45C783.75 1151.28 779.64 1152.33 777.56 1152.59C773.44 1153.11 769 1153.76 764.24 1154.55C763.02 1154.75 761.67 1154.83 760.19 1154.79C758.07 1154.74 757.067 1153.72 757.18 1151.73C757.253 1150.47 758.023 1143.08 759.49 1129.56C762.2 1104.6 764.53 1079.52 767.2 1054.75C769.453 1033.9 771.02 1019.09 771.9 1010.32C772.66 1002.88 778.32 996.62 784.58 992.58C789.307 989.52 795.767 986.82 803.96 984.48C825.687 978.28 841.487 973.403 851.36 969.85C866.22 964.503 880.137 956.103 893.11 944.65C895.003 942.977 898.553 938.81 903.76 932.15C904.092 931.726 904.361 931.254 904.56 930.75C905.473 928.437 906.633 926.167 908.04 923.94Z" fill="#2A2A28"/>
<path id="abdomen_side_r" d="M898.43 934.74C895.903 938.24 894.02 940.517 892.78 941.57C890.673 943.37 886.903 946.647 881.47 951.4C878.657 953.867 873.457 957.097 865.87 961.09C865.497 961.283 860.9 963.263 852.08 967.03C840.75 971.86 828.79 974.87 817.12 977.17C816.982 977.198 816.84 977.195 816.704 977.162C816.567 977.129 816.44 977.066 816.33 976.979C816.22 976.891 816.131 976.78 816.069 976.654C816.007 976.528 815.973 976.39 815.97 976.25C815.943 975.357 816.007 974.513 816.16 973.72C817.927 964.64 819.25 956.87 820.13 950.41C820.723 946.09 821.057 937.88 821.13 925.78C821.157 920.807 821.237 908.217 821.37 888.01C821.47 872.99 824.97 856.85 831.53 843.55C839.583 827.25 850.493 813.5 864.26 802.3C867.973 799.273 872.683 795.68 878.39 791.52C882.897 788.24 886.637 785.77 889.61 784.11C895.34 780.9 901.2 778.04 906.77 774.54C907.603 774.013 908.37 773.777 909.07 773.83C909.24 773.844 909.405 773.891 909.556 773.97C909.707 774.049 909.841 774.157 909.949 774.289C910.057 774.421 910.138 774.573 910.186 774.736C910.234 774.899 910.249 775.071 910.23 775.24C909.75 779.3 908.98 785.6 908.01 790.53C906.22 799.6 905.03 808 905.17 817.08C905.19 818.587 905.197 820.843 905.19 823.85C905.19 825.403 905.353 827.66 905.68 830.62C906.413 837.287 907.543 843.743 909.07 849.99C909.203 850.537 909.357 850.897 909.53 851.07C909.625 851.165 909.699 851.278 909.749 851.404C909.799 851.529 909.823 851.664 909.82 851.8C909.71 855.08 910.76 857.52 911.31 860.78C911.963 864.593 912.753 870.187 913.68 877.56C914.093 880.86 914.233 883.43 914.1 885.27C913.3 896.143 912.61 902.81 912.03 905.27C910.45 911.963 909.52 915.66 909.24 916.36C908.08 919.25 907.58 920.93 906.02 923.46C901.98 930.027 899.92 933.373 899.84 933.5C899.693 933.76 899.42 934 899.02 934.22C898.79 934.345 898.588 934.523 898.43 934.74Z" fill="#2A2A28"/>
<path id="abdomen_lower_l" d="M582.66 934.95C583.513 931.737 584.373 928.463 585.24 925.13C585.298 924.913 585.424 924.72 585.6 924.58C585.777 924.44 585.994 924.359 586.22 924.35C587.547 924.317 588.6 925.003 589.38 926.41C595.12 936.817 602.78 945.557 612.36 952.63C620.267 958.47 628.253 963.137 636.32 966.63C639.127 967.843 646.043 970.343 657.07 974.13C662.99 976.157 669.26 977.99 675.88 979.63C681.033 980.903 685.267 982.09 688.58 983.19C704.1 988.34 722.42 992.8 723.6 1012.73C723.84 1016.76 724.68 1025.35 726.12 1038.49C728.49 1060.12 730.89 1088.7 733.52 1113.89C735.19 1129.88 736.78 1140.18 737.67 1152.18C737.83 1154.29 736.863 1155.25 734.77 1155.07C729.37 1154.6 723.473 1153.78 717.08 1152.63C697.82 1149.15 679.66 1138.68 667.61 1122.64C659.71 1112.11 652.76 1100.91 645.84 1092.1C635.58 1079.03 624.177 1067.21 611.63 1056.64C607.41 1053.09 598.89 1047.65 592.97 1042.29C590.817 1040.34 588.513 1038.13 586.06 1035.67C571.84 1021.39 565.8 1004.03 567.94 983.6C568.587 977.487 570.05 971.24 572.33 964.86C573.843 960.647 574.86 957.727 575.38 956.1C576.193 953.56 577.58 949.737 579.54 944.63C580.74 941.49 581.78 938.263 582.66 934.95Z" fill="#2A2A28"/>
<path id="abdomen_side_l" d="M589.11 918.19C588.95 916.73 588.06 915.55 587.58 913.76C584.127 900.807 583.173 887.637 584.72 874.25C585.893 864.05 587.9 853.967 590.74 844C591.44 841.54 592.007 837.37 592.44 831.49C593.19 821.37 593.64 810.22 592.01 799.54C590.577 790.093 589.413 781.877 588.52 774.89C588.505 774.766 588.515 774.641 588.549 774.522C588.584 774.402 588.642 774.291 588.721 774.195C588.8 774.1 588.897 774.022 589.007 773.966C589.117 773.91 589.237 773.877 589.36 773.87C589.987 773.823 590.717 774.017 591.55 774.45C608.417 783.257 623.923 794.167 638.07 807.18C654.58 822.37 668.03 842.64 672.77 864.49C674.417 872.07 675.253 879.573 675.28 887C675.4 922.67 674.36 946.12 681.29 974.58C681.342 974.789 681.34 975.007 681.286 975.216C681.232 975.424 681.126 975.615 680.979 975.772C680.832 975.929 680.648 976.047 680.444 976.115C680.24 976.182 680.022 976.198 679.81 976.16C663.803 973.38 648.19 968.507 632.97 961.54C616.18 953.86 599.98 940.64 592.39 923.65C591.763 922.237 590.78 920.687 589.44 919C589.251 918.772 589.136 918.489 589.11 918.19Z" fill="#2A2A28"/>
</g>
</svg>
