<svg width="1491" height="2109" viewBox="0 0 1491 2109" fill="none" xmlns="http://www.w3.org/2000/svg">
<g id="SUBQ_BACKK 1">
<path id="body_base" d="M751.14 1140.21L751.37 1141.94C751.374 1141.96 751.384 1141.99 751.399 1142C751.414 1142.02 751.433 1142.04 751.455 1142.05C751.477 1142.06 751.501 1142.06 751.525 1142.06C751.548 1142.05 751.571 1142.04 751.59 1142.03C751.723 1141.94 751.837 1141.89 751.93 1141.9C752.019 1141.9 752.105 1141.93 752.178 1141.98C752.251 1142.04 752.307 1142.11 752.34 1142.19C754.66 1147.99 755.88 1152.17 758.6 1156.08C761.387 1160.08 764.17 1163.96 766.95 1167.71C769.397 1171.01 772.633 1174.3 776.66 1177.59C781.833 1181.81 785.7 1184.87 788.26 1186.76C799.32 1194.94 812.05 1201.04 826.45 1205.06C837.263 1208.09 850.267 1210.86 865.46 1213.38C871.687 1214.41 876.813 1215.7 880.84 1217.23C887.04 1219.58 893.17 1223.35 899.23 1228.54C904.297 1232.87 908.02 1238.33 910.4 1244.9C910.473 1245.11 910.604 1245.29 910.778 1245.42C910.952 1245.56 911.162 1245.64 911.382 1245.66C911.601 1245.68 911.823 1245.63 912.019 1245.53C912.216 1245.43 912.379 1245.27 912.49 1245.08C912.923 1244.33 913.18 1243.79 913.26 1243.46C915.77 1233.59 919.44 1221.99 921.67 1212.74C926.03 1194.68 929.203 1180.01 931.19 1168.73C932.55 1161 934.397 1149.09 936.73 1133C938.69 1119.47 939.643 1106.39 939.59 1093.76C939.523 1079.3 938.857 1064.63 937.59 1049.76C936.97 1042.52 935.42 1039.58 929.84 1035.16C929.207 1034.66 928.517 1033.99 927.77 1033.15C923.417 1028.23 918.277 1023.61 912.35 1019.28C909.65 1017.31 906.63 1015.49 903.29 1013.8C901.25 1012.77 898.12 1011.13 893.9 1008.86C891.087 1007.35 888.713 1006.32 886.78 1005.77C885.553 1005.42 883.087 1004.62 879.38 1003.38C878.16 1002.97 876.72 1002.72 875.06 1002.61C870.23 1002.3 866.08 1000.99 859.24 999.82C834.85 995.62 809.23 1002.56 786.72 1013.24C783.127 1014.94 779.327 1017.2 775.32 1020.01C767.47 1025.53 761.09 1030.11 755.16 1036.4C752.14 1039.61 750.637 1043.13 750.65 1046.97C750.757 1073.4 750.783 1099.85 750.73 1126.32L743.39 1126.28C743.23 1126.28 743.071 1126.31 742.922 1126.37C742.774 1126.43 742.639 1126.52 742.524 1126.63C742.41 1126.74 742.319 1126.88 742.257 1127.02C742.194 1127.17 742.161 1127.33 742.16 1127.49C742.133 1131.74 742.27 1135.77 742.57 1139.56C743.27 1148.56 743.06 1155.1 743.2 1165.2C743.26 1169.49 743.073 1174.07 742.64 1178.92C740.773 1199.87 738.993 1216.74 737.3 1229.54C735.52 1243.02 732.79 1258.01 729.11 1274.52C726.32 1287.07 722.47 1298.43 719.37 1310.08C718.183 1314.55 716.56 1323.02 714.5 1335.5C714.133 1337.69 711.93 1353.02 707.89 1381.49C705.31 1399.62 702.663 1416.36 699.95 1431.73C698.3 1441.07 695.75 1451.79 692.7 1462.14C687.3 1480.4 681.78 1498.42 675.09 1516.07C671.25 1526.17 672.58 1536.49 674.3 1548.11C674.88 1552.06 675.667 1556.4 676.66 1561.13C680.83 1581.09 684.63 1600.53 685.97 1621.24C687.163 1639.6 685.043 1657.44 679.61 1674.75C676.78 1683.78 671.12 1695.93 668.04 1704.3C666.14 1709.46 663.893 1716.96 661.3 1726.79C652.8 1759 645.93 1787.14 640.69 1811.23C637.563 1825.62 636.25 1840.12 636.75 1854.74C637.04 1863.15 640.23 1871.87 641.75 1878.75C644.53 1891.34 644.823 1902.99 642.63 1913.72C641.21 1920.71 640.54 1926.15 640.62 1930.04C640.85 1941.37 643.79 1952.17 646.26 1964.74C649.69 1982.16 649.54 2002.77 627.26 2006.28C621.98 2007.11 617.24 2007.46 613.04 2007.31C598.63 2006.79 583.95 2004.26 569.99 1999.88C564.98 1998.31 558.67 1996.44 553.76 1995.48C543.233 1993.43 532.9 1991.34 522.76 1989.22C514.26 1987.45 499.14 1981.17 498.91 1970.86C498.73 1962.69 502.727 1957.6 510.9 1955.6C517.707 1953.93 523.407 1951.4 528 1948.03C529.9 1946.63 534.463 1942.45 541.69 1935.48C548.12 1929.26 552.91 1925.24 558.78 1920.56C559.767 1919.78 560.457 1918.95 560.85 1918.08C561.15 1917.43 561.173 1916.37 560.92 1914.92C559.32 1905.58 559.223 1897.21 560.63 1889.82C562.71 1878.87 565.95 1865.93 565.81 1853.25C565.737 1846.96 564.38 1836.29 561.74 1821.24C559.033 1805.84 556.36 1790.44 553.72 1775.04C548.573 1745.05 544.373 1722.47 541.12 1707.31C535.873 1682.87 532.43 1666.52 530.79 1658.25C527.47 1641.51 526.87 1624.26 528.99 1606.51C530.483 1593.99 532.507 1582.25 535.06 1571.28C539.93 1550.3 546.56 1528.8 551.33 1511.32C552.62 1506.62 553.58 1499.59 553.43 1493.15C553.143 1480.37 553.737 1463.66 555.21 1443.01C556.43 1425.86 553.59 1409.29 546.69 1393.31C537.357 1371.68 530.68 1352.54 526.66 1335.88C524.77 1328.05 523.08 1316.77 522.23 1307.03C519.803 1279.27 519.303 1251.51 520.73 1223.76C521.18 1214.99 522.09 1198.73 523.65 1187.31C524.86 1178.45 526.14 1163.61 528.14 1152.5C529.48 1145.04 530.68 1136.64 532.09 1128.52C536.11 1105.3 539.967 1084.64 543.66 1066.53C545.093 1059.48 545.957 1055.19 546.25 1053.68C547.143 1049.05 548.097 1044.79 549.11 1040.9C551.91 1030.19 553.397 1024.55 553.57 1023.97C555.177 1018.66 556.407 1012.97 557.26 1006.91C558.867 995.51 559.7 989.567 559.76 989.08C560.79 981.06 562.23 975.47 563.84 968.63C564.5 965.823 565.277 963.147 566.17 960.6C569.77 950.353 573.273 940.067 576.68 929.74C579.6 920.87 581.24 914.56 580.34 906.07C579.473 897.95 578.997 893.49 578.91 892.69C577.957 883.637 577.877 873.853 578.67 863.34C579.03 858.59 580.14 853.71 580.74 848.84C580.887 847.687 581.217 845.753 581.73 843.04C584.69 827.507 585.187 812.077 583.22 796.75C582.38 790.18 578.59 783.01 575.2 776.94C569.39 766.53 564.45 755.78 558.96 744.8C557.853 742.587 556.963 740.553 556.29 738.7C553.223 730.32 550.48 722.657 548.06 715.71C547.713 714.723 547.257 713.8 546.69 712.94C546.622 712.841 546.528 712.762 546.419 712.713C546.309 712.664 546.188 712.646 546.069 712.662C545.95 712.677 545.837 712.725 545.744 712.801C545.651 712.877 545.58 712.977 545.54 713.09C535.93 741.63 532.86 754.05 521.08 773.82C520.187 775.32 517.02 780.733 511.58 790.06C508.61 795.14 507.31 799.51 506.5 805.64C505.76 811.24 504.8 819.29 503.49 825.39C499.397 844.41 495.51 861.483 491.83 876.61C486.9 896.88 478.25 916.93 466.35 933.59C456.32 947.64 449.11 957.26 441.41 968.89C433.683 980.563 425.473 993.69 416.78 1008.27C409.44 1020.59 403.12 1032.68 398.97 1045.74C396.83 1052.5 398.41 1060.63 398.6 1065.55C399.06 1078.14 397.9 1089.84 395.12 1100.67C392.06 1112.58 384.92 1129.51 381.09 1143.06C377.65 1155.24 375.863 1161.52 375.73 1161.89C374.79 1164.51 374.26 1168.79 373.49 1172.26C373.237 1173.39 373.003 1174.77 372.79 1176.42C372.003 1182.41 370.987 1187.52 369.74 1191.75C368.22 1196.91 361.55 1201.06 356.21 1198.78C350.27 1196.26 351.45 1188.3 352.39 1182.53C354.51 1169.58 356.63 1161.09 357.26 1149.44C357.266 1149.33 357.239 1149.21 357.181 1149.11C357.124 1149.02 357.038 1148.94 356.936 1148.89C356.833 1148.84 356.718 1148.82 356.605 1148.83C356.492 1148.85 356.386 1148.9 356.3 1148.97C355.493 1149.66 354.897 1150.67 354.51 1152C352.85 1157.69 351.6 1164.14 350.31 1169.25C348.31 1177.2 345.423 1188.1 341.65 1201.93C340.997 1204.35 340.007 1207.34 338.68 1210.9C337.17 1214.94 332.31 1217.36 328.41 1217.72C325.317 1218 322.823 1217.15 320.93 1215.17C317.29 1211.35 319.18 1205.61 320.21 1200.29C320.75 1197.53 321.283 1195.16 321.81 1193.17C325.63 1178.83 329.07 1164.77 331.37 1150.01C331.388 1149.91 331.367 1149.8 331.311 1149.71C331.255 1149.62 331.168 1149.55 331.067 1149.52C330.966 1149.49 330.857 1149.5 330.762 1149.55C330.666 1149.59 330.591 1149.67 330.55 1149.77C328.537 1154.44 326.623 1159.7 324.81 1165.53C316.85 1191.17 311.803 1206.83 309.67 1212.5C307.597 1218.01 303.553 1220.53 297.54 1220.06C289.58 1219.45 287.93 1211.31 289.94 1204.64C292.86 1194.98 294.88 1183.12 297.66 1173.12C299.37 1166.95 301.67 1156.45 304.1 1148.01C305.547 1142.98 306.43 1139.81 306.75 1138.49C306.843 1138.12 306.86 1137.87 306.8 1137.74C306.741 1137.62 306.652 1137.53 306.542 1137.46C306.432 1137.39 306.304 1137.35 306.174 1137.34C306.044 1137.34 305.915 1137.37 305.801 1137.44C305.688 1137.5 305.594 1137.6 305.53 1137.71C303.923 1140.58 302.563 1143.51 301.45 1146.48C296.597 1159.52 292.657 1171.22 289.63 1181.57C287.62 1188.45 284.37 1196.52 278.3 1199.51C276.853 1200.22 275.397 1200.38 273.93 1199.99C261.63 1196.74 264.57 1184.39 267.04 1175.01C270.91 1160.28 276.67 1142.08 282.27 1125.64C286.15 1114.21 289.58 1102.21 292.56 1089.62C292.596 1089.47 292.592 1089.3 292.549 1089.15C292.505 1089 292.424 1088.86 292.312 1088.75C292.2 1088.63 292.061 1088.55 291.909 1088.51C291.756 1088.46 291.595 1088.46 291.44 1088.49C290.92 1088.61 290.443 1088.87 290.01 1089.26C288.977 1090.19 284.08 1094.87 275.32 1103.3C273.133 1105.4 269.347 1108.13 263.96 1111.49C258.033 1115.18 251.997 1115.32 245.85 1111.92C243.61 1110.68 240.63 1107.18 242.05 1104.39C243.9 1100.77 247.59 1098.96 250.19 1096C255.583 1089.85 259.563 1085.23 262.13 1082.12C262.77 1081.34 267.37 1074.28 275.93 1060.93C278.223 1057.35 281.78 1053.21 286.6 1048.5C289.153 1046.01 293.38 1043.23 299.28 1040.16C301.807 1038.85 309.373 1034.62 321.98 1027.47C324.5 1026.04 326.227 1024.44 327.16 1022.67C328.88 1019.4 329.64 1015 330.69 1011.57C334.57 998.87 338.223 986.227 341.65 973.64C346.27 956.64 349.56 939.59 352.12 922.23C353.473 913.057 354.327 904.147 354.68 895.5C354.86 891.01 356 884 356.58 877.16C357.447 866.953 358.363 858.74 359.33 852.52C362.37 832.99 368.56 814.29 379.13 796.11C383.103 789.283 389.79 778.307 399.19 763.18C401.857 758.88 404.497 752.557 407.11 744.21C408.243 740.583 408.957 737.193 409.25 734.04C409.64 729.9 410.78 724.81 411.02 720.3C411.247 716.047 411.863 707.453 412.87 694.52C413.81 682.4 416.013 670.32 419.48 658.28C422.59 647.48 429.03 635.15 433.39 626.18C435.543 621.74 436.867 618.473 437.36 616.38C437.813 614.46 437.837 611.25 437.43 606.75C436.497 596.43 435.823 587.597 435.41 580.25C435.203 576.503 435.213 572.74 435.44 568.96C437.62 532.56 453.84 495.2 482.45 471.7C496.97 459.77 516.04 452.41 534.88 450.14C539.627 449.567 545.583 449.03 552.75 448.53C559.197 448.083 564.303 447.247 568.07 446.02C575.65 443.55 581.37 439.67 587.28 434.29C595.69 426.64 606.11 420.26 616.79 414.88C626.37 410.06 640.71 405.22 651.71 399.71C661.06 395.02 669.16 389.97 673.38 380.17C674.053 378.61 674.337 376.303 674.23 373.25C674.11 369.843 673.797 359.093 673.29 341C673.25 339.61 672.69 336.7 672.14 335.01C669.873 327.983 667.977 319.923 666.45 310.83C666.263 309.697 665.767 308.137 664.96 306.15C664.847 305.873 664.677 305.623 664.461 305.416C664.246 305.209 663.99 305.05 663.71 304.95C659.137 303.31 655.407 300.057 652.52 295.19C645.43 283.26 642.54 268.81 642.2 255.24C642.01 247.43 643.66 239.23 653.04 238.35C653.298 238.324 653.562 238.347 653.82 238.42L659.47 240.02C659.609 240.059 659.756 240.063 659.897 240.032C660.038 240.001 660.17 239.937 660.279 239.844C660.389 239.751 660.474 239.632 660.526 239.499C660.579 239.366 660.597 239.222 660.58 239.08C658.36 219.91 658.84 202.25 664.54 183.6C672.23 158.49 692.55 139.74 717.33 131.56C719.05 130.993 723.023 130.04 729.25 128.7C752.9 123.61 779.27 127.8 799.07 141.84C814.09 152.49 826.08 167.24 830.81 184.91C835.42 202.15 835.33 220.41 833.84 238.66C833.828 238.817 833.855 238.975 833.916 239.12C833.978 239.265 834.073 239.394 834.195 239.494C834.316 239.595 834.46 239.665 834.614 239.699C834.768 239.733 834.928 239.73 835.08 239.69C836.507 239.317 837.94 238.96 839.38 238.62C843.17 237.7 847.28 240.16 848.94 243.43C849.76 245.043 850.277 247.073 850.49 249.52C851.59 262.52 849.18 279.94 842.01 292.3C838.35 298.61 836.66 301.74 830.46 304.93C829.3 305.523 828.567 306.55 828.26 308.01C826.347 316.97 824.13 325.92 821.61 334.86C821.437 335.459 821.317 336.071 821.25 336.69C821.09 338.21 820.85 339.59 820.85 340.98C820.783 357.827 820.633 367.95 820.4 371.35C819.793 380.27 823.08 387.063 830.26 391.73C842.11 399.44 857.82 405.82 869.5 410.79C881.95 416.1 891.92 422 902.11 429.65C903.383 430.61 908.057 434.17 916.13 440.33C923.64 446.07 931.63 447.7 941.77 448.47C944.597 448.683 950.273 449.17 958.8 449.93C965.32 450.51 972.62 451.99 980.7 454.37C999.333 459.857 1015.1 470.17 1028.01 485.31C1036.48 495.237 1043.26 506.027 1048.35 517.68C1058.42 540.72 1062.32 565.12 1059.47 590.09C1058.82 595.85 1058.17 601.753 1057.53 607.8C1056.92 613.647 1057.75 618.93 1060.04 623.65C1065.32 634.55 1071.93 647.08 1075.75 659.53C1077.98 666.82 1080.48 678.49 1081.43 687.93C1082.55 699.063 1083.14 705.337 1083.2 706.75C1083.63 716.143 1084.53 725.6 1085.9 735.12C1087.33 745.14 1090.66 754.473 1095.87 763.12C1111.85 789.64 1125.02 809.24 1131.69 835.05C1134.1 844.417 1135.96 855.803 1137.27 869.21C1138.36 880.417 1139.45 892.267 1140.55 904.76C1141.54 916.02 1143.25 927.79 1145.67 940.07C1149.19 957.963 1153.47 975.113 1158.5 991.52C1164.33 1010.51 1167.34 1020.32 1167.55 1020.94C1169.51 1026.76 1178.43 1030.05 1183.08 1033.26C1188.3 1036.86 1192.7 1039.52 1196.27 1041.24C1204.62 1045.27 1212.01 1052.03 1216.06 1058.22C1224.08 1070.52 1229.32 1079.37 1236.91 1088.8C1238.07 1090.25 1242.23 1094.32 1249.4 1101.03C1251.72 1103.2 1254.33 1106.59 1251.5 1109.63C1247.59 1113.82 1242.8 1115.14 1237.12 1113.6C1223.47 1109.9 1215.13 1100.29 1205.34 1090.42C1204.79 1089.87 1204.22 1089.57 1203.64 1089.53C1203.46 1089.52 1203.27 1089.55 1203.1 1089.63C1202.94 1089.7 1202.79 1089.82 1202.67 1089.97C1202.55 1090.12 1202.46 1090.3 1202.42 1090.5C1202.37 1090.69 1202.37 1090.89 1202.41 1091.09C1204.46 1101.59 1207.47 1112.94 1211.43 1125.13C1216.23 1139.93 1221.17 1153.26 1225.27 1167.76C1226.69 1172.79 1228.07 1177.74 1229.4 1182.62C1230.4 1186.27 1230.25 1189.87 1228.94 1193.42C1227.56 1197.17 1223.42 1199.07 1219.8 1199.99C1215.19 1201.15 1210.47 1196.05 1208.8 1192.2C1207.09 1188.27 1205.79 1184.74 1204.92 1181.62C1200.64 1166.36 1195.35 1151.92 1189.04 1138.3C1188.97 1138.15 1188.85 1138.04 1188.7 1137.97C1188.55 1137.91 1188.38 1137.91 1188.22 1137.96L1188.19 1137.97C1188.03 1138.03 1187.9 1138.14 1187.82 1138.29C1187.74 1138.44 1187.72 1138.62 1187.77 1138.78C1188.92 1143.02 1190.47 1149.36 1192.43 1157.79C1195.74 1172.07 1202.16 1193.19 1204.59 1204.13C1205.74 1209.32 1206.08 1214.08 1202.22 1217.9C1200.57 1219.53 1198.4 1220.36 1195.72 1220.38C1188.46 1220.44 1185.88 1215.69 1183.72 1209.3C1180.9 1200.99 1176.38 1186.86 1170.17 1166.91C1168.24 1160.69 1166.26 1154.82 1164.23 1149.29C1164.16 1149.11 1164.1 1149 1164.04 1148.97C1163.96 1148.92 1163.86 1148.89 1163.76 1148.9C1163.66 1148.9 1163.57 1148.92 1163.48 1148.97C1163.4 1149.02 1163.33 1149.1 1163.29 1149.18C1163.24 1149.27 1163.22 1149.36 1163.23 1149.46C1163.5 1153.32 1164.11 1157.32 1165.08 1161.46C1167.2 1170.52 1169.72 1180.76 1172.65 1192.17C1173.16 1194.17 1173.71 1196.72 1174.29 1199.81C1175.05 1203.85 1175.98 1207.11 1175.54 1210.06C1174.79 1215.05 1171.6 1217.67 1165.98 1217.91C1159.46 1218.19 1155.81 1213.47 1154.3 1207.75C1145.41 1174.08 1140.73 1156.34 1140.24 1154.51C1139.59 1152.07 1138.61 1149.86 1137.53 1147.84C1137.5 1147.79 1137.46 1147.74 1137.42 1147.71C1137.37 1147.68 1137.32 1147.65 1137.26 1147.64C1137.2 1147.63 1137.14 1147.63 1137.09 1147.64C1137.03 1147.66 1136.98 1147.68 1136.93 1147.72C1136.84 1147.79 1136.76 1147.91 1136.7 1148.07C1136.65 1148.21 1136.62 1148.34 1136.63 1148.47C1136.73 1150.48 1136.98 1152.76 1137.39 1155.32C1138.58 1162.75 1139.48 1168.53 1140.07 1172.66C1140.99 1179.06 1142.86 1185.4 1142.27 1191.79C1141.88 1195.99 1139.97 1198.47 1136.52 1199.22C1130.82 1200.48 1126.18 1196.91 1124.36 1191.65C1123.36 1188.76 1122.55 1184.62 1121.92 1180.65C1120.21 1169.8 1118.88 1162.7 1117.91 1159.35C1115.27 1150.23 1111.86 1138.42 1108.39 1128.32C1103.39 1113.75 1100.3 1104.62 1098 1097.01C1097.47 1095.26 1097.11 1093.63 1096.94 1092.13C1095.7 1081.4 1095.07 1074.67 1095.05 1071.94C1095.03 1067.53 1095.48 1062.54 1096.39 1056.97C1096.88 1053.99 1096.69 1051.13 1095.84 1048.38C1092.48 1037.61 1088.21 1027.55 1083.04 1018.22C1074.01 1001.93 1065.46 987.9 1057.37 976.12C1046.63 960.493 1037.58 947.55 1030.22 937.29C1021.77 925.517 1015.09 913.287 1010.18 900.6C1007.47 893.607 1004.54 884.017 1001.41 871.83C997.63 857.09 994.883 845.787 993.17 837.92C990.463 825.493 988.507 813.107 987.3 800.76C987.067 798.407 986.06 795.557 984.28 792.21C982.813 789.45 980.003 784.773 975.85 778.18C967.21 764.46 960.807 751.353 956.64 738.86C953.667 729.94 950.62 721.247 947.5 712.78C947.207 711.993 946.903 711.433 946.59 711.1C946.511 711.016 946.411 710.954 946.301 710.92C946.191 710.885 946.074 710.879 945.961 710.902C945.848 710.925 945.743 710.976 945.655 711.051C945.568 711.126 945.5 711.222 945.46 711.33C941.033 722.797 936.693 733.417 932.44 743.19C928.827 751.477 922.857 763.503 914.53 779.27C911.97 784.11 910.223 789.947 909.29 796.78C906.81 814.92 908.61 832.55 911.56 850.93C912.887 859.19 913.613 866.097 913.74 871.65C913.98 882.257 913.453 892.967 912.16 903.78C911.58 908.667 911.937 913.933 913.23 919.58C915.657 930.12 918.687 940.367 922.32 950.32C923.553 953.687 924.463 956.603 925.05 959.07C925.31 960.163 926.273 963.07 927.94 967.79C930.24 974.31 931.61 982.81 932.03 990.83C932.39 997.87 933.01 1004.79 935.09 1011.41C936.37 1015.48 937.15 1019.57 938.69 1025.19C942.983 1040.86 946.147 1053.56 948.18 1063.31C950.327 1073.59 953.917 1092.49 958.95 1120.01C962.343 1138.57 965.563 1160.22 968.61 1184.95C970.09 1196.97 971.16 1211.26 971.96 1224.25C973.387 1247.42 973.41 1270.51 972.03 1293.53C971.5 1302.24 970.75 1308.46 969.79 1317.31C968.19 1331.91 964.577 1346.54 958.95 1361.21C955.017 1371.44 950.283 1383.13 944.75 1396.26C942.03 1402.73 939.31 1410.19 938.34 1417.3C937.067 1426.67 936.667 1435.25 937.14 1443.05C937.487 1448.68 937.9 1454.55 938.38 1460.68C939.3 1472.3 938.89 1485.16 938.86 1498.1C938.853 1500.52 939.603 1504.91 941.11 1511.26C942.43 1516.83 944.253 1523.45 946.58 1531.13C951.04 1545.85 955.007 1560.72 958.48 1575.74C961.74 1589.85 963.72 1604.19 964.42 1618.75C965.36 1638.4 962.37 1656.23 957.93 1676.45C954.043 1694.15 951.03 1708.68 948.89 1720.04C939.837 1768.1 933.127 1806 928.76 1833.74C927.72 1840.37 927 1846.89 926.6 1853.31C925.98 1863.43 927.82 1873.12 930.2 1885C931.73 1892.64 932.63 1901.88 931.14 1910.06C930.76 1912.13 930.45 1914.32 930.21 1916.63C930.158 1917.11 930.275 1917.6 930.54 1918.01C931.367 1919.3 932.283 1920.3 933.29 1921.01C943.15 1928.04 952.597 1936.07 961.63 1945.1C966.73 1950.19 973.76 1952.68 982.74 1955.54C991.69 1958.39 996.38 1965.88 992.66 1975.03C992.435 1975.59 992.106 1976.1 991.69 1976.54C984.91 1983.81 976.96 1987.14 967.18 1989.64C958.713 1991.81 950.517 1993.62 942.59 1995.08C933.01 1996.85 923.77 1999.94 917.07 2001.8C901.34 2006.14 883.38 2008.73 867.53 2006.99C840 2003.96 843.16 1977.15 847.57 1956.99C849.117 1949.9 850.197 1942.49 850.81 1934.76C851.26 1929.14 850.87 1924.23 849.73 1917.85C848.417 1910.53 847.713 1906.09 847.62 1904.52C847.14 1896.72 847.85 1889.12 849.75 1881.73C852.87 1869.58 855.67 1861.01 855.86 1850.58C855.973 1844.55 855.747 1838.86 855.18 1833.51C853.98 1822.22 852.05 1810.5 849.39 1798.34C845.997 1782.86 841.797 1765.21 836.79 1745.4C832.95 1730.2 829.667 1718.99 826.94 1711.76C820.813 1695.51 817.267 1686.08 816.3 1683.46C811.013 1669.17 807.9 1654.85 806.96 1640.5C805.52 1618.57 808.52 1597.09 814.09 1572.09C816.917 1559.39 818.787 1549.44 819.7 1542.25C820.82 1533.45 821.15 1523.91 817.79 1515.38C815.63 1509.89 812.55 1502.33 810.64 1496.73C800.167 1466.12 792.473 1434.62 787.56 1402.24C787.553 1402.21 785.51 1387.8 781.43 1359.01C780.23 1350.54 778.263 1338.42 775.53 1322.65C774.397 1316.1 772.79 1309.1 770.71 1301.63C766.603 1286.88 763.7 1275.28 762 1266.81C753.63 1225.16 749.49 1182.67 751.14 1140.21Z" fill="#2A2A28"/>
<path id="slute_r_subq" d="M751.14 1140.21L750.73 1126.32C750.783 1099.85 750.757 1073.4 750.65 1046.97C750.637 1043.13 752.14 1039.61 755.16 1036.4C761.09 1030.11 767.47 1025.53 775.32 1020.01C779.327 1017.2 783.127 1014.94 786.72 1013.24C809.23 1002.56 834.85 995.62 859.24 999.82C866.08 1000.99 870.23 1002.3 875.06 1002.61C876.72 1002.72 878.16 1002.97 879.38 1003.38C883.087 1004.62 885.553 1005.42 886.78 1005.77C888.713 1006.32 891.087 1007.35 893.9 1008.86C898.12 1011.13 901.25 1012.77 903.29 1013.8C906.63 1015.49 909.65 1017.31 912.35 1019.28C918.277 1023.61 923.417 1028.23 927.77 1033.15C928.517 1033.99 929.207 1034.66 929.84 1035.16C935.42 1039.58 936.97 1042.52 937.59 1049.76C938.857 1064.63 939.523 1079.3 939.59 1093.76C939.643 1106.39 938.69 1119.47 936.73 1133C934.397 1149.09 932.55 1161 931.19 1168.73C929.203 1180.01 926.03 1194.68 921.67 1212.74C919.44 1221.99 915.77 1233.59 913.26 1243.46C913.18 1243.79 912.923 1244.33 912.49 1245.08C912.379 1245.27 912.216 1245.43 912.019 1245.53C911.823 1245.63 911.602 1245.68 911.382 1245.66C911.162 1245.64 910.952 1245.56 910.778 1245.42C910.605 1245.29 910.473 1245.11 910.4 1244.9C908.02 1238.33 904.297 1232.87 899.23 1228.54C893.17 1223.35 887.04 1219.58 880.84 1217.23C876.813 1215.7 871.687 1214.41 865.46 1213.38C850.267 1210.86 837.263 1208.09 826.45 1205.06C812.05 1201.04 799.32 1194.94 788.26 1186.76C785.7 1184.87 781.833 1181.81 776.66 1177.59C772.633 1174.3 769.397 1171.01 766.95 1167.71C764.17 1163.96 761.387 1160.08 758.6 1156.08C755.88 1152.17 754.66 1147.99 752.34 1142.19C752.307 1142.11 752.251 1142.04 752.178 1141.98C752.105 1141.93 752.019 1141.9 751.93 1141.9C751.837 1141.89 751.723 1141.94 751.59 1142.03C751.571 1142.04 751.548 1142.05 751.525 1142.06C751.501 1142.06 751.477 1142.06 751.455 1142.05C751.433 1142.04 751.414 1142.02 751.399 1142C751.384 1141.99 751.374 1141.96 751.37 1141.94L751.14 1140.21Z" fill="#2A2A28"/>
<path id="glute_l_subq" d="M554.23 1047.87L554.73 1047.22C554.833 1047.08 554.879 1046.9 554.86 1046.73C554.687 1044.92 555.123 1043.27 556.17 1041.76C557.883 1039.3 559.803 1037.21 561.93 1035.49C565.01 1032.99 567.14 1029.96 570.37 1027.42C575.243 1023.6 579.93 1020.17 584.43 1017.14C584.656 1016.99 584.901 1016.87 585.16 1016.78C585.693 1016.59 586.327 1016.29 587.06 1015.88C593.013 1012.6 598.12 1010 602.38 1008.07C607.527 1005.74 612.953 1003.97 618.66 1002.75C628.38 1000.67 636.413 999.427 642.76 999.02C663.7 997.69 684.26 1003.28 703.24 1012.28C711.673 1016.27 720.507 1022.04 729.74 1029.59C733.4 1032.58 741.07 1039.14 741.43 1044.25C741.577 1046.3 741.64 1049.14 741.62 1052.75C741.573 1062.27 741.5 1082.49 741.4 1113.41C741.39 1116.89 740.85 1120.4 741.15 1123.53C741.47 1126.81 741.05 1128.67 741.11 1131.83C741.13 1132.89 741.057 1133.99 740.89 1135.14C739.81 1142.55 737.863 1148.69 735.05 1153.57C730.07 1162.19 723.783 1170.11 716.19 1177.33C709.617 1183.58 701.3 1189.32 691.24 1194.55C678.047 1201.4 664.157 1206.24 649.57 1209.05C646.283 1209.68 637.43 1211.42 623.01 1214.27C615.69 1215.72 608.997 1217.94 602.93 1220.93C593.08 1225.8 584.26 1234.59 580.86 1245C580.74 1245.37 580.477 1245.61 580.07 1245.74C579.967 1245.77 579.857 1245.79 579.75 1245.78C579.643 1245.77 579.539 1245.74 579.447 1245.69C579.354 1245.64 579.274 1245.57 579.213 1245.49C579.151 1245.4 579.11 1245.31 579.09 1245.21C577.92 1239.42 575.69 1233.85 574.06 1228.19C568.47 1208.79 564.56 1191.57 561.18 1174.42C558.947 1163.07 556.473 1146.77 553.76 1125.5C550.713 1101.57 550.817 1075.83 554.07 1048.27C554.083 1048.13 554.139 1047.99 554.23 1047.87Z" fill="#2A2A28"/>
<path id="back_of_arm_r" d="M996.88 794.55C995.067 788.563 992.55 782.78 989.33 777.2C985.23 770.113 982.657 765.837 981.61 764.37C978.08 759.41 973.22 751.94 970.65 745.33C968.337 739.383 966.943 735.197 966.47 732.77C965.34 727 963.05 716.9 962.8 709.94C962.413 699.333 962.737 689.777 963.77 681.27C964.437 675.79 965.88 670.557 968.1 665.57C974.2 651.87 984.96 646.52 998.69 642.96C1009.7 640.107 1021.23 638.987 1033.27 639.6C1047.54 640.32 1056.78 647.72 1061.01 661.8C1066.11 678.76 1067.93 692.25 1071.1 713.73C1072.05 720.103 1074.12 732.767 1077.33 751.72C1077.83 754.653 1078.79 759.243 1080.21 765.49C1083.49 779.91 1085.85 793.66 1087.3 806.74C1087.65 809.933 1087.33 813.637 1086.32 817.85C1085.54 821.117 1083.47 824.383 1080.11 827.65C1070.04 837.45 1053.88 840.26 1040.25 840.41C1038.76 840.43 1036.08 840.213 1032.2 839.76C1024.82 838.91 1015.79 833.54 1011.73 828.64C1009.96 826.5 1007.99 823.04 1005.84 818.26C1003.9 813.967 1001.86 809.09 999.71 803.63C999.483 803.05 998.54 800.023 996.88 794.55Z" fill="#2A2A28"/>
<path id="love_handle_r" d="M903.75 1011.65C898.763 1009.12 893.26 1006.76 887.24 1004.57C886.993 1004.48 886.74 1004.27 886.48 1003.94C886.38 1003.82 886.249 1003.72 886.099 1003.66C885.95 1003.6 885.788 1003.59 885.63 1003.61C885.183 1003.68 883.073 1003.13 879.3 1001.96C869.8 999.007 859.063 996.55 847.09 994.59C843.18 993.94 841.79 992.9 840.34 989.55C836.133 979.777 833.833 967.92 833.44 953.98C833.107 942.447 833.887 932.123 835.78 923.01C838.91 907.86 844.19 892.88 852.26 879.35C861.93 863.12 874.63 848.14 889.76 836.27C890.64 835.577 891.527 835.253 892.42 835.3C892.876 835.324 893.307 835.521 893.633 835.853C893.959 836.184 894.157 836.628 894.19 837.1C894.96 848.11 897.42 858.99 899.2 869.67C899.473 871.31 900.353 877.463 901.84 888.13C903.627 900.963 904.82 908.51 905.42 910.77C906.76 915.75 908.2 921.27 910.51 926.86C913.443 933.94 916.223 942.1 918.85 951.34C921.763 961.627 923.94 970.47 925.38 977.87C927.467 988.67 928.68 995.263 929.02 997.65C929.387 1000.25 930.47 1005.09 932.27 1012.17C933.483 1016.95 934.473 1021.82 935.24 1026.77C935.513 1028.5 935.397 1030.13 934.89 1031.67C934.822 1031.88 934.713 1032.07 934.569 1032.23C934.424 1032.39 934.249 1032.52 934.052 1032.61C933.856 1032.7 933.643 1032.75 933.428 1032.75C933.212 1032.75 932.999 1032.71 932.8 1032.63C931.413 1032.05 930.383 1031.44 929.71 1030.79C927.403 1028.6 924.23 1025.82 920.19 1022.44C920.137 1022.39 919.903 1022.27 919.49 1022.06C918.957 1021.79 918.683 1021.65 918.67 1021.64C913.617 1017.42 909.647 1014.78 906.76 1013.73C905.54 1013.28 904.71 1012.74 904.27 1012.11C904.139 1011.91 903.96 1011.75 903.75 1011.65Z" fill="#2A2A28"/>
<path id="back_of_arm_l" d="M404.87 816.41C404.27 813.46 404.38 806.71 405.28 802.91C405.813 800.663 406.823 795.053 408.31 786.08C410.16 774.94 413.39 762.46 415.42 752.22C418.46 736.91 419.74 722.35 422.71 705.83C422.937 704.563 423.35 701.5 423.95 696.64C425.89 680.933 428.603 668.133 432.09 658.24C436.463 645.833 445.493 639.133 459.18 638.14C474.813 637.007 489.84 639.34 504.26 645.14C513.28 648.767 519.95 654.75 524.27 663.09C527.097 668.55 528.91 676.87 529.71 688.05C530.357 697.157 530.467 705.733 530.04 713.78C529.807 718.18 528.593 724.743 526.4 733.47C524.347 741.637 521.133 748.993 516.76 755.54C512.253 762.293 509.993 765.683 509.98 765.71C503.373 775.923 498.543 785.663 495.49 794.93C492.75 803.25 490.09 810.86 487.51 817.76C482.3 831.68 470.96 838.64 456.43 839.7C453.63 839.9 449.183 839.847 443.09 839.54C429.06 838.83 408.16 832.67 404.87 816.41Z" fill="#2A2A28"/>
<path id="love_handle_l" d="M556.32 1019.24C556.893 1017.91 557.25 1016.49 557.39 1015C557.477 1014.02 558.233 1010.85 559.66 1005.48C560.02 1004.12 560.237 1002.45 560.31 1000.47C560.323 1000.14 560.377 999.809 560.47 999.49C561.923 994.537 562.973 990.387 563.62 987.04C564.647 981.707 565.613 977.543 566.52 974.55C567.767 970.403 568.963 965.563 570.11 960.03L570.51 959.13C570.837 958.403 571.15 957.373 571.45 956.04C573.277 948.02 574.673 942.403 575.64 939.19C576.147 937.523 577.293 934.433 579.08 929.92C579.18 929.668 579.247 929.406 579.28 929.14C579.413 928.2 579.987 926.187 581 923.1C582.82 917.57 584.54 911.51 585.42 904.87C585.993 900.55 586.957 895.44 588.31 889.54C589.4 884.79 589.55 878.51 590.52 873.25C592.34 863.35 594.127 853.38 595.88 843.34C596.327 840.773 596.807 838.847 597.32 837.56C597.527 837.04 597.707 836.71 597.86 836.57C598.208 836.258 598.666 836.093 599.149 836.104C599.631 836.115 600.105 836.302 600.48 836.63C605.16 840.73 609.02 843.85 612.58 847.73C619.907 855.737 626.137 863.73 631.27 871.71C632.31 873.337 634.363 877.093 637.43 882.98C639.197 886.38 640.93 890.287 642.63 894.7C653.29 922.413 656.003 951.02 650.77 980.52C649.94 985.21 648.68 990.59 644.88 993.55C643.873 994.343 642.027 994.877 639.34 995.15C632.67 995.85 625.04 998.51 618.5 999.89C612.907 1001.07 605.87 1003.52 597.39 1007.25C594.397 1008.57 591.413 1010.12 588.44 1011.91C587.113 1012.7 584.207 1014.4 579.72 1017.01C572.93 1020.96 564.66 1029.13 560.04 1032.99C559.842 1033.16 559.614 1033.29 559.37 1033.38C558.21 1033.79 557.193 1033.87 556.32 1033.61C555.916 1033.49 555.567 1033.23 555.332 1032.88C555.096 1032.54 554.99 1032.12 555.03 1031.7L556.19 1019.72C556.21 1019.55 556.254 1019.39 556.32 1019.24Z" fill="#2A2A28"/>
</g>
</svg>
