<!-- TRACKD container components. Approved artwork.
     {COLOUR}       = resolved container colour (category, or stack override)
     {COLOUR_LIGHT} = that colour lightened, for the meniscus / highlights
     Structural greys should map to ui-context.md tokens, not stay hardcoded.
-->

<!-- ============ VIAL — injectables ============
     Liquid sits between y=22 (full) and y=86.5 (empty).
     FILL_H = 64.5 * fill        FILL_Y = 86.5 - FILL_H
-->
<svg viewBox="0 0 60 96" xmlns="http://www.w3.org/2000/svg" width="60" height="96">
  <rect x="19" y="2" width="22" height="13" rx="2.5" fill="#2e2e2b"/>
  <rect x="21.5" y="13" width="17" height="5" rx="1" fill="#3d3d39"/>
  <rect x="14" y="17" width="32" height="72" rx="5" fill="#1f1f1d"/>
  <rect x="16.5" y="{FILL_Y}" width="27" height="{FILL_H}" rx="3.5" fill="{COLOUR}"/>
  <rect x="16.5" y="{FILL_Y}" width="27" height="7" rx="3" fill="{COLOUR_LIGHT}"/>
  <rect x="19" y="22" width="3.5" height="60" rx="1.75" fill="#ffffff" opacity="0.07"/>
  <rect x="14" y="17" width="32" height="72" rx="5" fill="none" stroke="#3a3a37" stroke-width="1"/>
</svg>

<!-- ============ BOTTLE — tablets and capsules ============
     Tablets are a fixed decorative arrangement until counts exist.
-->
<svg viewBox="0 0 60 96" xmlns="http://www.w3.org/2000/svg" width="60" height="96">
  <rect x="20" y="2" width="24" height="12" rx="2.5" fill="#2e2e2b"/>
  <rect x="23" y="12" width="18" height="5" rx="1" fill="#3d3d39"/>
  <rect x="14" y="16" width="36" height="77" rx="7" fill="#1c1c1a"/>
  <rect x="14" y="34" width="36" height="30" rx="1" fill="#232320"/>
  <g>
    <rect x="19" y="70" width="15" height="7" rx="3.5" fill="{COLOUR}" transform="rotate(-12 26.5 73.5)"/>
    <rect x="32" y="76" width="15" height="7" rx="3.5" fill="{COLOUR_LIGHT}" transform="rotate(9 39.5 79.5)"/>
    <rect x="18" y="80" width="15" height="7" rx="3.5" fill="{COLOUR}" transform="rotate(6 25.5 83.5)"/>
    <circle cx="41" cy="68" r="4.5" fill="{COLOUR_LIGHT}"/>
    <circle cx="24" cy="62" r="4.5" fill="{COLOUR}"/>
    <circle cx="36" cy="58" r="4.5" fill="{COLOUR_LIGHT}"/>
  </g>
  <rect x="17.5" y="22" width="3.5" height="64" rx="1.75" fill="#ffffff" opacity="0.06"/>
  <rect x="14" y="16" width="36" height="77" rx="7" fill="none" stroke="#3a3a37" stroke-width="1"/>
</svg>

<!-- ============ TUB — powder ============ -->
<svg viewBox="0 0 64 100" xmlns="http://www.w3.org/2000/svg" width="64" height="100">
  <rect x="6" y="16" width="52" height="17" rx="6" fill="#33332f"/>
  <ellipse cx="32" cy="16.5" rx="26" ry="5" fill="#3d3d39"/>
  <rect x="9" y="31" width="46" height="60" rx="7" fill="#1c1c1a"/>
  <ellipse cx="32" cy="31.5" rx="23" ry="4.5" fill="#232320"/>
  <path d="M11.5 56 h41 v31 a5 5 0 0 1 -5 5 h-31 a5 5 0 0 1 -5 -5 z" fill="{COLOUR}"/>
  <ellipse cx="32" cy="56" rx="20.5" ry="4" fill="{COLOUR_LIGHT}"/>
  <rect x="9" y="60" width="46" height="17" rx="1" fill="#0d0d0c" opacity="0.22"/>
  <rect x="13" y="38" width="3.5" height="48" rx="1.75" fill="#ffffff" opacity="0.06"/>
  <rect x="9" y="31" width="46" height="60" rx="7" fill="none" stroke="#3a3a37" stroke-width="1"/>
</svg>
