<svg width="1491" height="2109" viewBox="0 0 1491 2109" fill="none" xmlns="http://www.w3.org/2000/svg">
<path id="body_shell" d="M741.087 70.5143C765.547 67.9943 789.166 74.6941 807.096 91.524C817.396 101.194 822.806 112.834 824.346 126.724C825.636 138.414 823.016 149.104 816.846 159.084C816.572 159.527 816.453 160.049 816.508 160.567C816.562 161.085 816.787 161.57 817.147 161.944C827.607 172.954 835.247 184.794 840.107 199.954C843.574 210.78 845.973 221.78 847.306 232.954C848.716 244.734 848.627 256.404 845.407 267.584C844.267 271.537 843.29 274.844 842.476 277.504C842.323 278.004 842.34 278.541 842.522 279.032C842.705 279.523 843.044 279.943 843.487 280.224C848.053 283.138 851.18 287.208 852.867 292.434C853.856 295.484 849.936 302.324 848.556 304.454C844.616 310.507 840.756 316.647 836.976 322.874C836.476 323.694 834.98 326.771 832.487 332.104C831.72 333.744 829.83 335.341 826.817 336.894C826.621 336.999 826.399 337.047 826.177 337.034L819.567 336.584C819.326 336.566 819.086 336.637 818.893 336.782C818.7 336.927 818.566 337.137 818.516 337.374C815.89 349.974 811.416 361.938 805.096 373.264C804.283 374.731 803.801 377.138 803.647 380.484C802.777 399.474 801.777 412.084 803.967 427.144C804.933 433.817 807.514 439.494 811.707 444.173C813.913 446.633 817.43 449.52 822.257 452.834C832.51 459.854 843.163 465.807 854.217 470.694C861.897 474.084 870.187 476.674 878.507 478.854C882.517 479.904 888.317 480.214 893.636 480.184C909.156 480.104 922.807 479.894 936.487 484.574C952.72 490.121 965.524 500.22 974.897 514.874C977.144 518.387 979.994 524.201 983.447 532.314C985.92 538.127 988.776 546.524 992.016 557.504C997.346 575.543 998.656 595.934 998.266 614.714C998.14 620.554 998.023 626.988 997.917 634.014C997.797 641.474 998.976 649.214 1000.19 656.714C1000.98 661.853 1002.83 667.424 1003.5 671.754C1003.97 674.8 1004.48 677.287 1005.02 679.214C1006.26 683.7 1007.27 689.534 1008.05 696.714C1008.48 700.707 1009.41 705.527 1010.85 711.173C1013.06 717.813 1014.97 726.244 1016.41 731.284C1023.47 756.144 1029.23 776.774 1038.33 797.574C1039.47 800.174 1041.19 803.144 1043.51 806.484C1046.56 810.877 1050.4 816.76 1055.04 824.133C1062.32 835.72 1068.3 848.694 1072.98 863.054C1077.99 878.444 1082.24 892.214 1086.29 908.343C1088.37 916.663 1091.31 928.154 1095.13 942.814C1098.26 954.854 1102.48 967.974 1106.48 979.834C1112.34 997.16 1119.58 1013.41 1128.2 1028.59C1129.99 1031.75 1132.58 1033.92 1135.98 1035.1C1141.68 1037.08 1149.07 1039.99 1158.16 1043.83C1164.3 1046.43 1170.03 1049.22 1175.35 1052.22C1178.55 1054.02 1184.23 1056.93 1192.4 1060.93C1194.84 1062.13 1197.35 1064.65 1199.51 1067.22C1209.47 1079.07 1216.18 1087.09 1219.66 1091.27C1226.05 1098.95 1232.25 1103.48 1241.55 1110.5C1242.63 1111.32 1243.43 1112.24 1243.95 1113.26C1244.25 1113.87 1244.37 1114.57 1244.29 1115.27C1244.21 1115.98 1243.93 1116.66 1243.49 1117.25C1241.14 1120.39 1237.84 1122.16 1233.59 1122.55C1230.78 1122.81 1226.45 1122.95 1223.1 1121.67C1217.44 1119.5 1213.48 1117.4 1211.21 1115.37C1203.48 1108.48 1200.64 1105.85 1193.61 1100.98C1191.86 1099.78 1189.98 1098.99 1187.96 1098.61C1187.76 1098.58 1187.56 1098.61 1187.39 1098.71C1187.22 1098.81 1187.08 1098.97 1187.02 1099.15C1186.43 1100.75 1186.22 1102.43 1186.4 1104.21C1187.28 1113.52 1189.68 1123.1 1193.58 1132.95C1197.61 1143.14 1202.34 1152.16 1206.15 1162.26C1209.63 1171.5 1214.22 1182.87 1219.92 1196.37C1222.28 1201.95 1221.09 1209.06 1214.77 1211.44C1206.93 1214.4 1201.43 1206.34 1199.08 1200.2C1194.88 1189.22 1188.91 1179.36 1184.45 1168.89C1183.87 1167.55 1181.49 1162.56 1177.3 1153.9C1176.71 1152.68 1176.41 1151.62 1174.99 1151.23C1174.8 1151.18 1174.61 1151.17 1174.43 1151.21C1174.24 1151.24 1174.06 1151.32 1173.91 1151.43C1173.76 1151.55 1173.64 1151.69 1173.56 1151.86C1173.47 1152.03 1173.43 1152.22 1173.43 1152.4C1173.41 1154.4 1173.78 1156.44 1174.53 1158.52C1176.07 1162.88 1177.89 1167.69 1179.99 1172.96C1182.54 1179.38 1184.03 1184.46 1186.25 1191.56C1188.7 1199.37 1192.3 1206.8 1194.49 1214.55C1196.28 1220.88 1197.75 1232.51 1188.32 1233.53C1182.8 1234.12 1179.05 1229.42 1177.13 1224.67C1172.35 1212.86 1168.01 1201.93 1164.11 1191.88C1159.37 1179.72 1156.83 1171.51 1152.11 1161.66C1151.98 1161.4 1151.77 1161.19 1151.51 1161.07C1151.25 1160.95 1150.96 1160.92 1150.68 1160.98L1150.63 1160.99C1150.48 1161.03 1150.34 1161.09 1150.22 1161.18C1150.1 1161.27 1150 1161.39 1149.93 1161.52C1149.85 1161.65 1149.8 1161.79 1149.78 1161.94C1149.76 1162.09 1149.78 1162.24 1149.82 1162.38C1151.59 1168.79 1152.94 1175.52 1155.05 1181.47C1157.65 1188.86 1160.27 1196.26 1162.89 1203.66C1164.53 1208.28 1165.73 1212.5 1166.5 1216.3C1167.56 1221.57 1166.16 1226.93 1160.26 1227.92C1154.98 1228.81 1150.73 1224.77 1148.55 1220.23C1141.37 1205.3 1136.93 1191.3 1131.15 1173.42C1129.82 1169.3 1129.08 1165.1 1128.28 1161.39C1128.24 1161.19 1128.14 1161 1128.01 1160.85C1127.63 1160.45 1127.19 1160.22 1126.7 1160.18C1126.55 1160.17 1126.4 1160.2 1126.26 1160.25C1126.12 1160.3 1125.99 1160.39 1125.88 1160.49C1125.77 1160.6 1125.68 1160.73 1125.62 1160.88C1125.56 1161.03 1125.53 1161.18 1125.53 1161.34C1125.52 1163.36 1125.66 1165.05 1125.94 1166.41C1127.4 1173.39 1128.77 1180.69 1130.06 1188.29C1130.91 1193.31 1133.4 1199.83 1131.35 1204.69C1129.64 1208.75 1125.39 1210.2 1121.47 1208.29C1116.6 1205.9 1114.89 1199.95 1114.12 1195.04C1112.3 1183.39 1110.39 1174.26 1108.4 1167.66C1105.46 1157.93 1103.8 1152.19 1103.4 1150.45C1100.51 1137.73 1095.03 1122.55 1092.96 1111.82C1090.09 1096.91 1087.7 1084.47 1085.78 1074.5C1084.16 1066.03 1082.31 1059.04 1078.39 1051.71C1074.27 1044.03 1069.97 1036.91 1065.48 1030.35C1047.7 1004.45 1032.6 981.724 1020.18 962.164C1014.34 952.977 1010.23 946.501 1007.84 942.734C1006.26 940.241 998.617 927.631 984.917 904.904C974.177 887.104 964.946 869.014 959.886 848.664C958.56 843.31 956.82 834.16 954.667 821.214C954.247 818.667 953.76 816.421 953.207 814.474C949.047 799.948 945.504 787.951 942.577 778.484C942.084 776.877 940.823 774.084 938.797 770.104C936.437 765.451 934.176 760.727 932.016 755.934C928.723 748.348 925.587 740.694 922.607 732.974C921.22 729.388 919.84 725.107 918.467 720.133C917.26 715.767 915.98 711.44 914.627 707.154L911.507 686.314C911.478 686.132 911.403 685.96 911.288 685.815C911.173 685.67 911.023 685.557 910.852 685.488C910.681 685.418 910.494 685.395 910.311 685.419C910.128 685.442 909.954 685.513 909.806 685.624C907.6 687.284 906.15 689.678 905.457 692.804C904.45 699.331 903.6 703.824 902.907 706.284C897.057 727.054 890.946 745.944 882.056 764.984C881.07 767.097 879.886 770.577 878.507 775.423C877.507 778.517 876.62 782.114 875.846 786.214C872.026 806.543 871.207 826.974 874.636 847.124C876.19 856.27 877.313 862.157 878.007 864.784C879.88 871.937 881.173 877.348 881.886 881.014C882.636 884.924 884.117 889.584 885.607 892.744C891.894 906.01 897.946 919.434 903.766 933.014C905.553 937.181 907.307 941.767 909.027 946.774C916.397 968.214 923.027 989.384 928.657 1011.88C929.724 1016.14 932.364 1026.23 936.577 1042.13C944.027 1070.28 949.437 1098.1 953.377 1127.36C957.187 1155.72 958.446 1183.86 957.056 1211.22C955.916 1233.76 954.117 1255.17 950.817 1278.12C946.607 1307.42 942.467 1330.99 936.087 1358.49C930.007 1384.71 926.557 1399.94 925.737 1404.18C924.797 1409.1 924.16 1413.05 923.827 1416.05C921.7 1435.2 921.563 1454.17 923.417 1472.97C924.757 1486.55 925.66 1499.19 926.127 1510.89C926.627 1512.29 927.027 1513.68 927.327 1515.08C927.627 1516.46 927.974 1517.87 928.367 1519.32C930.66 1527.75 933.203 1536.56 935.997 1545.76C943.177 1569.41 948.207 1594.51 950.737 1618.99C951.877 1630.05 952.12 1645 951.467 1663.86C951.187 1671.92 949.977 1679.65 949.067 1689.22C948.774 1692.28 947.853 1697.89 946.306 1706.05C945.626 1709.74 944.566 1713.41 944.226 1716.95C943.753 1721.91 943.19 1725.67 942.537 1728.21C934.557 1759.47 929.077 1789.94 923.207 1824.3C920.737 1838.78 919.467 1853.02 921.487 1867.3C921.794 1869.45 922.87 1875.47 924.717 1885.35C925.906 1891.71 926.027 1899.39 926.277 1908.97C926.29 1909.51 926.37 1910.03 926.516 1910.54C927.403 1913.63 928.744 1916.55 930.537 1919.31C934.25 1925.04 937.256 1929.61 939.556 1933.01C943.236 1938.46 946.44 1942.3 949.167 1944.53C957.337 1951.21 965.197 1954.82 976.107 1959.69C980.747 1961.76 983.817 1965.93 984.997 1971.02C986.583 1977.86 984.833 1983.36 979.747 1987.5C977.947 1988.98 974.793 1990.47 970.287 1991.99C966.807 1993.17 963.463 1994.29 960.257 1995.36C955.67 1996.91 949.433 1998.33 941.547 1999.63C934.201 2000.85 929.971 2001.58 928.857 2001.84C923.097 2003.16 918.873 2003.93 916.186 2004.13C901.476 2005.28 878.576 2005.24 873.976 1987.57C873.123 1984.32 872.6 1981.12 872.407 1977.96C872.247 1975.29 870.817 1974.26 868.077 1973.57C857.217 1970.83 856.577 1960.69 857.886 1951.47C858.42 1947.71 859.58 1940.8 861.367 1930.75C862.787 1922.72 862.957 1913.74 862.237 1903.69C861.457 1892.71 861.247 1880.45 862.827 1869.2C864.787 1855.33 864.546 1840.79 863.056 1827.72C860.45 1804.79 856.076 1780.4 849.936 1754.54C848.566 1748.74 846.587 1743.61 845.037 1737.93C844.944 1737.57 844.88 1737.21 844.846 1736.84C844.64 1734.48 844.104 1732.06 843.237 1729.58L842.181 1726.85C839.723 1720.47 837.299 1714 834.907 1707.44C832.657 1701.24 830.267 1692.91 829.007 1688.61C822.447 1666.12 821.296 1641.08 821.806 1617.47C822.473 1586.71 822.674 1563.54 822.407 1547.97C822.34 1544.07 821.884 1539.07 821.037 1532.95C817.61 1524.15 813.95 1515.24 810.056 1506.23C808.156 1501.83 806.167 1495.77 804.087 1488.04C802.707 1482.92 801.306 1476.7 799.886 1469.38C797.516 1457.11 794.686 1443.45 792.927 1431.36C791.533 1421.75 790.024 1411.95 788.397 1401.95C788.304 1401.38 787.913 1398.72 787.226 1393.97C784.053 1372.07 781.18 1350.07 778.607 1327.97C778.347 1325.72 777.847 1323.21 777.107 1320.45C773.161 1305.68 769.774 1291.01 766.947 1276.44C763.44 1258.34 760.507 1241.43 758.147 1225.71C757.407 1220.84 756.907 1213.41 756.027 1206.7C754.12 1192.16 752.887 1177.73 752.327 1163.42C752.007 1155.08 752.827 1147.23 753.377 1138.65C753.404 1138.24 753.32 1137.82 753.134 1137.45C752.947 1137.08 752.666 1136.76 752.317 1136.53C751.324 1135.89 750.233 1134.97 749.047 1133.77C747.457 1132.18 745.087 1125.67 744.157 1125.24C743.754 1125.05 743.292 1125.03 742.869 1125.17C742.446 1125.31 742.094 1125.61 741.886 1126C739.606 1130.36 736.64 1133.88 732.987 1136.56C732.551 1136.88 732.211 1137.32 732.007 1137.82C731.802 1138.31 731.74 1138.86 731.827 1139.39C732.5 1143.55 732.82 1147.83 732.787 1152.22C732.66 1168.05 731.497 1183.55 729.297 1198.71C723.95 1235.52 716.7 1271.46 707.547 1306.53C704.7 1317.42 702.633 1326.44 701.346 1333.59C698.84 1347.51 696.914 1359.47 695.567 1369.47C691.247 1401.71 687.13 1433.04 683.217 1463.45C680.663 1483.34 674.743 1502.32 665.457 1520.38C663.297 1524.59 661.257 1528.86 659.337 1533.18C657.27 1543.71 656.103 1553.64 655.837 1562.97C655.507 1574.13 655.977 1585.13 656.757 1599.62C657.437 1612.4 657.687 1625.58 657.507 1639.16C657.217 1660.72 654.377 1680.1 647.787 1699.91C644.952 1708.43 641.961 1716.86 638.815 1725.19L637.457 1728.75L637.228 1729.37C636.705 1730.82 636.252 1732.26 635.867 1733.68C629.267 1758.26 623.654 1783.52 619.027 1809.45C616.297 1824.79 613.717 1841.03 614.277 1856.89C614.497 1863.07 615.767 1868.06 617.257 1874.73C619.087 1882.91 619.067 1891.2 617.537 1899.78C616.717 1904.39 616.153 1908.2 615.846 1911.2C615.413 1915.52 615.77 1922.02 616.917 1930.69C617.843 1937.69 619.043 1945.8 620.516 1955.02C620.73 1956.33 620.887 1958.89 620.987 1962.7C621.197 1970.88 614.727 1972.01 608.567 1973.93C606.767 1974.49 605.836 1976.28 605.846 1978.27C605.946 1997.71 590.617 2004.69 573.587 2004.36C567.34 2004.25 563.17 2003.96 561.077 2003.49C558.024 2002.81 545.733 2000.35 524.207 1996.1C516.547 1994.59 509.52 1992.39 503.127 1989.5C494.367 1985.54 491.297 1978.8 493.917 1969.27C495.25 1964.41 497.893 1961.06 501.846 1959.22C508.633 1956.06 512.154 1954.41 512.407 1954.29C519.677 1950.69 528.937 1945.34 534.417 1938.57C540.763 1930.74 546.18 1922.48 550.667 1913.78C551.527 1912.11 552 1910.17 552.087 1907.97C552.547 1896.02 552.98 1888.78 553.386 1886.24C554.976 1876.45 556.927 1868.33 557.327 1858.81C557.707 1849.82 557.487 1841.42 556.667 1833.61C556.16 1828.82 555.1 1821.01 553.487 1810.19C551.587 1797.38 549.767 1788.48 547.917 1776.61C546.643 1768.49 544.721 1758.5 542.147 1746.65C539.554 1734.76 537.48 1722.48 535.927 1709.8C534.047 1701.26 532.704 1693.32 531.897 1685.96C531.377 1681.24 530.76 1674.02 530.047 1664.32C527.997 1636.49 530.437 1608.56 536.697 1581.01C539.944 1566.71 542.963 1555.18 545.757 1546.41C548.597 1537.51 551.354 1528.6 554.027 1519.66C555.067 1516.04 555.987 1512.38 556.787 1508.7C557.767 1504.17 558.124 1499.18 557.857 1493.73C557.724 1491.07 557.784 1487.15 558.037 1481.97C558.727 1468.06 560.077 1448.89 559.357 1432.97C558.904 1422.75 558.03 1413.18 556.737 1404.25C554.947 1391.89 550.196 1374.03 547.726 1361.71C543.796 1342.12 541.417 1331.71 538.147 1312.92C537.634 1309.96 536.787 1305.25 535.607 1298.77C529.987 1267.89 528.357 1242.35 526.837 1209.47C526.337 1198.64 526.5 1185.81 527.327 1170.97C530.007 1122.82 538.297 1075.28 552.037 1029.11C556.15 1015.27 558.347 1007.9 558.627 1006.99C569.267 972.044 582.787 938.103 599.337 903.383C603.07 895.564 605.744 889.147 607.357 884.133C613.064 866.407 616.2 848.354 616.766 829.974C616.946 824.261 616.666 818.404 615.927 812.404C614.527 801.097 613.61 792.904 613.177 787.824C613.007 785.724 612.347 782.724 611.777 781.034C607.617 768.654 604.606 757.124 599.636 744.204C595.536 733.537 592.397 724.51 590.217 717.124C589.497 714.67 588.117 711.194 586.077 706.694C584.757 703.781 583.133 699.26 581.207 693.133C580.16 689.82 578.72 688.574 576.886 689.394C576.84 694.701 575.89 701.564 574.037 709.984C572.444 717.231 570.304 724.161 567.617 730.774C564.437 738.614 560.457 747.834 555.957 756.334C552.877 762.144 547.736 770.324 544.806 778.514C543.313 782.741 541.817 787.018 540.317 791.344C536.217 803.131 533.567 812.927 532.367 820.734C531.014 829.567 529.92 836.148 529.087 840.474C526.373 854.501 521.884 867.611 515.617 879.804C513.43 884.058 509.51 891.161 503.857 901.114C500.351 907.274 496.163 914.22 491.297 921.954C472.49 951.834 452.436 982.301 431.136 1013.35C423.917 1023.88 415.877 1037.39 410.957 1045.22C406.197 1052.8 402.927 1060.82 401.147 1069.28C399.267 1078.26 397.53 1088.47 395.936 1099.89C394.466 1110.35 391.727 1121.8 388.467 1133.74C384.953 1146.61 380.853 1161.61 376.167 1178.75C374.527 1184.75 373.416 1190.64 372.436 1196.58C372.063 1198.84 371.34 1201.12 370.266 1203.42C365.396 1213.85 351.927 1210.3 354.617 1197.98C355.377 1194.47 356.353 1189.35 357.547 1182.63C358.02 1179.94 358.423 1178 358.757 1176.81C359.487 1174.16 359.436 1171.54 360.136 1168.95C361.13 1165.29 361.583 1162.43 361.497 1160.37C361.49 1160.15 361.414 1159.93 361.28 1159.75C361.146 1159.56 360.959 1159.43 360.745 1159.35C360.53 1159.28 360.298 1159.28 360.081 1159.34C359.863 1159.4 359.67 1159.53 359.527 1159.7C359.174 1160.12 358.91 1160.68 358.737 1161.37C353.99 1180.35 348.5 1197.53 342.266 1212.91C340.753 1216.64 339.204 1219.75 337.617 1222.25C335.217 1226.02 330.007 1230.04 325.467 1228.11C322.12 1226.7 320.563 1224.21 320.797 1220.65C321.177 1214.93 323.187 1207.81 325.127 1202.07C327.88 1193.89 330.367 1186.28 332.587 1179.24C333.96 1174.89 335.497 1168.9 337.197 1161.27C337.231 1161.11 337.219 1160.94 337.162 1160.78C337.105 1160.63 337.005 1160.49 336.875 1160.39C336.744 1160.28 336.587 1160.22 336.422 1160.2C336.256 1160.18 336.088 1160.2 335.936 1160.27C334.737 1160.84 334.196 1162.53 333.686 1163.76C331.12 1170.06 329.64 1173.86 329.247 1175.16C324.167 1191.7 317.447 1209.86 309.407 1226.5C307.857 1229.71 304.196 1233.29 300.306 1233.38C292.567 1233.55 291.176 1225.91 292.396 1220.01C292.69 1218.59 293.947 1214.26 296.167 1207.03C297.027 1204.23 303.42 1185.53 315.346 1150.95C315.417 1150.75 315.434 1150.53 315.394 1150.31C315.355 1150.1 315.26 1149.89 315.121 1149.73C314.981 1149.56 314.801 1149.43 314.597 1149.35C314.394 1149.27 314.173 1149.24 313.957 1149.27L313.577 1149.32C312.958 1149.41 312.373 1149.66 311.885 1150.05C311.396 1150.44 311.02 1150.95 310.797 1151.53C306.883 1161.64 302.644 1171.11 298.077 1179.95C293.127 1189.5 290.316 1200 283.186 1208.07C279.566 1212.17 272.677 1212.96 268.957 1208.48C265.757 1204.61 268.216 1195.2 270.136 1191.27C273.906 1183.56 277.317 1173.59 280.467 1166.6C283.947 1158.88 286.346 1152.48 289.516 1145.62C293.083 1137.92 296.723 1129 300.436 1118.86C302.276 1113.84 303.66 1108.88 304.587 1103.97C304.827 1102.69 304.697 1101.27 304.197 1099.73C304.093 1099.42 303.893 1099.14 303.627 1098.93C302.427 1098.05 301.03 1098.02 299.436 1098.82C291.387 1102.91 287.067 1107.18 279.497 1114.15C276.69 1116.73 272.683 1118.97 267.476 1120.87C261.336 1123.12 247.887 1125.12 246.087 1116.04C245.337 1112.24 249.597 1109.93 253.277 1106.9C260.984 1100.56 267.947 1093.38 274.167 1085.36C279.927 1077.95 285.237 1071.75 291.217 1064.12C293.407 1061.31 299.046 1057.94 303.346 1056.08C311.186 1052.7 318.98 1048.83 326.726 1044.47C334.886 1039.88 342.807 1037.14 351.577 1034.02C353.847 1033.21 355.857 1031.11 356.867 1028.63C360.647 1019.42 366.807 1009.3 371.207 998.664C381.837 972.984 390.387 947.764 397.147 921.654C400.307 909.474 403.317 899.604 406.397 888.274C413.247 863.054 422.937 836.924 438.327 815.404C443.057 808.784 446.147 804.574 449.107 798.264C451.76 792.598 454.393 786.407 457.007 779.694C463.82 762.161 469.701 743.527 474.647 723.794C475.254 721.38 476.21 716.027 477.516 707.734C477.69 706.634 478.294 704.367 479.327 700.934L483.797 674.794C484.89 665.98 485.967 657.2 487.027 648.454C487.3 646.194 487.406 639.037 487.346 626.984C487.306 618.464 487.66 609.384 488.407 599.744C489.44 586.331 492.57 571.577 497.797 555.484C502.457 541.144 508.183 527.607 514.976 514.874C528.926 488.734 559.107 479.984 587.077 479.864C596.877 479.814 602.627 480.224 610.766 478.394C616.2 477.181 622.28 475.174 629.007 472.374C640.787 467.46 652.283 461.544 663.497 454.624C668.577 451.484 673.007 447.924 677.027 443.944C685.237 435.794 686.247 418.104 685.947 406.724C685.754 399.558 685.48 391.391 685.127 382.224C684.927 376.974 684.246 373.744 681.797 369.014C676.917 359.581 673.143 349.414 670.476 338.514C670.405 338.223 670.237 337.964 669.999 337.782C669.76 337.6 669.467 337.506 669.167 337.514L663.337 337.673C663.039 337.68 662.741 337.633 662.457 337.534C655.197 334.974 655.096 327.864 651.507 321.844C647.497 315.104 644.516 310.094 641.976 303.814C638.156 294.414 638.167 286.294 647.717 280.264C648.177 279.972 648.527 279.535 648.71 279.024C648.893 278.513 648.898 277.957 648.726 277.444C646.416 270.554 644.897 265.334 644.277 257.454C642.75 237.914 644.974 218.967 650.947 200.614C656.04 184.947 664.487 171.517 676.287 160.324C676.625 160.004 676.862 159.591 676.967 159.136C677.071 158.681 677.04 158.204 676.877 157.764C669.43 137.718 671.08 119.42 681.827 102.874C694.567 83.2538 718.677 72.8143 741.087 70.5143ZM836.011 1423.4V1423.4V1423.4ZM885.191 1399.04V1399.04V1399.04ZM513.237 804.844V804.843V804.844ZM542.766 776.343V776.344V776.343ZM526.77 680.107V680.106V680.107ZM525.669 679.808V679.809V679.808ZM997.743 659.395L997.843 659.403L997.743 659.394V659.395ZM954.705 610.863V610.862V610.863Z" fill="#2A2A28"/>
<g id="Fem_IM_Backk 1">
<g id="body_base">
<path id="body_base_2" d="M1000.36 656.24C999.64 656.74 999.07 657.497 998.65 658.51C998.598 658.635 998.51 658.742 998.397 658.816C998.284 658.891 998.152 658.93 998.017 658.929C997.881 658.928 997.749 658.887 997.638 658.81C997.526 658.734 997.44 658.626 997.39 658.5C996.15 655.33 995.19 651.75 993.68 648.86C989.813 641.46 985.06 634.453 979.42 627.84C978.814 627.134 978.159 626.473 977.46 625.86C969.127 618.62 960.097 612.717 950.37 608.15C948.043 607.057 940.543 603.72 927.87 598.14C923.66 596.28 921.1 595.76 920.01 600.98C918.49 608.273 917.54 616.383 917.16 625.31C916.907 631.203 916.493 636.483 915.92 641.15C915.287 646.357 914.643 651.623 913.99 656.95C913.097 664.203 912.733 672.3 912.9 681.24C912.96 684.553 913.217 687.643 913.67 690.51C914.103 693.277 914.44 696.357 914.68 699.75C914.693 699.957 914.82 700.25 915.06 700.63C915.138 700.753 915.176 700.896 915.17 701.04L914.8 706.68L911.68 685.84C911.651 685.658 911.576 685.486 911.461 685.341C911.347 685.196 911.196 685.083 911.025 685.014C910.854 684.944 910.668 684.92 910.485 684.944C910.302 684.968 910.128 685.039 909.98 685.15C907.773 686.81 906.323 689.203 905.63 692.33L905.58 691.2C905.58 691.142 905.561 691.085 905.525 691.036C905.489 690.988 905.439 690.951 905.38 690.93C904.94 690.79 904.703 691.15 904.67 692.01C904.658 692.304 904.543 692.584 904.343 692.802C904.144 693.019 903.874 693.16 903.58 693.2L903.43 693.22C903.316 693.237 903.199 693.227 903.09 693.19C902.981 693.153 902.881 693.091 902.799 693.009C902.718 692.926 902.656 692.825 902.62 692.715C902.584 692.604 902.573 692.486 902.59 692.37C903.597 685.403 904.987 673.78 906.76 657.5C906.787 657.247 907.33 653.33 908.39 645.75C908.643 643.93 908.607 642.407 908.28 641.18C908.199 640.876 908.048 640.594 907.84 640.358C907.632 640.121 907.372 639.936 907.081 639.817C906.789 639.698 906.474 639.648 906.16 639.671C905.846 639.694 905.541 639.79 905.27 639.95C902.503 641.59 899.25 643.427 895.51 645.46C888.223 649.42 880.137 651.573 871.25 651.92C858.9 652.39 846.78 651.56 835.31 647.46C825.45 643.933 819.91 641.977 818.69 641.59C817.203 641.123 816.17 641.527 815.59 642.8C810.61 653.753 804.233 664.757 796.46 675.81C796.354 675.962 796.27 676.134 796.21 676.32C795.89 677.3 795.227 678.51 794.22 679.95C787.38 689.717 782.53 696.37 779.67 699.91C772.81 708.43 766.45 716.01 760.86 724.59C759.387 726.843 758.63 728.84 758.59 730.58C758.23 747.08 758.39 763.883 759.07 780.99C759.18 783.74 762.56 786.49 764.17 787.82C765.137 788.62 770.593 793.413 780.54 802.2C783.37 804.71 785.85 806.82 787.83 810.15C788.517 811.297 789.147 814.28 789.72 819.1C791.04 830.147 793.5 841.083 797.1 851.91C799.907 860.343 802.033 866.137 803.48 869.29C808.64 880.557 815.553 890.853 824.22 900.18C824.351 900.32 824.513 900.428 824.693 900.495C824.873 900.562 825.066 900.587 825.257 900.566C825.448 900.546 825.632 900.482 825.794 900.378C825.956 900.274 826.091 900.135 826.19 899.97C826.41 899.61 826.533 899.203 826.56 898.75C827.76 879.96 833.62 861.34 841.37 844.11C845.44 835.09 852.59 824.99 856.65 816.78C859.083 811.867 862.353 805.067 866.46 796.38C869.46 790.04 871.12 783.84 873.65 777.39C873.756 777.119 873.915 776.871 874.12 776.66C875.38 775.347 876.9 774.777 878.68 774.95C877.68 778.043 876.793 781.64 876.02 785.74C872.2 806.07 871.38 826.5 874.81 846.65C876.363 855.797 877.487 861.683 878.18 864.31C880.053 871.463 881.347 876.873 882.06 880.54C882.81 884.45 884.29 889.11 885.78 892.27C892.067 905.537 898.12 918.96 903.94 932.54C905.727 936.707 907.48 941.293 909.2 946.3C916.57 967.74 923.2 988.91 928.83 1011.41C929.897 1015.67 932.537 1025.75 936.75 1041.66C944.2 1069.81 949.61 1097.63 953.55 1126.89C957.36 1155.25 958.62 1183.39 957.23 1210.75C956.09 1233.29 954.29 1254.7 950.99 1277.65C946.78 1306.95 942.64 1330.52 936.26 1358.02C930.18 1384.23 926.73 1399.46 925.91 1403.71C924.97 1408.62 924.333 1412.58 924 1415.58C921.873 1434.73 921.737 1453.7 923.59 1472.5C924.93 1486.08 925.833 1498.72 926.3 1510.42L925.22 1507.7C925.121 1507.45 924.975 1507.22 924.79 1507.03C923.363 1505.55 922.557 1504.5 922.37 1503.88C919.563 1494.38 915.737 1483 910.89 1469.74C909.543 1466.05 908.29 1462.27 907.13 1458.42C904.66 1450.21 901.45 1440 898.11 1431.11C894.07 1420.37 890.62 1409.37 885.76 1399.02C885.673 1398.83 885.536 1398.68 885.365 1398.56C885.193 1398.45 884.994 1398.39 884.788 1398.38C884.583 1398.38 884.38 1398.43 884.202 1398.53C884.024 1398.63 883.878 1398.78 883.78 1398.96C877.007 1411.35 871.403 1421.35 866.97 1428.95C865.13 1432.1 861.58 1436.4 857.99 1435.79C855.65 1435.4 853.223 1434.31 850.71 1432.53C847.697 1430.39 843.527 1427.19 838.2 1422.92C838.01 1422.77 837.788 1422.66 837.552 1422.61C837.315 1422.55 837.069 1422.55 836.832 1422.61C836.595 1422.66 836.374 1422.77 836.185 1422.92C835.996 1423.08 835.844 1423.27 835.74 1423.49C832.22 1430.93 831.84 1437.76 830.18 1448.12C827.71 1463.54 826.37 1478.46 824.34 1497.38C823.46 1505.56 823.147 1515.6 823.4 1527.5C823.44 1529.37 822.71 1531.03 821.21 1532.48C817.783 1523.67 814.123 1514.77 810.23 1505.76C808.33 1501.36 806.34 1495.3 804.26 1487.57C802.88 1482.45 801.48 1476.23 800.06 1468.91C797.69 1456.64 794.86 1442.98 793.1 1430.89C791.707 1421.28 790.197 1411.47 788.57 1401.48C788.477 1400.91 788.087 1398.25 787.4 1393.5C784.227 1371.59 781.353 1349.59 778.78 1327.5C778.52 1325.25 778.02 1322.74 777.28 1319.98C773.333 1305.21 769.947 1290.54 767.12 1275.97C763.613 1257.87 760.68 1240.96 758.32 1225.24C757.58 1220.37 757.08 1212.94 756.2 1206.23C754.293 1191.68 753.06 1177.26 752.5 1162.95C752.18 1154.61 753 1146.76 753.55 1138.18C753.577 1137.76 753.493 1137.35 753.307 1136.98C753.121 1136.6 752.839 1136.29 752.49 1136.06C751.497 1135.41 750.407 1134.49 749.22 1133.3C747.63 1131.71 745.26 1125.2 744.33 1124.77C743.927 1124.58 743.465 1124.55 743.042 1124.69C742.619 1124.84 742.267 1125.14 742.06 1125.53C739.78 1129.89 736.813 1133.41 733.16 1136.09C732.724 1136.41 732.385 1136.84 732.18 1137.34C731.975 1137.84 731.913 1138.39 732 1138.92C732.673 1143.08 732.993 1147.36 732.96 1151.75C732.833 1167.58 731.67 1183.07 729.47 1198.24C724.123 1235.05 716.873 1270.99 707.72 1306.06C704.873 1316.95 702.807 1325.97 701.52 1333.12C699.013 1347.03 697.087 1358.99 695.74 1369C691.42 1401.24 687.303 1432.57 683.39 1462.98C680.837 1482.87 674.917 1501.84 665.63 1519.91C663.47 1524.12 661.43 1528.38 659.51 1532.71C659.503 1531.95 659.127 1531.43 658.38 1531.14C658.06 1531.01 657.85 1529.89 657.75 1527.76C657.46 1521.6 657.82 1516.36 657.26 1509.01C655.04 1479.9 651.833 1452.9 647.64 1428.02C647.367 1426.4 646.907 1424.87 646.26 1423.42C646.088 1423.04 645.776 1422.74 645.389 1422.59C645.002 1422.43 644.572 1422.44 644.19 1422.6C643.403 1422.93 642.577 1423.47 641.71 1424.2C639.043 1426.45 635.353 1429.43 630.64 1433.14C628.953 1434.47 627.087 1435.46 625.04 1436.1C621.85 1437.1 618.4 1434.41 616.6 1431.86C610.953 1423.86 605.94 1415.13 601.56 1405.66C600.46 1403.28 599.373 1401.28 598.3 1399.66C598.187 1399.49 598.036 1399.35 597.858 1399.25C597.68 1399.15 597.481 1399.1 597.278 1399.09C597.075 1399.08 596.873 1399.13 596.689 1399.21C596.505 1399.3 596.344 1399.43 596.22 1399.59C595.94 1399.96 595.667 1400.47 595.4 1401.13C593.16 1406.67 588.083 1419.92 580.17 1440.89C577.82 1447.11 574.72 1457.22 571.55 1466.29C570.563 1469.11 569.5 1472.43 568.36 1476.24C564.693 1488.46 562.333 1496.3 561.28 1499.77C559.32 1506.22 557.91 1513.73 554.2 1519.19C555.24 1515.56 556.16 1511.91 556.96 1508.23C557.94 1503.7 558.297 1498.71 558.03 1493.26C557.897 1490.6 557.957 1486.68 558.21 1481.5C558.9 1467.59 560.25 1448.42 559.53 1432.5C559.077 1422.28 558.203 1412.71 556.91 1403.78C555.12 1391.42 550.37 1373.56 547.9 1361.24C543.97 1341.65 541.59 1331.24 538.32 1312.45C537.807 1309.49 536.96 1304.77 535.78 1298.3C530.16 1267.42 528.53 1241.88 527.01 1209C526.51 1198.17 526.673 1185.33 527.5 1170.5C530.18 1122.35 538.47 1074.81 552.21 1028.64C556.323 1014.8 558.52 1007.43 558.8 1006.52C569.44 971.57 582.96 937.63 599.51 902.91C603.243 895.09 605.917 888.673 607.53 883.66C613.237 865.933 616.373 847.88 616.94 829.5C617.12 823.787 616.84 817.93 616.1 811.93C614.7 800.623 613.783 792.43 613.35 787.35C613.18 785.25 612.52 782.25 611.95 780.56C607.79 768.18 604.78 756.65 599.81 743.73C595.71 733.063 592.57 724.037 590.39 716.65C589.67 714.197 588.29 710.72 586.25 706.22C584.93 703.307 583.307 698.787 581.38 692.66C580.333 689.347 578.893 688.1 577.06 688.92C577.233 681.7 577.257 674.543 577.13 667.45C577.02 661.57 575.73 655.66 575.43 650.76C574.84 641.32 573.73 629.64 573.38 618.89C573.167 612.25 572.167 606.02 570.38 600.2C569.953 598.82 569.097 597.87 567.81 597.35C567.51 597.226 567.182 597.195 566.87 597.26C565.063 597.627 563.95 597.883 563.53 598.03C551.81 602.163 540.77 607.127 530.41 612.92C523.957 616.527 518.617 620.01 514.39 623.37C501.83 633.36 493.37 648.4 489.58 664.33C489.514 664.589 489.416 664.834 489.29 665.06L483.97 674.32C485.063 665.507 486.14 656.727 487.2 647.98C487.473 645.72 487.58 638.563 487.52 626.51C487.48 617.99 487.833 608.91 488.58 599.27C489.613 585.857 492.743 571.103 497.97 555.01C502.63 540.67 508.357 527.133 515.15 514.4C529.1 488.26 559.28 479.51 587.25 479.39C597.05 479.34 602.8 479.75 610.94 477.92C616.373 476.707 622.453 474.7 629.18 471.9C640.96 466.987 652.457 461.07 663.67 454.15C668.75 451.01 673.18 447.45 677.2 443.47C685.41 435.32 686.42 417.63 686.12 406.25C685.927 399.083 685.653 390.917 685.3 381.75C685.1 376.5 684.42 373.27 681.97 368.54C677.09 359.107 673.317 348.94 670.65 338.04C670.579 337.749 670.41 337.49 670.172 337.308C669.934 337.126 669.64 337.032 669.34 337.04L663.51 337.2C663.212 337.207 662.914 337.159 662.63 337.06C655.37 334.5 655.27 327.39 651.68 321.37C647.67 314.63 644.69 309.62 642.15 303.34C638.33 293.94 638.34 285.82 647.89 279.79C648.35 279.498 648.7 279.061 648.883 278.55C649.066 278.039 649.072 277.483 648.9 276.97C646.59 270.08 645.07 264.86 644.45 256.98C642.923 237.44 645.147 218.493 651.12 200.14C656.213 184.473 664.66 171.043 676.46 159.85C676.798 159.53 677.035 159.117 677.139 158.662C677.244 158.207 677.213 157.73 677.05 157.29C669.603 137.243 671.253 118.947 682 102.4C694.74 82.78 718.85 72.34 741.26 70.04C765.72 67.52 789.34 74.22 807.27 91.05C817.57 100.72 822.98 112.36 824.52 126.25C825.81 137.94 823.19 148.63 817.02 158.61C816.746 159.054 816.626 159.576 816.68 160.094C816.735 160.611 816.96 161.096 817.32 161.47C827.78 172.48 835.42 184.32 840.28 199.48C843.747 210.307 846.147 221.307 847.48 232.48C848.89 244.26 848.8 255.93 845.58 267.11C844.44 271.063 843.463 274.37 842.65 277.03C842.497 277.53 842.513 278.067 842.695 278.558C842.878 279.05 843.217 279.468 843.66 279.75C848.227 282.663 851.353 286.733 853.04 291.96C854.03 295.01 850.11 301.85 848.73 303.98C844.79 310.033 840.93 316.173 837.15 322.4C836.65 323.22 835.153 326.297 832.66 331.63C831.893 333.27 830.003 334.867 826.99 336.42C826.794 336.525 826.572 336.573 826.35 336.56L819.74 336.11C819.499 336.093 819.26 336.163 819.067 336.308C818.874 336.454 818.74 336.664 818.69 336.9C816.063 349.5 811.59 361.463 805.27 372.79C804.457 374.257 803.973 376.663 803.82 380.01C802.95 399 801.95 411.61 804.14 426.67C805.107 433.343 807.687 439.02 811.88 443.7C814.087 446.16 817.603 449.047 822.43 452.36C832.683 459.38 843.337 465.333 854.39 470.22C862.07 473.61 870.36 476.2 878.68 478.38C882.69 479.43 888.49 479.74 893.81 479.71C909.33 479.63 922.98 479.42 936.66 484.1C952.893 489.647 965.697 499.747 975.07 514.4C977.317 517.913 980.167 523.727 983.62 531.84C986.093 537.653 988.95 546.05 992.19 557.03C997.52 575.07 998.83 595.46 998.44 614.24C998.313 620.08 998.197 626.513 998.09 633.54C997.97 641 999.15 648.74 1000.36 656.24Z" fill="#2A2A28"/>
<path id="body_base_3" d="M544.98 778.04C543.487 782.267 541.99 786.543 540.49 790.87C536.39 802.657 533.74 812.453 532.54 820.26C531.187 829.093 530.093 835.673 529.26 840C526.547 854.027 522.057 867.137 515.79 879.33C513.603 883.583 509.683 890.687 504.03 900.64C500.523 906.8 496.337 913.747 491.47 921.48C472.663 951.36 452.61 981.827 431.31 1012.88C424.09 1023.41 416.05 1036.92 411.13 1044.75C406.37 1052.32 403.1 1060.34 401.32 1068.81C399.44 1077.79 397.703 1087.99 396.11 1099.42C394.64 1109.88 391.9 1121.33 388.64 1133.27C385.127 1146.14 381.027 1161.14 376.34 1178.28C374.7 1184.28 373.59 1190.17 372.61 1196.11C372.237 1198.36 371.513 1200.64 370.44 1202.95C365.57 1213.38 352.1 1209.83 354.79 1197.51C355.55 1194 356.527 1188.88 357.72 1182.16C358.193 1179.47 358.597 1177.53 358.93 1176.34C359.66 1173.69 359.61 1171.07 360.31 1168.48C361.303 1164.81 361.757 1161.95 361.67 1159.9C361.664 1159.67 361.588 1159.45 361.454 1159.27C361.319 1159.09 361.132 1158.95 360.918 1158.88C360.703 1158.81 360.472 1158.8 360.254 1158.86C360.036 1158.93 359.843 1159.05 359.7 1159.23C359.347 1159.65 359.083 1160.21 358.91 1160.9C354.163 1179.88 348.673 1197.06 342.44 1212.44C340.927 1216.17 339.377 1219.28 337.79 1221.78C335.39 1225.55 330.18 1229.57 325.64 1227.64C322.293 1226.23 320.737 1223.74 320.97 1220.18C321.35 1214.46 323.36 1207.34 325.3 1201.6C328.053 1193.42 330.54 1185.81 332.76 1178.77C334.133 1174.42 335.67 1168.43 337.37 1160.8C337.404 1160.64 337.392 1160.47 337.335 1160.31C337.278 1160.15 337.179 1160.02 337.048 1159.91C336.918 1159.81 336.761 1159.74 336.595 1159.72C336.429 1159.7 336.261 1159.73 336.11 1159.8C334.91 1160.37 334.37 1162.06 333.86 1163.29C331.293 1169.59 329.813 1173.39 329.42 1174.69C324.34 1191.23 317.62 1209.39 309.58 1226.03C308.03 1229.24 304.37 1232.82 300.48 1232.91C292.74 1233.08 291.35 1225.44 292.57 1219.54C292.863 1218.11 294.12 1213.79 296.34 1206.56C297.2 1203.75 303.593 1185.06 315.52 1150.48C315.59 1150.27 315.607 1150.05 315.567 1149.84C315.528 1149.62 315.434 1149.42 315.294 1149.25C315.155 1149.08 314.975 1148.95 314.771 1148.87C314.567 1148.8 314.347 1148.77 314.13 1148.8L313.75 1148.85C313.131 1148.94 312.547 1149.19 312.058 1149.58C311.57 1149.97 311.194 1150.48 310.97 1151.06C307.057 1161.17 302.817 1170.64 298.25 1179.48C293.3 1189.03 290.49 1199.53 283.36 1207.6C279.74 1211.7 272.85 1212.49 269.13 1208.01C265.93 1204.14 268.39 1194.73 270.31 1190.8C274.08 1183.09 277.49 1173.12 280.64 1166.13C284.12 1158.41 286.52 1152.01 289.69 1145.15C293.257 1137.44 296.897 1128.52 300.61 1118.39C302.45 1113.37 303.833 1108.41 304.76 1103.5C305 1102.21 304.87 1100.8 304.37 1099.26C304.266 1098.94 304.067 1098.66 303.8 1098.46C302.6 1097.58 301.203 1097.54 299.61 1098.35C291.56 1102.44 287.24 1106.71 279.67 1113.68C276.863 1116.26 272.857 1118.5 267.65 1120.4C261.51 1122.65 248.06 1124.65 246.26 1115.57C245.51 1111.77 249.77 1109.46 253.45 1106.43C261.157 1100.09 268.12 1092.91 274.34 1084.89C280.1 1077.48 285.41 1071.28 291.39 1063.65C293.58 1060.84 299.22 1057.47 303.52 1055.61C311.36 1052.22 319.153 1048.35 326.9 1044C335.06 1039.41 342.98 1036.67 351.75 1033.55C354.02 1032.74 356.03 1030.64 357.04 1028.16C360.82 1018.95 366.98 1008.83 371.38 998.19C382.01 972.51 390.56 947.29 397.32 921.18C400.48 909 403.49 899.13 406.57 887.8C413.42 862.58 423.11 836.45 438.5 814.93C443.23 808.31 446.32 804.1 449.28 797.79C451.933 792.123 454.567 785.933 457.18 779.22C463.993 761.687 469.873 743.053 474.82 723.32C475.427 720.907 476.383 715.553 477.69 707.26C477.863 706.16 478.467 703.893 479.5 700.46C479.39 702.95 479.43 705.65 478.97 708.02C477.777 714.267 477.04 720.167 476.76 725.72C476.527 730.42 476.23 733.94 475.87 736.28C473.69 750.4 475.82 764.52 481.65 777.61C483.237 781.177 484.8 783.867 486.34 785.68C486.457 785.817 486.609 785.92 486.779 785.979C486.949 786.038 487.132 786.05 487.309 786.016C487.486 785.981 487.65 785.901 487.786 785.782C487.921 785.663 488.023 785.511 488.08 785.34C488.407 784.367 488.637 783.17 488.77 781.75C489.497 773.663 490.113 765.833 490.62 758.26C490.84 755.03 491.82 749.69 492.17 747.24C494.823 728.853 496.49 718.337 497.17 715.69C500.21 703.84 506.73 697.09 515.94 689.44C519.007 686.893 522.143 683.637 525.35 679.67C525.478 679.513 525.649 679.397 525.842 679.335C526.035 679.273 526.241 679.268 526.437 679.321C526.633 679.374 526.809 679.482 526.944 679.633C527.079 679.783 527.168 679.97 527.2 680.17C528.313 687.47 529.843 696.713 531.79 707.9C533.18 715.87 533.75 724.03 533.35 731.5C533.163 734.933 532.27 739.76 530.67 745.98C528.21 755.54 524.5 766.68 520.21 777.48C517.103 785.293 514.353 793.59 511.96 802.37C511.897 802.598 511.886 802.837 511.928 803.069C511.97 803.302 512.065 803.522 512.204 803.714C512.343 803.906 512.523 804.065 512.732 804.178C512.941 804.292 513.173 804.357 513.41 804.37C517.4 804.57 521.03 802.68 524.1 799.55C531.28 792.2 536.78 786.36 541.41 777.56C541.542 777.303 541.722 777.078 541.94 776.9C542.333 776.567 542.667 776.223 542.94 775.87C543.057 775.718 543.223 775.605 543.412 775.55C543.6 775.495 543.799 775.502 543.975 775.568C544.152 775.635 544.295 775.758 544.381 775.916C544.468 776.075 544.492 776.26 544.45 776.44C544.343 776.9 544.52 777.433 544.98 778.04Z" fill="#2A2A28"/>
<path id="body_base_4" d="M1011.02 710.7C1013.23 717.34 1015.14 725.77 1016.58 730.81C1023.64 755.67 1029.4 776.3 1038.5 797.1C1039.64 799.7 1041.37 802.67 1043.68 806.01C1046.73 810.403 1050.58 816.287 1055.21 823.66C1062.49 835.247 1068.47 848.22 1073.15 862.58C1078.16 877.97 1082.41 891.74 1086.46 907.87C1088.54 916.19 1091.49 927.68 1095.3 942.34C1098.43 954.38 1102.65 967.5 1106.65 979.36C1112.51 996.687 1119.75 1012.94 1128.37 1028.12C1130.16 1031.28 1132.76 1033.45 1136.15 1034.63C1141.85 1036.61 1149.24 1039.52 1158.33 1043.36C1164.47 1045.95 1170.2 1048.75 1175.52 1051.75C1178.72 1053.55 1184.4 1056.45 1192.57 1060.46C1195.01 1061.66 1197.52 1064.18 1199.68 1066.75C1209.64 1078.6 1216.36 1086.61 1219.83 1090.8C1226.22 1098.48 1232.42 1103.01 1241.72 1110.03C1242.81 1110.85 1243.61 1111.77 1244.12 1112.79C1244.43 1113.4 1244.54 1114.09 1244.46 1114.8C1244.38 1115.5 1244.1 1116.19 1243.66 1116.78C1241.31 1119.92 1238.01 1121.69 1233.76 1122.08C1230.95 1122.34 1226.62 1122.48 1223.27 1121.2C1217.62 1119.03 1213.65 1116.93 1211.38 1114.9C1203.65 1108.01 1200.81 1105.38 1193.78 1100.51C1192.03 1099.3 1190.15 1098.51 1188.13 1098.14C1187.93 1098.1 1187.73 1098.14 1187.56 1098.24C1187.39 1098.34 1187.26 1098.49 1187.19 1098.68C1186.6 1100.27 1186.4 1101.96 1186.57 1103.74C1187.46 1113.05 1189.85 1122.63 1193.75 1132.48C1197.78 1142.67 1202.51 1151.69 1206.32 1161.79C1209.8 1171.02 1214.39 1182.39 1220.09 1195.9C1222.45 1201.48 1221.26 1208.59 1214.94 1210.97C1207.1 1213.93 1201.6 1205.87 1199.25 1199.73C1195.05 1188.75 1189.08 1178.89 1184.62 1168.42C1184.05 1167.08 1181.66 1162.08 1177.47 1153.43C1176.88 1152.21 1176.58 1151.15 1175.16 1150.76C1174.98 1150.71 1174.79 1150.7 1174.6 1150.74C1174.41 1150.77 1174.24 1150.85 1174.09 1150.96C1173.94 1151.07 1173.81 1151.22 1173.73 1151.39C1173.64 1151.56 1173.6 1151.74 1173.6 1151.93C1173.59 1153.92 1173.95 1155.96 1174.7 1158.05C1176.25 1162.4 1178.07 1167.22 1180.16 1172.49C1182.71 1178.91 1184.2 1183.99 1186.42 1191.09C1188.87 1198.9 1192.47 1206.33 1194.66 1214.08C1196.45 1220.41 1197.92 1232.04 1188.49 1233.06C1182.97 1233.65 1179.22 1228.95 1177.3 1224.2C1172.53 1212.39 1168.19 1201.46 1164.28 1191.41C1159.54 1179.25 1157 1171.04 1152.28 1161.19C1152.16 1160.93 1151.95 1160.72 1151.69 1160.6C1151.42 1160.47 1151.13 1160.44 1150.85 1160.51L1150.8 1160.52C1150.65 1160.56 1150.52 1160.62 1150.4 1160.71C1150.28 1160.8 1150.18 1160.91 1150.1 1161.04C1150.03 1161.17 1149.98 1161.32 1149.96 1161.47C1149.94 1161.61 1149.95 1161.77 1149.99 1161.91C1151.76 1168.32 1153.11 1175.05 1155.22 1181C1157.83 1188.39 1160.44 1195.78 1163.06 1203.19C1164.7 1207.81 1165.9 1212.02 1166.67 1215.83C1167.73 1221.1 1166.33 1226.46 1160.43 1227.45C1155.15 1228.34 1150.9 1224.3 1148.72 1219.76C1141.54 1204.83 1137.1 1190.83 1131.32 1172.95C1129.99 1168.83 1129.25 1164.63 1128.45 1160.92C1128.41 1160.72 1128.32 1160.53 1128.18 1160.38C1127.8 1159.97 1127.36 1159.75 1126.87 1159.71C1126.72 1159.7 1126.57 1159.72 1126.43 1159.77C1126.29 1159.83 1126.16 1159.91 1126.05 1160.02C1125.94 1160.13 1125.86 1160.26 1125.79 1160.41C1125.73 1160.55 1125.7 1160.71 1125.7 1160.87C1125.69 1162.89 1125.83 1164.58 1126.11 1165.94C1127.57 1172.92 1128.94 1180.21 1130.23 1187.82C1131.08 1192.84 1133.57 1199.36 1131.52 1204.22C1129.81 1208.28 1125.56 1209.73 1121.64 1207.82C1116.77 1205.43 1115.06 1199.48 1114.29 1194.57C1112.47 1182.92 1110.56 1173.79 1108.57 1167.19C1105.64 1157.46 1103.97 1151.72 1103.57 1149.98C1100.68 1137.26 1095.2 1122.08 1093.13 1111.35C1090.26 1096.44 1087.87 1084 1085.95 1074.03C1084.33 1065.56 1082.48 1058.57 1078.56 1051.24C1074.45 1043.55 1070.14 1036.43 1065.65 1029.88C1047.87 1003.98 1032.77 981.25 1020.35 961.69C1014.52 952.503 1010.4 946.027 1008.01 942.26C1006.43 939.767 998.79 927.157 985.09 904.43C974.35 886.63 965.12 868.54 960.06 848.19C958.733 842.837 956.993 833.687 954.84 820.74C954.42 818.193 953.933 815.947 953.38 814C949.22 799.473 945.677 787.477 942.75 778.01C942.257 776.403 940.997 773.61 938.97 769.63C936.61 764.977 934.35 760.253 932.19 755.46C932.103 755.08 932.103 754.807 932.19 754.64C932.221 754.579 932.268 754.528 932.326 754.492C932.385 754.456 932.452 754.437 932.52 754.437C932.588 754.437 932.655 754.456 932.714 754.492C932.772 754.528 932.819 754.579 932.85 754.64C934.523 758.067 936.75 762.353 939.53 767.5C940.863 769.973 942.67 772.09 944.95 773.85C945.186 774.027 945.372 774.265 945.49 774.54C946.23 776.333 947.163 778.037 948.29 779.65C948.489 779.936 948.654 780.245 948.78 780.57C950.427 784.61 952.7 787.997 955.6 790.73C958.95 793.89 961.17 796.32 965.93 801.32C966.53 801.953 967.567 802.647 969.04 803.4C972.15 804.98 973.56 802.27 973.18 799.71C972.51 795.36 969.91 790.41 968.99 786.4C968.89 785.98 967.9 782.713 966.02 776.6C965.033 773.407 963.92 770.18 962.68 766.92C959.607 758.82 957.357 751.723 955.93 745.63C953.89 736.903 953.447 727.65 954.6 717.87C955.687 708.69 957.37 699.14 959.65 689.22C959.663 689.167 959.67 689.11 959.67 689.05L960.21 681.11C960.225 680.907 960.294 680.712 960.408 680.545C960.522 680.378 960.678 680.245 960.86 680.16C961.8 679.713 962.877 680.073 964.09 681.24C967.357 684.407 973.95 690.803 983.87 700.43C985.417 701.93 986.747 703.917 987.86 706.39C993.23 718.31 993.9 728.92 995.08 743.63C995.16 744.657 995.797 754.947 996.99 774.5C997.177 777.567 997.527 780.057 998.04 781.97C998.293 782.89 998.857 783.453 999.73 783.66C1000.24 783.782 1000.77 783.729 1001.23 783.51C1001.69 783.291 1002.06 782.919 1002.27 782.46C1006.19 773.927 1008.86 765.38 1010.28 756.82C1010.73 754.133 1011 750.17 1011.09 744.93C1011.19 739.49 1011.11 735.503 1010.84 732.97C1009.89 724.01 1008.96 717.96 1009.69 711.33C1009.7 711.281 1009.71 711.233 1009.74 711.194C1009.77 711.154 1009.81 711.123 1009.86 711.103C1009.91 711.084 1009.96 711.077 1010 711.084C1010.05 711.09 1010.1 711.11 1010.14 711.14C1010.16 711.153 1010.19 711.243 1010.22 711.41C1010.22 711.434 1010.23 711.456 1010.25 711.473C1010.27 711.491 1010.29 711.502 1010.31 711.505C1010.34 711.508 1010.36 711.504 1010.38 711.492C1010.4 711.48 1010.42 711.462 1010.43 711.44C1010.56 711.187 1010.76 710.94 1011.02 710.7Z" fill="#2A2A28"/>
<path id="body_base_5" d="M637.63 1728.28C637.01 1729.93 636.48 1731.58 636.04 1733.21C629.44 1757.79 623.827 1783.05 619.2 1808.98C616.47 1824.32 613.89 1840.56 614.45 1856.42C614.67 1862.6 615.94 1867.59 617.43 1874.26C619.26 1882.44 619.24 1890.73 617.71 1899.31C616.89 1903.92 616.327 1907.72 616.02 1910.73C615.587 1915.05 615.943 1921.55 617.09 1930.22C618.017 1937.22 619.217 1945.33 620.69 1954.55C620.903 1955.86 621.06 1958.42 621.16 1962.23C621.37 1970.41 614.9 1971.54 608.74 1973.46C606.94 1974.02 606.01 1975.81 606.02 1977.8C606.12 1997.24 590.79 2004.22 573.76 2003.89C567.513 2003.78 563.343 2003.49 561.25 2003.02C558.197 2002.34 545.907 1999.88 524.38 1995.63C516.72 1994.12 509.693 1991.92 503.3 1989.03C494.54 1985.07 491.47 1978.33 494.09 1968.8C495.423 1963.94 498.067 1960.59 502.02 1958.75C508.807 1955.58 512.327 1953.94 512.58 1953.82C519.85 1950.22 529.11 1944.87 534.59 1938.1C540.937 1930.27 546.353 1922 550.84 1913.31C551.7 1911.64 552.173 1909.7 552.26 1907.5C552.72 1895.55 553.153 1888.3 553.56 1885.77C555.15 1875.98 557.1 1867.86 557.5 1858.34C557.88 1849.35 557.66 1840.95 556.84 1833.14C556.333 1828.35 555.273 1820.54 553.66 1809.72C551.76 1796.91 549.94 1788.01 548.09 1776.14C546.817 1768.01 544.893 1758.03 542.32 1746.18C539.727 1734.29 537.653 1722 536.1 1709.33C538.56 1713.3 541.227 1718.23 544.1 1724.14C550.27 1736.84 565.41 1740.59 576.45 1731.69C586.72 1723.41 590.72 1710.92 594.08 1698.31C594.18 1697.94 594.357 1697.64 594.61 1697.4C594.719 1697.3 594.855 1697.22 595.003 1697.19C595.15 1697.16 595.304 1697.17 595.447 1697.22C595.59 1697.27 595.716 1697.36 595.812 1697.47C595.908 1697.59 595.969 1697.73 595.99 1697.88C596.35 1700.37 597.07 1703.45 598.15 1707.11C599.98 1713.3 600.95 1717.5 603.61 1721.41C605.763 1724.58 607.083 1726.53 607.57 1727.26C611.08 1732.51 615.66 1735.27 621.49 1737.04C625.56 1738.28 629.06 1737.07 632.14 1734.26C633.127 1733.37 634.197 1732.54 635.35 1731.79C635.479 1731.7 635.59 1731.59 635.674 1731.46C635.759 1731.34 635.815 1731.19 635.84 1731.04C636.04 1729.73 636.637 1728.81 637.63 1728.28Z" fill="#2A2A28"/>
<path id="body_base_6" d="M946.48 1705.58C945.8 1709.27 944.74 1712.94 944.4 1716.48C943.927 1721.44 943.363 1725.19 942.71 1727.74C934.73 1759 929.25 1789.47 923.38 1823.83C920.91 1838.31 919.64 1852.55 921.66 1866.83C921.967 1868.98 923.043 1874.99 924.89 1884.88C926.08 1891.24 926.2 1898.92 926.45 1908.5C926.463 1909.03 926.544 1909.56 926.69 1910.07C927.577 1913.16 928.917 1916.08 930.71 1918.84C934.423 1924.57 937.43 1929.13 939.73 1932.54C943.41 1937.99 946.613 1941.83 949.34 1944.06C957.51 1950.74 965.37 1954.35 976.28 1959.22C980.92 1961.29 983.99 1965.46 985.17 1970.55C986.757 1977.39 985.007 1982.88 979.92 1987.03C978.12 1988.5 974.967 1990 970.46 1991.52C966.98 1992.69 963.637 1993.82 960.43 1994.89C955.843 1996.44 949.607 1997.86 941.72 1999.16C934.373 2000.37 930.143 2001.11 929.03 2001.37C923.27 2002.69 919.047 2003.45 916.36 2003.66C901.65 2004.81 878.75 2004.77 874.15 1987.1C873.297 1983.85 872.773 1980.64 872.58 1977.49C872.42 1974.82 870.99 1973.79 868.25 1973.1C857.39 1970.36 856.75 1960.22 858.06 1951C858.593 1947.23 859.753 1940.33 861.54 1930.28C862.96 1922.25 863.13 1913.27 862.41 1903.22C861.63 1892.24 861.42 1879.98 863 1868.73C864.96 1854.86 864.72 1840.32 863.23 1827.25C860.623 1804.32 856.25 1779.92 850.11 1754.07C848.74 1748.27 846.76 1743.14 845.21 1737.46C845.117 1737.1 845.053 1736.74 845.02 1736.37C844.813 1734 844.277 1731.58 843.41 1729.11C844.183 1729.46 844.847 1730.25 845.4 1731.48C845.447 1731.58 845.518 1731.67 845.609 1731.74C845.699 1731.81 845.806 1731.86 845.92 1731.88C845.98 1731.89 846.053 1731.9 846.14 1731.91C846.271 1731.92 846.396 1731.96 846.5 1732.04C848.6 1733.61 851.53 1736.33 854.32 1736.86C861.33 1738.2 869.03 1733.33 873.4 1728.15C880.26 1720 884.183 1710.28 885.17 1698.97C885.223 1698.34 885.453 1697.9 885.86 1697.63C885.983 1697.55 886.125 1697.5 886.272 1697.48C886.419 1697.47 886.568 1697.49 886.704 1697.55C886.84 1697.6 886.959 1697.69 887.051 1697.81C887.143 1697.92 887.205 1698.06 887.23 1698.2C888.303 1703.97 889.643 1709.07 891.25 1713.5C891.69 1714.72 893.05 1717.33 895.33 1721.34C900.02 1729.56 908.1 1735.38 917.3 1736.54C929.28 1738.05 938.1 1726.19 941 1716.01C941.047 1715.85 941.347 1715.46 941.9 1714.85C942.248 1714.48 942.495 1714.02 942.62 1713.51C942.927 1712.22 943.533 1710.93 944.44 1709.66C944.787 1709.18 945.093 1708.49 945.36 1707.6C945.6 1706.78 945.973 1706.11 946.48 1705.58Z" fill="#2A2A28"/>
</g>
<path id="calf_l" d="M659.51 1532.71C657.443 1543.24 656.277 1553.17 656.01 1562.5C655.68 1573.66 656.15 1584.66 656.93 1599.15C657.61 1611.93 657.86 1625.11 657.68 1638.69C657.39 1660.25 654.55 1679.63 647.96 1699.44C644.72 1709.17 641.277 1718.79 637.63 1728.28C636.637 1728.81 636.04 1729.73 635.84 1731.04C635.815 1731.19 635.759 1731.34 635.674 1731.46C635.59 1731.59 635.479 1731.7 635.35 1731.79C634.197 1732.54 633.127 1733.37 632.14 1734.26C629.06 1737.07 625.56 1738.28 621.49 1737.04C615.66 1735.27 611.08 1732.51 607.57 1727.26C607.083 1726.53 605.763 1724.58 603.61 1721.41C600.95 1717.5 599.98 1713.3 598.15 1707.11C597.07 1703.45 596.35 1700.37 595.99 1697.88C595.969 1697.73 595.908 1697.59 595.812 1697.47C595.716 1697.36 595.59 1697.27 595.447 1697.22C595.304 1697.17 595.15 1697.16 595.003 1697.19C594.855 1697.22 594.719 1697.3 594.61 1697.4C594.357 1697.64 594.18 1697.94 594.08 1698.31C590.72 1710.92 586.72 1723.41 576.45 1731.69C565.41 1740.59 550.27 1736.84 544.1 1724.14C541.227 1718.23 538.56 1713.3 536.1 1709.33C534.22 1700.79 532.877 1692.84 532.07 1685.49C531.55 1680.76 530.933 1673.55 530.22 1663.85C528.17 1636.02 530.61 1608.09 536.87 1580.54C540.117 1566.24 543.137 1554.71 545.93 1545.94C548.77 1537.04 551.527 1528.12 554.2 1519.19C557.91 1513.73 559.32 1506.22 561.28 1499.77C562.333 1496.3 564.693 1488.46 568.36 1476.24C569.5 1472.43 570.563 1469.11 571.55 1466.29C574.72 1457.22 577.82 1447.11 580.17 1440.89C588.083 1419.92 593.16 1406.67 595.4 1401.13C595.667 1400.47 595.94 1399.96 596.22 1399.59C596.344 1399.43 596.505 1399.3 596.689 1399.21C596.873 1399.13 597.075 1399.08 597.278 1399.09C597.481 1399.1 597.68 1399.15 597.858 1399.25C598.036 1399.35 598.187 1399.49 598.3 1399.66C599.373 1401.28 600.46 1403.28 601.56 1405.66C605.94 1415.13 610.953 1423.86 616.6 1431.86C618.4 1434.41 621.85 1437.1 625.04 1436.1C627.087 1435.46 628.953 1434.47 630.64 1433.14C635.353 1429.43 639.043 1426.45 641.71 1424.2C642.577 1423.47 643.403 1422.93 644.19 1422.6C644.572 1422.44 645.002 1422.43 645.389 1422.59C645.776 1422.74 646.088 1423.04 646.26 1423.42C646.907 1424.87 647.367 1426.4 647.64 1428.02C651.833 1452.9 655.04 1479.9 657.26 1509.01C657.82 1516.36 657.46 1521.6 657.75 1527.76C657.85 1529.89 658.06 1531.01 658.38 1531.14C659.127 1531.43 659.503 1531.95 659.51 1532.71Z" fill="#2A2A28"/>
<path id="calf_r" d="M926.3 1510.42C926.8 1511.81 927.2 1513.21 927.5 1514.61C927.8 1515.98 928.147 1517.4 928.54 1518.85C930.833 1527.28 933.377 1536.09 936.17 1545.29C943.35 1568.94 948.38 1594.04 950.91 1618.52C952.05 1629.57 952.293 1644.53 951.64 1663.39C951.36 1671.45 950.15 1679.18 949.24 1688.75C948.947 1691.81 948.027 1697.42 946.48 1705.58C945.973 1706.11 945.6 1706.78 945.36 1707.6C945.093 1708.49 944.787 1709.18 944.44 1709.66C943.533 1710.93 942.927 1712.22 942.62 1713.51C942.495 1714.02 942.248 1714.48 941.9 1714.85C941.347 1715.46 941.047 1715.85 941 1716.01C938.1 1726.19 929.28 1738.05 917.3 1736.54C908.1 1735.38 900.02 1729.56 895.33 1721.34C893.05 1717.33 891.69 1714.72 891.25 1713.5C889.643 1709.07 888.303 1703.97 887.23 1698.2C887.205 1698.06 887.143 1697.92 887.051 1697.81C886.959 1697.69 886.84 1697.6 886.704 1697.55C886.568 1697.49 886.419 1697.47 886.272 1697.48C886.125 1697.5 885.983 1697.55 885.86 1697.63C885.453 1697.9 885.223 1698.34 885.17 1698.97C884.183 1710.28 880.26 1720 873.4 1728.15C869.03 1733.33 861.33 1738.2 854.32 1736.86C851.53 1736.33 848.6 1733.61 846.5 1732.04C846.396 1731.96 846.271 1731.92 846.14 1731.91C846.053 1731.9 845.98 1731.89 845.92 1731.88C845.806 1731.86 845.699 1731.81 845.609 1731.74C845.518 1731.67 845.447 1731.58 845.4 1731.48C844.847 1730.25 844.183 1729.46 843.41 1729.11C840.59 1721.84 837.813 1714.46 835.08 1706.97C832.83 1700.77 830.44 1692.44 829.18 1688.14C822.62 1665.65 821.47 1640.61 821.98 1617C822.647 1586.23 822.847 1563.07 822.58 1547.5C822.513 1543.6 822.057 1538.59 821.21 1532.48C822.71 1531.03 823.44 1529.37 823.4 1527.5C823.147 1515.6 823.46 1505.56 824.34 1497.38C826.37 1478.46 827.71 1463.54 830.18 1448.12C831.84 1437.76 832.22 1430.93 835.74 1423.49C835.844 1423.27 835.996 1423.08 836.185 1422.92C836.374 1422.77 836.595 1422.66 836.832 1422.61C837.069 1422.55 837.315 1422.55 837.552 1422.61C837.788 1422.66 838.01 1422.77 838.2 1422.92C843.527 1427.19 847.697 1430.39 850.71 1432.53C853.223 1434.31 855.65 1435.4 857.99 1435.79C861.58 1436.4 865.13 1432.1 866.97 1428.95C871.403 1421.35 877.007 1411.35 883.78 1398.96C883.878 1398.78 884.024 1398.63 884.202 1398.53C884.38 1398.43 884.583 1398.38 884.788 1398.38C884.994 1398.39 885.193 1398.45 885.365 1398.56C885.536 1398.68 885.673 1398.83 885.76 1399.02C890.62 1409.37 894.07 1420.37 898.11 1431.11C901.45 1440 904.66 1450.21 907.13 1458.42C908.29 1462.27 909.543 1466.05 910.89 1469.74C915.737 1483 919.563 1494.38 922.37 1503.88C922.557 1504.5 923.363 1505.55 924.79 1507.03C924.975 1507.22 925.121 1507.45 925.22 1507.7L926.3 1510.42Z" fill="#2A2A28"/>
<path id="tricep_l" d="M577.06 688.92C577.013 694.227 576.063 701.09 574.21 709.51C572.617 716.757 570.477 723.687 567.79 730.3C564.61 738.14 560.63 747.36 556.13 755.86C553.05 761.67 547.91 769.85 544.98 778.04C544.52 777.433 544.343 776.9 544.45 776.44C544.492 776.26 544.468 776.075 544.381 775.916C544.295 775.758 544.152 775.635 543.975 775.568C543.799 775.502 543.6 775.495 543.412 775.55C543.223 775.605 543.057 775.718 542.94 775.87C542.667 776.223 542.333 776.567 541.94 776.9C541.722 777.078 541.542 777.303 541.41 777.56C536.78 786.36 531.28 792.2 524.1 799.55C521.03 802.68 517.4 804.57 513.41 804.37C513.173 804.357 512.941 804.292 512.732 804.178C512.523 804.065 512.343 803.906 512.204 803.714C512.065 803.522 511.97 803.302 511.928 803.069C511.886 802.837 511.897 802.598 511.96 802.37C514.353 793.59 517.103 785.293 520.21 777.48C524.5 766.68 528.21 755.54 530.67 745.98C532.27 739.76 533.163 734.933 533.35 731.5C533.75 724.03 533.18 715.87 531.79 707.9C529.843 696.713 528.313 687.47 527.2 680.17C527.168 679.97 527.079 679.783 526.944 679.633C526.809 679.482 526.632 679.374 526.437 679.321C526.241 679.268 526.035 679.273 525.842 679.335C525.649 679.397 525.478 679.513 525.35 679.67C522.143 683.637 519.007 686.893 515.94 689.44C506.73 697.09 500.21 703.84 497.17 715.69C496.49 718.337 494.823 728.853 492.17 747.24C491.82 749.69 490.84 755.03 490.62 758.26C490.113 765.833 489.497 773.663 488.77 781.75C488.637 783.17 488.407 784.367 488.08 785.34C488.023 785.511 487.921 785.663 487.786 785.782C487.65 785.901 487.486 785.981 487.309 786.016C487.132 786.05 486.949 786.037 486.779 785.978C486.609 785.919 486.457 785.816 486.34 785.68C484.8 783.867 483.237 781.177 481.65 777.61C475.82 764.52 473.69 750.4 475.87 736.28C476.23 733.94 476.527 730.42 476.76 725.72C477.04 720.167 477.777 714.267 478.97 708.02C479.43 705.65 479.39 702.95 479.5 700.46L483.97 674.32L489.29 665.06C489.416 664.834 489.514 664.589 489.58 664.33C493.37 648.4 501.83 633.36 514.39 623.37C518.617 620.01 523.957 616.527 530.41 612.92C540.77 607.127 551.81 602.163 563.53 598.03C563.95 597.883 565.063 597.627 566.87 597.26C567.182 597.195 567.51 597.226 567.81 597.35C569.097 597.87 569.953 598.82 570.38 600.2C572.167 606.02 573.167 612.25 573.38 618.89C573.73 629.64 574.84 641.32 575.43 650.76C575.73 655.66 577.02 661.57 577.13 667.45C577.257 674.543 577.233 681.7 577.06 688.92Z" fill="#2A2A28"/>
<path id="tricep_r" d="M1000.36 656.24C1001.15 661.38 1003 666.95 1003.67 671.28C1004.14 674.327 1004.65 676.813 1005.19 678.74C1006.44 683.227 1007.45 689.06 1008.22 696.24C1008.65 700.233 1009.59 705.053 1011.02 710.7C1010.76 710.94 1010.56 711.187 1010.43 711.44C1010.42 711.462 1010.4 711.48 1010.38 711.492C1010.36 711.504 1010.34 711.508 1010.31 711.505C1010.29 711.502 1010.27 711.491 1010.25 711.473C1010.23 711.456 1010.22 711.434 1010.22 711.41C1010.19 711.243 1010.16 711.153 1010.14 711.14C1010.1 711.11 1010.05 711.09 1010 711.084C1009.96 711.077 1009.91 711.084 1009.86 711.103C1009.81 711.123 1009.77 711.154 1009.74 711.194C1009.71 711.233 1009.7 711.281 1009.69 711.33C1008.96 717.96 1009.89 724.01 1010.84 732.97C1011.11 735.503 1011.19 739.49 1011.09 744.93C1011 750.17 1010.73 754.133 1010.28 756.82C1008.86 765.38 1006.19 773.927 1002.27 782.46C1002.06 782.919 1001.69 783.291 1001.23 783.51C1000.77 783.729 1000.24 783.782 999.73 783.66C998.857 783.453 998.293 782.89 998.04 781.97C997.527 780.057 997.177 777.567 996.99 774.5C995.797 754.947 995.16 744.657 995.08 743.63C993.9 728.92 993.23 718.31 987.86 706.39C986.747 703.917 985.417 701.93 983.87 700.43C973.95 690.803 967.357 684.407 964.09 681.24C962.877 680.073 961.8 679.713 960.86 680.16C960.678 680.245 960.522 680.378 960.408 680.545C960.294 680.712 960.225 680.907 960.21 681.11L959.67 689.05C959.67 689.11 959.663 689.167 959.65 689.22C957.37 699.14 955.687 708.69 954.6 717.87C953.447 727.65 953.89 736.903 955.93 745.63C957.357 751.723 959.607 758.82 962.68 766.92C963.92 770.18 965.033 773.407 966.02 776.6C967.9 782.713 968.89 785.98 968.99 786.4C969.91 790.41 972.51 795.36 973.18 799.71C973.56 802.27 972.15 804.98 969.04 803.4C967.567 802.647 966.53 801.953 965.93 801.32C961.17 796.32 958.95 793.89 955.6 790.73C952.7 787.997 950.427 784.61 948.78 780.57C948.654 780.245 948.489 779.936 948.29 779.65C947.163 778.037 946.23 776.333 945.49 774.54C945.372 774.265 945.186 774.027 944.95 773.85C942.67 772.09 940.863 769.973 939.53 767.5C936.75 762.353 934.523 758.067 932.85 754.64C932.819 754.579 932.772 754.528 932.714 754.492C932.655 754.456 932.588 754.437 932.52 754.437C932.452 754.437 932.385 754.456 932.326 754.492C932.268 754.528 932.221 754.579 932.19 754.64C932.103 754.807 932.103 755.08 932.19 755.46C928.897 747.873 925.76 740.22 922.78 732.5C921.393 728.913 920.013 724.633 918.64 719.66C917.433 715.293 916.153 710.967 914.8 706.68L915.17 701.04C915.176 700.896 915.138 700.753 915.06 700.63C914.82 700.25 914.693 699.957 914.68 699.75C914.44 696.357 914.103 693.277 913.67 690.51C913.217 687.643 912.96 684.553 912.9 681.24C912.733 672.3 913.097 664.203 913.99 656.95C914.643 651.623 915.287 646.357 915.92 641.15C916.493 636.483 916.907 631.203 917.16 625.31C917.54 616.383 918.49 608.273 920.01 600.98C921.1 595.76 923.66 596.28 927.87 598.14C940.543 603.72 948.043 607.057 950.37 608.15C960.097 612.717 969.127 618.62 977.46 625.86C978.159 626.473 978.814 627.134 979.42 627.84C985.06 634.453 989.813 641.46 993.68 648.86C995.19 651.75 996.15 655.33 997.39 658.5C997.44 658.626 997.526 658.734 997.638 658.81C997.749 658.887 997.881 658.928 998.017 658.929C998.152 658.93 998.284 658.891 998.397 658.816C998.51 658.742 998.598 658.635 998.65 658.51C999.07 657.497 999.64 656.74 1000.36 656.24Z" fill="#2A2A28"/>
<path id="lat_r" d="M905.63 692.33C904.623 698.857 903.773 703.35 903.08 705.81C897.23 726.58 891.12 745.47 882.23 764.51C881.243 766.623 880.06 770.103 878.68 774.95C876.9 774.777 875.38 775.347 874.12 776.66C873.915 776.871 873.756 777.119 873.65 777.39C871.12 783.84 869.46 790.04 866.46 796.38C862.353 805.067 859.083 811.867 856.65 816.78C852.59 824.99 845.44 835.09 841.37 844.11C833.62 861.34 827.76 879.96 826.56 898.75C826.533 899.203 826.41 899.61 826.19 899.97C826.091 900.135 825.956 900.274 825.794 900.378C825.632 900.481 825.448 900.546 825.257 900.566C825.066 900.587 824.873 900.562 824.693 900.495C824.513 900.428 824.351 900.32 824.22 900.18C815.553 890.853 808.64 880.557 803.48 869.29C802.033 866.137 799.907 860.343 797.1 851.91C793.5 841.083 791.04 830.147 789.72 819.1C789.147 814.28 788.517 811.297 787.83 810.15C785.85 806.82 783.37 804.71 780.54 802.2C770.593 793.413 765.137 788.62 764.17 787.82C762.56 786.49 759.18 783.74 759.07 780.99C758.39 763.883 758.23 747.08 758.59 730.58C758.63 728.84 759.387 726.843 760.86 724.59C766.45 716.01 772.81 708.43 779.67 699.91C782.53 696.37 787.38 689.717 794.22 679.95C795.227 678.51 795.89 677.3 796.21 676.32C796.27 676.134 796.354 675.962 796.46 675.81C804.233 664.757 810.61 653.753 815.59 642.8C816.17 641.527 817.203 641.123 818.69 641.59C819.91 641.977 825.45 643.933 835.31 647.46C846.78 651.56 858.9 652.39 871.25 651.92C880.137 651.573 888.223 649.42 895.51 645.46C899.25 643.427 902.503 641.59 905.27 639.95C905.541 639.79 905.846 639.694 906.16 639.671C906.474 639.648 906.789 639.698 907.081 639.817C907.372 639.936 907.632 640.121 907.84 640.358C908.048 640.594 908.199 640.876 908.28 641.18C908.607 642.407 908.643 643.93 908.39 645.75C907.33 653.33 906.787 657.247 906.76 657.5C904.987 673.78 903.597 685.403 902.59 692.37C902.573 692.486 902.584 692.604 902.62 692.715C902.656 692.825 902.718 692.926 902.799 693.009C902.881 693.091 902.981 693.153 903.09 693.19C903.199 693.227 903.316 693.237 903.43 693.22L903.58 693.2C903.874 693.16 904.144 693.019 904.343 692.802C904.543 692.584 904.658 692.304 904.67 692.01C904.703 691.15 904.94 690.79 905.38 690.93C905.439 690.951 905.489 690.988 905.525 691.036C905.561 691.084 905.58 691.142 905.58 691.2L905.63 692.33Z" fill="#2A2A28"/>
<path id="trap_l" d="M702.08 674.55C702.22 674.657 702.3 674.717 702.32 674.73C702.355 674.749 702.397 674.756 702.437 674.748C702.477 674.741 702.514 674.72 702.539 674.69C702.565 674.659 702.578 674.621 702.576 674.583C702.575 674.544 702.558 674.508 702.53 674.48C701.87 673.767 701.453 673.063 701.28 672.37C701.201 672.034 701.055 671.717 700.85 671.44C697.003 666.087 694.08 661.67 692.08 658.19C691.8 657.71 691.36 657.56 691.13 657.16C687.583 650.84 684.783 645.337 682.73 640.65C682.61 640.378 682.456 640.122 682.27 639.89C681.477 638.903 680.257 636.833 678.61 633.68C669.67 616.573 664.79 597.607 663.97 576.78C663.757 571.253 662.127 565.06 659.08 558.2C655.773 550.74 651.67 545.14 646.77 541.4C642.81 538.38 636.44 534.74 630.81 531.99C623.91 528.63 617.113 525.167 610.42 521.6C607.76 520.18 605.027 518.51 602.22 516.59C600.42 515.36 599.25 514.31 599.06 512.03C598.76 508.337 599.717 505.22 601.93 502.68C606.33 497.62 611.34 494.24 616.15 489.87C621.51 485 627.57 480.06 634.11 476.52C639.1 473.83 641.72 472.11 645.98 471.31C646.157 471.275 646.327 471.205 646.478 471.104C646.629 471.002 646.759 470.872 646.86 470.72L647.02 470.49C647.144 470.301 647.325 470.154 647.54 470.07C649.627 469.237 651.713 467.933 653.8 466.16C654.333 465.707 655.67 465.127 657.81 464.42C658.122 464.314 658.418 464.169 658.69 463.99C665.937 459.263 670.207 456.52 671.5 455.76C678.827 451.46 683.52 448.49 685.58 446.85C696.713 437.97 704.203 426.697 708.05 413.03C710.87 402.997 712.537 396.353 713.05 393.1C713.763 388.513 714.32 385.727 714.72 384.74C717.79 377.15 727.67 374.13 734.34 378.64C739.073 381.833 741.287 386.457 740.98 392.51C740.13 409.03 741.83 424.2 741.59 442C741.237 468.66 741.24 499.287 741.6 533.88C741.78 551.94 741.26 569.76 741.34 587.62C741.38 594.88 741.293 602.05 741.08 609.13C740.23 637.32 739.84 648.43 739.96 669.03C740.02 679.21 739.32 691.38 739.54 702.38C739.627 707 739.293 711.167 738.54 714.88C738.49 715.125 738.384 715.356 738.23 715.554C738.077 715.752 737.88 715.911 737.654 716.021C737.429 716.13 737.181 716.186 736.931 716.184C736.68 716.182 736.434 716.123 736.21 716.01C733.44 714.61 731.1 711.67 728.88 709.11C725.93 705.72 723.5 700.59 720.71 697.55C718.037 694.63 716.523 692.843 716.17 692.19C716.012 691.902 715.782 691.657 715.5 691.48C714.767 691.007 714.313 690.623 714.14 690.33C711.467 685.91 708.88 681.97 706.38 678.51C706.365 678.489 706.346 678.472 706.325 678.459C706.303 678.445 706.279 678.436 706.253 678.433C706.228 678.429 706.203 678.43 706.178 678.437C706.153 678.443 706.13 678.454 706.11 678.47H706.1C706.079 678.485 706.062 678.504 706.049 678.527C706.036 678.549 706.028 678.574 706.026 678.6C706.023 678.627 706.025 678.653 706.033 678.679C706.041 678.705 706.053 678.729 706.07 678.75C706.857 679.67 707.277 680.223 707.33 680.41C707.342 680.452 707.34 680.497 707.324 680.538C707.308 680.579 707.279 680.613 707.241 680.636C707.204 680.659 707.16 680.668 707.116 680.664C707.073 680.659 707.032 680.64 707 680.61C704.64 678.523 702.933 676.56 701.88 674.72C701.857 674.693 701.846 674.659 701.849 674.624C701.852 674.59 701.868 674.557 701.895 674.535C701.922 674.512 701.956 674.501 701.991 674.504C702.025 674.507 702.057 674.523 702.08 674.55Z" fill="#2A2A28"/>
<path id="glute_l" d="M739.66 979.4C740.03 983.06 740.62 984.45 740.58 988.21C740.427 1002.48 740.337 1022.16 740.31 1047.25C740.3 1054.54 739.97 1062.81 737.74 1070.28C734.95 1079.63 731.9 1088.64 726.45 1096.26C720.423 1104.7 714.467 1111.3 708.58 1116.06C701.76 1121.59 693.857 1126.19 684.87 1129.87C675.117 1133.86 666.37 1136.64 658.63 1138.21C646.49 1140.66 631.83 1141.25 619.89 1142.64C604.81 1144.4 591.44 1153.91 582.19 1165.58C582.103 1165.69 581.984 1165.77 581.85 1165.82C581.715 1165.86 581.57 1165.87 581.434 1165.83C581.297 1165.79 581.175 1165.72 581.081 1165.61C580.988 1165.5 580.929 1165.37 580.91 1165.23C580.283 1160.45 579.417 1155.12 578.31 1149.24C576.203 1138.06 573.643 1126.54 570.63 1114.68C570.323 1113.47 569.543 1111.1 568.29 1107.56C568.191 1107.29 568.16 1107 568.2 1106.72C568.313 1105.77 567.883 1103.02 566.91 1098.46C563.283 1081.42 561.99 1063.18 563.03 1043.75C563.377 1037.16 564.07 1031.58 565.11 1027.02C566.757 1019.79 569.28 1011.74 572.68 1002.89C576.44 993.103 579.857 983.833 582.93 975.08C584.803 969.727 586.687 964.947 588.58 960.74C590.693 956.027 594.44 949.717 599.82 941.81C603.967 935.703 609.497 930.24 616.41 925.42C627.263 917.853 639.303 913.233 652.53 911.56C660.09 910.6 667.66 911.06 675.24 912.94C688.68 916.26 700.933 922.777 712 932.49C722.34 941.57 729.96 951.713 734.86 962.92C736.14 965.85 737.01 969.17 738.14 972.95C739.007 975.863 739.513 978.013 739.66 979.4Z" fill="#2A2A28"/>
<path id="lat_l" d="M595.97 722.51C595.077 721.703 594.493 720.56 594.22 719.08C593.11 713.21 590.45 703.14 588.86 693.38C588.553 691.46 586.833 676.44 583.7 648.32C583.4 645.627 583.333 642.993 583.5 640.42C583.508 640.298 583.544 640.179 583.604 640.072C583.665 639.966 583.749 639.874 583.85 639.805C583.951 639.736 584.067 639.69 584.188 639.672C584.309 639.654 584.433 639.663 584.55 639.7L586.74 640.38C587.238 640.533 587.718 640.741 588.17 641C592.85 643.687 595.81 645.313 597.05 645.88C605.523 649.773 614.59 651.933 624.25 652.36C634.19 652.8 643.58 651.723 652.42 649.13C661.18 646.56 667.49 644.79 674.21 641.12C674.409 641.012 674.629 640.944 674.854 640.922C675.08 640.9 675.308 640.924 675.525 640.992C675.742 641.061 675.942 641.172 676.115 641.319C676.287 641.466 676.429 641.647 676.53 641.85C678.003 644.83 679.347 647.24 680.56 649.08C684.05 654.36 685.6 657.62 689.14 662.89C689.233 663.017 689.407 663.48 689.66 664.28C689.7 664.393 689.75 664.5 689.81 664.6L706.19 690.05C706.223 690.097 706.257 690.14 706.29 690.18C712.38 696.93 717.54 705.47 723.24 712.26C725.587 715.053 728.537 719.267 732.09 724.9C733.9 727.75 734.36 730.2 734.33 733.84C734.203 749.627 734.167 765.007 734.22 779.98C734.227 780.787 733.837 781.927 733.05 783.4C732.904 783.678 732.712 783.928 732.48 784.14C724.02 791.95 716.45 797.58 708.86 804.36C704.93 807.87 703.43 811.65 702.57 817.37C701.243 826.217 699.117 835.54 696.19 845.34C692.543 857.527 689.047 866.977 685.7 873.69C681.687 881.717 675.923 889.963 668.41 898.43C667.963 898.937 667.253 899.407 666.28 899.84C666.137 899.903 665.98 899.929 665.824 899.915C665.668 899.902 665.518 899.849 665.389 899.762C665.26 899.674 665.155 899.556 665.085 899.418C665.016 899.279 664.983 899.125 664.99 898.97C665.157 894.637 664.753 890.387 663.78 886.22C660.94 874 657.47 859.92 651.76 847.55C650.713 845.29 648.653 841.527 645.58 836.26C636.2 820.21 626.1 802.48 619.7 784.73C617.34 778.183 615.803 774.207 615.09 772.8C612.71 768.1 611 763.2 608.15 757.18C602.61 745.46 598.58 736.11 596.47 723.41C596.411 723.061 596.235 722.743 595.97 722.51Z" fill="#2A2A28"/>
<path id="trap_r" d="M814.87 451.22L814.75 451.43C814.742 451.443 814.74 451.459 814.744 451.474C814.748 451.489 814.757 451.502 814.77 451.51L817.49 452.8C817.529 452.819 817.559 452.853 817.574 452.894C817.589 452.935 817.587 452.98 817.57 453.02C817.558 453.045 817.542 453.067 817.521 453.086C817.5 453.104 817.476 453.118 817.45 453.126C817.423 453.135 817.396 453.138 817.368 453.135C817.341 453.132 817.314 453.124 817.29 453.11L815.22 451.86C815.201 451.848 815.179 451.842 815.156 451.842C815.134 451.842 815.111 451.848 815.09 451.86L814.83 452.01C814.81 452.047 814.798 452.088 814.795 452.13C814.792 452.172 814.797 452.214 814.811 452.253C814.826 452.293 814.848 452.329 814.877 452.36C814.906 452.39 814.941 452.414 814.98 452.43C819.627 454.317 823.263 456.243 825.89 458.21C831.84 462.66 835.24 465.4 841.57 468.01C845.703 469.717 850.387 471.883 855.62 474.51C855.527 474.55 855.263 474.427 854.83 474.14C854.789 474.115 854.741 474.104 854.693 474.108C854.645 474.113 854.6 474.134 854.564 474.167C854.529 474.2 854.506 474.243 854.498 474.291C854.49 474.338 854.497 474.387 854.52 474.43C855.26 475.76 856.77 475.38 857.68 475.91C858.893 476.617 860.04 477.203 861.12 477.67C861.485 477.823 861.831 478.021 862.15 478.26C867.15 481.98 870.763 484.597 872.99 486.11C880.25 491.06 886.88 497.36 892.07 503.93C900.01 513.97 888.47 516.97 883.32 521.02C882.153 521.933 879.68 523.297 875.9 525.11C869.367 528.23 863.233 531.48 857.5 534.86C849.92 539.327 844.447 543.537 841.08 547.49C834.24 555.523 830.56 564.873 830.04 575.54C829.533 585.96 828.127 596.163 825.82 606.15C824.71 610.98 822.83 615.44 821.22 620.17C820.62 621.923 819.847 623.73 818.9 625.59C817.193 628.957 815.667 632.07 814.32 634.93C814.181 635.234 813.992 635.515 813.76 635.76C812.633 636.953 811.813 638.407 811.3 640.12C811.227 640.385 811.112 640.635 810.96 640.86L803.98 651.4C803.976 651.408 803.969 651.414 803.961 651.417C803.952 651.42 803.943 651.419 803.935 651.415C803.927 651.411 803.921 651.404 803.918 651.396C803.915 651.387 803.916 651.378 803.92 651.37L804.18 650.8C804.183 650.792 804.182 650.783 804.178 650.776C804.175 650.768 804.168 650.763 804.16 650.76C804.152 650.757 804.143 650.758 804.136 650.762C804.128 650.765 804.123 650.772 804.12 650.78L800.95 657.01C800.84 657.223 800.808 657.471 800.86 657.71C800.933 658.077 800.917 658.393 800.81 658.66C800.794 658.699 800.769 658.733 800.738 658.761C800.706 658.789 800.669 658.809 800.629 658.821C800.588 658.832 800.546 658.835 800.505 658.827C800.463 658.82 800.424 658.804 800.39 658.78L800.01 658.5C800.007 658.496 800.002 658.493 799.997 658.492C799.992 658.49 799.987 658.49 799.982 658.491C799.977 658.492 799.973 658.494 799.969 658.498C799.965 658.501 799.962 658.505 799.96 658.51C799.56 659.897 799.157 660.687 798.75 660.88C798.48 660.996 798.263 661.206 798.14 661.47L794.3 669.69C794.24 669.816 794.159 669.931 794.06 670.03C793.82 670.243 793.633 670.483 793.5 670.75C793.469 670.808 793.421 670.856 793.362 670.887C793.304 670.918 793.237 670.93 793.171 670.923C793.105 670.915 793.043 670.888 792.993 670.845C792.943 670.801 792.907 670.744 792.89 670.68C792.87 670.573 792.877 670.48 792.91 670.4C792.912 670.394 792.912 670.387 792.909 670.38C792.907 670.374 792.903 670.369 792.897 670.365C792.891 670.362 792.884 670.36 792.878 670.361C792.871 670.362 792.865 670.365 792.86 670.37L777.07 691.97C777.017 692.036 776.973 692.107 776.94 692.18C776.533 693.1 776.157 693.813 775.81 694.32C774.643 696.033 770.747 701.13 764.12 709.61C761.867 712.503 759.503 714.797 757.03 716.49C756.629 716.769 756.134 716.881 755.651 716.801C755.167 716.72 754.733 716.455 754.44 716.06C753.09 714.25 753.62 707.51 753.75 701.82C753.85 697.307 753.857 693.42 753.77 690.16C753.297 672.407 753.083 652.687 753.13 631C753.29 553.39 753.17 497.54 753.28 435.75C753.293 427.983 753.26 415.4 753.18 398C753.15 390.35 752.77 382.64 760.05 378.12C766.87 373.89 774.27 377.21 778.36 383.63C779.373 385.21 780.077 387.827 780.47 391.48C781.26 398.75 784.03 407.16 785.95 413.23C788.177 420.243 790.98 426.46 794.36 431.88C797.353 436.673 801.387 441.223 806.46 445.53C806.704 445.741 806.895 446 807.02 446.29C807.247 446.83 807.55 447.23 807.93 447.49C809.657 448.703 810.997 449.96 811.95 451.26C812.041 451.388 812.169 451.486 812.316 451.543C812.463 451.599 812.625 451.612 812.78 451.58L814.83 451.16C814.837 451.159 814.845 451.16 814.852 451.163C814.859 451.166 814.865 451.171 814.869 451.177C814.873 451.184 814.875 451.191 814.876 451.199C814.876 451.206 814.874 451.213 814.87 451.22Z" fill="#2A2A28"/>
<path id="glute_r" d="M904.89 1164.48C904.871 1164.63 904.811 1164.77 904.717 1164.88C904.622 1165 904.497 1165.08 904.356 1165.13C904.215 1165.18 904.064 1165.18 903.92 1165.15C903.775 1165.11 903.644 1165.04 903.54 1164.93C902.473 1163.82 900.487 1161.65 897.58 1158.4C889.087 1148.91 878.473 1143.6 865.74 1142.47C850.26 1141.09 842.25 1140.37 841.71 1140.31C837.49 1139.85 834 1139.24 831.24 1138.48C826.76 1137.25 822.3 1136.69 817.47 1135.15C807.397 1131.92 798.22 1127.75 789.94 1122.62C783.867 1118.85 779 1115.15 775.34 1111.51C770.98 1107.17 767.043 1102.45 763.53 1097.35C757.99 1089.31 754.54 1079.22 752.63 1070.67C751.823 1067.07 751.463 1062.27 751.55 1056.28C751.65 1049.09 751.657 1041.92 751.57 1034.76C751.33 1013.35 751.523 996.53 752.15 984.31C752.643 974.743 755.433 965.47 760.52 956.49C766.033 946.77 772.367 938.69 779.52 932.25C784.953 927.357 791.353 922.973 798.72 919.1C802.28 917.233 805.71 915.893 809.01 915.08C813.03 914.09 818.13 912.28 823.41 911.73C833.98 910.64 846.14 911.65 855.96 916.03C866.473 920.723 875.08 926.43 881.78 933.15C885.867 937.243 889.703 942.217 893.29 948.07C895.85 952.237 898.443 957.917 901.07 965.11C905.73 977.837 909.293 987.863 911.76 995.19C913.293 999.737 914.993 1004.39 916.86 1009.14C925.03 1030 924.65 1054.59 922.81 1076.65C921.94 1087.07 919.09 1096.84 917.24 1107.36C916.687 1110.52 915.737 1114.57 914.39 1119.51C911.683 1129.39 909.883 1136.8 908.99 1141.73C906.27 1156.78 904.903 1164.36 904.89 1164.48Z" fill="#2A2A28"/>
</g>
</svg>
