<svg width="1491" height="2109" viewBox="0 0 1491 2109" fill="none" xmlns="http://www.w3.org/2000/svg">
<g id="Fem_SubQ_Frontt 1">
<path id="body_shell" d="M696.991 119.694C717.491 103.704 746.612 98.0837 771.252 102.404C787.818 105.317 801.948 112.878 813.641 125.084C831.431 143.644 832.691 168.404 820.691 190.584C820.614 190.727 820.58 190.89 820.595 191.051C820.609 191.213 820.67 191.367 820.771 191.495C822.791 194.048 823.942 195.484 824.222 195.804C841.161 215.504 849.451 242.354 851.281 268.524C851.668 274.117 851.448 280.138 850.621 286.584C849.711 293.664 846.942 301.135 845.092 307.535C845.004 307.83 845.009 308.145 845.107 308.437C845.206 308.729 845.393 308.983 845.641 309.164C854.511 315.644 852.891 330.394 848.342 338.944C843.862 347.35 840.115 354.721 837.101 361.054C835.915 363.561 833.745 365.334 830.592 366.374C830.166 366.512 829.71 366.532 829.271 366.434L825.991 365.674C825.48 365.559 824.944 365.646 824.496 365.918C824.048 366.191 823.724 366.627 823.592 367.134C821.445 375.527 818.998 383.144 816.252 389.984C815.745 391.25 813.391 396.304 809.191 405.144C808.271 407.084 807.745 409.877 807.611 413.524C806.965 431.017 806.878 443.347 807.351 450.514C807.911 458.984 809.421 468.114 816.741 474.054C828.314 483.441 841.274 491.234 855.621 497.434C868.231 502.884 880.671 506.395 894.151 506.785C898.545 506.911 901.818 507.021 903.972 507.115C922.981 507.915 944.141 515.554 959.821 527.714C962.574 529.848 964.968 532.297 967.002 535.064C974.168 544.811 979.742 555.321 983.722 566.594C984.788 569.601 986.651 575.657 989.311 584.764C993.198 598.057 995.298 612.394 995.611 627.774C995.798 637.081 995.891 645.418 995.891 652.785C995.882 668.204 998.862 679.515 1003.04 697.115C1007.88 717.448 1013.16 738.511 1018.9 760.304C1023.8 778.904 1029.5 797.824 1036.89 816.464C1040.96 826.734 1046.17 833.804 1053.73 844.314C1062.85 856.984 1069.85 870.544 1074.88 886.264C1081.68 907.494 1086.09 928.224 1091.72 951.184C1094.13 961.024 1096.65 969.475 1099.28 976.535C1102.66 985.615 1106.9 999.254 1111.31 1009.68C1116.84 1022.76 1121.57 1033.22 1125.52 1041.07C1128.3 1046.6 1133 1054.96 1138.58 1056.73C1149.04 1060.07 1159.53 1064.39 1170.56 1070.22C1176.77 1073.5 1182.85 1076.42 1188.82 1079C1192.07 1080.41 1195.61 1083.22 1199.42 1087.42C1203.49 1091.91 1207.75 1099.42 1211.76 1104.51C1219.19 1113.97 1228.08 1122.64 1238.42 1128.92C1240.99 1130.48 1244.66 1133.77 1242.34 1137.01C1236.75 1144.85 1224.42 1142.98 1217.08 1138.96C1212.85 1136.64 1209.42 1134.32 1206.81 1131.99C1199.21 1125.23 1195.62 1121.58 1189.35 1118.02C1188.8 1117.71 1188.15 1117.63 1187.54 1117.8C1186.93 1117.96 1186.4 1118.36 1186.08 1118.9C1185.09 1120.59 1183.53 1123.16 1184.19 1126.15C1186.61 1136.97 1189.56 1144.3 1194.99 1158.73C1198.85 1169.01 1204.83 1181.18 1208.77 1191.57C1211.64 1199.13 1214.68 1205.5 1218 1213.57C1219.13 1216.32 1219.69 1218.96 1219.69 1221.49C1219.7 1229.23 1213.33 1232.94 1206.53 1229.23C1203.64 1227.65 1201.14 1224.5 1199.05 1219.78C1195.14 1210.96 1191.79 1202.95 1186.37 1192.24C1182.89 1185.38 1180.09 1179.5 1177.96 1174.62C1176.91 1172.2 1175.68 1170.34 1174.27 1169.02C1174.18 1168.94 1174.07 1168.88 1173.95 1168.86C1173.83 1168.83 1173.7 1168.84 1173.59 1168.89C1173.47 1168.93 1173.37 1169 1173.29 1169.1C1173.22 1169.2 1173.17 1169.31 1173.15 1169.43C1173.01 1170.51 1173.1 1171.5 1173.42 1172.38C1178.48 1186.42 1183.87 1202.01 1189.6 1219.13C1193.31 1230.23 1195.4 1236.85 1195.86 1238.97C1196.83 1243.41 1196.03 1247.64 1192.18 1250.17C1188.56 1252.55 1183.56 1250.84 1180.93 1247.85C1178.55 1245.16 1177.3 1241.94 1175.81 1238.57C1168.66 1222.43 1162.48 1206.81 1157.26 1191.71C1156.47 1189.41 1155.72 1187.42 1155 1185.74C1153.54 1182.3 1152.58 1178.82 1150.81 1178.32C1150.7 1178.29 1150.58 1178.29 1150.46 1178.32C1150.34 1178.35 1150.23 1178.4 1150.15 1178.48C1150.06 1178.56 1149.99 1178.66 1149.95 1178.77C1149.91 1178.89 1149.89 1179.01 1149.91 1179.12C1150.7 1184.18 1151.91 1189.22 1153.56 1194.26C1158.32 1208.89 1162.12 1220.51 1164.96 1229.13C1165.38 1230.41 1165.96 1232.98 1166.69 1236.83C1167.55 1241.37 1166.56 1245.17 1162.07 1246.52C1156.24 1248.28 1151.03 1243.27 1149.05 1237.99C1146.13 1230.22 1143.45 1224.61 1140.61 1216.9C1136.96 1206.99 1133.13 1195.1 1129.13 1181.22C1128.68 1179.65 1127.9 1178.41 1126.79 1177.5C1126.71 1177.44 1126.62 1177.39 1126.51 1177.38C1126.41 1177.36 1126.3 1177.37 1126.21 1177.41C1126.11 1177.44 1126.02 1177.5 1125.96 1177.58C1125.89 1177.66 1125.85 1177.76 1125.83 1177.86C1125.46 1179.98 1125.56 1182.16 1126.13 1184.42C1128.87 1195.11 1131.23 1206.23 1133.21 1217.78C1133.61 1220.1 1133.39 1222.21 1132.55 1224.11C1130.65 1228.44 1125.08 1229.33 1121.77 1226.51C1118.49 1223.71 1116.47 1219.85 1115.71 1214.92C1114.55 1207.4 1113.28 1200.94 1111.92 1195.56C1107.8 1179.24 1104.82 1168.57 1103.01 1163.55C1098.94 1152.27 1095.94 1143.85 1094 1138.31C1088.97 1123.95 1086.21 1108.62 1085.73 1092.3C1085.58 1087.25 1084.04 1081.75 1081.11 1075.8C1078.36 1070.23 1074.87 1064.13 1070.63 1057.51C1055.19 1033.39 1045.61 1018.66 1041.9 1013.32C1030.17 996.445 1023.5 984.774 1009.63 962.464C1003.11 951.958 995.168 938.054 985.821 920.754C978.795 907.748 974.702 899.898 973.542 897.205C967.042 882.165 962.872 866.044 960.382 849.995C958.422 837.275 954.601 825.644 950.641 814.934C941.091 789.064 935.512 774.704 929.972 754.644C928.482 749.254 927.501 744.294 927.271 738.084C927.111 733.571 926.925 730.634 926.712 729.274C925.958 724.521 924.938 720.388 923.651 716.874C923.211 715.674 922.451 714.681 921.371 713.894C918.031 711.444 916.411 709.654 914.691 705.825C914.671 705.798 913.564 703.307 911.371 698.354C911.282 698.15 911.14 697.973 910.959 697.843C910.778 697.713 910.565 697.634 910.343 697.615C910.121 697.595 909.897 697.636 909.696 697.733C909.495 697.83 909.324 697.979 909.201 698.164C908.694 698.924 908.352 699.758 908.172 700.664C906.812 707.551 904.742 714.054 901.962 720.174C900.132 724.184 896.352 729.874 895.512 735.774C894.178 745.147 892.578 752.541 890.712 757.955C887.178 768.201 884.851 774.884 883.731 778.004C882.151 782.411 881.052 786.594 880.432 790.554C879.212 798.364 877.052 805.344 876.832 812.924C876.599 821.131 876.535 828.497 876.641 835.024C876.821 845.574 878.702 853.234 881.682 865.234C884.375 876.067 885.905 887.247 886.271 898.774C886.471 904.964 890.002 911.544 891.722 916.374C894.902 925.274 898.061 931.025 904.371 944.124C906.371 948.284 907.661 952.934 909.781 957.214C909.808 957.268 909.831 957.324 909.851 957.384L918.391 983.084C918.411 983.131 918.425 983.181 918.432 983.234C919.358 987.827 920.254 991.437 921.121 994.064C922.268 997.537 923.081 1001 923.561 1004.46C924.548 1011.58 925.024 1016.34 924.991 1018.74C924.964 1021.03 924.021 1025.64 922.161 1032.57C922.068 1032.93 921.934 1033.28 921.762 1033.6C921.015 1035.02 919.311 1038.2 916.651 1043.14C915.365 1045.54 915.388 1047.84 916.722 1050.04C918.335 1052.71 920.201 1054.89 922.321 1056.57C925.028 1055.38 926.915 1054.74 927.981 1054.64C932.041 1054.3 934.701 1057.99 935.821 1061.47C945.761 1092.34 952.372 1126.09 957.132 1159.56C958.805 1171.32 959.905 1182.82 960.432 1194.08C961.118 1208.87 961.361 1220.43 961.161 1228.77C960.988 1236.04 960.211 1247.33 958.831 1262.63H958.832C958.759 1265.08 958.638 1266.69 958.472 1267.45C957.785 1270.55 957.535 1273.78 957.722 1277.14C957.728 1277.28 957.715 1277.41 957.682 1277.55L956.882 1281.23C956.868 1281.29 956.858 1281.36 956.851 1281.42C956.611 1289.86 955.472 1298.29 953.432 1306.69C953.318 1314.57 952.482 1323.17 950.922 1332.5C948.648 1346.08 947.171 1354.57 946.491 1357.99C942.878 1376.19 938.208 1397.67 932.481 1422.43C927.431 1444.29 928.691 1467.56 930.621 1490.02C931.731 1502.98 931.771 1517.19 932.691 1530.81C933.081 1533.93 933.382 1537.2 934.262 1540.14C940.548 1561.18 945.638 1580.63 949.531 1598.48C955.704 1626.74 957.551 1655.25 955.071 1684.02C952.881 1709.5 948.871 1734.18 943.021 1763.88C938.368 1787.53 934.248 1809.52 930.661 1829.84C928.721 1840.85 926.341 1855.1 926.101 1866.01C925.988 1871.29 926.198 1875.56 926.731 1878.81C927.611 1884.23 929.502 1890.68 930.262 1896.48C931.102 1902.92 931.408 1909.85 931.182 1917.27C931.062 1921.36 932.065 1925.31 934.191 1929.12C938.798 1937.4 942.645 1943.89 945.731 1948.59C951.291 1957.06 960.121 1962.82 969.021 1968.73C972.261 1970.88 976.341 1972.29 979.601 1974.2C984.461 1977.05 987.781 1980.47 989.561 1984.47C993.341 1992.96 990.251 2002.07 981.411 2005.39C969.878 2009.72 957.708 2012.78 944.901 2014.56C940.741 2015.13 937.031 2014.77 933.611 2014.83C932.11 2014.86 930.616 2015.06 929.161 2015.43C921.171 2017.47 914.931 2018.13 905.052 2016.58C894.862 2014.98 884.402 2008.59 881.802 1998.02C881.195 1995.54 880.595 1992.67 880.002 1989.42C879.908 1988.9 879.702 1988.4 879.398 1987.95C879.095 1987.51 878.7 1987.14 878.241 1986.86C874.654 1984.72 871.998 1983.04 870.271 1981.83C863.621 1977.2 862.341 1968.83 863.571 1961.25C865.204 1951.22 866.568 1941.79 867.661 1932.96C868.581 1925.51 867.501 1919.25 865.932 1912.07C864.362 1904.89 864.051 1896.35 865.241 1890.48C866.491 1884.31 868.291 1878.34 868.781 1872.3C869.961 1857.75 868.831 1844.93 866.281 1830.27C863.071 1811.76 857.952 1788.88 853.082 1766.04C849.582 1749.58 845.445 1733.93 840.672 1719.08C834.032 1698.41 829.441 1681.25 828.231 1664.29C827.618 1655.64 827.411 1644.97 827.611 1632.27C827.858 1616.65 828.062 1600.31 828.222 1583.27C828.342 1570.53 827.901 1561.17 824.691 1549.87C824.305 1548.51 822.088 1543.23 818.042 1534.03C811.475 1519.1 806.965 1503.35 804.512 1486.77C802.038 1470.1 800.708 1461.03 800.521 1459.57C795.815 1423.4 791.861 1393.64 788.661 1370.3C786.708 1356.04 784.085 1342.35 780.792 1329.23C777.085 1314.47 774.138 1301.25 771.951 1289.57C763.421 1244.15 756.451 1205.72 757.161 1162.93C757.187 1161.38 756.844 1159.85 756.161 1158.46C754.441 1154.97 753.152 1151.75 752.302 1147.25C751.802 1144.59 751.294 1142.49 750.781 1140.97C750.628 1140.52 750.377 1140.1 750.046 1139.75C749.714 1139.4 749.31 1139.12 748.861 1138.94C745.101 1137.43 739.532 1136.78 737.922 1141.82C736.102 1147.55 734.941 1151.36 734.441 1153.25C734.262 1153.93 733.986 1154.58 733.621 1155.18C732.374 1157.2 731.675 1158.56 731.521 1159.28C731.061 1161.52 730.822 1164.53 730.802 1168.31C730.722 1187.96 730.128 1202.45 729.021 1211.77C727.721 1222.76 726.802 1233.83 725.302 1244.12C723.362 1257.47 720.755 1273.01 717.481 1290.73C715.061 1303.81 712.335 1316 709.302 1327.32C706.988 1335.97 705.288 1343.1 704.201 1348.7C702.341 1358.32 700.411 1370.52 698.411 1385.31C692.561 1428.64 689.001 1458.37 683.121 1492.38C681.268 1503.1 677.868 1514.75 672.922 1527.31C670.762 1532.8 666.752 1539.59 664.542 1545.31C659.082 1559.48 658.802 1574.58 659.042 1590.02C659.195 1600.26 659.538 1613.76 660.071 1630.52C660.801 1653.36 659.921 1673.95 654.071 1695.7C651.758 1704.31 649.991 1710.59 648.771 1714.53C644.898 1727.05 642.595 1734.65 641.861 1737.31C633.328 1768.33 626.125 1799.98 620.252 1832.24C617.832 1845.54 616.851 1857.85 617.611 1870.56C618.001 1877.08 620.581 1886.06 621.361 1891.75C622.141 1897.51 621.911 1903.25 620.521 1910.06C618.621 1919.31 617.871 1927.51 619.311 1936.74C620.945 1947.26 622.211 1956.44 623.111 1964.26C623.931 1971.4 621.871 1978.83 615.682 1982.85C613.448 1984.31 611.128 1985.65 608.722 1986.89C608.041 1987.25 607.467 1987.77 607.06 1988.42C606.654 1989.07 606.429 1989.81 606.411 1990.57C606.264 1997.25 603.971 2002.86 599.531 2007.42C590.641 2016.54 576.081 2018.69 563.311 2016.72C562.145 2016.54 559.685 2016.03 555.932 2015.17C555.028 2014.97 554.105 2014.86 553.182 2014.86C547.992 2014.83 543.641 2015.05 538.722 2013.97C536.315 2013.45 530.114 2012.11 520.121 2009.97C514.841 2008.84 509.721 2006.58 504.371 2004.91C496.901 2002.58 493.051 1994.34 495.161 1986.81C496.661 1981.49 500.082 1977.42 505.422 1974.61C512.674 1970.81 516.85 1968.57 517.951 1967.91C524.624 1963.93 530.745 1959.06 536.311 1953.28C540.281 1949.15 543.092 1944.42 546.222 1939.57C549.581 1934.37 552.485 1929.39 554.932 1924.65C555.912 1922.76 556.461 1920.19 556.391 1917.73C556.131 1907.91 556.181 1901.37 557.651 1893.31C558.961 1886.11 560.911 1880.22 561.241 1873.47C561.931 1859.64 560.451 1846.67 558.061 1832.51C553.271 1804.02 548.921 1780.31 543.641 1754.78C538.731 1731.03 535.081 1704.85 532.891 1681.77C532.078 1673.26 531.845 1662.59 532.191 1649.77C532.771 1628.33 536.652 1605.87 542.252 1584.42C545.852 1570.63 550.188 1555.31 555.262 1538.46C556.182 1535.4 556.741 1531.26 556.941 1526.03C557.088 1522.17 557.095 1519.03 556.962 1516.6C556.822 1514.21 557.452 1511.81 557.542 1509.31C557.649 1497.8 558.341 1484.62 559.621 1469.78C560.614 1458.29 560.285 1445.87 558.632 1432.52C558.158 1428.74 555.925 1418.5 551.932 1401.79C548.305 1386.65 544.811 1369.13 541.451 1349.23C539.038 1334.97 537.432 1322.19 536.632 1310.88L533.512 1286.3L533.211 1283.05C532.895 1279.79 532.531 1276.47 532.121 1273.1C531.428 1267.34 530.985 1262.94 530.792 1259.9C529.672 1242.37 528.232 1228.79 528.792 1212.52C529.225 1199.88 529.965 1188.2 531.012 1177.47C531.465 1172.85 532.452 1165.48 533.972 1155.36C535.152 1147.51 536.418 1140.19 537.771 1133.39C542.645 1109.01 548.375 1084.82 554.962 1060.83C555.232 1058.77 555.941 1053.04 558.391 1051.5C558.59 1051.38 558.811 1051.29 559.042 1051.25L567.842 1049.78C568.15 1049.74 568.431 1049.58 568.63 1049.33C568.829 1049.09 568.933 1048.79 568.922 1048.47L568.701 1042.21C568.694 1042.13 568.685 1042.05 568.672 1041.97C568.052 1039.02 565.371 1033.25 564.851 1028.7C564.831 1028.54 564.568 1026.98 564.061 1024.02C564.002 1023.69 563.988 1023.34 564.021 1022.99C564.588 1017.14 565.058 1013.42 565.432 1011.83C566.191 1008.62 568.405 1000.22 572.071 986.624C574.791 976.525 578.791 966.385 581.861 957.115C583.641 951.745 585.921 946.974 587.731 942.474C589.991 936.834 597.131 925.034 600.201 916.124C602.108 910.578 603.298 906.874 603.771 905.014C603.898 904.5 604.172 901.414 604.592 895.754C605.125 888.521 605.878 881.561 606.851 874.874C608.241 865.334 611.382 856.504 613.802 846.304C614.255 844.398 614.508 843.058 614.561 842.285C615.048 834.971 614.995 825.748 614.401 814.615C614.101 809.035 613.381 805.564 612.641 800.254C611.951 795.304 610.632 791.604 609.802 786.354C609.528 784.621 608.832 781.897 607.712 778.184C605.782 771.804 602.261 760.565 598.861 748.615C597.141 742.595 596.412 735.824 594.932 730.314C594.646 729.25 594.257 728.215 593.771 727.224C589.998 719.537 586.522 710.707 583.342 700.734C582.975 699.594 582.388 698.617 581.582 697.804C581.53 697.753 581.466 697.715 581.396 697.694C581.326 697.673 581.252 697.67 581.181 697.685C581.109 697.7 581.043 697.733 580.987 697.78C580.931 697.827 580.888 697.887 580.861 697.955C579.415 701.854 578.455 704.35 577.981 705.444C577.228 707.204 575.365 709.824 572.391 713.304C572.352 713.357 572.318 713.414 572.292 713.474L570.252 717.844C570.212 717.93 570.191 718.026 570.191 718.124C570.138 721.411 569.401 723.994 567.981 725.874C566.315 728.087 565.408 729.411 565.262 729.844C564.368 732.431 563.791 734.925 563.531 737.325C563.498 737.61 563.424 737.893 563.311 738.164C563.111 738.638 562.735 739.467 562.182 740.654V740.644C562.252 733.894 562.692 728.684 566.682 722.995C568.095 720.981 569.418 718.861 570.651 716.634C570.692 716.564 570.703 716.48 570.682 716.402C570.662 716.323 570.611 716.256 570.542 716.214L570.061 715.944C570.016 715.917 569.965 715.9 569.912 715.893C569.859 715.886 569.806 715.89 569.755 715.904C569.704 715.918 569.656 715.942 569.614 715.975C569.572 716.008 569.538 716.048 569.512 716.094L564.361 725.024C564.347 725.046 564.327 725.063 564.304 725.075C564.28 725.086 564.253 725.09 564.227 725.087C564.201 725.084 564.177 725.074 564.156 725.057C564.136 725.041 564.12 725.019 564.111 724.995C564.025 724.715 563.981 724.571 563.981 724.564C563.983 724.543 563.976 724.522 563.962 724.506C563.948 724.49 563.927 724.48 563.906 724.479C563.885 724.478 563.864 724.485 563.848 724.499C563.833 724.513 563.823 724.533 563.821 724.554L563.752 725.294C563.747 725.31 563.737 725.324 563.724 725.334C563.712 725.345 563.696 725.351 563.68 725.352C563.663 725.353 563.648 725.349 563.634 725.34C563.62 725.332 563.608 725.319 563.601 725.304C563.575 725.198 563.542 725.111 563.502 725.044C563.487 725.015 563.463 724.991 563.434 724.975C563.406 724.959 563.373 724.951 563.34 724.954C563.307 724.956 563.275 724.967 563.249 724.987C563.223 725.006 563.203 725.033 563.191 725.064L560.972 731.554C560.945 731.634 560.932 731.715 560.932 731.794L560.882 738.484C560.882 738.7 560.819 738.915 560.701 739.104C559.901 740.404 559.498 741.258 559.491 741.664C559.291 753.004 559.121 759.454 558.981 761.014C558.735 763.774 558.058 766.921 556.951 770.455C553.838 780.421 548.254 795.801 540.201 816.594C538.901 819.961 537.742 823.308 536.722 826.634C535.262 831.374 533.771 835.384 532.851 840.274C532.111 844.161 530.592 851.831 528.292 863.285C525.232 878.511 519.832 893.538 512.092 908.365C503.298 925.225 493.772 942.438 483.512 960.004C479.665 966.591 476.135 972.368 472.922 977.334C464.992 989.564 459.052 999.394 451.712 1010.26C446.202 1018.41 442.501 1025 437.241 1032.15C431.511 1039.94 425.441 1050.19 421.371 1056.48C416.251 1064.38 412.601 1071.52 409.191 1079.9C405.341 1089.32 407.242 1100.36 405.252 1110.36C403.278 1120.29 400.928 1128.99 398.201 1136.46C390.908 1156.46 385.768 1171.63 382.781 1181.97C379.714 1192.57 377.108 1203.96 374.962 1216.15C374.662 1217.88 373.905 1220.05 372.691 1222.65C369.991 1228.41 361.881 1229.97 359.111 1223.08C358.131 1220.65 357.878 1218.25 358.351 1215.87C362.098 1197.18 364.098 1186.92 364.351 1185.11C364.818 1181.84 365.025 1179.81 364.972 1179.03C364.938 1178.57 364.885 1178.29 364.811 1178.17C364.663 1177.96 364.457 1177.8 364.218 1177.7C363.978 1177.6 363.714 1177.57 363.459 1177.61C363.204 1177.66 362.966 1177.78 362.775 1177.95C362.585 1178.13 362.448 1178.35 362.382 1178.6C359.655 1188.74 356.478 1199.6 352.851 1211.18C349.751 1221.07 345.801 1229.34 341.861 1239.54C340.031 1244.3 334.211 1248.19 329.012 1246.03C322.352 1243.27 324.111 1237.52 325.861 1231.29C325.928 1231.07 328.121 1224.54 332.441 1211.71C335.881 1201.5 338.531 1192.33 340.391 1184.2C340.625 1183.18 340.832 1181.78 341.012 1180.02C341.091 1179.22 340.874 1178.72 340.361 1178.51C340.176 1178.44 339.978 1178.4 339.779 1178.4C339.58 1178.4 339.384 1178.44 339.202 1178.52C339.02 1178.6 338.856 1178.71 338.721 1178.85C338.585 1178.99 338.479 1179.16 338.411 1179.34C330.311 1201.55 322.791 1222.71 313.861 1243.12C311.941 1247.5 309.011 1250.98 304.292 1250.89C297.562 1250.75 294.631 1243.61 296.391 1237.81C300.431 1224.51 308.052 1202.15 319.252 1170.73C319.578 1169.82 319.745 1168.9 319.752 1167.98C319.752 1167.8 319.703 1167.62 319.609 1167.46C319.516 1167.3 319.381 1167.17 319.22 1167.08C319.059 1166.99 318.877 1166.95 318.694 1166.96C318.511 1166.97 318.334 1167.02 318.182 1167.12C316.542 1168.2 315.295 1169.71 314.441 1171.66C310.535 1180.57 305.768 1190.5 300.141 1201.46C297.721 1206.18 295.361 1211.73 292.981 1217.65C291.548 1221.21 289.682 1224.24 287.382 1226.74C280.522 1234.18 271.342 1228.12 272.521 1219.24C272.821 1216.97 273.558 1214.43 274.731 1211.61C276.991 1206.17 279.308 1200.63 281.682 1194.99C288.262 1179.39 294.794 1163.93 301.281 1148.6C303.891 1142.44 305.862 1136.4 307.472 1130.21C308.802 1125.1 309.332 1120.78 305.792 1116.71C305.67 1116.58 305.509 1116.48 305.329 1116.43C305.149 1116.38 304.958 1116.38 304.781 1116.44C299.631 1118.18 294.511 1123.09 290.241 1127.23C288.374 1129.05 284.168 1132.34 277.621 1137.12C273.688 1140 268.674 1141.61 262.581 1141.97C257.895 1142.25 254.132 1140.68 251.292 1137.26C248.292 1133.65 251.011 1130.8 254.411 1128.57C262.961 1122.95 270.552 1115.3 276.972 1108.02C282.941 1101.24 287.502 1093.83 292.752 1086.74C296.142 1082.15 300.211 1079.54 306.321 1076.57C320.491 1069.71 337.121 1061.3 354.321 1054.28C358.208 1052.7 361.282 1049.85 363.542 1045.73C369.975 1033.99 375.785 1021.31 380.972 1007.67C387.802 989.704 394.172 972.904 398.632 954.854C402.662 938.504 408.092 913.854 414.641 892.874C421.111 872.165 431.211 853.804 444.231 835.955C449.031 829.385 452.841 822.834 456.151 814.914C464.601 794.744 471.892 770.494 477.132 747.694C482.032 726.354 486.331 710.704 493.311 681.825C495.821 671.465 497.141 662.514 497.061 651.694C497.021 645.647 497.094 638.754 497.281 631.014C497.928 604.454 503.975 579.074 515.422 554.874C520.512 544.124 527.431 532.994 537.071 525.934C552.231 514.814 567.591 509.184 586.811 507.294C593.441 506.634 602.991 507.044 610.861 506.024C616.321 505.317 622.988 503.431 630.861 500.365C646.761 494.165 660.901 487.115 675.151 476.865C684.821 469.905 688.012 458.934 688.332 447.514C688.659 435.921 688.544 423.757 687.991 411.024C687.838 407.451 687.328 404.577 686.462 402.404C684.642 397.864 680.891 390.954 679.111 385.224C677.658 380.544 676.158 374.998 674.611 368.584C674.091 366.434 672.361 365.864 669.871 366.254C665.651 366.934 661.722 363.084 660.002 359.514C656.915 353.107 653.771 346.801 650.571 340.594C647.318 334.288 646.028 327.601 646.701 320.535C647.141 315.941 649.135 312.324 652.682 309.684C653.06 309.403 653.335 309.005 653.464 308.553C653.592 308.101 653.567 307.619 653.391 307.184C649.881 298.334 647.522 290.594 647.092 281.394C645.592 248.734 655.711 213.624 679.771 190.684C680.106 190.367 680.343 189.96 680.455 189.512C680.566 189.064 680.548 188.593 680.401 188.155C677.248 178.815 675.968 168.951 676.561 158.564C677.468 142.571 684.278 129.614 696.991 119.694ZM931.041 1548.43H931.042H931.041ZM955.791 1280.38H955.792H955.791ZM575.794 1064.8V1064.81V1064.8ZM556.076 1059.47V1059.47V1059.47ZM557.795 1058.02V1058.02V1058.02ZM558.071 1057.9V1057.9V1057.9Z" fill="#2A2A28"/>
<path id="body_base" d="M922.52 1056.8C918.927 1061.43 914.917 1066 910.49 1070.51C908.43 1072.6 906.887 1074.38 905.86 1075.83C902.35 1080.77 898.44 1085.5 895.72 1090.27C889.62 1100.97 884.4 1113.02 883.63 1124.5C882.703 1138.21 883.34 1152.13 885.54 1166.26C885.613 1166.71 886.87 1174.37 889.31 1189.23C891.13 1200.33 893.09 1210.01 895.19 1218.28C896.937 1225.16 901.09 1239.42 907.65 1261.06C908.67 1264.43 910.753 1267.86 913.9 1271.35C915.71 1273.37 919.95 1276.18 923.29 1277.87C929.783 1281.16 934.25 1283.75 936.69 1285.63C938.91 1287.34 941.597 1288.97 944.75 1290.52C947.42 1291.83 950.28 1291.95 952.35 1289.49C954.45 1287 955.607 1284.39 955.82 1281.65C955.847 1281.3 955.903 1280.95 955.99 1280.61C957.097 1276.36 957.663 1273.74 957.69 1272.75C957.803 1268.21 958.25 1264.91 959.03 1262.86C958.957 1265.31 958.837 1266.91 958.67 1267.68C957.983 1270.77 957.733 1274 957.92 1277.37C957.927 1277.5 957.913 1277.64 957.88 1277.78L957.08 1281.46C957.067 1281.52 957.057 1281.58 957.05 1281.65C956.81 1290.09 955.67 1298.51 953.63 1306.92C951.163 1302.81 949.4 1300.31 948.34 1299.4C945.28 1296.81 940.597 1293.9 934.29 1290.67C931.337 1289.16 929.283 1288.05 928.13 1287.35C922.56 1283.99 919.13 1281.48 913.75 1280.71C913.109 1280.62 912.456 1280.69 911.855 1280.93C911.254 1281.16 910.726 1281.54 910.32 1282.04C908.34 1284.47 907.63 1286.86 907.18 1290.23C905.58 1302.24 904.287 1310.34 903.3 1314.53C900.05 1328.23 896.84 1343.11 892.58 1356.88C887.813 1372.27 883.357 1385.56 879.21 1396.75C875.663 1406.32 873.397 1413.5 872.41 1418.29C867.93 1439.96 866.7 1460.33 871.22 1482.18C872.053 1486.18 873.043 1489.88 874.19 1493.29C876.037 1498.78 877.367 1502.38 878.18 1504.08C882.447 1513.04 885.907 1520.43 888.56 1526.25C891.51 1532.69 897.06 1539.53 900.23 1544.91C901.797 1547.56 903.913 1550.9 906.58 1554.94C908.66 1558.09 910.277 1559.99 911.43 1560.64C912.21 1561.07 913.513 1561.23 915.34 1561.12C920.18 1560.82 927 1559.48 929.85 1555.13C930.563 1554.05 931.027 1551.89 931.24 1548.66C931.627 1542.76 932.177 1536.89 932.89 1531.04C933.28 1534.16 933.58 1537.43 934.46 1540.37C940.747 1561.41 945.837 1580.86 949.73 1598.71C955.903 1626.96 957.75 1655.48 955.27 1684.25C953.08 1709.73 949.07 1734.41 943.22 1764.11C938.567 1787.76 934.447 1809.74 930.86 1830.07C928.92 1841.08 926.54 1855.33 926.3 1866.24C926.187 1871.52 926.397 1875.79 926.93 1879.04C927.81 1884.46 929.7 1890.91 930.46 1896.71C931.3 1903.14 931.607 1910.07 931.38 1917.5C931.26 1921.59 932.263 1925.54 934.39 1929.35C938.997 1937.62 942.843 1944.11 945.93 1948.82C951.49 1957.29 960.32 1963.05 969.22 1968.96C972.46 1971.11 976.54 1972.52 979.8 1974.43C984.66 1977.28 987.98 1980.7 989.76 1984.7C993.54 1993.19 990.45 2002.3 981.61 2005.62C970.077 2009.95 957.907 2013 945.1 2014.79C940.94 2015.36 937.23 2015 933.81 2015.06C932.308 2015.09 930.815 2015.29 929.36 2015.66C921.37 2017.7 915.13 2018.36 905.25 2016.81C895.06 2015.21 884.6 2008.82 882 1998.25C881.393 1995.76 880.793 1992.9 880.2 1989.65C880.106 1989.12 879.9 1988.62 879.597 1988.18C879.293 1987.74 878.899 1987.37 878.44 1987.09C874.853 1984.94 872.197 1983.27 870.47 1982.06C863.82 1977.43 862.54 1969.06 863.77 1961.48C865.403 1951.45 866.767 1942.02 867.86 1933.19C868.78 1925.74 867.7 1919.48 866.13 1912.3C864.56 1905.12 864.25 1896.58 865.44 1890.71C866.69 1884.54 868.49 1878.57 868.98 1872.53C870.16 1857.98 869.03 1845.16 866.48 1830.5C863.27 1811.99 858.15 1789.11 853.28 1766.27C849.78 1749.81 845.643 1734.16 840.87 1719.31C834.23 1698.64 829.64 1681.48 828.43 1664.52C827.817 1655.87 827.61 1645.19 827.81 1632.5C828.057 1616.87 828.26 1600.54 828.42 1583.5C828.54 1570.76 828.1 1561.4 824.89 1550.1C824.503 1548.73 822.287 1543.45 818.24 1534.26C811.673 1519.33 807.163 1503.57 804.71 1487C802.237 1470.32 800.907 1461.25 800.72 1459.8C796.013 1423.63 792.06 1393.87 788.86 1370.53C786.907 1356.26 784.283 1342.57 780.99 1329.46C777.283 1314.69 774.337 1301.47 772.15 1289.8C763.62 1244.38 756.65 1205.95 757.36 1163.16C757.386 1161.61 757.044 1160.08 756.36 1158.69C754.64 1155.2 753.35 1151.98 752.5 1147.48C752 1144.81 751.493 1142.72 750.98 1141.2C750.827 1140.74 750.576 1140.32 750.244 1139.97C749.912 1139.62 749.508 1139.35 749.06 1139.17C745.3 1137.66 739.73 1137.01 738.12 1142.05C736.3 1147.78 735.14 1151.59 734.64 1153.48C734.461 1154.16 734.185 1154.81 733.82 1155.41C732.573 1157.42 731.873 1158.79 731.72 1159.51C731.26 1161.74 731.02 1164.75 731 1168.54C730.92 1188.19 730.327 1202.67 729.22 1212C727.92 1222.99 727 1234.06 725.5 1244.35C723.56 1257.7 720.953 1273.23 717.68 1290.96C715.26 1304.03 712.533 1316.23 709.5 1327.55C707.187 1336.2 705.487 1343.32 704.4 1348.93C702.54 1358.54 700.61 1370.75 698.61 1385.54C692.76 1428.87 689.2 1458.6 683.32 1492.61C681.467 1503.33 678.067 1514.97 673.12 1527.54C670.96 1533.03 666.95 1539.82 664.74 1545.54C659.28 1559.71 659 1574.81 659.24 1590.25C659.393 1600.49 659.737 1613.99 660.27 1630.75C661 1653.59 660.12 1674.18 654.27 1695.93C651.957 1704.54 650.19 1710.81 648.97 1714.76C645.097 1727.28 642.793 1734.87 642.06 1737.54C633.527 1768.56 626.323 1800.2 620.45 1832.47C618.03 1845.77 617.05 1858.08 617.81 1870.79C618.2 1877.31 620.78 1886.29 621.56 1891.98C622.34 1897.74 622.11 1903.48 620.72 1910.29C618.82 1919.54 618.07 1927.74 619.51 1936.97C621.143 1947.49 622.41 1956.66 623.31 1964.49C624.13 1971.63 622.07 1979.06 615.88 1983.08C613.647 1984.53 611.327 1985.88 608.92 1987.12C608.239 1987.47 607.666 1988 607.259 1988.65C606.853 1989.29 606.628 1990.04 606.61 1990.8C606.463 1997.47 604.17 2003.09 599.73 2007.65C590.84 2016.77 576.28 2018.92 563.51 2016.95C562.343 2016.77 559.883 2016.25 556.13 2015.4C555.226 2015.19 554.304 2015.09 553.38 2015.09C548.19 2015.06 543.84 2015.28 538.92 2014.2C536.513 2013.67 530.313 2012.34 520.32 2010.2C515.04 2009.07 509.92 2006.81 504.57 2005.14C497.1 2002.81 493.25 1994.57 495.36 1987.04C496.86 1981.71 500.28 1977.65 505.62 1974.84C512.873 1971.03 517.05 1968.8 518.15 1968.14C524.823 1964.16 530.943 1959.28 536.51 1953.51C540.48 1949.38 543.29 1944.65 546.42 1939.8C549.78 1934.59 552.683 1929.62 555.13 1924.88C556.11 1922.99 556.66 1920.42 556.59 1917.96C556.33 1908.14 556.38 1901.6 557.85 1893.54C559.16 1886.34 561.11 1880.45 561.44 1873.7C562.13 1859.87 560.65 1846.9 558.26 1832.74C553.47 1804.25 549.12 1780.54 543.84 1755.01C538.93 1731.26 535.28 1705.08 533.09 1682C532.277 1673.49 532.043 1662.82 532.39 1650C532.97 1628.56 536.85 1606.1 542.45 1584.65C546.05 1570.86 550.387 1555.54 555.46 1538.69C556.38 1535.63 556.94 1531.49 557.14 1526.26C557.287 1522.4 557.293 1519.26 557.16 1516.83C557.02 1514.44 557.65 1512.04 557.74 1509.54L558.11 1535.48C558.117 1535.94 558.157 1536.4 558.23 1536.85C558.723 1539.86 558.953 1542.92 558.92 1546.01C558.87 1551.3 558.92 1557.66 564.57 1559.16C568.517 1560.21 572.413 1560.84 576.26 1561.05C578.68 1561.19 580.55 1560.29 581.87 1558.35C588.15 1549.12 594.45 1539.1 600.77 1528.3C604.237 1522.37 608.45 1513.24 613.41 1500.91C614.937 1497.13 616.287 1492.77 617.46 1487.84C619.393 1479.76 620.417 1475.31 620.53 1474.5C622.97 1457.61 622.293 1440.87 618.5 1424.26C614.84 1408.28 610.88 1397.81 603.28 1375.5C600.753 1368.09 597.27 1355.9 592.83 1338.93C589.477 1326.12 586.317 1309.25 583.35 1288.32C582.77 1284.26 580.31 1279.61 575.26 1281.04C571.407 1282.13 567.783 1283.75 564.39 1285.91C560.07 1288.66 553.56 1291.83 548.34 1295.15C546.273 1296.47 544.28 1297.75 542.36 1298.99C541.38 1299.62 540.635 1300.55 540.24 1301.65L536.83 1311.11L533.71 1286.53C535.343 1288.7 536.947 1290.52 538.52 1291.99C540.187 1293.55 541.943 1293.79 543.79 1292.71C550.58 1288.71 556.99 1284.14 564.03 1280.45C568.9 1277.89 575.09 1275.33 578.42 1271.39C580.36 1269.09 581.79 1266.43 582.71 1263.41C591.18 1235.73 597.72 1207.67 602.48 1179.75C604.327 1168.92 605.64 1157.09 606.42 1144.25C607.053 1133.78 606.337 1123.76 604.27 1114.21C602.12 1104.27 598.01 1097.25 592.68 1087.68C586.07 1075.8 576.85 1064.97 567.01 1056.31C565.603 1055.08 563.99 1054.64 562.17 1055.01C561.829 1055.08 561.515 1055.24 561.26 1055.47C559.28 1057.24 558.283 1058.13 558.27 1058.13C558.166 1058.13 558.068 1058.17 557.993 1058.24C557.919 1058.31 557.875 1058.41 557.87 1058.51C557.823 1059.08 557.45 1059.41 556.75 1059.5C556.578 1059.52 556.414 1059.59 556.275 1059.7C556.135 1059.8 556.023 1059.94 555.95 1060.1C555.757 1060.53 555.493 1060.85 555.16 1061.06C555.43 1059 556.14 1053.27 558.59 1051.73C558.788 1051.6 559.009 1051.52 559.24 1051.48L568.04 1050.01C568.349 1049.96 568.629 1049.8 568.828 1049.56C569.027 1049.32 569.131 1049.01 569.12 1048.7L568.9 1042.44C568.893 1042.36 568.883 1042.28 568.87 1042.2C568.25 1039.25 565.57 1033.48 565.05 1028.93C565.03 1028.76 564.767 1027.2 564.26 1024.25C564.2 1023.91 564.187 1023.56 564.22 1023.22C564.787 1017.37 565.257 1013.65 565.63 1012.06C566.39 1008.85 568.603 1000.44 572.27 986.85C574.99 976.75 578.99 966.61 582.06 957.34C583.84 951.97 586.12 947.2 587.93 942.7C590.19 937.06 597.33 925.26 600.4 916.35C602.307 910.803 603.497 907.1 603.97 905.24C604.097 904.727 604.37 901.64 604.79 895.98C605.323 888.747 606.077 881.787 607.05 875.1C608.44 865.56 611.58 856.73 614 846.53C614.453 844.623 614.707 843.283 614.76 842.51C615.247 835.197 615.193 825.973 614.6 814.84C614.3 809.26 613.58 805.79 612.84 800.48C612.15 795.53 610.83 791.83 610 786.58C609.727 784.847 609.03 782.123 607.91 778.41C605.98 772.03 602.46 760.79 599.06 748.84C597.34 742.82 596.61 736.05 595.13 730.54C594.844 729.476 594.456 728.441 593.97 727.45C590.197 719.763 586.72 710.933 583.54 700.96C583.173 699.82 582.587 698.843 581.78 698.03C581.728 697.978 581.665 697.941 581.595 697.92C581.525 697.899 581.451 697.896 581.38 697.911C581.308 697.926 581.242 697.958 581.186 698.005C581.13 698.052 581.087 698.112 581.06 698.18C579.613 702.08 578.653 704.577 578.18 705.67C577.427 707.43 575.563 710.05 572.59 713.53C572.55 713.583 572.517 713.64 572.49 713.7L570.45 718.07C570.411 718.156 570.39 718.251 570.39 718.35C570.337 721.637 569.6 724.22 568.18 726.1C566.513 728.313 565.607 729.637 565.46 730.07C564.567 732.657 563.99 735.15 563.73 737.55C563.697 737.835 563.623 738.118 563.51 738.39C563.31 738.863 562.933 739.693 562.38 740.88V740.87C562.45 734.12 562.89 728.91 566.88 723.22C568.293 721.207 569.617 719.087 570.85 716.86C570.89 716.789 570.901 716.706 570.881 716.627C570.86 716.549 570.81 716.482 570.74 716.44L570.26 716.17C570.214 716.143 570.163 716.126 570.111 716.119C570.058 716.112 570.005 716.116 569.954 716.13C569.902 716.144 569.855 716.168 569.813 716.2C569.771 716.233 569.736 716.274 569.71 716.32L564.56 725.25C564.546 725.272 564.526 725.29 564.502 725.301C564.478 725.312 564.452 725.316 564.426 725.313C564.4 725.31 564.375 725.3 564.354 725.283C564.334 725.267 564.319 725.245 564.31 725.22C564.223 724.94 564.18 724.797 564.18 724.79C564.181 724.769 564.174 724.748 564.16 724.732C564.146 724.716 564.126 724.706 564.105 724.705C564.084 724.704 564.063 724.711 564.047 724.725C564.031 724.739 564.021 724.759 564.02 724.78L563.95 725.52C563.945 725.536 563.936 725.55 563.923 725.56C563.911 725.57 563.895 725.576 563.878 725.577C563.862 725.579 563.846 725.575 563.832 725.566C563.818 725.558 563.807 725.545 563.8 725.53C563.773 725.423 563.74 725.337 563.7 725.27C563.685 725.241 563.661 725.217 563.633 725.201C563.604 725.185 563.571 725.177 563.539 725.179C563.506 725.181 563.474 725.193 563.448 725.213C563.422 725.232 563.401 725.259 563.39 725.29L561.17 731.78C561.144 731.859 561.13 731.94 561.13 732.02L561.08 738.71C561.08 738.926 561.018 739.141 560.9 739.33C560.1 740.63 559.697 741.483 559.69 741.89C559.49 753.23 559.32 759.68 559.18 761.24C558.933 764 558.257 767.147 557.15 770.68C554.037 780.647 548.453 796.027 540.4 816.82C539.1 820.187 537.94 823.533 536.92 826.86C535.46 831.6 533.97 835.61 533.05 840.5C532.31 844.387 530.79 852.057 528.49 863.51C525.43 878.737 520.03 893.763 512.29 908.59C503.497 925.45 493.97 942.663 483.71 960.23C479.863 966.817 476.333 972.593 473.12 977.56C465.19 989.79 459.25 999.62 451.91 1010.49C446.4 1018.64 442.7 1025.23 437.44 1032.38C431.71 1040.17 425.64 1050.42 421.57 1056.71C416.45 1064.61 412.8 1071.75 409.39 1080.13C405.54 1089.55 407.44 1100.59 405.45 1110.59C403.477 1120.52 401.127 1129.22 398.4 1136.69C391.107 1156.68 385.967 1171.85 382.98 1182.2C379.913 1192.79 377.307 1204.19 375.16 1216.38C374.86 1218.11 374.103 1220.27 372.89 1222.88C370.19 1228.64 362.08 1230.2 359.31 1223.31C358.33 1220.88 358.077 1218.47 358.55 1216.1C362.297 1197.4 364.297 1187.15 364.55 1185.34C365.017 1182.06 365.223 1180.03 365.17 1179.26C365.137 1178.8 365.083 1178.51 365.01 1178.4C364.862 1178.19 364.655 1178.02 364.416 1177.92C364.176 1177.82 363.913 1177.79 363.658 1177.84C363.402 1177.88 363.165 1178 362.974 1178.18C362.783 1178.35 362.646 1178.58 362.58 1178.83C359.853 1188.96 356.677 1199.82 353.05 1211.41C349.95 1221.3 346 1229.57 342.06 1239.77C340.23 1244.53 334.41 1248.42 329.21 1246.26C322.55 1243.5 324.31 1237.75 326.06 1231.52C326.127 1231.29 328.32 1224.77 332.64 1211.94C336.08 1201.73 338.73 1192.56 340.59 1184.43C340.823 1183.4 341.03 1182.01 341.21 1180.25C341.29 1179.45 341.073 1178.95 340.56 1178.74C340.375 1178.66 340.177 1178.63 339.978 1178.63C339.779 1178.63 339.583 1178.67 339.401 1178.75C339.219 1178.82 339.055 1178.94 338.919 1179.08C338.783 1179.22 338.678 1179.39 338.61 1179.57C330.51 1201.78 322.99 1222.94 314.06 1243.35C312.14 1247.73 309.21 1251.21 304.49 1251.12C297.76 1250.98 294.83 1243.84 296.59 1238.04C300.63 1224.74 308.25 1202.38 319.45 1170.96C319.777 1170.05 319.943 1169.13 319.95 1168.21C319.95 1168.03 319.901 1167.84 319.808 1167.68C319.714 1167.53 319.579 1167.4 319.418 1167.31C319.257 1167.22 319.075 1167.18 318.892 1167.18C318.71 1167.19 318.532 1167.25 318.38 1167.35C316.74 1168.42 315.493 1169.94 314.64 1171.89C310.733 1180.8 305.967 1190.73 300.34 1201.69C297.92 1206.41 295.56 1211.96 293.18 1217.88C291.747 1221.43 289.88 1224.46 287.58 1226.97C280.72 1234.41 271.54 1228.35 272.72 1219.47C273.02 1217.2 273.757 1214.65 274.93 1211.84C277.19 1206.4 279.507 1200.86 281.88 1195.22C288.46 1179.62 294.993 1164.16 301.48 1148.83C304.09 1142.67 306.06 1136.63 307.67 1130.44C309 1125.33 309.53 1121.01 305.99 1116.94C305.868 1116.8 305.707 1116.7 305.527 1116.65C305.348 1116.6 305.157 1116.61 304.98 1116.67C299.83 1118.41 294.71 1123.32 290.44 1127.46C288.573 1129.27 284.367 1132.57 277.82 1137.35C273.887 1140.22 268.873 1141.84 262.78 1142.2C258.093 1142.48 254.33 1140.91 251.49 1137.49C248.49 1133.88 251.21 1131.03 254.61 1128.8C263.16 1123.18 270.75 1115.53 277.17 1108.25C283.14 1101.47 287.7 1094.06 292.95 1086.97C296.34 1082.38 300.41 1079.77 306.52 1076.8C320.69 1069.94 337.32 1061.53 354.52 1054.51C358.407 1052.92 361.48 1050.07 363.74 1045.96C370.173 1034.22 375.983 1021.53 381.17 1007.9C388 989.93 394.37 973.13 398.83 955.08C402.86 938.73 408.29 914.08 414.84 893.1C421.31 872.39 431.41 854.03 444.43 836.18C449.23 829.61 453.04 823.06 456.35 815.14C464.8 794.97 472.09 770.72 477.33 747.92C482.23 726.58 486.53 710.93 493.51 682.05C496.02 671.69 497.34 662.74 497.26 651.92C497.22 645.873 497.293 638.98 497.48 631.24C498.127 604.68 504.173 579.3 515.62 555.1C520.71 544.35 527.63 533.22 537.27 526.16C552.43 515.04 567.79 509.41 587.01 507.52C593.64 506.86 603.19 507.27 611.06 506.25C616.52 505.543 623.187 503.657 631.06 500.59C646.96 494.39 661.1 487.34 675.35 477.09C685.02 470.13 688.21 459.16 688.53 447.74C688.857 436.147 688.743 423.983 688.19 411.25C688.037 407.677 687.527 404.803 686.66 402.63C684.84 398.09 681.09 391.18 679.31 385.45C677.857 380.77 676.357 375.223 674.81 368.81C674.29 366.66 672.56 366.09 670.07 366.48C665.85 367.16 661.92 363.31 660.2 359.74C657.113 353.333 653.97 347.027 650.77 340.82C647.517 334.513 646.227 327.827 646.9 320.76C647.34 316.167 649.333 312.55 652.88 309.91C653.259 309.629 653.534 309.232 653.662 308.779C653.791 308.327 653.765 307.845 653.59 307.41C650.08 298.56 647.72 290.82 647.29 281.62C645.79 248.96 655.91 213.85 679.97 190.91C680.305 190.593 680.542 190.187 680.654 189.738C680.765 189.29 680.747 188.819 680.6 188.38C677.447 179.04 676.167 169.177 676.76 158.79C677.667 142.797 684.477 129.84 697.19 119.92C717.69 103.93 746.81 98.3099 771.45 102.63C788.017 105.543 802.147 113.103 813.84 125.31C831.63 143.87 832.89 168.63 820.89 190.81C820.813 190.953 820.779 191.115 820.794 191.277C820.808 191.439 820.869 191.593 820.97 191.72C822.99 194.273 824.14 195.71 824.42 196.03C841.36 215.73 849.65 242.58 851.48 268.75C851.867 274.343 851.647 280.363 850.82 286.81C849.91 293.89 847.14 301.36 845.29 307.76C845.202 308.055 845.208 308.37 845.306 308.662C845.405 308.954 845.591 309.208 845.84 309.39C854.71 315.87 853.09 330.62 848.54 339.17C844.06 347.577 840.313 354.947 837.3 361.28C836.113 363.787 833.943 365.56 830.79 366.6C830.364 366.737 829.908 366.758 829.47 366.66L826.19 365.9C825.679 365.784 825.142 365.872 824.695 366.144C824.247 366.417 823.922 366.853 823.79 367.36C821.643 375.753 819.197 383.37 816.45 390.21C815.943 391.477 813.59 396.53 809.39 405.37C808.47 407.31 807.943 410.103 807.81 413.75C807.163 431.243 807.077 443.573 807.55 450.74C808.11 459.21 809.62 468.34 816.94 474.28C828.513 483.667 841.473 491.46 855.82 497.66C868.43 503.11 880.87 506.62 894.35 507.01C898.743 507.137 902.017 507.247 904.17 507.34C923.18 508.14 944.34 515.78 960.02 527.94C962.773 530.073 965.167 532.523 967.2 535.29C974.367 545.037 979.94 555.547 983.92 566.82C984.987 569.827 986.85 575.883 989.51 584.99C993.397 598.283 995.497 612.62 995.81 628C995.997 637.307 996.09 645.643 996.09 653.01C996.08 668.43 999.06 679.74 1003.24 697.34C1008.07 717.673 1013.36 738.737 1019.1 760.53C1024 779.13 1029.7 798.05 1037.09 816.69C1041.16 826.96 1046.37 834.03 1053.93 844.54C1063.05 857.21 1070.05 870.77 1075.08 886.49C1081.88 907.72 1086.29 928.45 1091.92 951.41C1094.33 961.25 1096.85 969.7 1099.48 976.76C1102.86 985.84 1107.1 999.48 1111.51 1009.91C1117.04 1022.98 1121.77 1033.45 1125.72 1041.3C1128.5 1046.83 1133.2 1055.19 1138.78 1056.96C1149.24 1060.3 1159.73 1064.62 1170.76 1070.45C1176.97 1073.72 1183.05 1076.65 1189.02 1079.23C1192.27 1080.64 1195.81 1083.44 1199.62 1087.65C1203.69 1092.14 1207.95 1099.65 1211.96 1104.74C1219.39 1114.2 1228.28 1122.87 1238.62 1129.15C1241.19 1130.71 1244.86 1134 1242.54 1137.24C1236.95 1145.08 1224.62 1143.21 1217.28 1139.19C1213.05 1136.87 1209.62 1134.55 1207.01 1132.22C1199.41 1125.46 1195.82 1121.81 1189.55 1118.25C1189 1117.94 1188.35 1117.86 1187.74 1118.02C1187.12 1118.19 1186.6 1118.58 1186.28 1119.13C1185.29 1120.82 1183.73 1123.39 1184.39 1126.38C1186.81 1137.2 1189.76 1144.53 1195.19 1158.96C1199.05 1169.24 1205.03 1181.41 1208.97 1191.8C1211.84 1199.36 1214.88 1205.73 1218.2 1213.8C1219.33 1216.55 1219.89 1219.19 1219.89 1221.72C1219.9 1229.46 1213.53 1233.17 1206.73 1229.46C1203.84 1227.88 1201.34 1224.73 1199.25 1220.01C1195.34 1211.19 1191.99 1203.18 1186.57 1192.47C1183.09 1185.6 1180.29 1179.73 1178.16 1174.85C1177.11 1172.43 1175.88 1170.56 1174.47 1169.25C1174.38 1169.17 1174.27 1169.11 1174.15 1169.08C1174.03 1169.06 1173.9 1169.07 1173.78 1169.11C1173.67 1169.16 1173.57 1169.23 1173.49 1169.33C1173.41 1169.42 1173.37 1169.54 1173.35 1169.66C1173.21 1170.74 1173.3 1171.72 1173.62 1172.61C1178.68 1186.65 1184.07 1202.23 1189.8 1219.36C1193.51 1230.46 1195.6 1237.07 1196.06 1239.2C1197.03 1243.64 1196.23 1247.87 1192.38 1250.4C1188.76 1252.78 1183.76 1251.07 1181.13 1248.08C1178.75 1245.39 1177.5 1242.17 1176.01 1238.8C1168.86 1222.65 1162.68 1207.03 1157.46 1191.94C1156.67 1189.64 1155.91 1187.65 1155.2 1185.97C1153.74 1182.53 1152.78 1179.05 1151.01 1178.55C1150.89 1178.52 1150.77 1178.52 1150.66 1178.54C1150.54 1178.57 1150.43 1178.63 1150.34 1178.71C1150.25 1178.79 1150.19 1178.89 1150.15 1179C1150.1 1179.11 1150.09 1179.23 1150.11 1179.35C1150.9 1184.4 1152.11 1189.45 1153.76 1194.49C1158.52 1209.12 1162.32 1220.74 1165.16 1229.36C1165.58 1230.64 1166.16 1233.21 1166.89 1237.06C1167.75 1241.6 1166.76 1245.4 1162.27 1246.75C1156.44 1248.51 1151.23 1243.5 1149.25 1238.22C1146.33 1230.45 1143.65 1224.84 1140.81 1217.13C1137.16 1207.22 1133.33 1195.32 1129.33 1181.45C1128.88 1179.88 1128.1 1178.64 1126.99 1177.73C1126.91 1177.66 1126.81 1177.62 1126.71 1177.6C1126.61 1177.58 1126.5 1177.59 1126.41 1177.63C1126.31 1177.67 1126.22 1177.73 1126.16 1177.81C1126.09 1177.89 1126.05 1177.99 1126.03 1178.09C1125.66 1180.2 1125.76 1182.39 1126.33 1184.65C1129.06 1195.34 1131.42 1206.46 1133.41 1218.01C1133.81 1220.32 1133.59 1222.43 1132.75 1224.34C1130.85 1228.67 1125.28 1229.56 1121.97 1226.74C1118.69 1223.94 1116.67 1220.08 1115.91 1215.15C1114.74 1207.62 1113.48 1201.17 1112.12 1195.79C1107.99 1179.47 1105.02 1168.8 1103.21 1163.78C1099.14 1152.49 1096.14 1144.08 1094.2 1138.54C1089.17 1124.18 1086.41 1108.84 1085.93 1092.53C1085.78 1087.48 1084.24 1081.98 1081.31 1076.03C1078.56 1070.46 1075.07 1064.36 1070.83 1057.74C1055.38 1033.61 1045.81 1018.88 1042.1 1013.55C1030.37 996.67 1023.7 985 1009.83 962.69C1003.3 952.183 995.367 938.28 986.02 920.98C978.993 907.973 974.9 900.123 973.74 897.43C967.24 882.39 963.07 866.27 960.58 850.22C958.62 837.5 954.8 825.87 950.84 815.16C941.29 789.29 935.71 774.93 930.17 754.87C928.68 749.48 927.7 744.52 927.47 738.31C927.31 733.797 927.123 730.86 926.91 729.5C926.157 724.747 925.137 720.613 923.85 717.1C923.41 715.9 922.65 714.907 921.57 714.12C918.23 711.67 916.61 709.88 914.89 706.05C914.87 706.023 913.763 703.533 911.57 698.58C911.481 698.376 911.338 698.199 911.157 698.069C910.976 697.939 910.764 697.86 910.541 697.84C910.319 697.821 910.096 697.861 909.895 697.958C909.694 698.055 909.523 698.204 909.4 698.39C908.893 699.15 908.55 699.983 908.37 700.89C907.01 707.777 904.94 714.28 902.16 720.4C900.33 724.41 896.55 730.1 895.71 736C894.377 745.373 892.777 752.767 890.91 758.18C887.377 768.427 885.05 775.11 883.93 778.23C882.35 782.637 881.25 786.82 880.63 790.78C879.41 798.59 877.25 805.57 877.03 813.15C876.797 821.357 876.733 828.723 876.84 835.25C877.02 845.8 878.9 853.46 881.88 865.46C884.573 876.293 886.103 887.473 886.47 899C886.67 905.19 890.2 911.77 891.92 916.6C895.1 925.5 898.26 931.25 904.57 944.35C906.57 948.51 907.86 953.16 909.98 957.44C910.007 957.493 910.03 957.55 910.05 957.61L918.59 983.31C918.61 983.356 918.623 983.407 918.63 983.46C919.557 988.053 920.453 991.663 921.32 994.29C922.467 997.763 923.28 1001.23 923.76 1004.69C924.747 1011.8 925.223 1016.56 925.19 1018.97C925.163 1021.26 924.22 1025.87 922.36 1032.8C922.267 1033.16 922.133 1033.5 921.96 1033.83C921.213 1035.25 919.51 1038.43 916.85 1043.37C915.563 1045.77 915.587 1048.07 916.92 1050.27C918.533 1052.94 920.4 1055.11 922.52 1056.8Z" fill="#2A2A28"/>
<path id="outer_thigh_lower_r" d="M953.63 1306.92C953.517 1314.79 952.68 1323.4 951.12 1332.73C948.847 1346.3 947.37 1354.8 946.69 1358.22C943.077 1376.41 938.407 1397.89 932.68 1422.66C927.63 1444.52 928.89 1467.79 930.82 1490.25C931.93 1503.21 931.97 1517.42 932.89 1531.04C932.177 1536.89 931.627 1542.76 931.24 1548.66C931.027 1551.89 930.563 1554.05 929.85 1555.13C927 1559.48 920.18 1560.82 915.34 1561.12C913.513 1561.23 912.21 1561.07 911.43 1560.64C910.277 1559.99 908.66 1558.09 906.58 1554.94C903.913 1550.9 901.797 1547.56 900.23 1544.91C897.06 1539.53 891.51 1532.69 888.56 1526.25C885.907 1520.43 882.447 1513.04 878.18 1504.08C877.367 1502.38 876.037 1498.78 874.19 1493.29C873.043 1489.88 872.053 1486.18 871.22 1482.18C866.7 1460.33 867.93 1439.96 872.41 1418.29C873.397 1413.5 875.663 1406.32 879.21 1396.75C883.357 1385.56 887.813 1372.27 892.58 1356.88C896.84 1343.11 900.05 1328.23 903.3 1314.53C904.287 1310.34 905.58 1302.24 907.18 1290.23C907.63 1286.86 908.34 1284.47 910.32 1282.04C910.726 1281.54 911.254 1281.16 911.855 1280.93C912.456 1280.69 913.109 1280.62 913.75 1280.71C919.13 1281.48 922.56 1283.99 928.13 1287.35C929.283 1288.05 931.337 1289.16 934.29 1290.67C940.597 1293.9 945.28 1296.81 948.34 1299.4C949.4 1300.31 951.163 1302.81 953.63 1306.92Z" fill="#2A2A28"/>
<path id="outer_thigh_lower_l" d="M557.74 1509.54C557.847 1498.03 558.54 1484.85 559.82 1470.01C560.813 1458.52 560.483 1446.1 558.83 1432.75C558.357 1428.97 556.123 1418.73 552.13 1402.02C548.503 1386.88 545.01 1369.36 541.65 1349.46C539.237 1335.2 537.63 1322.42 536.83 1311.11L540.24 1301.65C540.635 1300.55 541.38 1299.62 542.36 1298.99C544.28 1297.75 546.273 1296.47 548.34 1295.15C553.56 1291.83 560.07 1288.66 564.39 1285.91C567.783 1283.75 571.407 1282.13 575.26 1281.04C580.31 1279.61 582.77 1284.26 583.35 1288.32C586.317 1309.25 589.477 1326.12 592.83 1338.93C597.27 1355.9 600.753 1368.09 603.28 1375.5C610.88 1397.81 614.84 1408.28 618.5 1424.26C622.293 1440.87 622.97 1457.61 620.53 1474.5C620.417 1475.31 619.393 1479.76 617.46 1487.84C616.287 1492.77 614.937 1497.13 613.41 1500.91C608.45 1513.24 604.237 1522.37 600.77 1528.3C594.45 1539.1 588.15 1549.12 581.87 1558.35C580.55 1560.29 578.68 1561.19 576.26 1561.05C572.413 1560.84 568.517 1560.21 564.57 1559.16C558.92 1557.66 558.87 1551.3 558.92 1546.01C558.953 1542.92 558.723 1539.86 558.23 1536.85C558.157 1536.4 558.117 1535.94 558.11 1535.48L557.74 1509.54Z" fill="#2A2A28"/>
<path id="outer_thigh_upper_l" d="M533.71 1286.53C533.33 1282.22 532.867 1277.82 532.32 1273.33C531.627 1267.56 531.183 1263.16 530.99 1260.13C529.87 1242.6 528.43 1229.02 528.99 1212.75C529.423 1200.11 530.163 1188.43 531.21 1177.7C531.663 1173.07 532.65 1165.7 534.17 1155.59C535.35 1147.74 536.617 1140.41 537.97 1133.62C542.843 1109.23 548.573 1085.05 555.16 1061.06C555.493 1060.85 555.757 1060.53 555.95 1060.1C556.023 1059.94 556.135 1059.8 556.275 1059.7C556.414 1059.59 556.578 1059.52 556.75 1059.5C557.45 1059.41 557.823 1059.08 557.87 1058.51C557.875 1058.41 557.919 1058.31 557.993 1058.24C558.068 1058.17 558.166 1058.13 558.27 1058.13C558.283 1058.13 559.28 1057.24 561.26 1055.47C561.515 1055.24 561.829 1055.08 562.17 1055.01C563.99 1054.64 565.603 1055.08 567.01 1056.31C576.85 1064.97 586.07 1075.8 592.68 1087.68C598.01 1097.25 602.12 1104.27 604.27 1114.21C606.337 1123.76 607.053 1133.78 606.42 1144.25C605.64 1157.09 604.327 1168.92 602.48 1179.75C597.72 1207.67 591.18 1235.73 582.71 1263.41C581.79 1266.43 580.36 1269.09 578.42 1271.39C575.09 1275.33 568.9 1277.89 564.03 1280.45C556.99 1284.14 550.58 1288.71 543.79 1292.71C541.943 1293.79 540.187 1293.55 538.52 1291.99C536.947 1290.52 535.343 1288.7 533.71 1286.53Z" fill="#2A2A28"/>
<path id="outer_thigh_upper_r" d="M959.03 1262.86C958.25 1264.91 957.803 1268.21 957.69 1272.75C957.663 1273.74 957.097 1276.36 955.99 1280.61C955.903 1280.95 955.847 1281.3 955.82 1281.65C955.607 1284.39 954.45 1287 952.35 1289.49C950.28 1291.95 947.42 1291.83 944.75 1290.52C941.597 1288.97 938.91 1287.34 936.69 1285.63C934.25 1283.75 929.783 1281.16 923.29 1277.87C919.95 1276.18 915.71 1273.37 913.9 1271.35C910.753 1267.86 908.67 1264.43 907.65 1261.06C901.09 1239.42 896.937 1225.16 895.19 1218.28C893.09 1210.01 891.13 1200.33 889.31 1189.23C886.87 1174.37 885.613 1166.71 885.54 1166.26C883.34 1152.13 882.703 1138.21 883.63 1124.5C884.4 1113.02 889.62 1100.97 895.72 1090.27C898.44 1085.5 902.35 1080.77 905.86 1075.83C906.887 1074.38 908.43 1072.6 910.49 1070.51C914.917 1066 918.927 1061.43 922.52 1056.8C925.227 1055.61 927.113 1054.96 928.18 1054.87C932.24 1054.53 934.9 1058.22 936.02 1061.7C945.96 1092.57 952.57 1126.32 957.33 1159.79C959.003 1171.54 960.103 1183.05 960.63 1194.31C961.317 1209.1 961.56 1220.66 961.36 1229C961.187 1236.27 960.41 1247.55 959.03 1262.86Z" fill="#2A2A28"/>
<path id="lower_abdomen_r" d="M916.41 1042.71C916.13 1042.9 915.97 1043.04 915.93 1043.15C915.277 1044.7 914.327 1045.93 913.08 1046.82C907.12 1051.05 903.46 1054.55 897.95 1058.67C886.177 1067.47 876.803 1074.27 869.83 1079.07C867.43 1080.72 862.447 1084.9 854.88 1091.59C844.69 1100.6 834.04 1112.99 825.29 1121.79C812.963 1134.2 798.63 1143.35 782.29 1149.25C774.44 1152.09 767.29 1152.39 759.32 1152.74C758.811 1152.76 758.309 1152.62 757.889 1152.32C757.47 1152.03 757.158 1151.61 757 1151.12C756.46 1149.43 756.18 1147.48 756.16 1145.25C756.107 1140.3 756.083 1135.36 756.09 1130.43C756.09 1124.96 756.86 1118.19 757.09 1111.75C758.437 1074.68 759.473 1041.85 760.2 1013.25C760.313 1008.8 760.75 1005.05 761.51 1002.01C763.15 995.49 771.18 988.56 776.68 985.1C784.35 980.28 792.22 976.43 800.53 972.19C804.95 969.93 810.02 968.59 814.05 966.29C818.643 963.663 823.513 961.013 828.66 958.34C830.873 957.187 832.64 956.153 833.96 955.24C836.13 953.75 838.66 953.04 841.25 951.45C847.68 947.53 852.12 945.04 856.22 942.13C865.06 935.857 873.213 928.71 880.68 920.69C880.76 920.604 880.837 920.507 880.91 920.4L885.14 913.95C885.228 913.815 885.343 913.699 885.477 913.612C885.612 913.524 885.763 913.465 885.92 913.44C887.44 913.193 888.42 913.6 888.86 914.66C888.958 914.901 889.126 915.104 889.34 915.24C889.793 915.513 890.13 915.853 890.35 916.26C890.937 917.347 891.413 918.543 891.78 919.85C892.08 920.93 892.53 922.137 893.13 923.47C894.977 927.603 896.387 930.557 897.36 932.33C897.473 932.536 897.567 932.757 897.64 932.99C898.413 935.39 899.177 937.093 899.93 938.1C900.003 938.193 900.06 938.297 900.1 938.41L903.39 947.46C903.422 947.556 903.49 947.635 903.58 947.68C903.753 947.767 903.87 947.88 903.93 948.02C905.13 950.833 906.613 954.22 908.38 958.18C908.493 958.439 908.577 958.711 908.63 958.99C908.943 960.663 909.417 962.243 910.05 963.73C912.67 969.87 914.7 977.24 916.03 980.65C916.6 982.12 916.75 983.54 917.05 985.3C917.45 987.59 918.51 989.38 918.84 992.03C918.92 992.663 919.283 994.31 919.93 996.97C920.87 1000.83 921.81 1004.5 922.75 1007.97C922.843 1008.31 922.9 1008.66 922.92 1009.01C923.053 1011.13 923.293 1014.24 923.64 1018.33C923.88 1021.18 923.517 1024.39 922.55 1027.96C921.597 1031.46 920.763 1033.74 920.05 1034.79C919.73 1035.26 919.32 1036.3 918.82 1037.9C918.728 1038.2 918.567 1038.47 918.35 1038.69C917.783 1039.3 917.207 1040.54 916.62 1042.42C916.587 1042.54 916.513 1042.64 916.41 1042.71Z" fill="#2A2A28"/>
<path id="side_abdomen_r" d="M881.74 871.65C883.833 881.783 884.66 891.523 884.22 900.87C884.1 903.51 883.64 905.88 882.84 907.98C882.24 909.56 881.3 911.8 880.02 914.7C878.11 919.02 871.86 925.78 868.72 928.22C863.73 932.11 858.84 936.79 853.14 940.93C848.82 944.08 843.84 946.39 839.23 949.44C837.077 950.86 834.39 952.303 831.17 953.77C826.843 955.743 821.423 958.373 814.91 961.66C811.31 963.48 807.617 964.8 803.83 965.62C803.579 965.674 803.319 965.673 803.069 965.615C802.818 965.557 802.584 965.444 802.381 965.284C802.179 965.125 802.014 964.923 801.898 964.692C801.782 964.462 801.718 964.208 801.71 963.95C801.65 961.777 801.797 959.583 802.15 957.37C804.07 945.21 804.99 933.507 804.91 922.26C804.77 904.23 804.49 890.75 805.52 876.76C807.113 855.04 813.823 835.097 825.65 816.93C830.11 810.06 835.69 804.1 841.27 798.02C843.377 795.72 847.23 792.497 852.83 788.35C862.157 781.443 869.083 776.69 873.61 774.09C875.21 773.17 876.843 772.82 878.51 773.04C881.59 773.45 880.55 777.99 880.23 780.96C880.07 782.447 879.787 784.217 879.38 786.27C877.353 796.49 875.837 805.67 874.83 813.81C874.19 819.037 874.01 823.683 874.29 827.75C874.69 833.65 874.45 839.8 875.67 846.28C876.77 852.087 877.94 857.233 879.18 861.72C880.5 866.46 881.353 869.77 881.74 871.65Z" fill="#2A2A28"/>
<path id="lower_abdomen_l" d="M589.09 946.14C589.083 946.113 589.07 946.087 589.05 946.06C589.004 945.998 588.975 945.926 588.964 945.849C588.954 945.772 588.963 945.693 588.99 945.62C589.69 943.947 590.48 942.377 591.36 940.91C593.46 937.38 594.26 934.48 595.92 929.74C596.08 929.293 596.163 928.913 596.17 928.6C596.183 928.127 596.38 927.75 596.76 927.47C596.955 927.32 597.102 927.115 597.18 926.88C597.66 925.32 598.297 923.977 599.09 922.85C599.301 922.553 599.454 922.217 599.54 921.86C600.18 919.367 601.273 917.483 602.82 916.21C603.507 915.643 604.697 915.463 606.39 915.67C606.722 915.709 607.036 915.849 607.29 916.07C607.443 916.21 609.637 918.477 613.87 922.87C621.13 930.43 629.44 938.07 638.51 943.91C645.23 948.25 649.427 950.993 651.1 952.14C653.927 954.087 657.093 955.843 660.6 957.41C665.45 959.58 672.49 962.68 678.52 966.11C679.06 966.417 681.75 967.79 686.59 970.23C698.09 976.03 703.843 978.933 703.85 978.94C714.04 984 726.9 991.16 729.65 1003.42C729.83 1004.21 729.977 1007.78 730.09 1014.12C730.897 1058.35 731.79 1091.31 732.77 1113C733.51 1129.46 734.06 1139 733.87 1144.43C733.823 1145.8 733.897 1146.68 734.09 1147.08C734.118 1147.13 734.136 1147.19 734.141 1147.26C734.146 1147.32 734.139 1147.38 734.12 1147.44L732.82 1152.28C732.78 1152.43 732.704 1152.57 732.6 1152.69C732.495 1152.8 732.365 1152.89 732.22 1152.94C729.48 1153.91 726.66 1154.1 723.76 1153.52C707.867 1150.34 693.387 1144.16 680.32 1134.97C675.407 1131.52 669.663 1126.3 663.09 1119.31C659.623 1115.63 654.31 1109.89 647.15 1102.1C638.8 1093.02 632.31 1088.26 621.67 1079.72C610.85 1071.04 599.53 1063.18 588.59 1054.97C581.3 1049.49 574.04 1042.14 570.32 1033.48C568.847 1030.05 568.1 1026.59 568.08 1023.11C568.067 1019.64 568.107 1016.05 568.2 1012.32C568.2 1012.09 568.241 1011.86 568.32 1011.64C569.527 1008.16 570.32 1004.63 570.7 1001.05C570.8 1000.12 570.987 999.201 571.26 998.31L581.37 965.79C581.542 965.24 581.795 964.717 582.12 964.24C582.687 963.4 583.027 962.65 583.14 961.99C583.52 959.783 584.11 958.107 584.91 956.96C585.127 956.651 585.264 956.294 585.31 955.92C585.483 954.473 586.227 952.583 587.54 950.25C587.73 949.909 587.833 949.524 587.84 949.13C587.853 948.217 588.21 947.443 588.91 946.81C589 946.725 589.065 946.618 589.096 946.499C589.128 946.381 589.126 946.256 589.09 946.14Z" fill="#2A2A28"/>
<path id="side_abdomen_l" d="M689.25 965.29C687.483 965.177 685.46 964.68 683.18 963.8C678.78 962.1 670.9 957.44 665.01 955.06C657.37 951.98 651.39 947.94 643.53 943.1C637.19 939.2 633.42 935.89 626.9 930.84C621.353 926.54 616.383 920.94 611.99 914.04C609.07 909.453 607.63 904.53 607.67 899.27C607.743 888.103 609.003 877.927 611.45 868.74C613.197 862.18 614.743 856.663 616.09 852.19C616.95 849.32 617.79 844.44 617.96 842.24C618.64 833.64 619.22 823.54 618.37 813.51C617.563 804.003 616.013 794.09 613.72 783.77C613.18 781.36 611.96 776.03 613.36 774.33C613.659 773.965 614.081 773.715 614.558 773.62C615.035 773.526 615.539 773.593 615.99 773.81C628.83 779.99 640.227 788.077 650.18 798.07C658.78 806.7 666.43 816.14 672.37 827.51C679.697 841.537 684.13 856.363 685.67 871.99C686.097 876.35 686.367 883.27 686.48 892.75C686.56 899.143 686.613 910.727 686.64 927.5C686.66 939.51 688.59 951.85 690.76 963.59C690.8 963.806 690.79 964.028 690.732 964.239C690.673 964.45 690.567 964.645 690.421 964.809C690.275 964.973 690.094 965.102 689.891 965.185C689.688 965.269 689.469 965.304 689.25 965.29Z" fill="#2A2A28"/>
</g>
</svg>
