<svg width="1491" height="2109" viewBox="0 0 1491 2109" fill="none" xmlns="http://www.w3.org/2000/svg">
<g id="Fem_IM_Frontt 1">
<path id="body_shell" d="M744.813 87.272C767.373 85.5321 789.233 92.1221 806.063 107.522C821.923 122.022 829.674 145.112 822.254 165.762C821.494 167.869 819.963 171.256 817.663 175.922C817.525 176.205 817.464 176.518 817.483 176.833C817.543 177.899 817.95 178.852 818.703 179.692C827.21 189.092 833.803 199.586 838.483 211.172C845.343 228.142 849.093 246.962 848.813 264.092C848.64 274.286 846.533 284.309 842.493 294.163C842.275 294.696 842.252 295.288 842.428 295.836C842.603 296.385 842.966 296.855 843.453 297.163C846.933 299.349 849.66 302.385 851.634 306.272C853.674 310.292 852.473 313.812 850.323 317.852C847.276 323.572 843.543 329.956 839.123 337.003C836.553 341.092 835.623 343.362 833.663 347.532C830.993 353.222 827.233 355.963 820.533 353.163C819.033 352.536 818.094 352.989 817.714 354.522C815.694 362.695 812.807 370.972 809.054 379.352C805.844 386.492 802.773 391.292 802.623 397.932C802.273 413.522 801.803 428.562 802.783 443.572C803.503 454.622 808.724 460.442 817.544 466.992C824.99 472.532 830.171 476.149 833.084 477.842C842.404 483.272 854.523 490.012 865.233 493.182C873 495.476 879.833 496.898 885.733 497.452C888.193 497.685 893.317 497.842 901.103 497.922C912.433 497.852 924.564 499.162 935.044 503.612C944.804 507.752 956.123 514.802 962.943 522.282C969.433 529.402 975.004 539.292 978.964 549.072C983.41 560.045 986.803 571.195 989.143 582.522C989.663 585.069 990.123 589.186 990.523 594.873C990.57 599.386 990.583 603.899 990.563 608.413C990.557 610.1 990.643 614.38 990.823 621.253C990.963 626.472 990.984 630.749 990.884 634.083C990.737 639.243 991.243 647.369 992.403 658.462C993.05 664.609 994.59 672.602 997.023 682.442C1001.32 699.782 1004.63 713.672 1006.95 724.112C1011.87 746.272 1018.1 768.772 1025.83 792.072C1026.95 795.439 1030.34 803.736 1035.98 816.962C1036.53 818.249 1037.34 819.682 1038.41 821.262C1051.61 840.812 1064.05 859.912 1071.21 880.652C1077.35 898.462 1082.95 919.373 1089.67 945.873C1094.09 963.292 1097.54 973.713 1103.8 992.623C1109.8 1010.74 1117.29 1026.52 1126.46 1044.02C1128.58 1048.07 1131.55 1050.74 1135.35 1052.03C1145.73 1055.56 1160.29 1061.23 1171.53 1068C1175.77 1070.56 1180.76 1073.11 1186.48 1075.67C1189.03 1076.81 1191.54 1078.26 1194.02 1080.01C1195.47 1081.03 1197.51 1083.08 1200.13 1086.17C1209.63 1097.33 1215.35 1104.15 1217.29 1106.65C1221.04 1111.46 1224.52 1115.15 1227.72 1117.71C1233.14 1122.06 1237.22 1125.13 1239.95 1126.91C1244.85 1130.1 1243.72 1135.18 1239.06 1137.55C1226.69 1143.87 1213.82 1135.74 1204.94 1127.23C1200.42 1122.9 1195.8 1119.56 1191.36 1117.06C1190.09 1116.34 1188.85 1116.02 1187.65 1116.1C1187.14 1116.14 1186.66 1116.35 1186.28 1116.71C1185.91 1117.06 1185.66 1117.54 1185.59 1118.06C1185.31 1120.22 1185.34 1122.35 1185.7 1124.46C1187.63 1135.7 1191.33 1145.4 1194.99 1156.08C1199.86 1170.24 1206.84 1183.59 1212.06 1197.57C1213.46 1201.33 1215.46 1205.86 1218.04 1211.18C1218.99 1213.14 1219.57 1215.52 1219.78 1218.32C1220.13 1223 1218.51 1226.14 1214.92 1227.74C1203.61 1232.77 1197.37 1216.94 1194.53 1209.39C1193.7 1207.18 1192.41 1204.46 1190.66 1201.24C1186.62 1193.8 1182.35 1185.07 1177.85 1175.05C1176.72 1172.53 1175.55 1170.53 1174.34 1169.07C1173.93 1168.57 1173.59 1168.29 1173.33 1168.24C1173.18 1168.21 1173.02 1168.23 1172.87 1168.29C1172.73 1168.35 1172.59 1168.45 1172.49 1168.59C1172.38 1168.73 1172.3 1168.9 1172.26 1169.08C1172.22 1169.26 1172.22 1169.46 1172.25 1169.64C1172.69 1171.84 1173.21 1173.76 1173.83 1175.39C1182.81 1198.93 1189.78 1219.04 1194.74 1235.7C1196.6 1241.94 1194.79 1249.69 1187.4 1250.54C1177.41 1251.7 1173.17 1233.48 1170.23 1226.8C1165.67 1216.45 1161.65 1204.12 1157.94 1194.99C1155.04 1187.88 1153.07 1182.84 1152.03 1179.88C1151.71 1178.94 1151.16 1178.15 1150.39 1177.51C1150.27 1177.41 1150.12 1177.34 1149.95 1177.31C1149.79 1177.29 1149.63 1177.31 1149.48 1177.37C1149.33 1177.43 1149.2 1177.54 1149.1 1177.67C1149 1177.8 1148.95 1177.96 1148.93 1178.12C1148.91 1178.4 1148.94 1178.74 1149 1179.14C1150.3 1186.4 1152.61 1194.65 1155.93 1203.89C1159.3 1213.24 1161.98 1220.97 1164.24 1230.13C1165.59 1235.59 1167.23 1241.74 1160.59 1244.66C1151.52 1248.63 1146.32 1234.41 1142.94 1226.83C1141.32 1223.19 1139.74 1219.08 1138.22 1214.5C1136.83 1210.32 1134.96 1204.93 1132.6 1198.32C1130.93 1193.62 1128.98 1186.56 1126.74 1177.14C1126.7 1176.94 1126.6 1176.75 1126.47 1176.58C1126.34 1176.42 1126.17 1176.29 1125.98 1176.2C1125.79 1176.11 1125.58 1176.06 1125.37 1176.06C1125.16 1176.06 1124.95 1176.11 1124.76 1176.2L1124.62 1176.27C1124.19 1176.48 1123.84 1176.84 1123.63 1177.27C1123.43 1177.71 1123.38 1178.21 1123.5 1178.68C1125.74 1187.3 1127.48 1195.5 1128.71 1203.28C1129.41 1207.73 1130.77 1213.71 1130.86 1219.33C1130.95 1225 1124.83 1228.19 1120.22 1225.38C1116.81 1223.3 1114.55 1219.99 1113.43 1215.45C1111.61 1208.01 1110.97 1201.09 1109.01 1193.04C1104.67 1175.28 1099.66 1157.57 1093.98 1139.91C1092.65 1135.77 1091.21 1129.32 1089.66 1120.56C1087.53 1108.48 1085.58 1097.32 1083.81 1087.08C1082.71 1080.76 1080.75 1074.37 1077.17 1068.19C1065.18 1047.49 1051.32 1027.13 1036.6 1005.36C1028.94 994.022 1014.17 970.592 992.304 935.072C987.034 926.502 982.053 916.693 976.893 907.913C970.233 896.553 964.483 884.582 961.413 874.262C959.666 868.389 958.074 861.158 956.634 852.572C955.147 843.686 954.303 838.206 954.103 836.132C953.737 832.366 952.726 827.972 951.073 822.952C949.763 818.982 948.294 811.502 945.884 805.132C944.837 802.373 944.24 800.819 944.094 800.472C942.98 797.746 941.08 792.869 938.393 785.842C937.66 783.942 935.747 779.075 932.653 771.242C925.707 753.682 921.171 741.896 919.044 735.882C918.491 734.322 916.83 728.995 914.063 719.902C912.133 713.552 911.444 709.192 910.014 702.402C909.807 701.435 909.326 700.682 908.573 700.142C908.405 700.021 908.212 699.94 908.009 699.905C907.805 699.87 907.595 699.881 907.396 699.939C907.198 699.997 907.015 700.1 906.862 700.239C906.709 700.378 906.59 700.55 906.514 700.742C903.094 709.495 899.093 718.245 894.514 726.992C891.884 732.002 889.574 739.532 888.054 743.882C882.5 759.716 878.073 774.592 874.773 788.512C870.373 807.099 868.196 826.189 868.243 845.782C868.25 847.828 868.394 850.522 868.674 853.862C868.895 856.539 869.03 858.934 869.078 861.045L869.094 861.932L869.69 864.619C872.678 877.882 875.712 888.62 878.793 896.833C879.093 897.626 881.197 902.513 885.103 911.492C886.583 914.898 888.88 919.706 891.993 925.913C898.263 938.423 902.153 947.832 908.863 963.102C913.863 974.462 918.186 986.373 921.833 998.833C928.86 1022.85 934.44 1046.78 938.573 1070.6C940.013 1075.99 941.373 1081.39 942.653 1086.81C943.126 1088.82 943.402 1090.78 943.481 1092.69L943.504 1093.51C944.474 1098.44 945.793 1103.45 946.563 1108.15C949.083 1123.67 950.827 1136.56 951.794 1146.84C952.547 1154.83 953.217 1161.74 953.804 1167.58C954.617 1175.67 955.067 1181.66 955.153 1185.55C955.313 1192.73 956.033 1201.68 955.933 1209.6C955.507 1245 952.577 1279.52 947.143 1313.18C942.837 1339.89 937.246 1367.18 930.373 1395.04C928.183 1407.7 924.113 1420.75 922.603 1431.84C921.743 1438.14 921.313 1447.31 921.313 1459.34C921.303 1477.5 923.253 1497 924.413 1516.22C924.733 1521.47 925.7 1526.85 927.313 1532.37C930.947 1544.78 935.1 1559.03 939.773 1575.11C943.893 1589.3 947.714 1605.01 949.834 1619.7C954.841 1654.36 954.12 1689.03 947.674 1723.72C946.314 1731.01 944.123 1741.8 941.103 1756.09C934.813 1785.77 929.973 1813.35 925.183 1844.17C923.937 1852.23 923.237 1860.62 923.084 1869.34C922.974 1875.21 923.673 1881.35 925.143 1887.12C925.843 1889.85 926.564 1892.95 927.304 1896.43C929.214 1905.4 929.454 1912.87 929.714 1922.95C929.814 1927.09 931.08 1931.08 933.514 1934.92C938.394 1942.67 943.334 1949.81 948.334 1956.33C949.314 1957.6 951.614 1959.79 953.334 1960.98C957.444 1963.8 962.743 1967.68 967.523 1970.17C970.943 1971.95 975.15 1974.22 980.143 1976.97C987.473 1981.01 992.194 1989.86 989.834 1998.31C988.661 2002.53 986.01 2005.54 981.884 2007.36C977.27 2009.4 974.067 2010.71 972.273 2011.27C964.22 2013.81 954.766 2016.07 943.913 2018.04C937.663 2019.17 931.123 2018.78 924.953 2020C917.433 2021.5 908.223 2022.34 902.014 2020.9C891.384 2018.43 881.564 2013.28 879.393 2002.54C878.987 2000.54 878.563 1997.81 878.123 1994.37C878.028 1993.62 877.709 1992.92 877.208 1992.36C876.707 1991.8 876.046 1991.4 875.313 1991.21C863.363 1988.26 859.483 1982.49 860.623 1970.1C860.69 1969.35 861.883 1961.2 864.203 1945.66C865.213 1938.85 865.414 1929.95 864.794 1920.47C863.854 1905.94 864.824 1894.89 866.424 1877.73C868.134 1859.35 864.893 1840.8 860.933 1820.67C859.053 1811.1 855.847 1796.08 851.313 1775.6C847.6 1758.85 843.42 1744.53 838.773 1732.64C835.983 1725.51 834.443 1720.05 831.733 1712.18C826.08 1695.8 823.09 1678.76 822.764 1661.08C822.464 1644.9 822.644 1629.54 823.304 1613.09C823.977 1596.35 824.1 1582.91 823.674 1572.79C823.347 1565.28 822.25 1557.87 820.384 1550.57C818.414 1542.9 813.134 1532.81 810.584 1527.11C801.074 1505.85 796.223 1481.12 793.233 1457.75C791.62 1445.13 790.197 1433.4 788.964 1422.55C787.054 1405.73 785.483 1396.78 783.823 1381.72C782.183 1366.91 780.553 1354.76 778.933 1345.26C778.404 1342.17 777.494 1336.7 776.174 1332.12C772.7 1320.02 770.687 1312.84 770.134 1310.56C759.534 1266.96 752.943 1222.88 750.363 1178.33C749.93 1170.91 750.177 1163.59 751.103 1156.37C751.269 1155.08 751.204 1153.76 750.913 1152.48C750.146 1149.14 749.477 1145 748.903 1140.05C748.683 1138.18 747.726 1137.2 746.033 1137.1C742.633 1136.91 739.11 1136.82 735.464 1136.83C734.962 1136.83 734.476 1137.01 734.089 1137.33C733.702 1137.65 733.439 1138.1 733.344 1138.59L730.413 1153.76C730.386 1153.92 730.377 1154.09 730.384 1154.25C730.844 1162.83 731.083 1168.58 730.403 1177.61C727.503 1216.01 722.337 1253.55 714.903 1290.22C712.397 1302.58 708.733 1316.31 703.913 1331.41C702.093 1337.11 701.053 1342.74 700.103 1348.83C696.857 1369.57 693.89 1391.96 691.203 1416.01C690.383 1423.4 689.523 1429.59 688.743 1438.07C688.236 1443.49 686.72 1455.62 684.193 1474.48C682.787 1484.99 681.47 1492.52 680.243 1497.06C677.623 1506.77 675.346 1514.06 673.413 1518.93C672.193 1522.01 668.977 1528.85 663.764 1539.47C658.95 1549.29 655.827 1559.16 654.393 1569.09C653.283 1576.69 653.133 1588.22 653.613 1598.42C653.92 1605.02 654.554 1620.66 655.514 1645.33C656.074 1659.62 655.42 1673.29 653.554 1686.34C651.754 1698.95 647.843 1711.36 642.313 1726.81C633.333 1751.92 626.36 1778.27 621.393 1805.85C617.943 1825.04 613.984 1846.74 613.594 1867.83C613.56 1869.8 613.65 1872.19 613.863 1875.01C614.323 1881.05 616.833 1888.84 617.493 1893.15C618.653 1900.67 618.876 1906.41 618.163 1910.37C616.716 1918.41 615.847 1924.23 615.554 1927.83C615.307 1930.91 615.536 1935.41 616.243 1941.35C617.043 1948.05 618.51 1959.37 620.643 1975.31C620.757 1976.14 620.724 1977.88 620.544 1980.54C619.964 1989.04 611.343 1989.71 604.653 1990.85C604.171 1990.93 603.727 1991.17 603.392 1991.52C603.056 1991.88 602.846 1992.34 602.794 1992.82C602.594 1994.62 602.457 1996.17 602.384 1997.47C601.954 2005.48 597.154 2012.72 590.964 2016.28C579.674 2022.76 566.984 2022.17 554.214 2020.02C551.781 2019.61 547.654 2019.16 541.834 2018.67C540.327 2018.55 539.307 2018.46 538.773 2018.41C537.84 2018.34 536.837 2018.17 535.764 2017.89C530.044 2016.43 523.757 2014.96 516.903 2013.48C515.263 2013.13 511.48 2011.86 505.554 2009.67C498.304 2007 493.463 2005.17 491.603 1997.88C489.063 1987.89 493.694 1979.93 502.554 1975.8C513.693 1970.61 521.163 1965.97 529.533 1958.22C532.393 1955.58 535.45 1951.73 538.703 1946.68C543.003 1940.02 545.937 1935.3 547.504 1932.52C549.084 1929.71 549.993 1927.31 550.283 1924.01C551.143 1914.27 552.387 1904.77 554.014 1895.51C555.554 1886.75 556.366 1880.75 556.453 1877.52C556.64 1870.42 556.613 1864.35 556.373 1859.32C556.106 1853.64 554.91 1843.98 552.783 1830.34C549.523 1809.36 544.573 1784.23 539.563 1760.1C533.883 1732.72 529.174 1706.22 527.554 1679.34C526.1 1655.24 527.75 1631.23 532.504 1607.3C536.664 1586.35 542.146 1566.06 548.953 1546.42C550.026 1543.32 551.763 1535.97 554.163 1524.37C556.343 1513.84 555.973 1505.18 556.313 1492.11C556.387 1489.41 556.647 1484.72 557.094 1478.04C558.107 1462.94 557.973 1447.7 556.693 1432.34C556.347 1428.2 555.897 1424.83 555.344 1422.24C554.404 1417.83 554.123 1413.64 553.063 1408.8C551.197 1400.3 549.46 1391.48 547.853 1382.34L547.085 1379.65C543.248 1365.97 539.51 1349.09 535.873 1329.02C532.893 1312.54 531.073 1301.52 530.413 1295.97C528.226 1277.45 526.897 1265.15 526.424 1259.06C525.244 1243.75 523.663 1220.36 524.333 1199.58C525.053 1177.42 527.187 1154.28 530.733 1130.16C532.24 1119.92 533.853 1110.73 535.573 1102.59L536.913 1096.87C537.019 1096.42 537.077 1095.95 537.084 1095.48C537.104 1092.71 537.557 1089.96 538.443 1087.24C538.629 1086.68 538.757 1086.11 538.823 1085.52C539.376 1080.62 540.347 1075.78 541.733 1071C542.493 1068.52 543.31 1064.49 544.183 1058.9C544.537 1056.66 546.153 1049.79 549.033 1038.29C550.213 1033.6 551.973 1026.76 554.313 1017.77C558.073 1003.37 561.984 990.789 566.044 980.043C569.137 971.849 573.663 961.126 579.623 947.873C582.656 941.133 589.85 927.549 601.203 907.123C601.97 905.743 602.544 904.566 602.924 903.592C603.337 902.539 603.787 901.305 604.273 899.892C608.44 887.792 611.706 875.039 614.073 861.632L614.197 860.281C616.707 831.915 613.746 803.876 605.313 776.163C602.483 766.853 599.083 758.502 595.773 749.702C593.133 742.672 591.154 735.132 589.094 728.592C587.974 725.052 584.053 720.683 582.273 717.083C580.687 713.876 579.493 711.012 578.693 708.492C578.333 707.365 577.593 706.106 576.474 704.712C576.409 704.631 576.321 704.571 576.223 704.539C576.124 704.507 576.018 704.504 575.918 704.532C575.818 704.56 575.727 704.616 575.659 704.694C575.591 704.772 575.547 704.869 575.533 704.972C574.4 712.599 572.427 720.069 569.613 727.382C565.012 742.185 561.161 756.396 554.016 770.943L553.313 772.352C548.833 782.639 544.253 792.892 539.573 803.112C539.066 804.219 537.553 808.582 535.033 816.202C533.626 820.455 532.503 824.929 531.663 829.623C529.153 843.652 527.163 857.332 523.853 870.352C520.793 882.412 515.294 891.762 508.134 905.152C506.64 907.939 500.977 917.529 491.143 933.922C478.223 955.462 464.523 975.872 451.183 996.472C449.39 999.246 447.436 1002.12 445.323 1005.1C442.503 1009.08 440.053 1013.6 437.373 1017.46C428.846 1029.76 420.48 1042.78 412.273 1056.54C407.58 1064.42 403.86 1073.02 401.113 1082.33C399.913 1086.4 398.46 1094.1 396.754 1105.44C394.294 1121.8 390.37 1138.65 384.983 1156C381.71 1166.54 379.193 1174.95 377.433 1181.21C374.647 1191.13 371.803 1203.3 368.903 1217.7C367.643 1223.94 360.133 1230.11 354.483 1224.18C352.15 1221.73 351.397 1218.57 352.224 1214.71C353.444 1208.99 355.224 1203.59 356.174 1197.3C357.354 1189.48 358.57 1183.58 359.823 1179.6C360.25 1178.26 360.023 1177.31 359.143 1176.73C358.915 1176.58 358.653 1176.49 358.382 1176.46C358.11 1176.43 357.835 1176.46 357.581 1176.56C357.327 1176.66 357.1 1176.81 356.92 1177.02C356.739 1177.22 356.611 1177.46 356.544 1177.72C351.674 1196.71 346.173 1216.83 338.493 1234.48C336.073 1240.05 330.533 1248.09 323.193 1243.98C317.514 1240.79 318.564 1235.56 320.054 1229.71C321.947 1222.32 324.977 1212.66 329.143 1200.73C331.31 1194.54 333.287 1186.66 335.073 1177.08C335.104 1176.93 335.09 1176.77 335.032 1176.62C334.974 1176.48 334.875 1176.35 334.747 1176.26C334.619 1176.17 334.466 1176.12 334.308 1176.11C334.149 1176.1 333.992 1176.14 333.853 1176.21L333.823 1176.22C332.827 1176.79 332.057 1177.68 331.643 1178.74C327.243 1190.19 324.334 1201.14 319.674 1212.56C316.84 1219.52 313.717 1227.68 310.304 1237.06C308.204 1242.85 302.313 1254.02 294.323 1248.57C288.694 1244.73 289.453 1237.25 291.353 1231.6C293.6 1224.91 299.22 1208.43 308.214 1182.16C309.894 1177.25 312.163 1172.59 313.283 1167.66C313.337 1167.42 313.351 1167.17 313.323 1166.93C313.295 1166.69 313.227 1166.46 313.121 1166.26C313.015 1166.06 312.875 1165.89 312.709 1165.76C312.543 1165.63 312.354 1165.55 312.153 1165.51C311.293 1165.35 310.55 1165.84 309.924 1166.96C307.944 1170.56 306.613 1174.41 304.523 1178.56C298.743 1189.98 294.123 1199.07 289.643 1210.01C287.497 1215.26 284.876 1220.01 281.783 1224.27C279.173 1227.86 274.794 1230.1 270.554 1228.03C265.774 1225.69 265.094 1222 265.714 1216.96C266.134 1213.5 267.194 1209.91 268.893 1206.17C275.723 1191.13 280.024 1182.46 284.474 1170.84C288.354 1160.71 294.433 1148.78 297.813 1138.74C299.813 1132.83 301.284 1126.77 302.224 1120.56C302.733 1117.19 299.453 1112.71 295.623 1115.63C290.963 1119.18 286.234 1122.71 281.884 1126.58C278.31 1129.76 274.563 1132.52 270.643 1134.87C263.884 1138.93 253.874 1141.21 246.544 1137.51C242.814 1135.63 241.603 1130.83 244.993 1128.22C260.423 1116.35 271.923 1102.47 283.523 1086.79C288.593 1079.94 293.583 1076.43 302.033 1072.72C308.18 1070.02 316.037 1066.21 325.603 1061.28C333.113 1057.41 339.804 1055.33 346.853 1052.62C350.187 1051.35 352.83 1049.67 354.783 1047.57C355.24 1047.08 355.621 1046.53 355.913 1045.92C358.713 1040.09 361.873 1033.85 365.393 1027.2C368.067 1022.15 371.817 1013.4 376.643 1000.95C383.573 983.092 390.163 963.092 395.993 941.482C396.387 940.015 398.91 930.722 403.563 913.602C406.203 903.882 410.054 892.182 414.143 880.333C419.49 864.826 427.106 849.622 436.993 834.722C440.613 829.262 443.906 824.159 446.873 819.413C448.6 816.646 450.917 811.456 453.823 803.842C462.453 781.263 470.773 758.722 476.913 732.413C481.52 712.666 484.51 699.252 485.884 692.172C487.817 682.199 489.467 673.756 490.834 666.842C492.824 656.812 492.753 643.062 493.193 631.503C493.523 622.833 493.324 613.732 493.714 604.812L493.888 603.208C495.754 586.636 499.619 570.471 505.483 554.712C509.823 543.032 515.704 531.172 523.754 521.742C527.664 517.162 532.843 513.572 538.363 510.142C554.703 499.972 573.664 496.632 592.754 497.422C595.88 497.029 598.984 496.653 602.063 496.293C614.103 494.879 625.257 491.549 635.523 486.302C648.543 479.642 658.474 474.973 668.974 467.833C678.094 461.643 682.914 453.842 684.384 443.092C686.544 427.192 685.384 411.492 684.674 394.822C684.567 392.375 684.124 390.259 683.344 388.472C680.657 382.339 679.303 379.248 679.283 379.202C675.963 372.192 674.164 364.012 672.754 356.222C672.104 352.653 666.464 353.802 664.584 353.772C664.267 353.772 663.951 353.715 663.653 353.602C660.733 352.542 658.767 350.816 657.754 348.422C655.554 343.243 653.794 339.519 652.474 337.253C646.554 327.133 638.094 315.103 641.974 305.703C643.6 301.776 646.377 298.855 650.304 296.942C650.648 296.775 650.919 296.486 651.064 296.132C651.21 295.778 651.22 295.383 651.094 295.022C648.044 286.232 645.794 277.402 645.254 267.882C644.374 252.162 646.574 237.372 650.804 222.762C655.757 205.669 664.524 190.526 677.103 177.333C677.394 177.031 677.589 176.65 677.664 176.239C677.739 175.828 677.689 175.404 677.523 175.022C667.213 151.202 673.423 122.302 693.493 106.222C697.886 102.709 703.437 99.2223 710.143 95.7623C720.653 90.3423 732.973 88.192 744.813 87.272ZM587.333 1360.29H587.334H587.333ZM581.293 1340.73H581.294H581.293ZM570.184 1308.71C570.172 1308.71 570.157 1308.71 570.144 1308.71C570.157 1308.71 570.172 1308.71 570.184 1308.71V1308.71ZM569.823 1302.95C569.829 1302.97 569.84 1302.98 569.854 1302.99V1302.99C569.84 1302.98 569.829 1302.97 569.823 1302.95V1302.95ZM559.833 1132.95L559.834 1132.95L559.833 1132.95ZM536.188 1102.92H536.189H536.188ZM914.845 1082.96H914.846H914.845ZM574.183 1046.2V1046.2V1046.2ZM905.072 1045.11C905.015 1045.15 904.962 1045.19 904.911 1045.23C904.962 1045.19 905.015 1045.15 905.072 1045.11V1045.11ZM577.895 1044.82C577.904 1044.85 577.91 1044.87 577.915 1044.9C577.91 1044.87 577.905 1044.85 577.896 1044.82C577.885 1044.79 577.869 1044.75 577.85 1044.72C577.869 1044.75 577.884 1044.79 577.895 1044.82ZM544.293 784.808C543.83 785.676 543.353 786.537 542.868 787.394C543.353 786.537 543.83 785.676 544.293 784.808Z" fill="#2A2A28"/>
<path id="body_base" d="M901.03 497.59L902.88 497.76C902.904 497.76 902.927 497.769 902.944 497.786C902.961 497.803 902.97 497.826 902.97 497.85C902.97 497.874 902.961 497.897 902.944 497.914C902.927 497.931 902.904 497.94 902.88 497.94L890.17 500C890.059 500.02 889.955 500.068 889.87 500.14C889.23 500.68 888.697 500.96 888.27 500.98C883.483 501.227 880.357 501.613 878.89 502.14C868.497 505.833 859.05 510.997 850.55 517.63C846.19 521.03 838.46 527.63 844.28 533.06C845.6 534.3 847.54 534.73 849.14 535.61C849.92 536.03 851.193 536.577 852.96 537.25C857.667 539.037 860.567 540.233 861.66 540.84C867.113 543.873 872.08 546.573 876.56 548.94C879.407 550.447 884.223 554.053 891.01 559.76C895.517 563.547 899.23 567.513 902.15 571.66C906.43 577.72 909.95 582.15 913.15 588.38C917.543 596.94 919.827 601.373 920 601.68C922.05 605.33 924.34 608.69 926.18 611.87C927.32 613.843 929.08 616.247 931.46 619.08C934.547 622.747 937.28 625.92 939.66 628.6C940.253 629.273 940.593 629.963 940.68 630.67C940.712 630.91 940.822 631.128 940.99 631.29L945.23 635.41C945.31 635.483 945.4 635.55 945.5 635.61C949.493 637.91 953.193 640.197 956.6 642.47C962.71 646.54 967.59 649.19 973.68 652.72C976.08 654.1 977.33 655.42 979.77 657.32C981.997 659.047 983.683 659.527 984.83 658.76C986.11 657.907 986.85 656.733 987.05 655.24C987.63 650.96 988.067 644.88 988.36 637C988.407 635.767 988.497 634.74 988.63 633.92C988.701 633.511 988.743 633.17 988.75 632.94L990.45 594.54C990.497 599.053 990.51 603.567 990.49 608.08C990.483 609.767 990.57 614.047 990.75 620.92C990.89 626.14 990.91 630.417 990.81 633.75C990.663 638.91 991.17 647.037 992.33 658.13C992.977 664.277 994.517 672.27 996.95 682.11C1001.25 699.45 1004.56 713.34 1006.88 723.78C1011.8 745.94 1018.03 768.44 1025.76 791.74C1026.88 795.107 1030.26 803.403 1035.91 816.63C1036.46 817.917 1037.27 819.35 1038.34 820.93C1051.54 840.48 1063.98 859.58 1071.14 880.32C1077.28 898.13 1082.88 919.04 1089.6 945.54C1094.02 962.96 1097.47 973.38 1103.73 992.29C1109.73 1010.41 1117.22 1026.19 1126.39 1043.69C1128.51 1047.74 1131.47 1050.41 1135.28 1051.7C1145.66 1055.23 1160.22 1060.9 1171.46 1067.67C1175.7 1070.22 1180.68 1072.78 1186.41 1075.34C1188.96 1076.48 1191.47 1077.93 1193.95 1079.68C1195.4 1080.69 1197.43 1082.75 1200.06 1085.84C1209.55 1096.99 1215.27 1103.82 1217.22 1106.32C1220.97 1111.13 1224.44 1114.81 1227.65 1117.38C1233.07 1121.73 1237.15 1124.79 1239.88 1126.58C1244.78 1129.77 1243.65 1134.85 1238.99 1137.22C1226.62 1143.54 1213.75 1135.41 1204.87 1126.9C1200.35 1122.57 1195.73 1119.23 1191.29 1116.73C1190.02 1116.01 1188.78 1115.69 1187.58 1115.77C1187.07 1115.8 1186.58 1116.02 1186.21 1116.37C1185.83 1116.73 1185.59 1117.21 1185.52 1117.73C1185.23 1119.88 1185.27 1122.02 1185.63 1124.13C1187.56 1135.37 1191.26 1145.07 1194.92 1155.75C1199.79 1169.91 1206.77 1183.26 1211.99 1197.24C1213.39 1200.99 1215.38 1205.53 1217.97 1210.85C1218.92 1212.81 1219.5 1215.19 1219.71 1217.99C1220.06 1222.67 1218.44 1225.81 1214.85 1227.41C1203.54 1232.44 1197.3 1216.61 1194.46 1209.06C1193.63 1206.85 1192.34 1204.13 1190.59 1200.91C1186.54 1193.46 1182.27 1184.73 1177.78 1174.72C1176.65 1172.19 1175.48 1170.2 1174.27 1168.74C1173.86 1168.23 1173.52 1167.96 1173.26 1167.91C1173.11 1167.88 1172.95 1167.89 1172.8 1167.95C1172.65 1168.01 1172.52 1168.12 1172.41 1168.26C1172.31 1168.39 1172.23 1168.56 1172.19 1168.75C1172.15 1168.93 1172.15 1169.12 1172.18 1169.31C1172.61 1171.51 1173.14 1173.43 1173.76 1175.06C1182.74 1198.6 1189.71 1218.7 1194.67 1235.37C1196.53 1241.61 1194.72 1249.36 1187.33 1250.21C1177.34 1251.37 1173.1 1233.15 1170.16 1226.47C1165.6 1216.12 1161.58 1203.79 1157.87 1194.66C1154.97 1187.55 1153 1182.51 1151.96 1179.55C1151.63 1178.6 1151.09 1177.81 1150.32 1177.18C1150.19 1177.07 1150.04 1177.01 1149.88 1176.98C1149.72 1176.96 1149.55 1176.98 1149.4 1177.04C1149.25 1177.1 1149.12 1177.21 1149.03 1177.34C1148.93 1177.47 1148.87 1177.63 1148.86 1177.79C1148.84 1178.06 1148.86 1178.4 1148.93 1178.81C1150.23 1186.07 1152.54 1194.32 1155.86 1203.56C1159.23 1212.91 1161.91 1220.64 1164.17 1229.8C1165.52 1235.26 1167.16 1241.41 1160.52 1244.33C1151.45 1248.3 1146.25 1234.08 1142.87 1226.5C1141.24 1222.85 1139.67 1218.74 1138.15 1214.17C1136.76 1209.99 1134.88 1204.6 1132.53 1197.99C1130.86 1193.29 1128.9 1186.23 1126.67 1176.81C1126.62 1176.61 1126.53 1176.42 1126.4 1176.25C1126.27 1176.09 1126.1 1175.96 1125.91 1175.87C1125.72 1175.78 1125.51 1175.73 1125.3 1175.73C1125.09 1175.73 1124.88 1175.78 1124.69 1175.87L1124.55 1175.94C1124.11 1176.15 1123.76 1176.5 1123.56 1176.94C1123.36 1177.38 1123.31 1177.88 1123.43 1178.35C1125.67 1186.97 1127.41 1195.17 1128.64 1202.95C1129.34 1207.4 1130.7 1213.38 1130.79 1219C1130.88 1224.67 1124.76 1227.86 1120.15 1225.05C1116.74 1222.97 1114.47 1219.66 1113.36 1215.12C1111.54 1207.68 1110.9 1200.76 1108.94 1192.71C1104.6 1174.94 1099.59 1157.23 1093.91 1139.58C1092.58 1135.44 1091.14 1128.99 1089.59 1120.23C1087.46 1108.14 1085.51 1096.98 1083.74 1086.75C1082.64 1080.43 1080.68 1074.04 1077.1 1067.86C1065.11 1047.16 1051.25 1026.8 1036.53 1005.03C1028.86 993.69 1014.1 970.26 992.23 934.74C986.96 926.17 981.98 916.36 976.82 907.58C970.16 896.22 964.41 884.25 961.34 873.93C959.593 868.057 958 860.827 956.56 852.24C955.073 843.353 954.23 837.873 954.03 835.8C953.663 832.033 952.653 827.64 951 822.62C949.69 818.65 948.22 811.17 945.81 804.8C944.763 802.04 944.167 800.487 944.02 800.14C942.907 797.413 941.007 792.537 938.32 785.51C937.587 783.61 935.673 778.743 932.58 770.91C925.633 753.35 921.097 741.563 918.97 735.55C918.417 733.99 916.757 728.663 913.99 719.57C912.06 713.22 911.37 708.86 909.94 702.07C909.733 701.103 909.253 700.35 908.5 699.81C908.332 699.689 908.139 699.608 907.935 699.572C907.731 699.537 907.522 699.549 907.323 699.607C907.125 699.665 906.942 699.767 906.789 699.906C906.636 700.045 906.516 700.218 906.44 700.41C903.02 709.163 899.02 717.913 894.44 726.66C891.81 731.67 889.5 739.2 887.98 743.55C882.427 759.383 878 774.26 874.7 788.18C870.3 806.767 868.123 825.857 868.17 845.45C868.177 847.497 868.32 850.19 868.6 853.53C868.853 856.59 868.993 859.28 869.02 861.6C865.74 866.753 861.373 871.36 855.92 875.42C852.493 877.973 848.01 880.833 842.47 884C838.75 886.13 836.94 888.08 837.42 892.25C838.14 898.52 838.91 908.73 840.46 917.29C842.167 926.683 844.8 939.03 848.36 954.33C850.067 961.67 851.81 967.167 853.59 970.82C856.47 976.753 859.707 981.747 863.3 985.8C882.473 1007.45 898.937 1025.9 912.69 1041.14C917.303 1046.25 921.207 1051.01 924.4 1055.44C928.253 1060.77 932.637 1066.35 937.55 1072.18C937.622 1072.27 937.716 1072.33 937.823 1072.36C937.929 1072.4 938.042 1072.4 938.15 1072.37C938.258 1072.34 938.355 1072.28 938.432 1072.2C938.508 1072.12 938.559 1072.02 938.58 1071.91C938.66 1071.5 938.633 1070.96 938.5 1070.27C939.94 1075.66 941.3 1081.06 942.58 1086.48C943.12 1088.77 943.403 1091.01 943.43 1093.18L941.2 1091.82C940.684 1091.5 940.268 1091.05 940 1090.51C938.95 1088.43 938.02 1086.1 936.35 1083.68C933.75 1079.9 931.073 1075.83 928.32 1071.47C925.193 1066.52 920.683 1060.85 914.79 1054.44C912.02 1051.43 909.29 1047.1 906.49 1044.88C906.282 1044.71 906.027 1044.61 905.76 1044.59C905.493 1044.58 905.228 1044.64 904.999 1044.78C904.771 1044.92 904.59 1045.13 904.483 1045.37C904.376 1045.62 904.347 1045.89 904.4 1046.15C905 1049.24 906.19 1051.48 906.82 1054.06C907.127 1055.29 908.38 1059.74 910.58 1067.4C910.9 1068.51 911.12 1069.16 911.24 1069.33C911.873 1070.23 912.217 1071.66 912.27 1073.63C912.29 1074.14 913.103 1077.06 914.71 1082.39C914.803 1082.71 914.853 1083.03 914.86 1083.36C914.873 1086.35 914.977 1088.4 915.17 1089.5C915.57 1091.75 916.367 1097.33 917.56 1106.24C917.627 1106.75 917.64 1107.46 917.6 1108.35C917.553 1109.34 917.723 1110.01 918.11 1110.36C918.213 1110.45 918.281 1110.58 918.3 1110.72L923.88 1153.55C924.007 1154.53 924.083 1155.52 924.11 1156.51L925.44 1211.74C925.467 1212.74 925.383 1213.74 925.19 1214.72C924.7 1217.3 924.99 1219.81 924.74 1222.25C923.97 1229.59 923.83 1234.95 922.72 1241.53C922.62 1242.14 922.217 1245.71 921.51 1252.24C920.09 1265.49 916.21 1280.87 914.38 1295.13C914.34 1295.46 914.26 1295.78 914.14 1296.09C913.473 1297.85 912.44 1301.24 911.04 1306.27C909.44 1312.02 907.32 1317.26 905.7 1323.22C903.22 1332.29 900.333 1341.44 897.04 1350.65C895.08 1356.14 893.5 1362.96 893.17 1367.23C892.7 1373.49 891.79 1379.21 891.68 1384.98C891.547 1391.54 891.943 1398.04 892.87 1404.47C893.89 1411.61 894.86 1416.93 899.08 1422.24C902.36 1426.37 907.6 1429.87 911.76 1424.5C913.74 1421.95 916.313 1417.89 919.48 1412.34C921.273 1409.21 922.54 1406.67 923.28 1404.7C924.93 1400.33 926.09 1396.25 928.85 1393.78C929.077 1393.57 929.323 1393.6 929.59 1393.86C929.612 1393.88 929.625 1393.91 929.627 1393.94C929.629 1393.97 929.619 1394.01 929.6 1394.03C929.52 1394.12 929.47 1394.22 929.45 1394.32C929.444 1394.35 929.445 1394.39 929.453 1394.42C929.46 1394.45 929.474 1394.48 929.494 1394.51C929.513 1394.54 929.538 1394.56 929.567 1394.58C929.595 1394.59 929.627 1394.61 929.66 1394.61L930.3 1394.71C928.11 1407.37 924.04 1420.42 922.53 1431.51C921.67 1437.81 921.24 1446.98 921.24 1459.01C921.23 1477.17 923.18 1496.67 924.34 1515.89C924.66 1521.14 925.627 1526.52 927.24 1532.04C930.873 1544.45 935.027 1558.69 939.7 1574.78C943.82 1588.97 947.64 1604.68 949.76 1619.37C954.767 1654.02 954.047 1688.7 947.6 1723.39C946.24 1730.68 944.05 1741.47 941.03 1755.76C934.74 1785.44 929.9 1813.02 925.11 1843.84C923.863 1851.9 923.163 1860.29 923.01 1869.01C922.9 1874.88 923.6 1881.02 925.07 1886.79C925.77 1889.52 926.49 1892.62 927.23 1896.1C929.14 1905.07 929.38 1912.54 929.64 1922.62C929.74 1926.75 931.007 1930.74 933.44 1934.59C938.32 1942.34 943.26 1949.47 948.26 1956C949.24 1957.27 951.54 1959.46 953.26 1960.65C957.37 1963.47 962.67 1967.35 967.45 1969.84C970.87 1971.62 975.077 1973.89 980.07 1976.64C987.4 1980.68 992.12 1989.53 989.76 1997.98C988.587 2002.19 985.937 2005.21 981.81 2007.03C977.197 2009.07 973.993 2010.37 972.2 2010.94C964.147 2013.48 954.693 2015.74 943.84 2017.71C937.59 2018.84 931.05 2018.45 924.88 2019.67C917.36 2021.17 908.15 2022.01 901.94 2020.57C891.31 2018.1 881.49 2012.95 879.32 2002.21C878.913 2000.2 878.49 1997.48 878.05 1994.04C877.955 1993.29 877.636 1992.59 877.135 1992.03C876.633 1991.46 875.973 1991.06 875.24 1990.88C863.29 1987.93 859.41 1982.16 860.55 1969.77C860.617 1969.02 861.81 1960.87 864.13 1945.33C865.14 1938.52 865.34 1929.62 864.72 1920.14C863.78 1905.61 864.75 1894.56 866.35 1877.4C868.06 1859.02 864.82 1840.47 860.86 1820.34C858.98 1810.77 855.773 1795.74 851.24 1775.27C847.527 1758.52 843.347 1744.2 838.7 1732.31C835.91 1725.18 834.37 1719.72 831.66 1711.85C826.007 1695.46 823.017 1678.43 822.69 1660.75C822.39 1644.57 822.57 1629.21 823.23 1612.76C823.903 1596.01 824.027 1582.58 823.6 1572.46C823.273 1564.95 822.177 1557.54 820.31 1550.24C818.34 1542.57 813.06 1532.48 810.51 1526.78C801 1505.52 796.15 1480.79 793.16 1457.42C791.547 1444.8 790.123 1433.07 788.89 1422.22C786.98 1405.4 785.41 1396.45 783.75 1381.39C782.11 1366.58 780.48 1354.42 778.86 1344.93C778.33 1341.84 777.42 1336.37 776.1 1331.79C772.627 1319.69 770.613 1312.5 770.06 1310.23C759.46 1266.62 752.87 1222.55 750.29 1178C749.857 1170.58 750.103 1163.26 751.03 1156.04C751.195 1154.74 751.131 1153.43 750.84 1152.15C750.073 1148.81 749.403 1144.67 748.83 1139.72C748.61 1137.85 747.653 1136.86 745.96 1136.77C742.56 1136.58 739.037 1136.49 735.39 1136.5C734.888 1136.5 734.402 1136.68 734.016 1137C733.629 1137.32 733.365 1137.77 733.27 1138.26L730.34 1153.43C730.313 1153.59 730.303 1153.75 730.31 1153.92C730.77 1162.5 731.01 1168.25 730.33 1177.28C727.43 1215.68 722.263 1253.22 714.83 1289.89C712.323 1302.25 708.66 1315.98 703.84 1331.08C702.02 1336.78 700.98 1342.41 700.03 1348.5C696.783 1369.23 693.817 1391.63 691.13 1415.68C690.31 1423.07 689.45 1429.26 688.67 1437.74C688.163 1443.15 686.647 1455.29 684.12 1474.15C682.713 1484.66 681.397 1492.18 680.17 1496.73C677.55 1506.44 675.273 1513.73 673.34 1518.6C672.12 1521.67 668.903 1528.52 663.69 1539.14C658.877 1548.95 655.753 1558.83 654.32 1568.76C653.21 1576.36 653.06 1587.89 653.54 1598.09C653.847 1604.69 654.48 1620.33 655.44 1645C656 1659.29 655.347 1672.96 653.48 1686.01C651.68 1698.62 647.77 1711.03 642.24 1726.48C633.26 1751.59 626.287 1777.93 621.32 1805.52C617.87 1824.71 613.91 1846.41 613.52 1867.5C613.487 1869.47 613.577 1871.86 613.79 1874.68C614.25 1880.72 616.76 1888.51 617.42 1892.82C618.58 1900.34 618.803 1906.08 618.09 1910.04C616.643 1918.08 615.773 1923.9 615.48 1927.5C615.233 1930.57 615.463 1935.08 616.17 1941.02C616.97 1947.72 618.437 1959.04 620.57 1974.98C620.683 1975.81 620.65 1977.55 620.47 1980.21C619.89 1988.71 611.27 1989.38 604.58 1990.52C604.097 1990.6 603.654 1990.84 603.318 1991.19C602.983 1991.55 602.772 1992 602.72 1992.49C602.52 1994.28 602.383 1995.83 602.31 1997.14C601.88 2005.15 597.08 2012.39 590.89 2015.95C579.6 2022.43 566.91 2021.84 554.14 2019.69C551.707 2019.28 547.58 2018.83 541.76 2018.34C540.253 2018.21 539.233 2018.13 538.7 2018.08C537.767 2018.01 536.763 2017.83 535.69 2017.56C529.97 2016.1 523.683 2014.63 516.83 2013.15C515.19 2012.8 511.407 2011.53 505.48 2009.34C498.23 2006.67 493.39 2004.84 491.53 1997.55C488.99 1987.56 493.62 1979.6 502.48 1975.47C513.62 1970.28 521.09 1965.64 529.46 1957.89C532.32 1955.24 535.377 1951.4 538.63 1946.35C542.93 1939.69 545.863 1934.97 547.43 1932.19C549.01 1929.38 549.92 1926.98 550.21 1923.68C551.07 1913.94 552.313 1904.44 553.94 1895.18C555.48 1886.41 556.293 1880.42 556.38 1877.19C556.567 1870.08 556.54 1864.02 556.3 1858.99C556.033 1853.31 554.837 1843.65 552.71 1830.01C549.45 1809.03 544.5 1783.9 539.49 1759.77C533.81 1732.39 529.1 1705.89 527.48 1679.01C526.027 1654.91 527.677 1630.9 532.43 1606.97C536.59 1586.02 542.073 1565.72 548.88 1546.09C549.953 1542.98 551.69 1535.63 554.09 1524.04C556.27 1513.51 555.9 1504.85 556.24 1491.78C556.313 1489.08 556.573 1484.39 557.02 1477.71C558.033 1462.6 557.9 1447.37 556.62 1432.01C556.273 1427.86 555.823 1424.5 555.27 1421.91C554.33 1417.5 554.05 1413.31 552.99 1408.47C551.123 1399.96 549.387 1391.14 547.78 1382.01C549.993 1383.57 551.46 1386.07 552.18 1389.5C552.273 1389.96 552.449 1390.4 552.7 1390.8C554.86 1394.2 555.35 1397.95 556.91 1401.63C559.963 1408.82 563.353 1415.53 567.08 1421.78C567.246 1422.06 567.441 1422.32 567.66 1422.56C570.03 1425.08 570.78 1427.81 575.04 1427C581.74 1425.73 585.27 1417.48 586.68 1411.46C587.41 1408.36 588.65 1402.28 588.95 1397.71C589.37 1391.26 589.597 1386.77 589.63 1384.25C589.723 1376.78 588.933 1368.68 587.26 1359.96C586.04 1353.59 583.13 1345.85 581.57 1340.96C581.55 1340.88 581.433 1340.69 581.22 1340.4C581.055 1340.16 580.943 1339.9 580.89 1339.62C580.243 1336.14 579.623 1333.57 579.03 1331.9C575.463 1321.8 573.337 1315.62 572.65 1313.37C572.19 1311.86 571.333 1308.23 570.08 1302.48C570.073 1302.43 570.067 1302.43 570.06 1302.46C570.04 1302.59 569.963 1302.66 569.83 1302.67C569.812 1302.67 569.795 1302.67 569.781 1302.66C569.767 1302.65 569.756 1302.63 569.75 1302.62L569.02 1301.24C569.02 1301.22 569.01 1301.19 568.99 1301.15C568.99 1301.14 568.99 1301.14 568.99 1301.15C569.01 1301.19 569.02 1301.22 569.02 1301.24C568.747 1302.58 568.94 1303.82 569.6 1304.97C569.699 1305.14 569.764 1305.33 569.79 1305.52L570.15 1308.31C570.152 1308.32 570.149 1308.34 570.142 1308.35C570.135 1308.36 570.124 1308.37 570.111 1308.37C570.098 1308.38 570.084 1308.38 570.071 1308.37C570.058 1308.37 570.047 1308.36 570.04 1308.35C569.4 1306.92 569.01 1305.39 568.87 1303.75C568.623 1300.82 568.287 1298.3 567.86 1296.18C567.193 1292.85 566.74 1290.34 566.5 1288.66C565.68 1282.81 564.213 1276.12 562.1 1268.58C561.727 1267.26 561.61 1266.11 561.75 1265.13C561.77 1264.96 561.767 1264.79 561.74 1264.62L559.98 1253.77C559.967 1253.69 559.94 1253.61 559.9 1253.53C559.573 1252.89 559.23 1251.21 558.87 1248.5C557.057 1234.79 556.217 1223.25 556.35 1213.88C556.357 1213.64 556.319 1213.41 556.24 1213.19C556.013 1212.53 555.903 1211.63 555.91 1210.5C555.923 1207.95 555.827 1204.53 555.62 1200.25C555.433 1196.33 555.5 1191.32 555.82 1185.22C556.073 1180.51 556.367 1172.46 556.7 1161.06C556.7 1161.04 556.703 1161.02 556.71 1161C556.763 1160.92 556.82 1160.84 556.88 1160.77C556.991 1160.62 557.053 1160.44 557.06 1160.25C557.32 1153.49 557.927 1146.69 558.88 1139.85C559.127 1138.09 559.42 1135.68 559.76 1132.62C560.28 1127.95 560.547 1125.54 560.56 1125.38C560.753 1122.72 561.303 1119.12 562.21 1114.58C563.47 1108.24 564.567 1102.15 565.5 1096.31C566.12 1092.44 567.06 1088.45 568.32 1084.36C568.42 1084.04 568.427 1083.24 568.34 1081.97C568.314 1081.58 568.405 1081.19 568.6 1080.86C569.713 1078.99 570.313 1076.8 570.4 1074.27C570.413 1073.93 570.464 1073.6 570.55 1073.28C572.17 1067.37 574.333 1060.15 577.04 1051.64C577.307 1050.81 577.577 1048.5 577.85 1044.7C577.855 1044.63 577.846 1044.56 577.823 1044.49C577.799 1044.42 577.761 1044.36 577.713 1044.31C577.664 1044.25 577.605 1044.21 577.539 1044.18C577.473 1044.15 577.402 1044.14 577.33 1044.14C576.15 1044.13 575.077 1044.71 574.11 1045.87C567.83 1053.4 561.863 1061 556.21 1068.67C551.577 1074.94 546.143 1083.44 539.91 1094.15C539.097 1095.55 538.76 1096.64 538.9 1097.43C538.918 1097.53 538.906 1097.63 538.867 1097.73C538.828 1097.82 538.763 1097.9 538.68 1097.95L538 1098.42C537.87 1098.51 537.772 1098.64 537.72 1098.79L536.47 1102.42C536.455 1102.47 536.427 1102.51 536.39 1102.54C536.352 1102.57 536.307 1102.59 536.259 1102.6C536.211 1102.61 536.161 1102.6 536.115 1102.59C536.07 1102.57 536.03 1102.54 536 1102.5C535.893 1102.37 535.727 1102.29 535.5 1102.26L536.84 1096.54C536.946 1096.09 537.003 1095.62 537.01 1095.15C537.03 1092.38 537.483 1089.63 538.37 1086.91C538.556 1086.35 538.684 1085.78 538.75 1085.19C539.303 1080.28 540.273 1075.44 541.66 1070.67L542.08 1071.68C542.111 1071.75 542.16 1071.82 542.223 1071.86C542.286 1071.91 542.361 1071.94 542.439 1071.96C542.517 1071.97 542.597 1071.96 542.671 1071.93C542.745 1071.9 542.81 1071.85 542.86 1071.79C543.58 1070.9 544.53 1070.27 545.71 1069.9C546.034 1069.8 546.336 1069.64 546.6 1069.42C548.873 1067.51 551.73 1064.17 555.17 1059.41C559.83 1052.96 565.683 1045.98 572.73 1038.49C574.04 1037.11 575.08 1035.52 576.36 1034.11C579.113 1031.05 584.19 1025.29 591.59 1016.84C592.837 1015.41 593.86 1014.1 594.66 1012.9C595.733 1011.29 597.35 1009.5 599.51 1007.53C600.917 1006.26 604.573 1001.91 610.48 994.49C611.387 993.357 613.207 991.343 615.94 988.45C618.1 986.177 619.847 984.107 621.18 982.24C625.81 975.78 629.73 970.81 631.06 965.79C632.91 958.78 635.5 950.47 637.02 942.98C640.58 925.407 643.397 908.257 645.47 891.53C645.83 888.62 645.73 886.76 643.23 885.33C639.483 883.19 634.64 880.277 628.7 876.59C625.307 874.49 622.727 871.97 620.96 869.03C618.74 865.35 616.42 862.773 614 861.3C616.727 832.473 613.807 803.983 605.24 775.83C602.41 766.52 599.01 758.17 595.7 749.37C593.06 742.34 591.08 734.8 589.02 728.26C587.9 724.72 583.98 720.35 582.2 716.75C580.613 713.543 579.42 710.68 578.62 708.16C578.26 707.033 577.52 705.773 576.4 704.38C576.335 704.299 576.248 704.238 576.149 704.206C576.05 704.174 575.944 704.172 575.844 704.199C575.744 704.227 575.654 704.284 575.586 704.362C575.517 704.44 575.474 704.537 575.46 704.64C574.327 712.267 572.353 719.737 569.54 727.05C569.74 721.12 571.32 715.94 572.88 710.22C572.895 710.165 572.886 710.105 572.856 710.055C572.826 710.005 572.777 709.967 572.72 709.95H572.71C572.652 709.937 572.591 709.946 572.539 709.976C572.487 710.006 572.448 710.053 572.43 710.11L567.77 723.6C567.744 723.679 567.733 723.761 567.74 723.84C567.76 724.113 567.777 724.1 567.79 723.8C567.92 720.32 569.46 716.29 570.42 712.91C571.56 708.88 571.85 703.8 572.95 699.32C574.18 694.32 574.97 687.73 575.52 684.57C577.46 673.63 575.43 663.95 571.57 654.57C568.977 648.27 566.997 643.897 565.63 641.45C563.403 637.443 560.207 633.9 556.04 630.82C555.661 630.539 555.197 630.396 554.726 630.417C554.254 630.437 553.804 630.618 553.45 630.93C550.157 633.81 546.637 636.293 542.89 638.38C534.577 643.02 527.18 647.457 520.7 651.69C514.76 655.57 510.39 660.86 507.59 667.56C504.51 674.927 501.787 682.77 499.42 691.09C494.31 709.01 491.32 720.69 488.07 736.82C485.07 751.733 484.6 766.707 486.66 781.74C487.74 789.62 488.21 793.87 489.69 800.43C491.15 806.883 492.19 813.413 492.81 820.02C492.821 820.149 492.861 820.273 492.926 820.385C492.991 820.497 493.08 820.593 493.187 820.667C493.293 820.741 493.415 820.792 493.543 820.815C493.672 820.838 493.804 820.833 493.93 820.8C505.17 817.89 516.62 813.69 525.4 806.34C532.19 800.64 538.23 795.05 542.52 787.55C544.847 783.483 546.93 779.287 548.77 774.96C549.497 773.233 550.987 772.253 553.24 772.02C548.76 782.307 544.18 792.56 539.5 802.78C538.993 803.887 537.48 808.25 534.96 815.87C533.553 820.123 532.43 824.597 531.59 829.29C529.08 843.32 527.09 857 523.78 870.02C520.72 882.08 515.22 891.43 508.06 904.82C506.567 907.607 500.903 917.197 491.07 933.59C478.15 955.13 464.45 975.54 451.11 996.14C449.317 998.913 447.363 1001.79 445.25 1004.77C442.43 1008.75 439.98 1013.27 437.3 1017.13C428.773 1029.42 420.407 1042.45 412.2 1056.21C407.507 1064.09 403.787 1072.69 401.04 1082C399.84 1086.07 398.387 1093.77 396.68 1105.11C394.22 1121.46 390.297 1138.32 384.91 1155.67C381.637 1166.21 379.12 1174.61 377.36 1180.88C374.573 1190.8 371.73 1202.96 368.83 1217.37C367.57 1223.61 360.06 1229.78 354.41 1223.85C352.077 1221.4 351.323 1218.24 352.15 1214.38C353.37 1208.66 355.15 1203.26 356.1 1196.97C357.28 1189.14 358.497 1183.24 359.75 1179.27C360.177 1177.93 359.95 1176.97 359.07 1176.4C358.841 1176.25 358.58 1176.16 358.308 1176.13C358.036 1176.1 357.762 1176.13 357.508 1176.23C357.253 1176.33 357.027 1176.48 356.846 1176.68C356.666 1176.89 356.537 1177.13 356.47 1177.39C351.6 1196.38 346.1 1216.5 338.42 1234.15C336 1239.72 330.46 1247.76 323.12 1243.65C317.44 1240.46 318.49 1235.23 319.98 1229.38C321.873 1221.99 324.903 1212.33 329.07 1200.4C331.237 1194.21 333.213 1186.32 335 1176.75C335.031 1176.6 335.016 1176.44 334.958 1176.29C334.901 1176.15 334.802 1176.02 334.673 1175.93C334.545 1175.84 334.392 1175.78 334.234 1175.77C334.076 1175.77 333.918 1175.8 333.78 1175.88L333.75 1175.89C332.754 1176.45 331.984 1177.34 331.57 1178.41C327.17 1189.86 324.26 1200.81 319.6 1212.23C316.767 1219.18 313.643 1227.35 310.23 1236.73C308.13 1242.52 302.24 1253.69 294.25 1248.24C288.62 1244.4 289.38 1236.92 291.28 1231.27C293.527 1224.58 299.147 1208.1 308.14 1181.83C309.82 1176.92 312.09 1172.26 313.21 1167.33C313.264 1167.09 313.278 1166.84 313.25 1166.6C313.222 1166.36 313.153 1166.13 313.048 1165.93C312.942 1165.73 312.802 1165.56 312.636 1165.43C312.469 1165.3 312.28 1165.22 312.08 1165.18C311.22 1165.02 310.477 1165.5 309.85 1166.63C307.87 1170.23 306.54 1174.08 304.45 1178.23C298.67 1189.65 294.05 1198.74 289.57 1209.68C287.423 1214.93 284.803 1219.68 281.71 1223.94C279.1 1227.53 274.72 1229.77 270.48 1227.7C265.7 1225.36 265.02 1221.67 265.64 1216.63C266.06 1213.17 267.12 1209.57 268.82 1205.84C275.65 1190.8 279.95 1182.13 284.4 1170.51C288.28 1160.38 294.36 1148.45 297.74 1138.41C299.74 1132.5 301.21 1126.44 302.15 1120.23C302.66 1116.86 299.38 1112.38 295.55 1115.3C290.89 1118.85 286.16 1122.38 281.81 1126.25C278.237 1129.42 274.49 1132.19 270.57 1134.54C263.81 1138.6 253.8 1140.88 246.47 1137.18C242.74 1135.3 241.53 1130.5 244.92 1127.89C260.35 1116.02 271.85 1102.14 283.45 1086.46C288.52 1079.61 293.51 1076.1 301.96 1072.39C308.107 1069.69 315.963 1065.88 325.53 1060.95C333.04 1057.08 339.73 1055 346.78 1052.29C350.113 1051.02 352.757 1049.33 354.71 1047.24C355.167 1046.75 355.548 1046.19 355.84 1045.59C358.64 1039.76 361.8 1033.52 365.32 1026.87C367.993 1021.82 371.743 1013.07 376.57 1000.62C383.5 982.76 390.09 962.76 395.92 941.15C396.313 939.683 398.837 930.39 403.49 913.27C406.13 903.55 409.98 891.85 414.07 880C419.417 864.493 427.033 849.29 436.92 834.39C440.54 828.93 443.833 823.827 446.8 819.08C448.527 816.313 450.843 811.123 453.75 803.51C462.38 780.93 470.7 758.39 476.84 732.08C481.447 712.333 484.437 698.92 485.81 691.84C487.743 681.867 489.393 673.423 490.76 666.51C492.75 656.48 492.68 642.73 493.12 631.17C493.45 622.5 493.25 613.4 493.64 604.48C493.747 611.14 494.247 617.707 495.14 624.18C495.52 626.967 495.767 629.017 495.88 630.33C495.98 631.51 496.277 633.547 496.77 636.44C498.143 644.507 499 651.933 499.34 658.72C499.353 659.002 499.437 659.276 499.585 659.516C499.734 659.757 499.941 659.955 500.187 660.094C500.434 660.233 500.712 660.307 500.996 660.31C501.28 660.313 501.56 660.244 501.81 660.11C503.697 659.09 505.103 658.147 506.03 657.28C508.623 654.853 512.283 651.84 517.01 648.24C521.96 644.48 526.66 642.16 532.15 638.85C532.429 638.684 532.691 638.483 532.93 638.25C538.01 633.377 541.453 630.383 543.26 629.27C543.713 628.997 544.253 628.673 544.88 628.3C545.213 628.107 546.03 627.52 547.33 626.54C553.72 621.73 558.82 614.82 562.73 607.29C565.61 601.76 568.05 597.85 570.45 592.03C571.403 589.723 572.537 587.703 573.85 585.97C574.015 585.759 574.137 585.514 574.21 585.25C574.377 584.637 575.107 583.353 576.4 581.4C581.687 573.433 587.96 566.04 595.22 559.22C597.147 557.407 600.677 554.817 605.81 551.45C614.523 545.73 620.657 542.223 624.21 540.93C624.222 540.926 624.232 540.918 624.239 540.908C624.246 540.898 624.251 540.886 624.252 540.873C624.253 540.86 624.25 540.846 624.245 540.833C624.239 540.82 624.231 540.809 624.22 540.8C624.173 540.767 624.137 540.75 624.11 540.75C624.097 540.753 624.086 540.754 624.076 540.752C624.065 540.751 624.057 540.746 624.05 540.74C624.043 540.733 624.039 540.725 624.037 540.714C624.036 540.704 624.036 540.693 624.04 540.68C624.043 540.668 624.049 540.655 624.057 540.642C624.064 540.629 624.074 540.617 624.085 540.606C624.097 540.594 624.109 540.585 624.122 540.577C624.134 540.569 624.147 540.563 624.16 540.56C629.56 538.053 633.69 536.22 636.55 535.06C641.08 533.22 648.45 528.99 643.08 523.37C641.373 521.583 638.967 519.593 635.86 517.4C630.48 513.6 624.76 510.157 618.7 507.07C613.247 504.283 609.08 502.62 606.2 502.08C600.227 500.94 595.507 499.887 592.04 498.92C591.68 498.82 591.143 498.473 590.43 497.88C590.314 497.783 590.178 497.712 590.031 497.672C589.884 497.633 589.73 497.625 589.58 497.65C588.853 497.79 588.507 497.71 588.54 497.41C588.543 497.372 588.559 497.336 588.587 497.31C588.615 497.284 588.652 497.27 588.69 497.27L592.68 497.09C595.807 496.697 598.91 496.32 601.99 495.96C614.03 494.547 625.183 491.217 635.45 485.97C648.47 479.31 658.4 474.64 668.9 467.5C678.02 461.31 682.84 453.51 684.31 442.76C686.47 426.86 685.31 411.16 684.6 394.49C684.493 392.043 684.05 389.927 683.27 388.14C680.583 382.007 679.23 378.917 679.21 378.87C675.89 371.86 674.09 363.68 672.68 355.89C672.03 352.32 666.39 353.47 664.51 353.44C664.193 353.44 663.878 353.382 663.58 353.27C660.66 352.21 658.693 350.483 657.68 348.09C655.48 342.91 653.72 339.187 652.4 336.92C646.48 326.8 638.02 314.77 641.9 305.37C643.527 301.443 646.303 298.523 650.23 296.61C650.574 296.443 650.845 296.155 650.991 295.801C651.136 295.446 651.147 295.051 651.02 294.69C647.97 285.9 645.72 277.07 645.18 267.55C644.3 251.83 646.5 237.04 650.73 222.43C655.683 205.337 664.45 190.193 677.03 177C677.321 176.698 677.516 176.318 677.59 175.907C677.665 175.496 677.616 175.072 677.45 174.69C667.14 150.87 673.35 121.97 693.42 105.89C697.813 102.377 703.363 98.89 710.07 95.43C720.58 90.01 732.9 87.86 744.74 86.94C767.3 85.2 789.16 91.79 805.99 107.19C821.85 121.69 829.6 144.78 822.18 165.43C821.42 167.537 819.89 170.923 817.59 175.59C817.452 175.872 817.39 176.186 817.41 176.5C817.47 177.567 817.877 178.52 818.63 179.36C827.137 188.76 833.73 199.253 838.41 210.84C845.27 227.81 849.02 246.63 848.74 263.76C848.567 273.953 846.46 283.977 842.42 293.83C842.202 294.363 842.178 294.956 842.354 295.505C842.53 296.053 842.893 296.523 843.38 296.83C846.86 299.017 849.587 302.053 851.56 305.94C853.6 309.96 852.4 313.48 850.25 317.52C847.203 323.24 843.47 329.623 839.05 336.67C836.48 340.76 835.55 343.03 833.59 347.2C830.92 352.89 827.16 355.63 820.46 352.83C818.96 352.203 818.02 352.657 817.64 354.19C815.62 362.363 812.733 370.64 808.98 379.02C805.77 386.16 802.7 390.96 802.55 397.6C802.2 413.19 801.73 428.23 802.71 443.24C803.43 454.29 808.65 460.11 817.47 466.66C824.917 472.2 830.097 475.817 833.01 477.51C842.33 482.94 854.45 489.68 865.16 492.85C872.927 495.143 879.76 496.567 885.66 497.12C888.12 497.353 893.243 497.51 901.03 497.59Z" fill="#2A2A28"/>
<g id="outer_quad_l">
<path id="outer_quad_l_2" d="M569.02 1301.24L569.75 1302.62C569.756 1302.63 569.767 1302.65 569.781 1302.66C569.795 1302.67 569.812 1302.67 569.83 1302.67C569.963 1302.66 570.04 1302.59 570.06 1302.46C570.067 1302.43 570.073 1302.43 570.08 1302.48C571.333 1308.23 572.19 1311.86 572.65 1313.37C573.337 1315.62 575.463 1321.8 579.03 1331.9C579.623 1333.57 580.243 1336.14 580.89 1339.62C580.943 1339.9 581.055 1340.16 581.22 1340.4C581.433 1340.69 581.55 1340.88 581.57 1340.96C583.13 1345.85 586.04 1353.59 587.26 1359.96C588.933 1368.68 589.723 1376.78 589.63 1384.25C589.597 1386.77 589.37 1391.26 588.95 1397.71C588.65 1402.28 587.41 1408.36 586.68 1411.46C585.27 1417.48 581.74 1425.73 575.04 1427C570.78 1427.81 570.03 1425.08 567.66 1422.56C567.441 1422.32 567.246 1422.06 567.08 1421.78C563.353 1415.53 559.963 1408.82 556.91 1401.63C555.35 1397.95 554.86 1394.2 552.7 1390.8C552.449 1390.4 552.273 1389.96 552.18 1389.5C551.46 1386.07 549.993 1383.57 547.78 1382.01C543.673 1367.87 539.68 1350.1 535.8 1328.69C532.82 1312.2 531 1301.19 530.34 1295.64C528.153 1277.12 526.823 1264.82 526.35 1258.73C525.17 1243.42 523.59 1220.03 524.26 1199.25C524.98 1177.09 527.113 1153.95 530.66 1129.83C532.167 1119.59 533.78 1110.4 535.5 1102.26C535.727 1102.29 535.893 1102.37 536 1102.5C536.03 1102.54 536.07 1102.57 536.115 1102.59C536.161 1102.6 536.211 1102.61 536.259 1102.6C536.307 1102.59 536.352 1102.57 536.39 1102.54C536.427 1102.51 536.455 1102.47 536.47 1102.42L537.72 1098.79C537.772 1098.64 537.87 1098.51 538 1098.42L538.68 1097.95C538.763 1097.9 538.828 1097.82 538.867 1097.73C538.906 1097.63 538.918 1097.53 538.9 1097.43C538.76 1096.64 539.097 1095.55 539.91 1094.15C546.143 1083.44 551.577 1074.94 556.21 1068.67C561.863 1061 567.83 1053.4 574.11 1045.87C575.077 1044.71 576.15 1044.13 577.33 1044.14C577.402 1044.14 577.473 1044.15 577.539 1044.18C577.605 1044.21 577.664 1044.25 577.713 1044.31C577.761 1044.36 577.799 1044.42 577.823 1044.49C577.846 1044.56 577.855 1044.63 577.85 1044.7C577.577 1048.5 577.307 1050.81 577.04 1051.64C574.333 1060.15 572.17 1067.37 570.55 1073.28C570.464 1073.6 570.413 1073.93 570.4 1074.27C570.313 1076.8 569.713 1078.99 568.6 1080.86C568.405 1081.19 568.314 1081.58 568.34 1081.97C568.427 1083.24 568.42 1084.04 568.32 1084.36C567.06 1088.45 566.12 1092.44 565.5 1096.31C564.567 1102.15 563.47 1108.24 562.21 1114.58C561.303 1119.12 560.753 1122.72 560.56 1125.38C560.547 1125.54 560.28 1127.95 559.76 1132.62C559.42 1135.68 559.127 1138.09 558.88 1139.85C557.927 1146.69 557.32 1153.49 557.06 1160.25C557.053 1160.44 556.991 1160.62 556.88 1160.77C556.82 1160.84 556.763 1160.92 556.71 1161C556.703 1161.02 556.7 1161.04 556.7 1161.06C556.367 1172.46 556.073 1180.51 555.82 1185.22C555.5 1191.32 555.433 1196.33 555.62 1200.25C555.827 1204.53 555.923 1207.95 555.91 1210.5C555.903 1211.63 556.013 1212.53 556.24 1213.19C556.319 1213.41 556.356 1213.64 556.35 1213.88C556.217 1223.25 557.057 1234.79 558.87 1248.5C559.23 1251.21 559.573 1252.89 559.9 1253.53C559.94 1253.61 559.967 1253.69 559.98 1253.77L561.74 1264.62C561.767 1264.79 561.77 1264.96 561.75 1265.13C561.61 1266.11 561.727 1267.26 562.1 1268.58C564.213 1276.12 565.68 1282.81 566.5 1288.66C566.74 1290.34 567.193 1292.85 567.86 1296.18C568.287 1298.3 568.623 1300.82 568.87 1303.75C569.01 1305.39 569.4 1306.92 570.04 1308.35C570.047 1308.36 570.058 1308.37 570.071 1308.37C570.084 1308.38 570.098 1308.38 570.111 1308.37C570.124 1308.37 570.135 1308.36 570.142 1308.35C570.149 1308.34 570.152 1308.32 570.15 1308.31L569.79 1305.52C569.764 1305.33 569.699 1305.14 569.6 1304.97C568.94 1303.82 568.747 1302.58 569.02 1301.24Z" fill="#2A2A28"/>
</g>
<path id="delt_r" d="M990.45 594.54L988.75 632.94C988.743 633.17 988.701 633.511 988.63 633.92C988.497 634.74 988.407 635.767 988.36 637C988.067 644.88 987.63 650.96 987.05 655.24C986.85 656.733 986.11 657.907 984.83 658.76C983.683 659.527 981.997 659.047 979.77 657.32C977.33 655.42 976.08 654.1 973.68 652.72C967.59 649.19 962.71 646.54 956.6 642.47C953.193 640.197 949.493 637.91 945.5 635.61C945.4 635.55 945.31 635.483 945.23 635.41L940.99 631.29C940.822 631.128 940.712 630.91 940.68 630.67C940.593 629.963 940.253 629.273 939.66 628.6C937.28 625.92 934.547 622.747 931.46 619.08C929.08 616.247 927.32 613.843 926.18 611.87C924.34 608.69 922.05 605.33 920 601.68C919.827 601.373 917.543 596.94 913.15 588.38C909.95 582.15 906.43 577.72 902.15 571.66C899.23 567.513 895.517 563.547 891.01 559.76C884.223 554.053 879.407 550.447 876.56 548.94C872.08 546.573 867.113 543.873 861.66 540.84C860.567 540.233 857.667 539.037 852.96 537.25C851.193 536.577 849.92 536.03 849.14 535.61C847.54 534.73 845.6 534.3 844.28 533.06C838.46 527.63 846.19 521.03 850.55 517.63C859.05 510.997 868.497 505.833 878.89 502.14C880.357 501.613 883.483 501.227 888.27 500.98C888.697 500.96 889.23 500.68 889.87 500.14C889.955 500.068 890.059 500.02 890.17 500L902.88 497.94C902.904 497.94 902.927 497.931 902.944 497.914C902.961 497.897 902.97 497.874 902.97 497.85C902.97 497.826 902.961 497.803 902.944 497.786C902.927 497.77 902.904 497.76 902.88 497.76L901.03 497.59C912.36 497.52 924.49 498.83 934.97 503.28C944.73 507.42 956.05 514.47 962.87 521.95C969.36 529.07 974.93 538.96 978.89 548.74C983.337 559.713 986.73 570.863 989.07 582.19C989.59 584.737 990.05 588.853 990.45 594.54Z" fill="#2A2A28"/>
<path id="bicep_l" d="M569.54 727.05C564.79 742.33 560.84 756.98 553.24 772.02C550.987 772.253 549.497 773.233 548.77 774.96C546.93 779.287 544.847 783.483 542.52 787.55C538.23 795.05 532.19 800.64 525.4 806.34C516.62 813.69 505.17 817.89 493.93 820.8C493.804 820.833 493.672 820.838 493.543 820.815C493.415 820.792 493.293 820.741 493.187 820.667C493.08 820.593 492.991 820.497 492.926 820.385C492.861 820.273 492.821 820.149 492.81 820.02C492.19 813.413 491.15 806.883 489.69 800.43C488.21 793.87 487.74 789.62 486.66 781.74C484.6 766.707 485.07 751.733 488.07 736.82C491.32 720.69 494.31 709.01 499.42 691.09C501.787 682.77 504.51 674.927 507.59 667.56C510.39 660.86 514.76 655.57 520.7 651.69C527.18 647.457 534.577 643.02 542.89 638.38C546.637 636.293 550.157 633.81 553.45 630.93C553.804 630.618 554.254 630.437 554.726 630.417C555.197 630.397 555.661 630.539 556.04 630.82C560.207 633.9 563.403 637.443 565.63 641.45C566.997 643.897 568.977 648.27 571.57 654.57C575.43 663.95 577.46 673.63 575.52 684.57C574.97 687.73 574.18 694.32 572.95 699.32C571.85 703.8 571.56 708.88 570.42 712.91C569.46 716.29 567.92 720.32 567.79 723.8C567.777 724.1 567.76 724.113 567.74 723.84C567.733 723.761 567.744 723.679 567.77 723.6L572.43 710.11C572.448 710.053 572.487 710.006 572.539 709.976C572.591 709.946 572.652 709.937 572.71 709.95H572.72C572.777 709.967 572.826 710.005 572.856 710.055C572.886 710.105 572.895 710.165 572.88 710.22C571.32 715.94 569.74 721.12 569.54 727.05Z" fill="#2A2A28"/>
<path id="outer_quad_r" d="M943.43 1093.18C944.4 1098.11 945.72 1103.12 946.49 1107.82C949.01 1123.33 950.753 1136.23 951.72 1146.51C952.473 1154.5 953.143 1161.41 953.73 1167.25C954.543 1175.34 954.993 1181.33 955.08 1185.22C955.24 1192.4 955.96 1201.35 955.86 1209.27C955.433 1244.66 952.503 1279.19 947.07 1312.85C942.763 1339.56 937.173 1366.84 930.3 1394.71L929.66 1394.61C929.627 1394.61 929.595 1394.59 929.567 1394.58C929.538 1394.56 929.513 1394.54 929.494 1394.51C929.474 1394.48 929.46 1394.45 929.453 1394.42C929.445 1394.39 929.444 1394.35 929.45 1394.32C929.47 1394.22 929.52 1394.12 929.6 1394.03C929.619 1394.01 929.629 1393.97 929.627 1393.94C929.625 1393.91 929.612 1393.88 929.59 1393.86C929.323 1393.6 929.077 1393.57 928.85 1393.78C926.09 1396.25 924.93 1400.33 923.28 1404.7C922.54 1406.67 921.273 1409.21 919.48 1412.34C916.313 1417.89 913.74 1421.95 911.76 1424.5C907.6 1429.87 902.36 1426.37 899.08 1422.24C894.86 1416.93 893.89 1411.61 892.87 1404.47C891.943 1398.04 891.547 1391.54 891.68 1384.98C891.79 1379.21 892.7 1373.49 893.17 1367.23C893.5 1362.96 895.08 1356.14 897.04 1350.65C900.333 1341.44 903.22 1332.29 905.7 1323.22C907.32 1317.26 909.44 1312.02 911.04 1306.27C912.44 1301.24 913.473 1297.85 914.14 1296.09C914.26 1295.78 914.34 1295.46 914.38 1295.13C916.21 1280.87 920.09 1265.49 921.51 1252.24C922.217 1245.71 922.62 1242.14 922.72 1241.53C923.83 1234.95 923.97 1229.59 924.74 1222.25C924.99 1219.81 924.7 1217.3 925.19 1214.72C925.383 1213.74 925.467 1212.74 925.44 1211.74L924.11 1156.51C924.083 1155.52 924.007 1154.53 923.88 1153.55L918.3 1110.72C918.281 1110.58 918.213 1110.45 918.11 1110.36C917.723 1110.01 917.553 1109.34 917.6 1108.35C917.64 1107.46 917.627 1106.75 917.56 1106.24C916.367 1097.33 915.57 1091.75 915.17 1089.5C914.977 1088.4 914.873 1086.35 914.86 1083.36C914.853 1083.03 914.803 1082.71 914.71 1082.39C913.103 1077.06 912.29 1074.14 912.27 1073.63C912.217 1071.66 911.873 1070.23 911.24 1069.33C911.12 1069.16 910.9 1068.51 910.58 1067.4C908.38 1059.74 907.127 1055.29 906.82 1054.06C906.19 1051.48 905 1049.24 904.4 1046.15C904.347 1045.89 904.376 1045.62 904.483 1045.37C904.59 1045.13 904.771 1044.92 904.999 1044.78C905.228 1044.64 905.493 1044.58 905.76 1044.6C906.027 1044.61 906.282 1044.71 906.49 1044.88C909.29 1047.1 912.02 1051.43 914.79 1054.44C920.683 1060.85 925.193 1066.52 928.32 1071.47C931.073 1075.83 933.75 1079.9 936.35 1083.68C938.02 1086.1 938.95 1088.43 940 1090.51C940.268 1091.05 940.684 1091.5 941.2 1091.82L943.43 1093.18Z" fill="#2A2A28"/>
<path id="ventroglute_l" d="M541.66 1070.67C542.42 1068.19 543.237 1064.16 544.11 1058.57C544.463 1056.33 546.08 1049.46 548.96 1037.96C550.14 1033.27 551.9 1026.43 554.24 1017.44C558 1003.03 561.91 990.457 565.97 979.71C569.063 971.517 573.59 960.793 579.55 947.54C582.583 940.8 589.777 927.217 601.13 906.79C601.897 905.41 602.47 904.233 602.85 903.26C603.263 902.207 603.713 900.973 604.2 899.56C608.367 887.46 611.633 874.707 614 861.3C616.42 862.773 618.74 865.35 620.96 869.03C622.727 871.97 625.307 874.49 628.7 876.59C634.64 880.277 639.483 883.19 643.23 885.33C645.73 886.76 645.83 888.62 645.47 891.53C643.397 908.257 640.58 925.407 637.02 942.98C635.5 950.47 632.91 958.78 631.06 965.79C629.73 970.81 625.81 975.78 621.18 982.24C619.847 984.107 618.1 986.177 615.94 988.45C613.207 991.343 611.387 993.357 610.48 994.49C604.573 1001.91 600.917 1006.26 599.51 1007.53C597.35 1009.5 595.733 1011.29 594.66 1012.9C593.86 1014.1 592.837 1015.41 591.59 1016.84C584.19 1025.29 579.113 1031.05 576.36 1034.11C575.08 1035.52 574.04 1037.11 572.73 1038.49C565.683 1045.98 559.83 1052.96 555.17 1059.41C551.73 1064.17 548.873 1067.51 546.6 1069.42C546.336 1069.64 546.034 1069.8 545.71 1069.9C544.53 1070.27 543.58 1070.9 542.86 1071.79C542.81 1071.85 542.745 1071.9 542.671 1071.93C542.597 1071.96 542.517 1071.97 542.439 1071.96C542.36 1071.94 542.286 1071.91 542.223 1071.86C542.16 1071.82 542.111 1071.75 542.08 1071.68L541.66 1070.67Z" fill="#2A2A28"/>
<path id="delth_l" d="M592.68 497.09L588.69 497.27C588.652 497.27 588.615 497.284 588.587 497.31C588.559 497.336 588.543 497.372 588.54 497.41C588.507 497.71 588.853 497.79 589.58 497.65C589.73 497.625 589.884 497.633 590.031 497.672C590.178 497.712 590.314 497.783 590.43 497.88C591.143 498.473 591.68 498.82 592.04 498.92C595.507 499.887 600.227 500.94 606.2 502.08C609.08 502.62 613.247 504.283 618.7 507.07C624.76 510.157 630.48 513.6 635.86 517.4C638.967 519.593 641.373 521.583 643.08 523.37C648.45 528.99 641.08 533.22 636.55 535.06C633.69 536.22 629.56 538.053 624.16 540.56C624.147 540.563 624.134 540.569 624.122 540.577C624.109 540.585 624.097 540.594 624.085 540.605C624.074 540.617 624.064 540.629 624.057 540.642C624.049 540.655 624.043 540.668 624.04 540.68C624.037 540.692 624.036 540.704 624.037 540.714C624.039 540.725 624.043 540.733 624.05 540.74C624.057 540.746 624.065 540.751 624.076 540.752C624.086 540.754 624.097 540.753 624.11 540.75C624.137 540.75 624.173 540.767 624.22 540.8C624.231 540.809 624.239 540.82 624.245 540.833C624.25 540.846 624.253 540.86 624.252 540.873C624.251 540.886 624.246 540.898 624.239 540.908C624.232 540.918 624.222 540.926 624.21 540.93C620.657 542.223 614.523 545.73 605.81 551.45C600.677 554.817 597.147 557.407 595.22 559.22C587.96 566.04 581.687 573.433 576.4 581.4C575.107 583.353 574.377 584.637 574.21 585.25C574.137 585.514 574.015 585.759 573.85 585.97C572.537 587.703 571.403 589.723 570.45 592.03C568.05 597.85 565.61 601.76 562.73 607.29C558.82 614.82 553.72 621.73 547.33 626.54C546.03 627.52 545.213 628.107 544.88 628.3C544.253 628.673 543.713 628.997 543.26 629.27C541.453 630.383 538.01 633.377 532.93 638.25C532.691 638.483 532.429 638.684 532.15 638.85C526.66 642.16 521.96 644.48 517.01 648.24C512.283 651.84 508.623 654.853 506.03 657.28C505.103 658.147 503.697 659.09 501.81 660.11C501.56 660.244 501.28 660.313 500.996 660.31C500.712 660.307 500.434 660.233 500.187 660.094C499.941 659.955 499.734 659.757 499.585 659.516C499.437 659.276 499.353 659.002 499.34 658.72C499 651.933 498.143 644.507 496.77 636.44C496.277 633.547 495.98 631.51 495.88 630.33C495.767 629.017 495.52 626.967 495.14 624.18C494.247 617.707 493.747 611.14 493.64 604.48C495.433 587.347 499.357 570.647 505.41 554.38C509.75 542.7 515.63 530.84 523.68 521.41C527.59 516.83 532.77 513.24 538.29 509.81C554.63 499.64 573.59 496.3 592.68 497.09Z" fill="#2A2A28"/>
<path id="ventroglute_r" d="M869.02 861.6C872.2 876.107 875.433 887.74 878.72 896.5C879.02 897.293 881.123 902.18 885.03 911.16C886.51 914.567 888.807 919.373 891.92 925.58C898.19 938.09 902.08 947.5 908.79 962.77C913.79 974.13 918.113 986.04 921.76 998.5C928.787 1022.52 934.367 1046.44 938.5 1070.27C938.633 1070.96 938.66 1071.5 938.58 1071.91C938.559 1072.02 938.508 1072.12 938.431 1072.2C938.355 1072.28 938.258 1072.34 938.15 1072.37C938.042 1072.4 937.929 1072.4 937.823 1072.36C937.716 1072.33 937.622 1072.27 937.55 1072.18C932.637 1066.35 928.253 1060.77 924.4 1055.44C921.207 1051.01 917.303 1046.25 912.69 1041.14C898.937 1025.9 882.473 1007.45 863.3 985.8C859.707 981.747 856.47 976.753 853.59 970.82C851.81 967.167 850.067 961.67 848.36 954.33C844.8 939.03 842.167 926.683 840.46 917.29C838.91 908.73 838.14 898.52 837.42 892.25C836.94 888.08 838.75 886.13 842.47 884C848.01 880.833 852.493 877.973 855.92 875.42C861.373 871.36 865.74 866.753 869.02 861.6Z" fill="#2A2A28"/>
<path id="front_quad_l" d="M584.93 1048.37C584.983 1048.34 586.2 1044.99 588.58 1038.32C591.593 1029.89 595.843 1022.56 601.33 1016.31C606.543 1010.38 609.93 1006.44 611.49 1004.5C612.417 1003.35 616.147 999.33 622.68 992.43C623.693 991.363 624.867 990.467 626.2 989.74C626.34 989.663 626.495 989.62 626.654 989.613C626.813 989.607 626.971 989.637 627.117 989.702C627.262 989.767 627.39 989.865 627.492 989.987C627.593 990.11 627.664 990.255 627.7 990.41C627.887 991.177 628.083 992.603 628.29 994.69C629.5 1006.93 632.2 1023.2 633.6 1033.62C635.27 1046.02 637.2 1059.74 639.66 1070.31C646.86 1101.16 650.56 1116.98 650.76 1117.79C658.773 1149.94 664.693 1174.07 668.52 1190.18C673.127 1209.58 677.73 1233.61 682.33 1262.28C685.843 1284.19 687.653 1309.36 687.76 1337.77C687.787 1344.89 687.297 1353.7 686.29 1364.21C685.257 1375.02 684.223 1383.78 683.19 1390.49C680.73 1406.5 677.45 1421.73 669.39 1436.14C667.683 1439.19 665.78 1441.77 663.68 1443.9C657.38 1450.26 647.8 1452.76 639.39 1449.3C633.61 1446.92 630.1 1442.82 626.97 1437.08C625.443 1434.28 624.367 1432 623.74 1430.25C618.607 1415.75 616.203 1402.16 616.53 1389.48C616.87 1376.45 617.427 1366.04 618.2 1358.23C618.347 1356.75 618.573 1355.15 618.88 1353.44C618.905 1353.3 618.885 1353.16 618.821 1353.03C618.758 1352.9 618.655 1352.8 618.528 1352.73C618.401 1352.67 618.256 1352.65 618.116 1352.67C617.976 1352.7 617.848 1352.77 617.75 1352.87C615.37 1355.35 612.91 1358.14 610.1 1359.59C605.06 1362.2 600.357 1361.38 595.99 1357.14C594.35 1355.55 593.167 1353.88 592.44 1352.14C587.36 1340.07 584.167 1331.77 582.86 1327.26C581.687 1323.24 580.86 1320.69 580.38 1319.6C579.52 1317.66 578.767 1315.08 578.12 1311.87C577.527 1308.93 576.063 1303.39 573.73 1295.24C573.717 1295.19 573.71 1295.15 573.71 1295.1C573.47 1292.29 572.903 1289.6 572.01 1287.02C571.89 1286.67 571.803 1286.32 571.75 1285.95C571.21 1282.25 570.24 1279.57 569.64 1276.31C566.22 1257.92 563.46 1240.51 561.8 1222.44C561.207 1215.97 560.953 1209.84 561.04 1204.05C561.3 1187.55 560.6 1172.91 561.74 1157.35C562.567 1145.97 563.807 1135.25 565.46 1125.18C566.433 1119.22 567.057 1115.1 567.33 1112.83C568.023 1107.1 569.17 1101.64 570.77 1096.47C571.637 1093.66 572.56 1090.03 573.54 1085.59C574.793 1079.92 575.687 1076.29 576.22 1074.7C578.133 1068.99 580.807 1061 584.24 1050.75C584.427 1050.19 584.55 1049.57 584.61 1048.9C584.619 1048.79 584.653 1048.69 584.708 1048.6C584.764 1048.51 584.839 1048.43 584.93 1048.37Z" fill="#2A2A28"/>
<path id="front_quad_r" d="M908.47 1084.82C908.49 1084.75 908.513 1084.66 908.54 1084.55C908.543 1084.53 908.552 1084.52 908.565 1084.5C908.578 1084.49 908.594 1084.48 908.61 1084.48C908.626 1084.47 908.64 1084.48 908.65 1084.49C908.659 1084.5 908.663 1084.51 908.66 1084.53C908.66 1084.57 908.657 1084.62 908.65 1084.67C908.643 1084.73 908.643 1084.77 908.65 1084.8C909.217 1087.73 909.51 1089.27 909.53 1089.42C910.31 1094.95 911.78 1099.94 913.82 1108.12C914.047 1109.05 914.377 1111.4 914.81 1115.19C915.103 1117.78 915.447 1120.13 915.84 1122.26C916.867 1127.79 917.56 1132.68 917.92 1136.91C918.553 1144.35 918.987 1148.73 919.22 1150.05C919.733 1152.94 919.957 1155.88 919.89 1158.85C919.857 1160.58 920.03 1163.51 920.41 1167.64C920.977 1173.8 921.233 1180.02 921.18 1186.31C921.147 1190.94 921.16 1193.76 921.22 1194.76C921.353 1196.84 921.21 1200.23 920.79 1204.94C920.337 1210.05 920.113 1213.44 920.12 1215.1C920.133 1218.26 919.49 1226.71 918.19 1240.46C917.837 1244.2 917.333 1247.87 916.68 1251.48C914.95 1261.04 914.24 1269.25 912.05 1277.98C910.837 1282.81 908.577 1292.22 905.27 1306.21C903.557 1313.48 902.567 1317.5 902.3 1318.27C901.98 1319.2 899.22 1326.45 894.02 1340.03C891.44 1346.76 888.72 1352.18 885.86 1356.29C884.487 1358.27 882.63 1359.77 880.29 1360.79C875.44 1362.92 868.11 1357.47 864.76 1353.91C864.661 1353.8 864.542 1353.7 864.41 1353.63L863.82 1353.29C863.673 1353.21 863.507 1353.17 863.338 1353.17C863.17 1353.17 863.006 1353.22 862.862 1353.31C862.719 1353.4 862.603 1353.53 862.525 1353.67C862.447 1353.82 862.411 1353.99 862.42 1354.16C862.63 1358.07 863.62 1362.85 863.79 1367.24C864.13 1375.85 864.423 1382.2 864.67 1386.31C865.12 1394 864.03 1402.78 863.2 1408.99C861.927 1418.52 859.053 1427.55 854.58 1436.09C852.52 1440.01 850.383 1442.93 848.17 1444.85C843.84 1448.6 837.7 1451.57 831.79 1450.88C823.797 1449.93 817.56 1445.86 813.08 1438.67C809 1432.13 806.01 1426.93 803.76 1419.49C800.673 1409.29 798.803 1402.2 798.15 1398.22C795.43 1381.62 794.15 1364.82 793.91 1347.22C793.73 1333.98 792.98 1324.87 793.82 1312.94C794.96 1296.81 796.433 1281.43 798.24 1266.82C798.98 1260.85 799.987 1254.67 801.26 1248.3C802.39 1242.66 804.1 1231.47 805.96 1223.71C811.25 1201.53 816.2 1176.83 822.04 1155.17C825.04 1144.06 827.153 1135.84 828.38 1130.49C830.67 1120.54 833.67 1109.75 836.42 1097.5C840.633 1078.7 842.983 1068.12 843.47 1065.76C845.823 1054.27 848.09 1040.28 850.27 1023.79C851.55 1014.18 851.86 1005.97 852.5 997C852.687 994.433 853.143 992.117 853.87 990.05C853.969 989.769 854.134 989.515 854.351 989.311C854.569 989.106 854.831 988.956 855.118 988.874C855.405 988.792 855.707 988.779 856 988.838C856.292 988.896 856.567 989.024 856.8 989.21C858.513 990.57 859.797 991.823 860.65 992.97C863.81 997.19 868.397 1002.74 874.41 1009.61C882.46 1018.81 888.62 1026.49 892.76 1035.95C895.16 1041.42 897.093 1046.73 898.56 1051.87C899.14 1053.88 899.797 1055.69 900.53 1057.29C901.42 1059.22 902.54 1062.26 902.71 1064.59C903.12 1070.09 904.92 1073.45 906.05 1078.81C906.43 1080.62 907.213 1082.62 908.4 1084.83C908.404 1084.84 908.41 1084.84 908.417 1084.84C908.423 1084.85 908.431 1084.85 908.438 1084.85C908.445 1084.85 908.452 1084.84 908.458 1084.84C908.463 1084.83 908.467 1084.83 908.47 1084.82Z" fill="#2A2A28"/>
<path id="bicep_r" d="M935.81 773.35C935.27 771.46 934.27 770.46 933.88 768.85C933.413 766.937 932.873 765.51 932.26 764.57C932.194 764.464 932.14 764.35 932.1 764.23L927.6 750.35C927.58 750.304 927.567 750.25 927.56 750.19C926.873 745.503 925.4 740.003 923.14 733.69C922.75 732.62 922.78 731.23 922.03 730.65C922.027 730.647 922.024 730.644 922.023 730.64C922.021 730.637 922.02 730.633 922.02 730.63L919.6 722.01C919.574 721.931 919.563 721.846 919.57 721.76C919.623 720.193 919.023 717.687 917.77 714.24C916.79 711.55 916.59 707.75 915.74 704.47C913.3 695.077 911.75 686.17 911.09 677.75C910.58 671.16 910.11 665.84 912.04 659.79C915.333 649.417 920.527 640.13 927.62 631.93C930.69 628.37 937.69 631.72 941.9 633.85C942.198 634.002 942.468 634.202 942.7 634.44C948.91 640.72 954.88 643.93 965.18 650.63C968.867 653.03 972.03 655.783 974.67 658.89C974.903 659.162 975.101 659.458 975.26 659.77C978.647 666.497 980.763 671.363 981.61 674.37C988.91 700.363 993.543 717.053 995.51 724.44C997.257 731.007 998.643 738.783 999.67 747.77C1000.76 757.37 1000.82 766.257 999.83 774.43C998.94 781.81 997.88 789.59 996.25 796.69C995.19 801.29 994.287 805.487 993.54 809.28C993.02 811.95 993.01 815.63 992.51 817.51C991.65 820.723 989.823 821.723 987.03 820.51C983.363 818.91 979.453 817.227 975.3 815.46C965.56 811.32 956.19 806.3 950.09 797.63C947.29 793.643 945.74 791.387 945.44 790.86C942.74 786.067 941.127 783.41 940.6 782.89C940.02 782.31 939.67 781.523 939.55 780.53C939.39 779.16 937.93 778.94 937.54 777.48C937.153 776.04 936.713 774.957 936.22 774.23C936.041 773.958 935.903 773.662 935.81 773.35Z" fill="#2A2A28"/>
<path id="Vector" d="M627.37 544.67C627.392 544.67 627.41 544.652 627.41 544.63C627.41 544.608 627.392 544.59 627.37 544.59C627.348 544.59 627.33 544.608 627.33 544.63C627.33 544.652 627.348 544.67 627.37 544.67Z" fill="#2A2A28"/>
</g>
</svg>
