<svg width="1491" height="2109" viewBox="0 0 1491 2109" fill="none" xmlns="http://www.w3.org/2000/svg">
<g id="Fem_SubQ_Backk 1">
<path id="body_shell" d="M749.761 84.0855C772.511 83.1155 794.752 90.3952 810.752 106.345C816.465 112.045 820.651 118.026 823.311 124.286C829.981 139.996 827.671 159.055 819.651 173.755C819.531 173.978 819.482 174.232 819.51 174.482C819.539 174.732 819.644 174.968 819.811 175.155C827.211 183.415 833.911 192.596 838.561 203.286C847.001 222.706 850.692 244.915 849.662 266.145C849.252 274.555 845.262 284.735 843.202 290.875C843.135 291.072 843.136 291.286 843.205 291.483C843.273 291.68 843.406 291.85 843.582 291.965C850.421 296.385 851.021 306.345 849.401 313.765C848.848 316.312 846.968 320.582 843.761 326.576C840.795 332.129 838.015 337.639 835.422 343.105C833.242 347.692 829.734 349.638 824.901 348.945C824.221 348.85 823.531 349.01 822.964 349.392C822.396 349.775 821.993 350.353 821.832 351.015C819.158 361.915 815.205 372.598 809.971 383.065C808.031 386.945 806.971 390.805 806.721 395.555C806.088 407.402 806.025 419.259 806.532 431.125C806.912 440.165 808.612 448.456 814.582 454.916C816.428 456.922 819.418 459.348 823.551 462.195C831.991 468.001 841.511 473.335 852.111 478.195C860.011 481.821 865.981 484.342 870.021 485.755C879.971 489.225 890.712 489.755 901.742 490.005C919.952 490.415 936.241 494.605 952.111 503.805C962.158 509.625 969.952 517.915 975.492 528.675C983.962 545.105 990.181 562.136 995.271 579.826C999.851 595.746 1002.39 612.276 1002.88 629.416C1002.95 631.882 1003.08 634.512 1003.28 637.305C1003.46 639.878 1003.62 642.508 1003.75 645.195C1005.15 661.795 1007.02 678.425 1009.38 695.084L1009.86 698.416L1010.41 700.662C1013.19 711.913 1016.62 723.422 1019.31 734.025C1024.78 755.592 1031.69 776.862 1040.03 797.835C1042.6 804.305 1046.89 812.005 1051.73 819.095C1055.09 824.005 1061.33 832.865 1064.83 839.645C1072.19 853.925 1078.05 869.626 1082.41 886.746C1087.29 905.875 1090.38 920.945 1095.2 938.065C1097.61 946.615 1099.66 954.465 1102.33 962.315C1107.03 976.188 1112.25 989.989 1117.99 1003.72C1119.43 1007.15 1121.11 1010.79 1123.03 1014.65C1127.02 1022.64 1130.25 1029.63 1134.84 1035.86C1135.85 1037.23 1137.22 1038.25 1138.97 1038.92C1154.16 1044.72 1163.4 1048.42 1166.66 1050.02C1178.96 1056.04 1187.73 1060.34 1192.96 1062.94C1196.81 1064.84 1199.86 1067.39 1202.11 1070.56C1209.54 1081.06 1213.39 1086.49 1213.66 1086.85C1218.11 1092.73 1223.65 1098.67 1230.28 1104.65C1233.52 1107.58 1238.75 1110.28 1242.13 1113.23C1248.37 1118.69 1240.59 1124.03 1235.51 1124.81C1226.55 1126.19 1217.69 1122.07 1211.47 1116.67C1205.07 1111.09 1199.45 1106.3 1194.61 1102.3C1191.62 1099.83 1188.16 1099.78 1187.42 1104.27C1186.97 1106.98 1187.08 1109.77 1187.75 1112.64C1190.08 1122.59 1193.17 1132.09 1197.04 1141.13C1208.75 1168.5 1216.55 1186.69 1220.45 1195.71C1222.6 1200.67 1223.98 1208.31 1219.59 1211.96C1213.55 1216.97 1206.26 1211.83 1203.6 1205.85C1197.28 1191.66 1189.65 1175.51 1180.71 1157.44C1179.7 1155.4 1178.43 1153.67 1176.87 1152.23C1176.78 1152.15 1176.68 1152.1 1176.56 1152.06C1176.45 1152.03 1176.33 1152.02 1176.21 1152.04C1176.09 1152.06 1175.98 1152.1 1175.88 1152.17C1175.79 1152.24 1175.71 1152.33 1175.65 1152.44C1175.28 1153.1 1175.22 1153.94 1175.45 1154.94C1175.99 1157.18 1176.91 1159.94 1178.22 1163.22C1181.19 1170.62 1184.07 1177.49 1186.55 1185.85C1190 1197.44 1195.31 1208.59 1198.44 1220.22C1199.95 1225.85 1198.08 1232.57 1192 1233.98C1186.73 1235.19 1181.93 1230.2 1180.1 1225.55C1175.15 1212.92 1169.96 1200.92 1165.89 1189.92C1162.97 1182.02 1159.54 1173.16 1155.58 1163.36C1155.35 1162.8 1154.95 1162.33 1154.36 1161.97C1154.18 1161.85 1153.97 1161.79 1153.75 1161.8C1153.54 1161.8 1153.33 1161.86 1153.15 1161.97C1152.96 1162.08 1152.82 1162.24 1152.72 1162.44C1152.62 1162.63 1152.58 1162.84 1152.6 1163.06C1152.75 1164.64 1153.07 1166.33 1153.56 1168.1C1156.19 1177.61 1159.99 1189.56 1164.96 1203.94C1167.29 1210.68 1168.97 1216.49 1169.98 1221.38C1171.25 1227.43 1165.37 1231.5 1159.84 1229.81C1155.41 1228.46 1152.73 1224.03 1151.03 1218.9C1148.73 1211.97 1144.8 1205.16 1142.35 1197.75C1137.82 1184.04 1135.21 1175.85 1134.52 1173.19C1133.2 1168.15 1132.2 1164.69 1131.51 1162.81C1131.38 1162.44 1131.15 1162.12 1130.84 1161.88C1130.54 1161.65 1130.17 1161.5 1129.78 1161.47L1129.75 1161.46C1129.6 1161.44 1129.45 1161.46 1129.31 1161.52C1129.17 1161.57 1129.04 1161.66 1128.94 1161.77C1128.84 1161.89 1128.76 1162.02 1128.72 1162.17C1128.68 1162.31 1128.67 1162.47 1128.7 1162.61C1128.9 1163.66 1129.25 1165.83 1129.75 1169.11C1129.77 1169.24 1131.72 1178.99 1135.58 1198.35C1136.38 1202.34 1136.63 1207.39 1132.78 1210.05C1129.52 1212.28 1124.64 1209.95 1122.5 1207.15C1120.33 1204.29 1119.34 1200.73 1118.67 1197.01C1116.59 1185.45 1114.71 1176.73 1113.04 1170.85C1112.56 1169.14 1110.54 1162.36 1106.98 1150.52C1103.67 1139.46 1100.15 1130.47 1097.16 1122.27C1091.95 1107.98 1088.77 1093.18 1088.49 1078.4C1088.38 1072.54 1088.16 1069.13 1086.21 1064.21C1084.3 1059.37 1082.07 1054.85 1079.52 1050.65C1068.08 1031.74 1057.23 1015.49 1045.28 998.595C1036.26 985.855 1029.34 974.045 1020.17 960.416C1014.88 952.556 1009.84 944.529 1005.06 936.335C999.608 926.975 996.178 921.148 994.771 918.855C983.481 900.435 971.671 881.565 965.551 861.155C962.358 850.508 959.851 839.762 958.031 828.916C957.784 827.409 957.451 825.875 957.031 824.315C953.631 811.705 950.301 800.855 949.051 797.105C948.211 794.558 946.871 790.759 945.031 785.706C939.278 769.919 935.105 757.322 932.511 747.916C929.505 737.036 927.568 730.205 926.702 727.425L920.261 706.666L913.141 684.935C913.075 684.736 912.988 684.541 912.881 684.355C912.302 683.362 911.694 682.485 911.061 681.725C910.886 681.517 910.675 681.342 910.441 681.212C910.207 681.082 909.954 681 909.699 680.969C909.443 680.938 909.19 680.959 908.955 681.033C908.72 681.106 908.508 681.23 908.332 681.395C908.038 681.675 907.735 682.302 907.422 683.275C895.228 721.308 888.868 741.119 888.341 742.706C883.095 758.432 879.659 770.505 878.032 778.925C875.685 791.052 874.355 803.535 874.042 816.375C873.852 823.835 874.701 831.786 876.861 839.366C878.501 845.116 880.631 853.215 881.651 860.145C882.558 866.278 883.592 874.192 884.752 883.885C885.562 890.725 887.261 896.025 890.771 903.145C891.764 905.158 894.438 910.772 898.792 919.985C900.745 924.118 901.941 926.816 902.381 928.076C903.871 932.315 905.271 935.025 906.441 939.145C907.214 941.878 908.018 944.282 908.851 946.355C910.771 951.125 911.772 956.866 913.922 961.826C914.141 962.331 914.305 962.857 914.412 963.395C915.492 968.681 916.551 972.768 917.591 975.655C919.591 981.175 919.422 986.025 920.992 991.735C923.682 1001.48 926.071 1013.04 929.261 1024.21C933.348 1038.51 937.038 1052.2 940.332 1065.27C945.798 1086.95 950.444 1110.38 954.271 1135.54C956.504 1150.2 957.961 1163.96 958.641 1176.81C960.251 1207.12 958.422 1236.27 954.922 1265.84C950.422 1303.86 944.282 1340.64 935.742 1377.39C932.155 1392.82 929.575 1404.56 928.002 1412.6C927.208 1416.66 926.644 1422.09 926.311 1428.88C925.665 1441.82 925.971 1455.53 927.231 1470C928.161 1480.67 928.402 1488.12 928.922 1498.4C929.122 1502.31 929.552 1506.08 930.212 1509.69C931.998 1519.46 933.845 1527.79 935.752 1534.65C945.842 1571.03 953.352 1604.34 953.422 1640.64C953.455 1654.48 951.851 1672.57 948.611 1694.93C945.804 1714.35 942.661 1732.49 939.181 1749.34C933.111 1778.74 927.121 1805.71 923.221 1834.31C921.435 1847.36 921.915 1859.99 924.662 1872.21C926.292 1879.47 927.531 1886.3 927.521 1891.37C927.514 1895.35 927.412 1899.77 927.212 1904.62C927.062 1908.36 929.651 1913.13 932.651 1918.06C937.304 1925.73 941.301 1931.72 944.641 1936.02C946.254 1938.1 948.508 1940.26 951.401 1942.48C958.381 1947.88 966.082 1952.02 974.502 1954.88C981.881 1957.39 987.111 1964.54 985.471 1972.59C984.738 1976.19 982.548 1978.91 978.901 1980.77C969.334 1985.64 959.632 1988.92 949.792 1990.6C942.872 1991.78 938.122 1992.79 935.542 1993.63C929.602 1995.56 925.602 1996.8 923.542 1997.34C908.352 2001.35 876.662 2004.52 870.881 1984.08C870.161 1981.51 869.828 1977.77 869.881 1972.87C869.901 1971.24 868.951 1969.07 867.481 1967.56C862.361 1962.28 860.218 1955.55 861.051 1947.35C862.521 1932.84 867.071 1917.43 864.341 1902.6C862.681 1893.63 861.541 1887.76 861.981 1879.54C862.401 1871.54 865.511 1864.34 866.181 1855.34C866.808 1846.93 866.781 1840.02 866.101 1834.62C864.088 1818.64 861.861 1804.33 859.422 1791.67C856.502 1776.58 853.251 1759.11 849.471 1742.77C846.571 1730.21 844.405 1721.6 842.971 1716.93C836.431 1695.56 832.802 1683.52 832.082 1680.8C828.788 1668.42 826.728 1656.1 825.901 1643.85C825.354 1635.7 825.144 1625.12 825.271 1612.12C825.471 1592.82 825.559 1575.24 825.532 1559.38C825.512 1549.5 824.201 1539.99 821.601 1530.85C821.234 1529.57 819.748 1526 817.141 1520.15C809.871 1503.83 805.011 1486.8 802.551 1469.18C797.531 1433.23 792.431 1392.69 787.101 1354.46C785.531 1343.18 783.702 1332.34 781.172 1321.51C777.498 1305.77 775.262 1296.01 774.462 1292.23C768.242 1262.85 762.885 1229.74 758.391 1192.89C758.245 1191.65 757.941 1187.09 757.481 1179.21C756.821 1168.06 757.241 1157.54 756.981 1146.21C756.961 1145.25 756.722 1144.31 756.282 1143.46C752.932 1136.95 750.231 1131.68 750.011 1124.13L749.869 1122.85C749.546 1119.88 749.297 1116.93 749.122 1114C748.922 1110.76 749.005 1107.39 749.372 1103.87C744.738 1101.65 740.995 1101.68 738.141 1103.97L737.622 1121.06C737.788 1127.93 736.275 1134.23 733.082 1139.97C732.035 1141.85 731.242 1143.66 730.702 1145.42C730.523 1146 730.445 1146.62 730.471 1147.23C730.981 1159.41 730.152 1166.32 729.332 1183.68C728.072 1210.37 723.532 1235.67 719.082 1261.19C715.735 1280.35 711.391 1300.49 706.051 1321.63C704.398 1328.17 702.551 1338.91 700.511 1353.87C699.285 1362.86 696.801 1381.78 693.061 1410.63C692.141 1417.73 689.471 1436.31 685.051 1466.35C683.231 1478.69 680.358 1490.5 676.431 1501.76C675.218 1505.22 672.164 1512.43 667.271 1523.39C663.298 1532.28 660.991 1541.19 660.351 1550.13C659.818 1557.61 659.595 1565.94 659.681 1575.12C659.961 1604.7 660.079 1622.53 660.032 1628.62C659.925 1643.01 658.412 1656.67 655.492 1669.6C652.872 1681.16 649.825 1692.45 646.351 1703.47C642.791 1714.79 639.332 1726.89 636.872 1738C632.098 1759.58 626.875 1784.67 621.202 1813.27C618.512 1826.84 617.071 1840.89 617.841 1854.58C618.151 1860.18 619.392 1864.27 620.631 1870.56C622.291 1878.94 622.588 1885.87 621.521 1891.37C619.101 1903.77 617.481 1910.58 619.221 1921.62C621.321 1934.98 622.595 1944.73 623.042 1950.85C623.302 1954.43 622.445 1958.09 620.471 1961.81C619.331 1963.95 616.912 1966.18 615.582 1967.91C614.939 1968.74 614.581 1969.77 614.561 1970.83C614.494 1975.26 614.338 1978.52 614.091 1980.6C612.951 1990.23 605.372 1996.5 596.462 1998.79C593.515 1999.54 589.788 1999.92 585.282 1999.94C578.362 1999.96 572.081 1999.49 566.441 1998.54C558.941 1997.28 550.542 1993.1 543.072 1991.81C528.262 1989.28 517.651 1987.93 505.861 1982.29C495.011 1977.09 494.171 1965.21 502.931 1957.39C504.151 1956.29 506.738 1955.08 510.691 1953.76C524.301 1949.18 535.652 1940.38 544.082 1928.25C547.622 1923.15 550.668 1918.51 553.221 1914.31C555.741 1910.17 556.701 1906.93 556.641 1901.84C556.548 1894.56 556.542 1890.37 556.622 1889.25C557.075 1882.55 558.345 1875.07 560.431 1866.8C563.031 1856.48 562.392 1843.49 560.782 1832.63C559.072 1821.1 557.542 1809.55 555.502 1799.33C552.742 1785.48 549.971 1768.43 546.381 1751C540.561 1722.78 534.841 1692.47 532.521 1661.98C531.021 1642.25 531.628 1622.27 534.341 1602.04C535.808 1591.08 538.351 1578.55 541.971 1564.44C545.485 1550.76 548.848 1538.4 552.061 1527.37C554.891 1517.64 556.781 1505.7 557.091 1493.71C557.365 1483.2 558.155 1468.76 559.462 1450.38C560.702 1432.92 558.972 1415.26 554.742 1397.56C549.622 1376.16 545.551 1356.07 540.981 1331.76C537.901 1315.34 535.518 1299.9 533.832 1285.44C531.345 1264.15 529.608 1245.71 528.622 1230.12C527.095 1206 527.612 1181.69 530.172 1157.19C531.685 1142.67 534.235 1126.15 537.822 1107.63C539.782 1097.49 543.544 1081.73 549.111 1060.34C554.451 1039.81 558.538 1024.12 561.372 1013.26C563.022 1006.96 564.191 999.275 565.841 993.605C567.321 988.485 568.408 983.619 569.101 979.005C569.881 973.805 570.901 970.925 572.601 964.605C573.841 959.965 575.871 955.215 577.271 950.155C577.531 949.208 578.198 947.291 579.271 944.405C584.901 929.275 592.152 913.965 599.742 898.965C603.752 891.015 604.082 884.595 604.962 874.005C606.035 861.059 608.648 847.775 612.801 834.155C613.461 831.968 613.841 828.288 613.941 823.116C614.141 813.366 614.012 803.485 612.742 794.145C610.802 779.955 607.611 765.505 603.091 751.666C601.325 746.266 599.892 741.615 598.792 737.715C596.852 730.835 595.721 722.995 594.231 716.416C593.281 712.236 592.172 708.215 589.752 703.895C586.385 697.868 583.592 690.875 581.372 682.916C581.321 682.726 581.214 682.556 581.065 682.427C580.916 682.299 580.733 682.218 580.538 682.196C580.343 682.173 580.145 682.209 579.971 682.3C579.797 682.391 579.654 682.533 579.561 682.706C578.771 684.125 578.231 685.105 576.721 686.315C575.141 687.575 574.641 689.195 574.051 691.195C573.758 692.195 573.535 693.339 573.381 694.625C572.695 700.259 571.571 705.102 570.011 709.155C567.885 714.715 566.629 718.698 566.242 721.105C566.229 721.178 566.208 721.249 566.181 721.315L563.051 729.345C562.965 729.564 562.843 729.766 562.691 729.945L562.542 730.116C562.477 730.18 562.434 730.264 562.422 730.355C562.115 733.028 561.475 735.522 560.502 737.835C560.435 737.982 560.384 738.136 560.351 738.295C558.011 748.642 556.105 755.608 554.631 759.195C551.925 765.788 549.715 771.635 548.002 776.735C545.708 783.535 543.932 788.715 542.672 792.275C537.652 806.455 533.622 816.955 531.412 829.185C529.532 839.565 526.911 853.115 523.521 863.525C520.881 871.618 517.088 880.605 512.141 890.485C496.131 922.445 476.641 953.515 458.401 982.145C452.028 992.152 447.444 999.149 444.651 1003.14C435.151 1016.72 425.331 1030.71 416.721 1045.3C409.921 1056.83 405.431 1064.64 405.221 1075.81C405.031 1085.58 403.631 1095.49 401.931 1103.97C400.991 1108.66 398.945 1115.33 395.792 1123.97C390.938 1137.28 388.102 1145.33 387.282 1148.13C380.852 1170.05 377.051 1181.29 374.441 1199C374.354 1199.58 373.968 1200.86 373.282 1202.84C371.802 1207.08 366.941 1212.16 362.071 1209.9C358.665 1208.31 357.182 1205.48 357.622 1201.41C357.962 1198.25 360.038 1187.58 363.851 1169.38C364.391 1166.83 364.812 1163.68 364.712 1161.19C364.7 1160.95 364.602 1160.71 364.435 1160.53C364.268 1160.34 364.042 1160.22 363.796 1160.19C363.549 1160.15 363.298 1160.2 363.086 1160.33C362.873 1160.46 362.713 1160.66 362.631 1160.9C361.672 1163.74 361.135 1165.37 361.021 1165.77C359.581 1170.91 357.021 1181.15 354.641 1188C349.868 1201.75 345.738 1212.86 342.252 1221.31C340.618 1225.28 338.108 1227.87 334.721 1229.09C330.681 1230.54 323.911 1228.56 324.361 1223.13C324.594 1220.35 325.365 1216.96 326.672 1212.96C332.078 1196.33 334.949 1187.46 335.282 1186.35C337.655 1178.38 339.681 1170.4 341.361 1162.44C341.387 1162.3 341.377 1162.16 341.332 1162.04C341.286 1161.91 341.207 1161.8 341.102 1161.71C340.998 1161.62 340.872 1161.57 340.738 1161.55C340.604 1161.53 340.467 1161.54 340.341 1161.6L340.292 1161.62C339.9 1161.78 339.545 1162.02 339.25 1162.32C338.954 1162.63 338.722 1162.99 338.571 1163.39C333.944 1175.61 330.038 1186.21 326.851 1195.21C323.131 1205.71 319.182 1214.36 314.292 1226.09C313.538 1227.9 312.052 1229.76 309.832 1231.66C304.432 1236.29 297.131 1233.04 296.351 1226.12C296.145 1224.28 296.465 1222.04 297.311 1219.42C306.404 1191.12 313.518 1169.71 318.651 1155.19C319.104 1153.9 319.208 1152.57 318.962 1151.19C318.945 1151.09 318.899 1150.98 318.83 1150.9C318.76 1150.81 318.67 1150.75 318.567 1150.71C318.464 1150.67 318.353 1150.66 318.245 1150.68C318.137 1150.7 318.036 1150.74 317.952 1150.81C316.799 1151.77 315.828 1153.13 315.042 1154.9C310.562 1165 304.315 1178.22 296.301 1194.55C294.308 1198.61 293.171 1200.99 292.891 1201.69C290.381 1207.9 284.081 1217.12 276.231 1211.69C271.031 1208.08 272.642 1200.63 274.742 1195.68C281.572 1179.5 289.091 1159.98 297.071 1141.6C301.951 1130.34 305.581 1120.63 308.071 1110.39C308.911 1106.93 309.172 1096.87 301.952 1101.47C289.082 1109.7 278.111 1128.09 260.111 1124.55C256.678 1123.87 254.244 1122.25 252.811 1119.69C251.298 1116.98 251.902 1114.68 254.622 1112.8C265.748 1105.12 274.915 1096.18 282.122 1085.98C285.042 1081.84 288.941 1076.49 293.821 1069.91C297.111 1065.48 301.122 1062.25 306.582 1059.54C313.915 1055.91 322.321 1051.53 331.801 1046.39C334.715 1044.81 340.695 1042.32 349.742 1038.94C353.688 1037.47 356.251 1036.16 357.431 1035.02C359.738 1032.79 361.611 1030.41 363.051 1027.87C366.198 1022.33 369.258 1016.15 372.231 1009.34C380.698 989.942 387.878 970.282 393.771 950.355C396.031 942.722 398.675 932.479 401.702 919.625C403.242 913.092 405.758 902.819 409.252 888.805C414.942 865.965 424.552 842.165 438.002 824.015C444.455 815.309 449.745 805.615 453.872 794.935C457.832 784.669 460.508 777.101 461.901 772.235C466.328 756.822 469.388 746.235 471.082 740.475C473.142 733.455 473.872 726.745 475.742 719.935C476.955 715.535 478.161 711.088 479.361 706.595C479.874 702.729 480.458 698.839 481.111 694.925C481.838 690.559 482.375 686.672 482.721 683.265C483.241 678.125 483.761 672.985 484.281 667.845C485.161 659.185 486.208 650.499 487.422 641.786C487.068 639.259 486.898 637.662 486.912 636.996C487.092 623.836 488.078 612.455 489.872 602.855C493.945 581.015 500.682 559.865 510.082 539.405C514.862 529.015 520.752 518.816 529.082 510.826C532.655 507.399 537.282 504.162 542.962 501.116C554.948 494.689 568.085 490.892 582.372 489.725C590.472 489.055 603.832 489.886 613.551 488.076C618.051 487.229 623.975 485.415 631.322 482.635C644.028 477.829 656.218 471.602 667.891 463.956C673.471 460.296 678.431 456.955 682.141 451.666C685.941 446.246 687.472 438.936 687.702 432.366C688.162 419.426 688.135 405.935 687.622 391.895C687.555 390.062 686.918 387.838 685.712 385.225C679.758 372.359 675.795 361.519 673.822 352.706C673.642 351.906 673.142 350.888 672.322 349.655C672.217 349.496 672.074 349.366 671.906 349.279C671.738 349.191 671.55 349.148 671.361 349.155C669.981 349.205 668.291 349.755 666.922 349.405C658.352 347.225 658.041 338.235 654.221 331.895C647.381 320.525 639.952 302.276 651.952 291.786C652.132 291.628 652.256 291.416 652.308 291.181C652.36 290.946 652.338 290.698 652.242 290.475C641.442 265.315 644.882 234.925 654.822 209.605C660.275 195.699 668.385 183.662 679.151 173.496C679.45 173.211 679.662 172.848 679.763 172.45C679.864 172.052 679.849 171.634 679.721 171.246C675.461 158.436 673.612 144.305 677.002 131.405C685.432 99.3751 719.782 85.3554 749.761 84.0855ZM614.029 1192.35H614.03H614.029ZM788.676 1170.41C789.089 1170.63 789.503 1170.85 789.918 1171.07C789.087 1170.63 788.262 1170.18 787.443 1169.73L788.676 1170.41ZM709.031 1164.08H709.032H709.031ZM736.531 1123.35H736.532H736.531ZM908.031 1004.87H908.032H908.031ZM660.781 983.225H660.782H660.781Z" fill="#2A2A28"/>
<g id="body_base">
<path id="body_base_2" d="M1004.21 645.33L998.5 636.82C998.473 636.78 998.443 636.74 998.41 636.7C995.36 633.37 991.73 630.81 986.77 630.49C980.543 630.083 974.687 630.39 969.2 631.41C958.073 633.477 947.773 636.61 938.3 640.81C929.36 644.77 919.73 650.92 917.69 661.14C916.603 666.587 916.143 671.123 916.31 674.75C916.537 679.583 917.1 684.257 918 688.77C919.15 694.5 919.75 700.78 920.72 706.8L913.6 685.07C913.533 684.871 913.446 684.676 913.34 684.49C912.76 683.497 912.153 682.62 911.52 681.86C911.345 681.652 911.134 681.478 910.9 681.347C910.666 681.217 910.413 681.134 910.157 681.104C909.902 681.073 909.649 681.095 909.414 681.168C909.179 681.241 908.966 681.364 908.79 681.53C908.497 681.81 908.193 682.437 907.88 683.41C895.687 721.443 889.327 741.253 888.8 742.84C883.553 758.567 880.117 770.64 878.49 779.06C876.143 791.187 874.813 803.67 874.5 816.51C874.31 823.97 875.16 831.92 877.32 839.5C878.96 845.25 881.09 853.35 882.11 860.28C883.017 866.413 884.05 874.327 885.21 884.02C886.02 890.86 887.72 896.16 891.23 903.28C892.223 905.293 894.897 910.907 899.25 920.12C901.203 924.253 902.4 926.95 902.84 928.21C904.33 932.45 905.73 935.16 906.9 939.28C907.673 942.013 908.477 944.417 909.31 946.49C911.23 951.26 912.23 957 914.38 961.96C914.599 962.465 914.764 962.992 914.87 963.53C915.95 968.817 917.01 972.903 918.05 975.79C920.05 981.31 919.88 986.16 921.45 991.87C924.14 1001.62 926.53 1013.17 929.72 1024.34C933.807 1038.65 937.497 1052.34 940.79 1065.41C946.257 1087.09 950.903 1110.51 954.73 1135.67C956.963 1150.33 958.42 1164.09 959.1 1176.95C960.71 1207.26 958.88 1236.4 955.38 1265.97C950.88 1303.99 944.74 1340.77 936.2 1377.52C932.613 1392.95 930.033 1404.69 928.46 1412.73C927.667 1416.8 927.103 1422.22 926.77 1429.01C926.123 1441.96 926.43 1455.66 927.69 1470.13C928.62 1480.8 928.86 1488.25 929.38 1498.53C929.58 1502.45 930.01 1506.21 930.67 1509.82C932.457 1519.6 934.303 1527.92 936.21 1534.78C946.3 1571.16 953.81 1604.47 953.88 1640.77C953.913 1654.61 952.31 1672.71 949.07 1695.06C946.263 1714.49 943.12 1732.62 939.64 1749.47C933.57 1778.87 927.58 1805.84 923.68 1834.44C921.893 1847.49 922.373 1860.13 925.12 1872.34C926.75 1879.6 927.99 1886.43 927.98 1891.5C927.973 1895.49 927.87 1899.9 927.67 1904.75C927.52 1908.49 930.11 1913.26 933.11 1918.2C937.763 1925.87 941.76 1931.85 945.1 1936.16C946.713 1938.24 948.967 1940.39 951.86 1942.62C958.84 1948.02 966.54 1952.15 974.96 1955.01C982.34 1957.52 987.57 1964.67 985.93 1972.72C985.197 1976.32 983.007 1979.05 979.36 1980.91C969.793 1985.78 960.09 1989.05 950.25 1990.73C943.33 1991.91 938.58 1992.92 936 1993.76C930.06 1995.69 926.06 1996.93 924 1997.47C908.81 2001.48 877.12 2004.65 871.34 1984.21C870.62 1981.64 870.287 1977.91 870.34 1973C870.36 1971.37 869.41 1969.2 867.94 1967.69C862.82 1962.42 860.677 1955.68 861.51 1947.49C862.98 1932.97 867.53 1917.56 864.8 1902.73C863.14 1893.76 862 1887.89 862.44 1879.67C862.86 1871.67 865.97 1864.47 866.64 1855.47C867.267 1847.06 867.24 1840.16 866.56 1834.75C864.547 1818.78 862.32 1804.46 859.88 1791.8C856.96 1776.71 853.71 1759.24 849.93 1742.9C847.03 1730.35 844.863 1721.73 843.43 1717.06C836.89 1695.69 833.26 1683.65 832.54 1680.93C829.247 1668.55 827.187 1656.24 826.36 1643.99C825.813 1635.84 825.603 1625.26 825.73 1612.25C825.93 1592.96 826.017 1575.38 825.99 1559.51C825.97 1549.63 824.66 1540.12 822.06 1530.99C821.693 1529.7 820.207 1526.13 817.6 1520.28C810.33 1503.96 805.47 1486.93 803.01 1469.31C797.99 1433.36 792.89 1392.82 787.56 1354.59C785.99 1343.31 784.16 1332.47 781.63 1321.64C777.957 1305.91 775.72 1296.15 774.92 1292.37C768.7 1262.99 763.343 1229.87 758.85 1193.02C758.703 1191.79 758.4 1187.23 757.94 1179.34C757.28 1168.19 757.7 1157.67 757.44 1146.34C757.42 1145.39 757.181 1144.45 756.74 1143.59C753.39 1137.08 750.69 1131.81 750.47 1124.26C751.77 1125.52 752.417 1127.02 752.41 1128.75C752.41 1129.07 752.496 1129.39 752.66 1129.67C753.173 1130.55 753.493 1131.27 753.62 1131.82C754.42 1135.37 755.483 1138.17 756.81 1140.2C761.29 1147.1 764.55 1152.42 770.39 1157.49C782.183 1167.74 795.383 1174.89 809.99 1178.93C813.05 1179.78 817.22 1180.51 819.95 1181.08C822.797 1181.67 825.307 1182.07 827.48 1182.28C840.153 1183.47 847.927 1184.18 850.8 1184.41C856.92 1184.9 864.22 1187.36 869.68 1190.07C876.053 1193.24 881.203 1197.57 885.13 1203.05C885.251 1203.22 885.407 1203.37 885.587 1203.47C885.767 1203.58 885.968 1203.65 886.177 1203.67C886.386 1203.7 886.598 1203.68 886.8 1203.62C887.002 1203.56 887.189 1203.46 887.35 1203.32C887.397 1203.28 887.517 1203.08 887.71 1202.72C894.11 1190.67 900.39 1179.25 905.18 1167.48C912.933 1148.43 918.507 1129.58 921.9 1110.91C926.53 1085.45 926.23 1059.31 923.81 1033.17C923.2 1026.65 923.03 1017.33 917.64 1013.15C914.64 1010.82 911.59 1008.1 908.49 1005C907.903 1004.41 905.673 1002.63 901.8 999.68C901.493 999.447 901.23 999.183 901.01 998.89C900.813 998.615 900.551 998.398 900.25 998.26C891.377 994.24 885.193 991.607 881.7 990.36C878.52 989.22 873.94 987.777 867.96 986.03C863.25 984.66 858.63 984.67 853.14 983.99C835.58 981.82 817.99 983.43 800.8 988.32C789.047 991.66 778.24 997.017 768.38 1004.39C764.62 1007.2 761.933 1009.6 760.32 1011.57C757.993 1014.42 756.083 1016.75 754.59 1018.57C749.96 1024.19 749.75 1028.62 749.79 1036C749.943 1058.67 749.957 1081.33 749.83 1104C745.197 1101.78 741.453 1101.81 738.6 1104.1C738.707 1087.95 738.8 1071.5 738.88 1054.75C738.927 1046.46 738.947 1038.13 738.94 1029.75C738.94 1026.44 738.417 1024.06 737.37 1022.61C729.977 1012.36 720.733 1004.19 709.64 998.1C694.82 989.967 678.687 985.053 661.24 983.36C652.247 982.487 643.673 982.767 635.52 984.2C631.647 984.88 629.253 985.29 628.34 985.43C625.02 985.93 622.64 986.383 621.2 986.79C611.447 989.543 603.803 992.26 598.27 994.94C590.817 998.547 584.32 1003 578.78 1008.29C576.22 1010.74 573.523 1013.04 570.69 1015.21C568.597 1016.82 567.307 1019.58 566.82 1023.49C564.213 1044.42 563.27 1064.99 563.99 1085.19C564.55 1101.02 567.097 1117.15 571.63 1133.58C577.03 1153.15 583.883 1170.91 592.19 1186.84C594.117 1190.54 596.99 1195.84 600.81 1202.75C600.884 1202.88 600.989 1203 601.116 1203.08C601.244 1203.16 601.389 1203.21 601.541 1203.23C601.692 1203.24 601.845 1203.22 601.986 1203.16C602.127 1203.11 602.252 1203.02 602.35 1202.9C608.617 1195.45 616.53 1190.27 626.09 1187.36C638.57 1183.57 650.32 1183.41 662.08 1181.79C679.533 1179.39 695.337 1173.53 709.49 1164.21C717.77 1158.76 725.41 1149.7 730.85 1141.41C734.203 1136.3 736.25 1130.33 736.99 1123.49C737.043 1122.99 737.407 1122.22 738.08 1121.19C738.247 1128.06 736.733 1134.37 733.54 1140.1C732.493 1141.98 731.7 1143.8 731.16 1145.55C730.981 1146.14 730.903 1146.75 730.93 1147.36C731.44 1159.54 730.61 1166.45 729.79 1183.81C728.53 1210.5 723.99 1235.8 719.54 1261.32C716.193 1280.48 711.85 1300.63 706.51 1321.76C704.857 1328.3 703.01 1339.05 700.97 1354C699.743 1362.99 697.26 1381.91 693.52 1410.76C692.6 1417.87 689.93 1436.44 685.51 1466.49C683.69 1478.83 680.817 1490.63 676.89 1501.89C675.677 1505.35 672.623 1512.56 667.73 1523.52C663.757 1532.41 661.45 1541.33 660.81 1550.26C660.277 1557.75 660.053 1566.08 660.14 1575.25C660.42 1604.83 660.537 1622.66 660.49 1628.75C660.383 1643.14 658.87 1656.8 655.95 1669.73C653.33 1681.29 650.283 1692.58 646.81 1703.6C643.25 1714.92 639.79 1727.02 637.33 1738.13C632.557 1759.71 627.333 1784.8 621.66 1813.4C618.97 1826.97 617.53 1841.02 618.3 1854.71C618.61 1860.31 619.85 1864.4 621.09 1870.7C622.75 1879.07 623.047 1886.01 621.98 1891.5C619.56 1903.9 617.94 1910.71 619.68 1921.75C621.78 1935.12 623.053 1944.86 623.5 1950.98C623.76 1954.57 622.903 1958.22 620.93 1961.95C619.79 1964.09 617.37 1966.31 616.04 1968.04C615.397 1968.88 615.04 1969.9 615.02 1970.96C614.953 1975.39 614.797 1978.65 614.55 1980.74C613.41 1990.37 605.83 1996.63 596.92 1998.92C593.973 1999.67 590.247 2000.06 585.74 2000.07C578.82 2000.09 572.54 1999.62 566.9 1998.67C559.4 1997.41 551 1993.23 543.53 1991.95C528.72 1989.42 518.11 1988.06 506.32 1982.42C495.47 1977.22 494.63 1965.34 503.39 1957.52C504.61 1956.43 507.197 1955.22 511.15 1953.89C524.76 1949.31 536.11 1940.51 544.54 1928.38C548.08 1923.29 551.127 1918.64 553.68 1914.44C556.2 1910.3 557.16 1907.06 557.1 1901.97C557.007 1894.7 557 1890.5 557.08 1889.38C557.533 1882.69 558.803 1875.2 560.89 1866.93C563.49 1856.61 562.85 1843.62 561.24 1832.76C559.53 1821.23 558 1809.68 555.96 1799.46C553.2 1785.61 550.43 1768.56 546.84 1751.13C541.02 1722.91 535.3 1692.61 532.98 1662.12C531.48 1642.39 532.087 1622.4 534.8 1602.17C536.267 1591.22 538.81 1578.68 542.43 1564.57C545.943 1550.89 549.307 1538.53 552.52 1527.5C555.35 1517.77 557.24 1505.83 557.55 1493.84C557.823 1483.33 558.613 1468.89 559.92 1450.51C561.16 1433.05 559.43 1415.4 555.2 1397.7C550.08 1376.29 546.01 1356.2 541.44 1331.89C538.36 1315.48 535.977 1300.04 534.29 1285.57C531.803 1264.28 530.067 1245.84 529.08 1230.25C527.553 1206.14 528.07 1181.83 530.63 1157.32C532.143 1142.8 534.693 1126.28 538.28 1107.76C540.24 1097.63 544.003 1081.86 549.57 1060.47C554.91 1039.94 558.997 1024.25 561.83 1013.39C563.48 1007.09 564.65 999.41 566.3 993.74C567.78 988.62 568.867 983.753 569.56 979.14C570.34 973.94 571.36 971.06 573.06 964.74C574.3 960.1 576.33 955.35 577.73 950.29C577.99 949.343 578.657 947.427 579.73 944.54C585.36 929.41 592.61 914.1 600.2 899.1C604.21 891.15 604.54 884.73 605.42 874.14C606.493 861.193 609.107 847.91 613.26 834.29C613.92 832.103 614.3 828.423 614.4 823.25C614.6 813.5 614.47 803.62 613.2 794.28C611.26 780.09 608.07 765.64 603.55 751.8C601.783 746.4 600.35 741.75 599.25 737.85C597.31 730.97 596.18 723.13 594.69 716.55C593.74 712.37 592.63 708.35 590.21 704.03C586.843 698.003 584.05 691.01 581.83 683.05C581.779 682.86 581.673 682.69 581.524 682.562C581.375 682.434 581.191 682.353 580.996 682.33C580.801 682.308 580.604 682.344 580.43 682.435C580.256 682.526 580.113 682.667 580.02 682.84C579.23 684.26 578.69 685.24 577.18 686.45C575.6 687.71 575.1 689.33 574.51 691.33C574.217 692.33 573.993 693.473 573.84 694.76C573.153 700.393 572.03 705.237 570.47 709.29C568.343 714.85 567.087 718.833 566.7 721.24C566.687 721.313 566.667 721.384 566.64 721.45L563.51 729.48C563.424 729.698 563.302 729.901 563.15 730.08L563 730.25C562.935 730.315 562.893 730.399 562.88 730.49C562.573 733.163 561.933 735.657 560.96 737.97C560.894 738.116 560.843 738.27 560.81 738.43C558.47 748.777 556.563 755.743 555.09 759.33C552.383 765.923 550.173 771.77 548.46 776.87C546.167 783.67 544.39 788.85 543.13 792.41C538.11 806.59 534.08 817.09 531.87 829.32C529.99 839.7 527.37 853.25 523.98 863.66C521.34 871.753 517.547 880.74 512.6 890.62C496.59 922.58 477.1 953.65 458.86 982.28C452.487 992.287 447.903 999.283 445.11 1003.27C435.61 1016.85 425.79 1030.84 417.18 1045.43C410.38 1056.96 405.89 1064.77 405.68 1075.94C405.49 1085.71 404.09 1095.62 402.39 1104.1C401.45 1108.79 399.403 1115.46 396.25 1124.1C391.397 1137.41 388.56 1145.47 387.74 1148.26C381.31 1170.18 377.51 1181.42 374.9 1199.13C374.813 1199.72 374.427 1201 373.74 1202.97C372.26 1207.21 367.4 1212.29 362.53 1210.03C359.123 1208.44 357.64 1205.61 358.08 1201.54C358.42 1198.39 360.497 1187.71 364.31 1169.51C364.85 1166.96 365.27 1163.82 365.17 1161.33C365.158 1161.08 365.061 1160.84 364.893 1160.66C364.726 1160.48 364.5 1160.36 364.254 1160.32C364.008 1160.29 363.757 1160.34 363.544 1160.47C363.332 1160.6 363.171 1160.79 363.09 1161.03C362.13 1163.88 361.593 1165.5 361.48 1165.91C360.04 1171.05 357.48 1181.28 355.1 1188.13C350.327 1201.88 346.197 1212.99 342.71 1221.45C341.077 1225.42 338.567 1228.01 335.18 1229.22C331.14 1230.67 324.37 1228.69 324.82 1223.26C325.053 1220.48 325.823 1217.09 327.13 1213.09C332.537 1196.46 335.407 1187.6 335.74 1186.49C338.113 1178.51 340.14 1170.54 341.82 1162.57C341.846 1162.44 341.836 1162.3 341.791 1162.17C341.745 1162.04 341.666 1161.93 341.561 1161.85C341.456 1161.76 341.33 1161.7 341.196 1161.68C341.062 1161.66 340.925 1161.68 340.8 1161.73L340.75 1161.75C340.358 1161.91 340.004 1162.15 339.708 1162.46C339.412 1162.76 339.181 1163.12 339.03 1163.52C334.403 1175.74 330.497 1186.35 327.31 1195.34C323.59 1205.84 319.64 1214.49 314.75 1226.22C313.997 1228.03 312.51 1229.89 310.29 1231.79C304.89 1236.42 297.59 1233.17 296.81 1226.25C296.603 1224.41 296.923 1222.18 297.77 1219.55C306.863 1191.25 313.977 1169.84 319.11 1155.33C319.563 1154.04 319.667 1152.7 319.42 1151.33C319.403 1151.22 319.358 1151.12 319.288 1151.03C319.219 1150.95 319.128 1150.88 319.026 1150.85C318.923 1150.81 318.812 1150.8 318.704 1150.81C318.596 1150.83 318.494 1150.88 318.41 1150.95C317.257 1151.9 316.287 1153.26 315.5 1155.03C311.02 1165.14 304.773 1178.35 296.76 1194.68C294.767 1198.75 293.63 1201.13 293.35 1201.82C290.84 1208.03 284.54 1217.25 276.69 1211.82C271.49 1208.22 273.1 1200.76 275.2 1195.81C282.03 1179.63 289.55 1160.11 297.53 1141.73C302.41 1130.47 306.04 1120.76 308.53 1110.52C309.37 1107.06 309.63 1097 302.41 1101.6C289.54 1109.83 278.57 1128.22 260.57 1124.68C257.137 1124.01 254.703 1122.39 253.27 1119.83C251.757 1117.11 252.36 1114.81 255.08 1112.93C266.207 1105.26 275.373 1096.32 282.58 1086.11C285.5 1081.98 289.4 1076.62 294.28 1070.04C297.57 1065.61 301.58 1062.38 307.04 1059.67C314.373 1056.04 322.78 1051.66 332.26 1046.52C335.173 1044.94 341.153 1042.46 350.2 1039.08C354.147 1037.61 356.71 1036.3 357.89 1035.16C360.197 1032.93 362.07 1030.54 363.51 1028C366.657 1022.46 369.717 1016.28 372.69 1009.47C381.157 990.077 388.337 970.417 394.23 950.49C396.49 942.857 399.133 932.613 402.16 919.76C403.7 913.227 406.217 902.953 409.71 888.94C415.4 866.1 425.01 842.3 438.46 824.15C444.913 815.443 450.203 805.75 454.33 795.07C458.29 784.803 460.967 777.237 462.36 772.37C466.787 756.957 469.847 746.37 471.54 740.61C473.6 733.59 474.33 726.88 476.2 720.07C477.413 715.67 478.62 711.223 479.82 706.73C479.793 711.917 479.54 716.213 479.06 719.62C478.04 726.8 477.503 731.007 477.45 732.24C477.43 732.631 477.349 733.012 477.21 733.37C476.04 736.41 475.79 739.2 475.06 742.4C472.873 752.053 470.597 762.58 468.23 773.98C466.423 782.633 466.083 790.577 467.21 797.81C467.84 801.83 472.18 805.04 475.52 806.77C482.54 810.403 490.01 812.563 497.93 813.25C504.22 813.79 508.16 814.15 514.03 813.43C517.597 812.99 521.217 811.36 524.89 808.54C531.037 803.82 535.437 797.77 538.09 790.39C539.73 785.83 541.83 779.567 544.39 771.6C545.35 768.607 548.383 761.56 553.49 750.46C553.623 750.174 553.727 749.872 553.8 749.56C555.19 743.59 558.02 738.8 560.46 733.26C560.592 732.97 560.663 732.657 560.67 732.34C560.697 730.373 561.22 729.07 562.24 728.43C562.362 728.354 562.463 728.246 562.533 728.119C562.603 727.991 562.64 727.847 562.64 727.7V726.01C562.64 725.937 562.663 725.865 562.706 725.804C562.749 725.743 562.809 725.696 562.88 725.67C563.38 725.497 563.69 724.837 563.81 723.69C563.836 723.414 563.969 723.159 564.18 722.98C564.713 722.507 564.943 721.64 564.87 720.38C564.844 720.011 564.902 719.639 565.04 719.29C566.027 716.717 566.657 714.47 566.93 712.55C566.983 712.184 567.074 711.829 567.2 711.49C568.367 708.39 569.153 705.397 569.56 702.51C569.626 702.078 569.741 701.659 569.9 701.26C570.287 700.293 570.613 699.2 570.88 697.98C572.3 691.4 573.19 684.977 573.55 678.71C573.963 671.49 573.24 664.963 571.38 659.13C568.54 650.27 559.2 644.37 551.15 640.89C538.897 635.583 526.443 631.98 513.79 630.08C507.39 629.12 497.02 630.4 492.75 636.01C490.45 639.023 488.827 640.993 487.88 641.92C487.527 639.393 487.357 637.797 487.37 637.13C487.55 623.97 488.537 612.59 490.33 602.99C494.403 581.15 501.14 560 510.54 539.54C515.32 529.15 521.21 518.95 529.54 510.96C533.113 507.533 537.74 504.297 543.42 501.25C555.407 494.823 568.543 491.027 582.83 489.86C590.93 489.19 604.29 490.02 614.01 488.21C618.51 487.363 624.433 485.55 631.78 482.77C644.487 477.963 656.677 471.737 668.35 464.09C673.93 460.43 678.89 457.09 682.6 451.8C686.4 446.38 687.93 439.07 688.16 432.5C688.62 419.56 688.593 406.07 688.08 392.03C688.013 390.197 687.377 387.973 686.17 385.36C680.217 372.493 676.253 361.653 674.28 352.84C674.1 352.04 673.6 351.023 672.78 349.79C672.676 349.631 672.532 349.501 672.364 349.414C672.196 349.326 672.009 349.284 671.82 349.29C670.44 349.34 668.75 349.89 667.38 349.54C658.81 347.36 658.5 338.37 654.68 332.03C647.84 320.66 640.41 302.41 652.41 291.92C652.59 291.763 652.715 291.551 652.767 291.316C652.819 291.081 652.796 290.833 652.7 290.61C641.9 265.45 645.34 235.06 655.28 209.74C660.733 195.833 668.843 183.797 679.61 173.63C679.909 173.345 680.121 172.983 680.222 172.585C680.323 172.186 680.308 171.769 680.18 171.38C675.92 158.57 674.07 144.44 677.46 131.54C685.89 99.51 720.24 85.49 750.22 84.22C772.97 83.25 795.21 90.53 811.21 106.48C816.923 112.18 821.11 118.16 823.77 124.42C830.44 140.13 828.13 159.19 820.11 173.89C819.989 174.113 819.94 174.367 819.969 174.617C819.997 174.868 820.103 175.103 820.27 175.29C827.67 183.55 834.37 192.73 839.02 203.42C847.46 222.84 851.15 245.05 850.12 266.28C849.71 274.69 845.72 284.87 843.66 291.01C843.594 291.207 843.595 291.421 843.664 291.618C843.732 291.815 843.865 291.985 844.04 292.1C850.88 296.52 851.48 306.48 849.86 313.9C849.307 316.447 847.427 320.717 844.22 326.71C841.253 332.263 838.473 337.773 835.88 343.24C833.7 347.827 830.193 349.773 825.36 349.08C824.68 348.985 823.989 349.144 823.422 349.527C822.855 349.909 822.451 350.488 822.29 351.15C819.617 362.05 815.663 372.733 810.43 383.2C808.49 387.08 807.43 390.94 807.18 395.69C806.547 407.537 806.483 419.393 806.99 431.26C807.37 440.3 809.07 448.59 815.04 455.05C816.887 457.057 819.877 459.483 824.01 462.33C832.45 468.137 841.97 473.47 852.57 478.33C860.47 481.957 866.44 484.477 870.48 485.89C880.43 489.36 891.17 489.89 902.2 490.14C920.41 490.55 936.7 494.74 952.57 503.94C962.617 509.76 970.41 518.05 975.95 528.81C984.42 545.24 990.64 562.27 995.73 579.96C1000.31 595.88 1002.85 612.41 1003.34 629.55C1003.41 632.017 1003.54 634.647 1003.74 637.44C1003.92 640.013 1004.08 642.643 1004.21 645.33Z" fill="#2A2A28"/>
<path id="body_base_3" d="M1010.32 698.55C1013.19 710.51 1016.9 722.85 1019.77 734.16C1025.24 755.727 1032.15 776.997 1040.49 797.97C1043.06 804.44 1047.35 812.14 1052.19 819.23C1055.55 824.14 1061.79 833 1065.29 839.78C1072.64 854.06 1078.5 869.76 1082.87 886.88C1087.75 906.01 1090.84 921.08 1095.66 938.2C1098.07 946.75 1100.12 954.6 1102.79 962.45C1107.49 976.323 1112.71 990.123 1118.45 1003.85C1119.89 1007.28 1121.57 1010.93 1123.49 1014.79C1127.48 1022.78 1130.71 1029.77 1135.3 1036C1136.31 1037.37 1137.68 1038.38 1139.43 1039.05C1154.62 1044.86 1163.85 1048.56 1167.12 1050.16C1179.42 1056.17 1188.19 1060.48 1193.42 1063.07C1197.27 1064.98 1200.32 1067.52 1202.57 1070.7C1210 1081.19 1213.85 1086.62 1214.12 1086.98C1218.57 1092.87 1224.11 1098.8 1230.74 1104.78C1233.98 1107.71 1239.21 1110.42 1242.59 1113.37C1248.83 1118.83 1241.05 1124.16 1235.97 1124.94C1227.01 1126.32 1218.15 1122.2 1211.93 1116.8C1205.53 1111.23 1199.91 1106.44 1195.07 1102.43C1192.08 1099.96 1188.62 1099.91 1187.88 1104.41C1187.43 1107.12 1187.54 1109.9 1188.21 1112.77C1190.54 1122.72 1193.63 1132.22 1197.5 1141.26C1209.21 1168.63 1217.01 1186.83 1220.91 1195.84C1223.06 1200.8 1224.44 1208.44 1220.05 1212.09C1214.01 1217.1 1206.72 1211.97 1204.06 1205.99C1197.74 1191.79 1190.11 1175.65 1181.17 1157.57C1180.16 1155.54 1178.88 1153.8 1177.33 1152.37C1177.24 1152.29 1177.14 1152.23 1177.02 1152.2C1176.91 1152.16 1176.79 1152.15 1176.67 1152.17C1176.55 1152.19 1176.44 1152.24 1176.34 1152.31C1176.25 1152.38 1176.17 1152.47 1176.11 1152.57C1175.74 1153.24 1175.68 1154.07 1175.91 1155.07C1176.44 1157.31 1177.37 1160.07 1178.68 1163.35C1181.65 1170.75 1184.53 1177.62 1187.01 1185.98C1190.46 1197.57 1195.77 1208.72 1198.9 1220.35C1200.41 1225.98 1198.54 1232.71 1192.46 1234.11C1187.19 1235.32 1182.39 1230.33 1180.56 1225.68C1175.61 1213.05 1170.42 1201.05 1166.35 1190.05C1163.43 1182.15 1159.99 1173.3 1156.04 1163.5C1155.81 1162.93 1155.41 1162.47 1154.82 1162.1C1154.64 1161.99 1154.43 1161.93 1154.21 1161.93C1154 1161.93 1153.79 1161.99 1153.6 1162.1C1153.42 1162.22 1153.28 1162.38 1153.18 1162.57C1153.08 1162.76 1153.04 1162.98 1153.06 1163.19C1153.21 1164.78 1153.53 1166.46 1154.02 1168.24C1156.65 1177.75 1160.45 1189.69 1165.42 1204.07C1167.75 1210.81 1169.43 1216.62 1170.44 1221.51C1171.71 1227.56 1165.83 1231.63 1160.3 1229.94C1155.87 1228.59 1153.19 1224.16 1151.49 1219.03C1149.19 1212.1 1145.26 1205.29 1142.81 1197.88C1138.28 1184.17 1135.67 1175.99 1134.98 1173.33C1133.66 1168.28 1132.66 1164.82 1131.97 1162.94C1131.84 1162.58 1131.61 1162.26 1131.3 1162.02C1130.99 1161.78 1130.63 1161.64 1130.24 1161.6L1130.21 1161.59C1130.06 1161.58 1129.91 1161.6 1129.77 1161.65C1129.62 1161.71 1129.5 1161.8 1129.4 1161.91C1129.29 1162.02 1129.22 1162.16 1129.18 1162.3C1129.14 1162.45 1129.13 1162.6 1129.16 1162.75C1129.36 1163.8 1129.71 1165.96 1130.21 1169.25C1130.23 1169.38 1132.17 1179.12 1136.04 1198.49C1136.84 1202.48 1137.09 1207.52 1133.24 1210.18C1129.98 1212.42 1125.1 1210.09 1122.96 1207.28C1120.79 1204.42 1119.8 1200.86 1119.13 1197.14C1117.05 1185.59 1115.17 1176.87 1113.5 1170.99C1113.02 1169.28 1111 1162.5 1107.44 1150.65C1104.13 1139.59 1100.61 1130.6 1097.62 1122.4C1092.41 1108.11 1089.23 1093.31 1088.95 1078.53C1088.84 1072.67 1088.62 1069.26 1086.67 1064.34C1084.76 1059.51 1082.53 1054.99 1079.98 1050.78C1068.54 1031.87 1057.69 1015.62 1045.74 998.73C1036.72 985.99 1029.8 974.18 1020.63 960.55C1015.34 952.69 1010.3 944.663 1005.52 936.47C1000.07 927.11 996.637 921.283 995.23 918.99C983.94 900.57 972.13 881.7 966.01 861.29C962.817 850.643 960.31 839.897 958.49 829.05C958.243 827.543 957.91 826.01 957.49 824.45C954.09 811.84 950.76 800.99 949.51 797.24C948.67 794.693 947.33 790.893 945.49 785.84C939.737 770.053 935.563 757.457 932.97 748.05C929.963 737.17 928.027 730.34 927.16 727.56L931.17 733.5C931.347 733.763 931.457 734.065 931.49 734.38C931.723 736.353 932.323 738.197 933.29 739.91C933.455 740.214 933.567 740.549 933.62 740.9C933.827 742.293 934.227 743.433 934.82 744.32C935.098 744.731 935.307 745.183 935.44 745.66C936.44 749.153 938.127 753.073 940.5 757.42C940.693 757.773 940.854 758.141 940.98 758.52C942.94 764.407 945.057 770.07 947.33 775.51C948.603 778.55 949.78 781.93 950.86 785.65C952.24 790.37 954.477 795.477 957.57 800.97C962.177 809.13 969.15 813.41 978.49 813.81C991.763 814.37 1004.21 811.377 1015.84 804.83C1025.27 799.52 1020.82 777.63 1019.14 769.25C1018.57 766.397 1017.78 761.64 1016.79 754.98C1015.53 746.5 1012.97 733.73 1011.73 722.82C1011.52 720.907 1010.99 716.447 1010.14 709.44C1009.95 707.833 1010.01 704.203 1010.32 698.55Z" fill="#2A2A28"/>
</g>
<path id="subq_glute_r" d="M750.47 1124.26C750.077 1120.86 749.78 1117.48 749.58 1114.13C749.38 1110.9 749.463 1107.52 749.83 1104C749.957 1081.33 749.943 1058.67 749.79 1036C749.75 1028.62 749.96 1024.19 754.59 1018.57C756.083 1016.75 757.993 1014.42 760.32 1011.57C761.933 1009.6 764.62 1007.2 768.38 1004.39C778.24 997.017 789.047 991.66 800.8 988.32C817.99 983.43 835.58 981.82 853.14 983.99C858.63 984.67 863.25 984.66 867.96 986.03C873.94 987.777 878.52 989.22 881.7 990.36C885.193 991.607 891.377 994.24 900.25 998.26C900.551 998.398 900.813 998.615 901.01 998.89C901.23 999.183 901.493 999.447 901.8 999.68C905.673 1002.63 907.903 1004.41 908.49 1005C911.59 1008.1 914.64 1010.82 917.64 1013.15C923.03 1017.33 923.2 1026.65 923.81 1033.17C926.23 1059.31 926.53 1085.45 921.9 1110.91C918.507 1129.58 912.933 1148.43 905.18 1167.48C900.39 1179.25 894.11 1190.67 887.71 1202.72C887.517 1203.08 887.397 1203.28 887.35 1203.32C887.189 1203.46 887.002 1203.56 886.8 1203.62C886.598 1203.68 886.386 1203.7 886.177 1203.67C885.968 1203.65 885.767 1203.58 885.587 1203.47C885.407 1203.37 885.251 1203.22 885.13 1203.05C881.203 1197.57 876.053 1193.24 869.68 1190.07C864.22 1187.36 856.92 1184.9 850.8 1184.41C847.927 1184.18 840.153 1183.47 827.48 1182.28C825.307 1182.07 822.797 1181.67 819.95 1181.08C817.22 1180.51 813.05 1179.78 809.99 1178.93C795.383 1174.89 782.183 1167.74 770.39 1157.49C764.55 1152.42 761.29 1147.1 756.81 1140.2C755.483 1138.17 754.42 1135.37 753.62 1131.82C753.493 1131.27 753.173 1130.55 752.66 1129.67C752.496 1129.39 752.41 1129.07 752.41 1128.75C752.417 1127.02 751.77 1125.52 750.47 1124.26Z" fill="#2A2A28"/>
<path id="back_of_arm_r" d="M1004.21 645.33C1005.7 663.037 1007.73 680.777 1010.32 698.55C1010.01 704.203 1009.95 707.833 1010.14 709.44C1010.99 716.447 1011.52 720.907 1011.73 722.82C1012.97 733.73 1015.53 746.5 1016.79 754.98C1017.78 761.64 1018.57 766.397 1019.14 769.25C1020.82 777.63 1025.27 799.52 1015.84 804.83C1004.21 811.377 991.763 814.37 978.49 813.81C969.15 813.41 962.177 809.13 957.57 800.97C954.477 795.477 952.24 790.37 950.86 785.65C949.78 781.93 948.603 778.55 947.33 775.51C945.057 770.07 942.94 764.407 940.98 758.52C940.854 758.141 940.693 757.773 940.5 757.42C938.127 753.073 936.44 749.153 935.44 745.66C935.307 745.183 935.098 744.731 934.82 744.32C934.227 743.433 933.827 742.293 933.62 740.9C933.567 740.549 933.455 740.214 933.29 739.91C932.323 738.197 931.723 736.353 931.49 734.38C931.457 734.065 931.347 733.763 931.17 733.5L927.16 727.56L920.72 706.8C919.75 700.78 919.15 694.5 918 688.77C917.1 684.257 916.537 679.583 916.31 674.75C916.143 671.123 916.603 666.587 917.69 661.14C919.73 650.92 929.36 644.77 938.3 640.81C947.773 636.61 958.073 633.477 969.2 631.41C974.687 630.39 980.543 630.083 986.77 630.49C991.73 630.81 995.36 633.37 998.41 636.7C998.443 636.74 998.473 636.78 998.5 636.82L1004.21 645.33Z" fill="#2A2A28"/>
<path id="subq_glute_l" d="M738.6 1104.1L738.08 1121.19C737.407 1122.22 737.043 1122.99 736.99 1123.49C736.25 1130.33 734.203 1136.3 730.85 1141.41C725.41 1149.7 717.77 1158.76 709.49 1164.21C695.337 1173.53 679.533 1179.39 662.08 1181.79C650.32 1183.41 638.57 1183.57 626.09 1187.36C616.53 1190.27 608.617 1195.45 602.35 1202.9C602.252 1203.02 602.127 1203.11 601.986 1203.16C601.845 1203.22 601.692 1203.24 601.541 1203.23C601.389 1203.21 601.244 1203.16 601.116 1203.08C600.989 1203 600.884 1202.88 600.81 1202.75C596.99 1195.84 594.117 1190.54 592.19 1186.84C583.883 1170.91 577.03 1153.15 571.63 1133.58C567.097 1117.15 564.55 1101.02 563.99 1085.19C563.27 1064.99 564.213 1044.42 566.82 1023.49C567.307 1019.58 568.597 1016.82 570.69 1015.21C573.523 1013.04 576.22 1010.74 578.78 1008.29C584.32 1003 590.817 998.547 598.27 994.94C603.803 992.26 611.447 989.543 621.2 986.79C622.64 986.383 625.02 985.93 628.34 985.43C629.253 985.29 631.647 984.88 635.52 984.2C643.673 982.767 652.247 982.487 661.24 983.36C678.687 985.053 694.82 989.967 709.64 998.1C720.733 1004.19 729.977 1012.36 737.37 1022.61C738.417 1024.06 738.94 1026.44 738.94 1029.75C738.947 1038.13 738.927 1046.46 738.88 1054.75C738.8 1071.5 738.707 1087.95 738.6 1104.1Z" fill="#2A2A28"/>
<path id="back_of_arm_l" d="M479.82 706.73C480.333 702.863 480.917 698.973 481.57 695.06C482.297 690.693 482.833 686.807 483.18 683.4C483.7 678.26 484.22 673.12 484.74 667.98C485.62 659.32 486.667 650.633 487.88 641.92C488.827 640.993 490.45 639.023 492.75 636.01C497.02 630.4 507.39 629.12 513.79 630.08C526.443 631.98 538.897 635.583 551.15 640.89C559.2 644.37 568.54 650.27 571.38 659.13C573.24 664.963 573.963 671.49 573.55 678.71C573.19 684.977 572.3 691.4 570.88 697.98C570.613 699.2 570.287 700.293 569.9 701.26C569.741 701.659 569.626 702.078 569.56 702.51C569.153 705.397 568.367 708.39 567.2 711.49C567.074 711.829 566.983 712.184 566.93 712.55C566.657 714.47 566.027 716.717 565.04 719.29C564.902 719.639 564.844 720.011 564.87 720.38C564.943 721.64 564.713 722.507 564.18 722.98C563.969 723.159 563.836 723.414 563.81 723.69C563.69 724.837 563.38 725.497 562.88 725.67C562.809 725.696 562.749 725.743 562.706 725.804C562.663 725.865 562.64 725.937 562.64 726.01V727.7C562.64 727.847 562.603 727.991 562.533 728.119C562.463 728.246 562.362 728.354 562.24 728.43C561.22 729.07 560.697 730.373 560.67 732.34C560.663 732.657 560.592 732.97 560.46 733.26C558.02 738.8 555.19 743.59 553.8 749.56C553.727 749.872 553.623 750.174 553.49 750.46C548.383 761.56 545.35 768.607 544.39 771.6C541.83 779.567 539.73 785.83 538.09 790.39C535.437 797.77 531.037 803.82 524.89 808.54C521.217 811.36 517.597 812.99 514.03 813.43C508.16 814.15 504.22 813.79 497.93 813.25C490.01 812.563 482.54 810.403 475.52 806.77C472.18 805.04 467.84 801.83 467.21 797.81C466.083 790.577 466.423 782.633 468.23 773.98C470.597 762.58 472.873 752.053 475.06 742.4C475.79 739.2 476.04 736.41 477.21 733.37C477.349 733.012 477.43 732.631 477.45 732.24C477.503 731.007 478.04 726.8 479.06 719.62C479.54 716.213 479.793 711.917 479.82 706.73Z" fill="#2A2A28"/>
<path id="love_handle_r" d="M920.13 995.37C920.123 995.49 920.6 998.197 921.56 1003.49C921.913 1005.41 921.93 1007.15 921.61 1008.7C921.547 1009.01 921.416 1009.3 921.228 1009.55C921.041 1009.8 920.8 1010.01 920.523 1010.15C920.246 1010.3 919.941 1010.39 919.627 1010.4C919.314 1010.42 919.001 1010.37 918.71 1010.25C917.27 1009.67 915.59 1008.32 914.45 1007.14C908.377 1000.88 901.263 995.977 893.11 992.43C887.58 990.03 880.69 986.46 873.7 984.53C862.6 981.463 851.253 979.43 839.66 978.43C835.853 978.103 833.313 976.197 832.04 972.71C828.35 962.62 826.25 951.77 825.28 941.92C824.207 930.967 824.553 920.28 826.32 909.86C828.227 898.6 831.797 887.01 837.03 875.09C842.05 863.67 848.39 853.323 856.05 844.05C856.383 843.65 858.987 840.59 863.86 834.87C867.4 830.72 870.47 834.39 871.24 838.03C872.807 845.483 874.613 853.85 876.66 863.13C876.707 863.336 876.777 863.537 876.87 863.73C877.397 864.823 877.73 865.837 877.87 866.77C878.103 868.323 879.31 874.07 881.49 884.01C883.56 893.47 887.08 901.13 891.51 908.56C893.303 911.567 894.637 914.437 895.51 917.17C895.863 918.297 896.82 920.197 898.38 922.87C899.06 924.03 899.93 925.957 900.99 928.65C903.843 935.883 906.737 943.75 909.67 952.25C910.33 954.17 910.9 957.1 911.69 959.56C912.397 961.753 913.49 966.167 914.97 972.8C915.85 976.767 916.817 980.577 917.87 984.23C918.35 985.917 918.65 987.36 918.77 988.56C919.02 991.11 919.01 993.52 919.88 994.61C920.048 994.823 920.137 995.092 920.13 995.37Z" fill="#2A2A28"/>
<path id="love_handle_l" d="M587.55 930.31L595.08 912.99C595.093 912.963 595.11 912.94 595.13 912.92C595.803 912.14 596.29 911.07 596.59 909.71C596.676 909.34 596.832 908.987 597.05 908.67C597.75 907.63 598.333 906.453 598.8 905.14C598.9 904.867 599.024 904.609 599.17 904.37C601.283 900.877 602.707 897.827 603.44 895.22C605.12 889.22 606.33 885.18 607.49 879.72C609.93 868.26 613.04 856.84 615.18 845.18C615.433 843.833 616.307 841.07 617.8 836.89C618.7 834.37 620.73 832.87 622.93 835.16C626.22 838.57 629.34 841.79 632.02 845.72C639.05 856 646.18 865.73 650.69 877.49C653.77 885.503 655.7 890.85 656.48 893.53C657.413 896.737 658.457 901.55 659.61 907.97C662.78 925.68 661.64 944.39 658 962.06C656.93 967.23 654.62 973.36 651.48 976.71C648.63 979.74 640.53 979.65 636.88 979.92C635.393 980.033 632.733 980.593 628.9 981.6C622.113 983.387 618.287 984.393 617.42 984.62C610.307 986.493 605.167 988.467 602 990.54C601.595 990.799 601.158 991.011 600.7 991.17C595.613 992.903 591.773 994.74 589.18 996.68C583.513 1000.91 579.04 1004.1 575.76 1006.24C573.587 1007.66 571.763 1008.65 570.29 1009.2C570 1009.31 569.685 1009.34 569.381 1009.28C569.076 1009.22 568.794 1009.08 568.563 1008.87C568.333 1008.67 568.164 1008.4 568.076 1008.1C567.987 1007.81 567.981 1007.49 568.06 1007.19C568.22 1006.58 568.22 1005.79 568.06 1004.8C567.6 1002 567.457 999.903 567.63 998.51C568.143 994.263 568.413 992.017 568.44 991.77C568.466 991.455 568.566 991.15 568.73 990.88C569.283 989.98 569.63 988.873 569.77 987.56C570.15 984.18 570.593 981.543 571.1 979.65C571.82 976.93 572.397 974.483 572.83 972.31C573.23 970.323 573.95 967.82 574.99 964.8C575.857 962.287 577.013 958.27 578.46 952.75C578.506 952.566 578.603 952.397 578.74 952.26C578.787 952.207 578.833 952.163 578.88 952.13C578.958 952.065 579.014 951.978 579.04 951.88C580.133 947.733 581.67 943.59 583.65 939.45C583.703 939.337 583.747 939.22 583.78 939.1C584.433 936.607 585.38 933.967 586.62 931.18C586.68 931.053 586.783 930.94 586.93 930.84C587.023 930.773 587.11 930.72 587.19 930.68C587.352 930.603 587.479 930.471 587.55 930.31Z" fill="#2A2A28"/>
</g>
</svg>
